<svg width="48" height="48" xmlns="http://www.w3.org/2000/svg">

 <g>
  <title>background</title>
  <rect fill="none" id="canvas_background" height="402" width="582" y="-1" x="-1"/>
 </g>
 <g>
  <title>Layer 1</title>
  <path id="svg_1" fill-rule="evenodd" d="m43,46l-38,0c-2.209,0 -4,-1.791 -4,-4l4,-24c0.678,-3.442 2.668,-4 4.877,-4l2.652,0c1.508,-6.948 6.073,-12 11.471,-12s9.963,5.052 11.471,12l2.652,0c2.209,0 4.199,0.558 4.877,4l4,24c0,2.209 -1.791,4 -4,4zm-19,-42c-4.352,0 -8.045,4.178 -9.418,10l18.837,0c-1.374,-5.822 -5.066,-10 -9.419,-10zm17,14c-0.308,-1.351 -0.957,-2 -2.37,-2l-2.828,0c0.123,0.976 0.198,1.975 0.198,3c0,0.552 -0.447,1 -1,1s-1,-0.448 -1,-1c0,-1.027 -0.069,-2.031 -0.201,-3l-19.598,0c-0.131,0.969 -0.201,1.973 -0.201,3c0,0.552 -0.447,1 -1,1s-1,-0.448 -1,-1c0,-1.025 0.075,-2.024 0.197,-3l-2.828,0c-1.412,0 -2.06,0.649 -2.369,2l-4,24c0,1.104 0.896,2 2,2l38,0c1.104,0 2,-0.896 2,-2l-4,-24z" clip-rule="evenodd"/>
  <path d="m16.524117,24.312298c-0.385853,0.482315 -1.588408,1.491846 -2.604501,2.604502c-1.103913,1.208822 -1.41937,1.563826 -1.639872,1.832796c-0.086489,0.105499 -0.101966,0.093121 0.192926,-0.385851c1.136498,-1.845928 1.993903,-3.398062 2.797427,-4.533762c0.557143,-0.787464 0.759918,-0.867443 0.771704,-0.771704c0.048595,0.394749 0.154707,1.554636 -0.096463,2.700964c-0.235402,1.074362 -0.787258,2.391922 -1.157556,2.700964c-0.331205,0.276417 -1.070666,0.372009 -1.350482,-0.096462c-0.51643,-0.864614 -0.72345,-2.988094 -0.771705,-4.533762c-0.01505,-0.48208 0,-0.96463 0,-0.771704c0,1.543409 -0.177876,3.486404 -0.482315,5.498392c-0.3538,2.338203 -0.527581,3.598499 -0.675241,3.954983c-0.156616,0.378105 -0.474825,0.33263 -0.675241,-0.192924c-0.734773,-1.926798 -0.470297,-3.859161 -0.578777,-5.787783c-0.086845,-1.543978 -0.28939,-2.700964 -0.385852,-2.700964c-0.096463,0 -0.730645,1.240299 -1.25402,3.47267c-0.539791,2.302389 -1.060881,5.392324 -1.157556,6.848871c-0.04472,0.673759 -0.169065,1.172279 -0.192926,0.868168c-0.045897,-0.584965 0.192926,-2.315113 0.385852,-4.726686c0.192926,-2.411575 0.509465,-5.218967 0.385851,-5.980707c-0.048862,-0.301104 -0.435385,0.086792 -0.675241,1.446945c-0.608869,3.452728 -0.868167,5.401928 -0.868167,6.945335c0,1.639874 0,1.92926 0,1.92926c0,-0.192924 0.243754,-1.246307 0.482315,-2.990353c0.36814,-2.69136 0.289389,-4.147909 0.289389,-5.016075c0,-0.482315 -0.435959,1.069458 -0.771704,2.797426c-0.339255,1.746037 -0.578198,3.939116 -0.675241,4.823149c-0.042103,0.383549 0,0.578781 0,0.482315c0,-0.385849 0.075818,-1.642365 0.482315,-4.919611c0.275413,-2.220427 0.482315,-3.762058 0.482315,-4.823151c0,-0.289389 -0.126223,-0.205126 -0.192926,0c-0.181452,0.557999 -0.478021,2.207478 -0.771704,5.016077c-0.140806,1.346581 -0.289389,2.315113 -0.289389,2.89389c0,0.096462 0.008066,0.002563 0.096463,-0.289391c0.318717,-1.052654 0.472757,-2.798317 0.675241,-4.919613c0.092117,-0.965055 0.28915,-1.533796 0.096463,-1.543407c-0.968238,-0.048292 -0.131684,2.802477 -0.289389,4.340836c-0.139121,1.35708 -0.289389,2.508038 -0.289389,2.797424c0,0.192928 -0.079545,-0.209984 0.289389,-1.736332c0.874822,-3.619297 1.799928,-6.547077 2.315113,-9.356911c0.440446,-2.402205 0.768812,-3.329062 0.385852,-3.376205c-1.184242,-0.145786 -0.762994,3.847914 -0.96463,5.884243c-0.171358,1.730549 -0.578778,3.858521 -0.096463,3.858521c0.482315,0 -0.033838,-1.837082 0.385852,-5.016077c0.267826,-2.028687 0.482315,-3.762056 0.482315,-4.823151c0,-0.289389 -0.038143,-0.404552 -0.192925,-0.289389c-0.807992,0.601171 -0.702977,2.694956 -1.254019,5.305466c-0.304763,1.443785 -0.385852,2.411575 -0.385852,2.797426c0,0.192926 0,0.096464 0,-0.096462c0,-1.446945 0.125654,-2.992029 0.192926,-4.340836c0.048291,-0.968237 -0.081778,-1.180189 0.096463,-1.254019c0.126036,-0.052206 0.070351,0.283785 0,0.675241c-0.309017,1.719473 -0.340875,2.806746 -0.482315,3.376205c-0.073531,0.296047 -0.099764,0.192253 0,-0.289389c0.280133,-1.352434 0.578496,-2.979294 0.675241,-4.244373c0.044132,-0.577093 0.096462,-0.868166 0,-0.868166c-0.096462,0 -0.242586,1.261034 -0.482315,2.700964c-0.161555,0.970377 -0.482315,1.832796 -0.289389,1.832796c0.096462,0 -0.029123,-0.391464 0.096463,-0.96463c0.470803,-2.14872 0.96463,-3.472668 1.061093,-4.244371c0.096463,-0.771704 0.096463,-1.061092 0.096463,-1.157557c0,-0.096462 0.148685,-0.028681 0.289389,0.289389c0.160902,0.363728 0.259606,0.875093 0.385853,1.350483c0.078295,0.294823 0.192925,0.385851 0.096462,0.385851c-0.096462,0 -0.429107,-0.077715 -0.578778,-0.482315c-0.13799,-0.373022 -0.233469,-0.883299 0,-1.446943c0.082544,-0.19928 0.103805,-0.229841 0.192926,-0.192926c0.126035,0.052204 0.270185,0.585005 0.192926,1.061092c-0.097725,0.602207 -0.26951,1.358917 -0.482315,1.832798c-0.088362,0.196768 -0.084661,0.283022 -0.192926,0.096462c-0.174571,-0.300817 -0.192926,-0.868168 -0.192926,-1.350483c0,0 -0.096463,0 -0.096463,0c-0.096463,0.578779 -0.192926,0.868168 -0.289389,1.157557c0,0 0,-0.482315 0,-0.868166c0,-0.385853 0.096463,-0.675241 0.096463,-0.482315c0,0.192924 -0.096464,0.289389 0,0.289389c0.096464,0 -0.023019,-0.390163 0.096463,-0.96463c0.080989,-0.389395 0.192926,-0.675241 0.192926,-0.675241c0,-0.192926 0.024743,-0.269806 0.096463,-0.385851c0.160372,-0.259485 0.395827,-0.376818 0.482315,-0.482315c0.220504,-0.26897 0.356281,-0.430111 0.482315,-0.482315c0.178241,-0.07383 0.378695,-0.144459 0.868168,-0.192926c0.28798,-0.028515 0.583939,-0.044325 0.771704,0c0.209927,0.049557 0.385852,0.192926 0.578777,0.289389c0.192926,0.096462 0.259732,0.210869 0.385853,0.385853c0.079765,0.110668 0.209622,0.178719 0.289389,0.289389c0.126121,0.174984 0.059548,0.20027 0.096463,0.289389c0.10441,0.252069 0.242238,0.310822 0.096463,0.578777c-0.295173,0.54257 -0.868168,0.675241 -1.25402,0.771704c-0.385852,0.096464 -0.611948,0.204624 -0.771704,0.096464c-0.430155,-0.291229 -0.385852,-0.868168 -0.385852,-1.157557c0,-0.289389 -0.101428,-0.511129 0,-0.675241c0.1134,-0.183483 0.388433,-0.118626 0.482315,-0.096462c0.209928,0.049557 0.267226,0.195507 0.289389,0.289389c0.049558,0.209929 0.10825,0.386576 0.096463,0.482315c-0.048595,0.394749 -0.163354,0.630983 -0.289389,0.578777c-0.089119,-0.036915 0.092138,-0.149435 0.192925,-0.482313c0.027954,-0.092325 0.066891,-0.052206 0.192926,0c0.08912,0.036915 0.143369,0.272387 0.192925,0.482313c0.022163,0.093884 -0.096462,0.192926 0,0.192926c0.192926,0 0,-0.482315 0,-0.868166c0,-0.385853 0,-0.482315 0.096463,-0.675241c0,0 0.028254,-0.124716 0.096463,-0.192926c0.068209,-0.068209 0.096463,-0.096462 0.192925,-0.096462c0,0 0.096463,0 0.28939,0c0.096463,0 0.221179,-0.068211 0.289389,0c0.068209,0.068209 0.096463,0.096462 0.096463,0.192926c0,0.385851 -0.144071,1.137398 -0.289389,2.700964c-0.089268,0.960491 0,2.218649 0,3.56913c0,0.289389 -0.096276,0.47632 0,0.482315c0.776206,0.048325 0.241116,-1.636864 0.289389,-2.797426c0.03608,-0.867418 0,-1.157557 0,-1.254019c0,-0.096464 0.022066,0.000843 0,0.289389c-0.096745,1.265079 -0.169311,2.2216 -0.289389,3.086815c-0.08066,0.581192 -0.192926,0.771706 -0.192926,0.868168c0,0.096462 -0.110742,0.001886 -0.192926,-0.675241c-0.116807,-0.962378 -0.337256,-2.306215 -0.385852,-2.700964c-0.023572,-0.191481 -0.187456,-0.261492 -0.385852,0.096464c-0.623885,1.125645 -0.791876,3.17981 -0.96463,4.244371c-0.10926,0.673288 -0.192684,0.957792 -0.096462,0.96463c0.680381,0.048353 0.67524,-2.990353 1.543407,-6.463022c0.482315,-1.929258 0.85575,-2.906492 0.578778,-2.990353c-0.332879,-0.100788 -0.84179,1.312384 -1.446945,4.340836c-0.40097,2.006618 -0.385852,3.665594 -0.385852,5.112539c0,1.254019 -0.096462,1.543407 0,1.543407c0.385851,0 0.311063,-1.053308 0.578778,-1.832796c0.525249,-1.529331 0.60221,-2.309999 0.675241,-2.700964c0.142803,-0.764488 0.124718,-1.089348 0.192926,-1.157557c0.068209,-0.068209 0.26058,0.179102 0.385852,0.96463c0.213223,1.337027 0.200738,1.939583 0.289389,2.315111c0.049558,0.209929 0.107213,-0.972906 0.28939,-2.411575c0.197269,-1.557863 0.289389,-2.893888 0.289389,-3.183279c0,-0.096462 0,-0.192924 0,-0.385851l0,0.096462" id="svg_2" stroke-width="1.5" stroke="#000" fill="none"/>
  <path d="m23.758842,21.900723c-0.289391,0.578779 -0.596254,1.113123 -1.254021,2.025724c-0.52001,0.721474 -1.20277,1.884865 -1.350481,2.6045c-0.077581,0.377974 -0.021484,0.748169 0.192926,0.771706c0.395351,0.043398 1.058722,-0.395317 2.122185,-1.639872c0.852341,-0.997478 2.274273,-1.970572 1.736334,-2.411575c-0.527494,-0.432442 -0.954144,1.263453 -1.736334,2.122187c-1.332811,1.463238 -2.240799,2.430458 -3.086815,2.893888c-0.722837,0.395954 -1.284571,0.441582 -1.543409,0.096464c-0.647093,-0.862791 -0.298431,-2.823021 0.289391,-5.016077c0.65554,-2.445705 1.153231,-3.236252 1.254019,-3.56913c0.027954,-0.092325 0.042673,0.29804 -0.192926,1.350481c-0.327135,1.46134 -1.078043,3.368662 -1.543407,4.437298c-0.500679,1.149733 -1.313326,2.372787 -1.736334,2.604502c-0.722837,0.395954 -1.950198,0.226471 -2.893891,-0.385853c-0.987765,-0.640921 -2.406596,-2.38591 -2.797427,-3.954983c-0.37954,-1.523746 -0.418226,-2.503784 0.096463,-3.086815c0.319198,-0.36158 0.96979,-0.613619 1.736334,-0.482315c0.425203,0.072834 0.867226,0.462082 0.96463,1.157555c0.066897,0.477654 -0.022353,1.150579 -0.192925,1.736336c-0.111199,0.381865 -0.20027,0.541862 -0.28939,0.578777c-0.126034,0.052204 -0.192925,-0.868168 -0.192925,-2.604502c0,-0.868166 0.385852,-1.543407 0.096463,-1.543407c-0.385853,0 -0.096463,1.061092 -0.096463,1.350483c0,0.096462 -0.103806,0.229839 -0.192926,0.192924c-0.252069,-0.10441 -0.724616,-0.712915 -0.96463,-0.96463c-0.388153,-0.407076 -0.626378,-0.759989 -0.675241,-1.061092c-0.015451,-0.095217 -0.046906,-0.272387 -0.096463,-0.482315c-0.044326,-0.187765 0.052974,-0.477991 0.385852,-0.578777c0.184649,-0.055906 0.400537,-0.170294 0.578778,-0.096464c0.126036,0.052206 0.029658,0.078522 -0.096463,-0.096462c-0.079766,-0.110668 -0.284424,-0.221741 -0.385852,-0.385853c-0.1134,-0.183483 -0.237184,-0.259817 -0.289389,-0.385851c-0.036915,-0.089121 0,-0.192926 0,-0.289389c0,-0.096464 0,-0.192926 0,-0.289391c0,-0.096462 -0.029572,-0.237183 0.096462,-0.289389c0.08912,-0.036915 0.192926,-0.096462 0.385853,-0.096462c0.192925,0 0.289389,0 0.482315,0c0.385852,0 0.784606,-0.110813 1.254019,0c0.629783,0.148672 0.970997,0.37405 1.157556,0.482315c0.300817,0.174572 0.385852,0.289389 0.385852,0.289389c0,0 -0.209997,0.063166 -0.675241,-0.096462c-0.408046,-0.140003 -0.907916,-0.189894 -1.254019,-0.385853c-0.118711,-0.067213 -0.192926,-0.192926 -0.28939,-0.192926c-0.096463,0 -0.0743,0.002581 -0.096463,0.096464c-0.099114,0.419855 -0.35571,0.962513 -0.289389,2.122185c0.056168,0.982128 0.362837,1.750015 0.771704,2.411575c0.182851,0.295858 0.20027,0.422768 0.28939,0.385853c0.126036,-0.052206 0.408694,-0.451656 0.675241,-1.736334c0.177457,-0.855295 0.369303,-1.559959 0.096463,-1.832798c-0.06821,-0.068211 -0.132675,0.011391 -0.289389,0.675241c-0.210253,0.890648 -0.482315,1.736334 -0.482315,2.990353c0,0.482315 -0.096462,0.771704 0,0.771704c0.675241,0 0.125018,-1.732561 0.289389,-3.086815c0.116807,-0.962379 0.28939,-1.639872 0.096463,-1.639872c-0.192926,0 0.048182,0.575497 0.096463,1.639872c0.069939,1.541822 -0.236162,3.56275 -0.385852,4.726686c-0.135906,1.056765 -0.163354,1.394739 -0.28939,1.446945c-0.08912,0.036915 -0.050671,-0.104609 -0.192925,-0.771704c-0.292922,-1.373638 -0.442359,-1.792841 -0.578778,-1.92926c-0.06821,-0.068211 -0.144331,0.184031 -0.192926,0.578777c-0.235724,1.914804 0,3.472668 0,3.762058c0,0.096462 0,0.192924 0,0.096462c0,-0.289389 0.337603,-1.541399 0.385852,-3.279741c0.042823,-1.542814 0.025681,-1.928833 0,-1.157557c-0.048258,1.449354 -0.225186,4.534828 -0.289389,6.46302c-0.048259,1.449354 -0.096463,2.508039 -0.096463,2.700964c0,0.096464 0.023975,-0.000746 0,-0.385851c-0.096649,-1.552414 -0.118441,-3.187773 -0.289389,-5.401928c-0.067241,-0.870918 -0.116831,-1.243835 -0.289389,-1.157557c-0.431396,0.215696 -0.921477,1.591688 -1.350483,4.437298c-0.230534,1.529139 -0.289389,2.604502 -0.289389,3.183281c0,0.192924 -0.031825,-0.001316 0,-0.385853c0.145189,-1.754288 0.731086,-3.863554 1.157557,-7.138264c0.176173,-1.352768 0.474573,-2.248623 0.192925,-2.315111c-0.209929,-0.049557 -0.276175,0.569885 -0.482315,2.89389c-0.162159,1.828156 -0.096463,3.376204 -0.096463,4.340834c0,0.096464 0.15953,-0.075607 0.482315,-1.157555c0.48162,-1.614344 0.81973,-3.557541 0.96463,-6.270096c0.041164,-0.770605 0,-1.061092 0,-1.157557c0,-0.096462 -0.046906,-0.017002 -0.096462,0.192926c-0.221624,0.938826 -0.102395,2.121408 -0.28939,3.569132c-0.099625,0.771301 -0.288902,1.143879 -0.096463,1.157555c0.680379,0.048353 0.385461,-3.073776 0.482315,-4.147909c0.034652,-0.384293 0.022162,-0.672659 0,-0.578777c-0.148671,0.629782 -1.226115,3.646536 -2.025723,6.655947c-0.73899,2.781267 -1.49515,5.881838 -1.543408,7.33119c-0.01926,0.578457 0,0.868164 0,0.578777c0,-0.482315 0.320415,-2.1161 1.157557,-6.463022c0.500904,-2.600988 0.482314,-4.437298 0.482314,-5.401928c0,-0.192926 -0.036254,-0.20665 -0.385852,0.771704c-0.646748,1.809931 -1.226806,4.118958 -1.736334,7.524117c-0.286928,1.91753 -0.192925,3.086815 -0.192925,3.472668c0,0.096462 -0.028784,-0.097324 0,-0.578781c0.144953,-2.424545 0.482315,-4.340834 0.482315,-5.980705c0,-0.868166 -0.046906,-1.078094 -0.096463,-0.868166c-0.088651,0.375528 -0.242049,1.922848 -0.482315,3.954985c-0.364029,3.078903 -0.28939,4.437298 -0.28939,5.016075c0,0.289387 0.007403,0.192783 0,0c-0.048267,-1.256798 -0.096463,-4.53376 -0.096463,-6.752411c0,-1.446945 -0.194172,-2.492586 -0.289389,-2.508038c-1.204414,-0.19545 -0.751318,3.078569 -0.96463,5.401928c-0.300377,3.271652 -0.289389,4.630222 -0.289389,5.209003c0,0.192924 0.077189,-0.096706 0.096463,-0.868168c0.048246,-1.931068 0.385852,-4.147911 0.385852,-6.077169c0,-1.543409 -0.192926,-2.604502 -0.289389,-2.89389c0,0 -0.106442,0.285515 -0.289389,0.771704c-0.612446,1.627598 -1.25387,4.429287 -1.350482,6.173634c-0.069347,1.252098 0,1.92926 0,1.92926c0,-0.192928 -0.022457,-1.16106 0.289389,-3.086819c0.359978,-2.222992 0.603014,-3.897648 0.289389,-5.016075c-0.058239,-0.207687 -0.206845,-0.19928 -0.289389,0c-0.350204,0.845469 -0.818658,1.892012 -1.061093,4.244373c-0.148337,1.439323 -0.482315,3.086815 0,3.086815c0.096462,0 0.50684,-1.701485 0.868167,-3.183281c0.439573,-1.802681 0.385852,-3.762054 0.385852,-4.437296c0,-0.192926 0.011887,-0.288027 -0.192926,1.446945c-0.091175,0.772346 -0.578591,3.849512 -0.675241,5.401926c-0.071928,1.155323 0,2.025726 0,2.315113c0,0 0.109626,-0.077553 0.289389,-1.446945c0.251418,-1.915237 0.162952,-2.61224 0.096463,-2.89389c-0.049557,-0.209927 -0.22568,-0.006741 -0.289389,0.385853c-0.201465,1.241486 -0.385852,2.78146 -0.385852,3.954983c0,1.173527 0.192926,1.543407 0.192926,1.736336c0,0.096462 0.096463,0.096462 0.096463,-0.192928c0,-0.96463 0.029784,-1.936188 -0.096463,-2.411575c-0.078295,-0.294823 -0.089625,-0.385605 -0.096463,-0.289387c-0.048353,0.680378 -0.077795,1.638336 0,2.700962c0.126973,1.734371 0.192926,2.315113 0.192926,2.700966c0,0.096462 0.096463,0 0.096463,-0.578777c0,-0.868168 -0.047867,-1.438049 -0.096463,-1.832798c-0.035359,-0.287224 -0.103806,-0.326305 -0.192926,-0.289391c-0.126037,0.052208 -0.240793,0.376957 -0.289389,0.771706c-0.035358,0.28722 0,0.385853 0,0.289387c0,-0.096462 0.077258,-0.295616 0,-0.771702c-0.048862,-0.301105 -0.184978,-0.616096 -0.289389,-0.868168c-0.073828,-0.178238 0,-0.192924 0,-0.192924c0,0 -0.191154,0.165142 -0.289389,0.67524c-0.109451,0.568333 -0.096463,1.254021 -0.096463,1.350483c0,0.096462 0.029249,0.022251 0.096463,-0.096462c0.195961,-0.346104 0.192926,-0.675243 0.192926,-1.157558c0,-0.385849 0.089119,-0.831249 0,-0.868164c-0.126034,-0.052204 -0.105669,0.094276 -0.192926,0.482315c-0.10791,0.479885 -0.096463,0.868164 -0.096463,1.254017c0,0.385853 0,0.578777 0,0.67524c0,0 0.033395,0.260979 0.192926,0.482315c0.378364,0.524952 0.465973,0.711658 0.578778,0.868168c0.178362,0.247463 0.307332,0.222584 0.482315,0.096462c0.110668,-0.079765 0.124717,-0.317638 0.192926,-0.385849c0.06821,-0.068211 0.096463,-0.192928 0.096463,-0.385853c0,-0.192928 -0.342361,-0.574455 -0.675241,-0.675243c-0.184648,-0.055908 -0.347658,-0.311237 -0.482315,-0.289387c-0.212911,0.03455 -0.096463,0.289387 -0.096463,0.67524c0,0.385853 0.046906,0.561775 0.096463,0.771706c0.044324,0.187763 0.125276,0.284428 0.289389,0.385853c0.183483,0.1134 0.175924,0.336292 0.385852,0.385849c0.093882,0.022163 0.482315,0.096466 0.771704,0.096466c0.192926,0 0.482315,0 0.578778,0c0.192926,0 0.192926,-0.096466 0.289389,-0.096466c0,0 0.017002,-0.143368 -0.192926,-0.192924c-0.093882,-0.022163 0.096463,0 0.289389,0c0.868167,0 1.92926,0.096462 2.89389,0.096462c0.96463,0 1.543408,0 2.025723,0c0.771704,0 1.247043,-0.118813 1.832797,-0.289387c0.381866,-0.111202 0.859272,-0.240795 1.254019,-0.289391c0.382961,-0.047146 0.578778,-0.096462 0.675241,-0.096462c0.096463,0 -0.007742,0.06649 -0.289389,0c-0.419856,-0.099117 -2.426963,-0.729828 -4.051446,-1.350483c-1.656653,-0.632946 -4.098659,-1.94104 -5.016076,-2.508038c-0.410282,-0.253571 -0.519231,-0.282047 -0.482315,-0.192924c0.208822,0.504139 0.710716,1.019028 1.061093,1.350479c0.252663,0.239017 0.301377,0.096092 0.289389,-0.096462c-0.048325,-0.776203 -0.014008,-3.40097 -0.289389,-4.919613c-0.147054,-0.810955 -0.385852,-1.157555 -0.385852,-1.157555c-0.385852,1.446945 -0.626979,2.698383 -0.675241,4.051445c-0.034385,0.964016 0,1.63987 0,1.736336c0,0 -0.020514,-0.000729 0,-0.289391c0.048353,-0.680378 0.289389,-1.92926 0.289389,-2.315113c0,-0.096462 0.029249,-0.215172 0.096463,-0.096462c0.195961,0.346104 0.241084,1.057087 0.289389,1.92926c0.053344,0.963154 0.206885,1.644928 0.289389,2.315113c0.048595,0.394745 0.143369,0.561775 0.192926,0.771702c0.022162,0.093884 0.096463,0.192928 0.096463,0.289391c0,0.096462 0.096463,0 0.192926,-0.192928c0.38585,-0.771702 0.385852,-1.254017 0.385852,-1.543407c0,-0.096462 0.007957,-0.096134 0,0c-0.048397,0.584763 -0.063909,0.898071 0.096463,1.157558c0.215159,0.348133 0.582764,0.304123 0.96463,0.192924c0.292878,-0.085285 0.515709,-0.260979 0.675241,-0.482315c0.126121,-0.17498 0.207206,-0.504345 0.096463,-0.771702c-0.104411,-0.252071 -0.281648,-0.355877 0,-0.289391c0.209928,0.049557 1.157557,0.482315 1.832797,0.67524c0.675241,0.192928 1.254019,0.385853 1.254019,0.289391c0,-0.096462 -0.456637,-0.177391 -1.254019,-0.385853c-1.227517,-0.320915 -1.836783,-0.371117 -2.218649,-0.482315c-0.292878,-0.085285 -0.504975,0.278645 0.096463,0.771706c0.471805,0.386787 1.061092,0.385849 1.350482,0.385849c0.192925,0 0.13908,-0.050091 -0.192926,-0.289387c-0.349967,-0.252243 -0.838511,-0.753761 -0.96463,-0.578777c-0.079765,0.110668 0.447582,0.550728 1.157557,0.868164c0.556951,0.24902 1.061092,0.385853 1.254019,0.385853c0.096463,0 -0.28939,0 -0.771704,0c-0.482315,0 -1.049378,-0.0476 -1.350482,-0.096462c-0.095218,-0.015453 -0.001428,0.004395 0.289389,0.096462c0.960136,0.303967 1.61209,0.480541 2.122186,0.578777c0.189445,0.036484 -0.192925,0 -0.868167,0c-0.771704,0 -1.92926,-0.096462 -2.025723,-0.096462c-0.096463,0 -0.096463,-0.096462 0,-0.096462c0.578777,0 2.315111,0 3.472668,0c0.578778,0 0.89642,0.068211 0.96463,0c0.068209,-0.068211 -0.578778,-0.96463 -1.639872,-2.025723c-1.061092,-1.061092 -2.772531,-2.820751 -3.85852,-3.954983c-0.566069,-0.591213 -0.865129,-1.05476 -1.061093,-0.96463c-0.361341,0.166195 -0.28852,1.363285 -0.096463,2.797428c0.145986,1.090115 0.482315,1.736332 0.675241,2.218647c0,0 0.05277,-0.010838 0.192926,-0.482315c0.296042,-0.995869 0.915997,-2.202465 1.061093,-4.147907c0.035872,-0.48098 -0.089119,-0.734791 0,-0.771706c0.126035,-0.052204 0.337546,1.057087 0.385852,1.92926c0.032006,0.577892 -0.096465,1.350483 0.096463,1.350483c0.192928,0 0.046354,-0.293129 0,-0.578777c-0.097725,-0.602211 -0.254732,-0.766724 -0.192925,-0.385853c0.146587,0.903313 1.061093,2.508038 1.254019,3.086815c0.096463,0.289391 0.192926,0.385853 0.096463,0.096462c-0.289389,-0.868164 -0.277685,-1.435238 -0.482315,-1.63987c-0.06821,-0.068211 -0.125448,-0.008099 -0.192926,0.289391c-0.172035,0.758442 -0.192925,1.061092 -0.192925,1.254017c0,0 0,0 0,-0.289387c0,-0.771706 0.048189,-1.92625 0.096462,-3.086819c0.036079,-0.867416 -0.048138,-0.872669 -0.096462,-0.096462c-0.077921,1.251598 0.14433,1.920364 0.192925,2.315113c0.023572,0.191479 0.049492,-0.29599 0.28939,-1.832798c0.242193,-1.551514 0.722662,-3.160309 0.868167,-4.53376c0.030488,-0.287781 0.005335,-0.385704 0,-0.289391c-0.048306,0.872173 -0.28939,2.6045 -0.28939,5.209003c0,1.446945 -0.151002,2.329674 0.096463,2.508038c0.15651,0.112804 0.426714,-0.250496 0.96463,-2.411575c0.520998,-2.093109 1.012639,-4.811134 1.157556,-7.42765c0.037341,-0.674208 -0.209043,-0.871277 -0.96463,0.096462c-1.038455,1.330029 -1.225698,3.285625 -1.639871,5.209003c-0.270922,1.258137 -0.530519,2.602093 -0.578778,4.051445c-0.00963,0.28923 -0.021864,0.543472 -0.096462,0.482315c-0.380382,-0.311836 -0.096463,-1.446945 -0.096463,-3.279743c0,-0.771702 0.096462,-1.157555 0,-1.157555c-0.096462,0 0,0.289387 0,0.67524c0,0.192928 0,0.385853 0,0.385853c0.385852,-0.578777 1.310206,-3.16695 1.929259,-5.401928c0.424667,-1.533182 0.6679,-2.760513 0.578778,-2.797428c-0.126036,-0.052206 -0.441626,1.354986 -0.675241,3.279743c-0.246556,2.03138 -0.482315,4.726688 -0.482315,5.980705c0,0.482315 0,0.771706 0,0.675243c0,-0.192928 0.096354,-1.632999 0.192925,-3.665596c0.096136,-2.023441 0.192926,-3.665594 0.192926,-3.954983c0,-0.192926 -0.035145,-0.005714 -0.096463,0.482315c-0.228801,1.821018 -0.395464,4.250877 -0.289389,5.112537c0.048595,0.394749 0.260374,0.691586 0.482315,0.482315c0.755899,-0.712749 0.851233,-3.074493 1.350482,-6.559483c0.344437,-2.404331 1.124424,-4.41445 0.578778,-4.630224c-0.323431,-0.127901 -1.205062,3.058741 -1.446945,6.173632c-0.209111,2.69286 -0.243656,5.14859 0.289389,7.909966c0.133105,0.689533 0.312248,1.21991 0.385852,1.157558c0.44771,-0.379269 0.542089,-1.91679 1.157557,-5.016079c0.534416,-2.691139 1.30024,-4.872875 1.543407,-6.752409c0.049507,-0.382662 0.096463,-0.578777 0.096463,-0.482315c0,0.192926 -0.144395,1.731941 -0.385852,4.630224c-0.120396,1.445152 -0.578779,2.700966 -0.192926,2.700966c1.543411,0 0.31194,-3.740425 0.675241,-6.077171c0.432055,-2.778969 0.482315,-3.472668 0.289389,-3.472668c-0.096464,0 -0.76975,2.105846 -1.157556,4.630224c-0.383355,2.495405 -0.385852,5.112539 -0.385852,6.270094c0,0.675243 0,1.061096 0,0.96463c0,-0.289387 -0.058352,-1.260426 0.192925,-3.279739c0.313347,-2.518124 0.868167,-5.498392 0.868167,-6.463022c0,-0.385853 -0.077772,-0.512205 -0.192925,-0.096464c-0.33573,1.21209 -0.798116,4.337402 -1.061093,6.46302c-0.214502,1.733803 -0.289389,3.183281 -0.289389,3.376205c0,0.096466 -0.042443,-0.100784 0.096462,-1.254017c0.221889,-1.84219 1.012418,-5.384907 1.157557,-7.234726c0.075454,-0.961674 0.007955,-1.152092 -0.192926,-0.868168c-0.557144,0.787466 -1.636251,3.837269 -2.122186,6.173634c-0.358445,1.7234 -0.433962,3.081676 -0.482315,3.762058c-0.006838,0.096218 0.100386,-0.674202 0.482315,-2.122189c0.584788,-2.217072 1.301071,-4.497971 1.543408,-6.945335c0.019011,-0.191988 0,-0.482315 0,-0.385853c0,0.289391 -0.33147,3.084042 -0.482315,5.691319c-0.133834,2.313255 -0.048468,4.333679 0,4.823151c0.009505,0.095993 0.182793,-0.165405 0.482315,-1.254021c0.54705,-1.988258 1.467637,-6.264271 2.218649,-8.971058c0.694415,-2.502798 1.254018,-4.244373 0.964629,-4.244373c-0.289389,0 -0.225819,0.731192 -0.771704,2.700964c-0.762918,2.752914 -1.494469,6.441549 -1.639871,7.909967c-0.095052,0.959934 -0.096462,1.446945 0,1.446945c0.096462,0 0.130365,-1.258167 0.289389,-3.183281c0.207843,-2.516109 0.984527,-5.473421 1.736335,-9.260447c0.228512,-1.15106 0.287647,-1.62163 0.192926,-1.639872c-0.510097,-0.098236 -0.655373,2.014446 -1.157557,5.691317c-0.341647,2.501457 -0.28939,4.4373 -0.28939,5.787779c0,0.289391 0.532785,-0.365894 1.350482,-2.508038c1.131569,-2.964401 3.010685,-8.868763 3.665594,-11.189707c0.298685,-1.058514 0.357862,-1.372011 0.289389,-1.254019c-0.552042,0.951269 -1.215776,4.298868 -1.92926,7.234724c-0.741657,3.051781 -1.301542,6.345087 -1.446943,7.813505c-0.066536,0.671955 -0.096466,0.96463 0,0.96463c0.096466,0 -0.01918,-1.769089 0.771704,-4.340836c0.843042,-2.741352 2.077341,-6.975399 2.411575,-8.199356c0.136845,-0.50112 0.032944,-0.467794 -0.192926,0c-0.67631,1.400688 -2.569897,5.509758 -3.472668,8.199356c-0.650417,1.937771 -1.254019,3.56913 -1.061094,3.56913c0.096462,0 0.252687,-0.365978 0.675241,-1.736336c0.675632,-2.191095 1.499638,-4.643593 2.315111,-7.234724c0.183147,-0.581945 0.369156,-0.882372 0.289391,-0.771704c-0.252241,0.349968 -0.626677,1.332037 -2.315113,5.787781c-1.092202,2.882294 -1.736243,5.009796 -1.832797,7.234726c-0.020911,0.481861 0.020555,0.595665 0.096463,0.482315c0.697789,-1.04195 1.309024,-2.918121 3.183279,-6.077171c1.038303,-1.750055 1.639872,-2.700964 1.543407,-2.797426c-0.096464,-0.096462 -0.488438,0.767456 -2.025723,2.990355c-1.065344,1.540478 -1.94313,2.840473 -2.508038,4.147907c-0.120991,0.280025 -0.192926,0.385853 -0.096463,0.289391c0.385853,-0.385853 1.502715,-1.506252 2.604501,-2.218651c0.653084,-0.422276 1.157557,-0.482311 1.157557,-0.578777c0,-0.289391 -0.434679,-0.095493 -1.446945,0.482315c-1.022614,0.583714 -1.806843,1.572754 -2.89389,2.508038c-0.263649,0.226841 -0.357597,0.414104 -0.289389,0.482315c0.06821,0.068211 0.487297,0.061806 0.868167,0c0.602208,-0.097725 0.743449,-0.221176 0.675241,-0.289387c-0.272839,-0.272839 -0.807589,0.037148 -1.157556,0.289387c-0.110669,0.079765 -0.240922,0.282234 -0.289389,0.771706c-0.038021,0.383976 0.200395,0.985161 0.675241,1.254017c0.346103,0.195961 0.771703,0.096466 0.868167,0c0.096462,-0.096462 0.139954,-0.381527 -0.192925,-0.482315c-0.646268,-0.195675 -1.350482,0 -1.832797,0c-0.385853,0 -0.638327,0.103809 -0.675241,0.192928c-0.052205,0.126034 0.197186,0.180981 0.482315,0.289387c0.686686,0.261078 1.172241,0.312023 1.350482,0.385853c0.126035,0.052204 0,0.096462 -0.482315,0.096462c-0.289389,0 -0.510569,-0.068211 -0.578778,0c-0.068209,0.068211 0.476857,0.400101 0.96463,0.578777c0.572863,0.209843 1.322228,0.414104 1.25402,0.482315c-0.409258,0.40926 -1.167259,-0.059052 -1.92926,0.096466c-0.688077,0.14043 -0.771705,0.192924 -0.771705,0.192924c0.385853,0.096462 0.761239,0.322922 1.639872,0.578777c0.381866,0.111198 0.675241,0.192924 0.675241,0.096462c0,-0.385853 -0.771704,0 -1.157556,0c-0.192926,0 -0.392204,0.110386 -0.192926,0.192928c0.281823,0.116734 0.607032,0.124714 0.675241,0.192924c0.068209,0.068211 -0.096463,0.096462 -0.28939,0.096462c-0.578777,0 -1.068834,-0.06649 -1.350482,0c-0.209929,0.049561 -0.385852,0.096466 -0.385852,0.096466c-0.096462,0 -0.192925,0 -0.289389,0c-0.096463,0 0.093713,-0.102173 0.289389,-0.192928c0.66645,-0.309097 1.454512,-0.365582 1.736334,-0.482315c0.199279,-0.082542 0.679228,-0.178185 1.061093,-0.289387c0.292879,-0.085289 1.053935,-0.240925 1.543408,-0.289391c0.479967,-0.047527 0.928032,-0.185741 1.543407,-0.385853c0.558001,-0.181454 1.455212,-0.344906 2.508038,-0.578777c1.850101,-0.410976 2.242191,-0.497875 2.700966,-0.67524c0.52463,-0.202827 0.821093,-0.632275 0.868166,-1.061092c0.0434,-0.395351 -1.073259,-1.727726 -2.025723,-3.086819c-1.074911,-1.533817 -1.648439,-2.84787 -2.604502,-3.858521c-0.331453,-0.350376 -0.93368,-0.454899 -2.218649,0.96463c-1.347067,1.488132 -2.510388,3.371185 -3.086816,5.498394c-0.203406,0.750637 -0.139953,1.153229 0.192925,1.254017c0.646269,0.195675 1.673822,-0.451012 3.183279,-2.122185c1.283426,-1.420925 2.540306,-2.780537 2.990353,-3.954983c0.209959,-0.547913 -0.111944,-1.001144 -0.67524,-0.868168c-1.259567,0.297344 -2.699011,1.655628 -3.858521,3.858521c-0.525893,0.999119 -0.755155,1.656422 -0.482315,1.92926c0.136419,0.136421 0.674026,0.084721 1.350481,-0.771706c0.912664,-1.155479 1.672276,-2.492668 2.025724,-3.279743c0.212805,-0.473881 0.028481,-0.546196 -0.96463,0.578781c-0.72788,0.824532 -1.454756,2.22897 -1.543407,2.6045c-0.049559,0.209927 0.069983,0.452599 0.67524,0.096462c1.058182,-0.622643 2.110695,-1.850113 3.183279,-3.086815c0.316013,-0.364368 0.274673,-0.406284 0,-0.192928c-1.02491,0.796108 -1.951221,2.106907 -3.086815,3.762058c-0.393534,0.573582 -0.519485,0.84074 -0.385853,0.868168c0.50886,0.104446 1.319496,-0.515968 2.797428,-2.122185c1.112291,-1.208839 2.059595,-1.948147 1.832796,-2.315113c-0.101427,-0.164112 -0.725445,0.423515 -1.832796,1.736332c-1.761343,2.088154 -2.743748,3.027073 -2.89389,3.569134c-0.025749,0.09296 0.162037,0.061855 0.482315,-0.192928c0.71217,-0.56654 2.092154,-1.38131 3.279741,-2.508038c0.941473,-0.893227 1.045063,-0.993587 -0.192926,-0.289387c-0.977818,0.556206 -2.048616,1.325176 -2.797426,2.025723c-0.099621,0.093201 -0.126038,0.333645 0,0.385853c0.534719,0.221493 1.702965,0.185829 2.797426,-0.289391c1.791624,-0.777935 2.287752,-1.310513 2.218649,-1.736336c-0.065557,-0.403973 -1.575974,-0.442467 -3.279741,0c-2.775969,0.720917 -4.160741,1.376431 -4.823151,1.92926c-0.370298,0.309044 -0.312819,0.673981 0.28939,0.771706c1.237828,0.200871 2.396235,-0.070301 3.569131,-0.289391c0.764486,-0.142803 0.868168,-0.096462 0.868168,-0.096462c-0.578779,-0.289387 -1.541245,-0.275917 -2.700964,-0.096462c-1.348148,0.208611 -1.861052,0.317642 -1.929261,0.385853c-0.068209,0.068211 0.386885,0.05912 1.061093,0.096462c0.872173,0.048306 2.418802,0.26799 3.376205,0.385853c0.394747,0.048595 0.576286,0.065559 0.385851,0.096462c-0.301104,0.048862 -1.345343,0.241035 -2.025723,0.289387c-0.384882,0.027351 -0.738579,0.178307 -0.385853,0.385853c0.605259,0.356136 1.233789,0.481373 1.92926,0.578777c0.286592,0.040138 0.192268,0.080555 0,0.096466c-0.584761,0.048397 -1.44928,0.177235 -2.797426,0.385849c-0.579861,0.089729 -0.96463,0.096466 -1.157557,0.096466c0,0 0.284887,0.1446 1.061094,0.192924c0.57766,0.035965 1.543407,0.385853 1.543407,0c0,-0.096462 -0.289389,0 -0.675241,0c-0.675241,0 -1.446945,0.192924 -1.736334,0.192924c-0.192926,0 0.096463,0 0.578777,0c0.675241,0 1.157557,0.096466 1.543409,0.096466c0.192924,0 0.289389,0 0.096462,-0.096466c-0.192926,-0.096462 -0.64567,-0.333645 -0.771704,-0.385849c-0.089119,-0.036915 -0.116045,-0.024746 0,-0.096466c0.259483,-0.160374 1.06155,-0.161755 2.122187,-0.192924c1.641996,-0.048252 2.895622,-0.28009 3.954983,-0.482315c1.932571,-0.368916 2.908854,-0.633717 3.762056,-0.96463c0.885763,-0.343544 1.061092,-0.482315 1.254019,-0.578777c0,0 -0.097103,0.038521 -1.254019,0c-1.449354,-0.04826 -2.797426,-0.096466 -4.53376,-0.482315c-0.868168,-0.192924 -1.412394,-0.172943 -1.446945,-0.385853c-0.021852,-0.134655 0.277945,-0.221237 0.96463,-0.482315c0.855389,-0.325218 1.828791,-0.530472 2.700964,-0.578777c0.192629,-0.01067 0.096462,0 0,0.096462c-0.096464,0.096462 -0.385853,0.192928 -0.771704,0.385853c-0.192926,0.096462 -0.289391,0.096462 -0.289391,0.192924c0,0 -0.092005,0.020008 -0.482315,0.096466c-0.669373,0.131123 -1.343323,0.337383 -1.832796,0.385849c-0.383974,0.038021 -0.482315,0 -0.096464,0c0.578779,0 1.632713,-0.047997 2.122187,-0.096462c0.191988,-0.019009 -1.639872,0.096462 -2.700964,0.096462c-0.482315,0 -0.868166,0 -0.868166,0c0.096462,0 0.667397,-0.11377 1.929258,-0.67524c0.671196,-0.298653 1.274441,-0.840591 1.543409,-1.061092c0.421995,-0.345955 0.948734,-0.749878 1.157557,-1.254021c0.036915,-0.089119 0,-0.289387 -0.096464,-0.385853l-0.289389,-0.096462l-0.192926,0l-0.289389,-0.096462" id="svg_3" stroke-width="1.5" stroke="#000" fill="none"/>
  <path d="m35.430866,31.257635c-0.096466,0.675241 -0.630836,2.740641 -1.157558,4.340834c-0.459385,1.395618 -0.88652,2.303684 -1.061092,2.604504c-0.108265,0.186558 -0.385124,-0.078674 -0.482315,-0.868168c-0.153221,-1.244625 0.337605,-3.856617 0.385853,-5.691319c0.027893,-1.060726 -0.624195,-1.884445 -1.157557,-1.63987c-1.369665,0.628065 -2.429043,2.890785 -2.411575,4.340836c0.012835,1.065392 0.798998,2.35313 1.736334,2.508038c1.051208,0.173725 2.789295,-1.110783 3.472668,-2.508038c0.779171,-1.593121 1.12598,-4.395565 0.675243,-5.884245c-0.375034,-1.238655 -1.741714,-1.927109 -2.411575,-1.446945c-1.114296,0.798738 -1.974869,3.751532 -2.025724,5.40193c-0.053562,1.738186 0.42227,3.595367 1.157557,3.954983c0.698631,0.341686 2.173664,-0.770763 2.89389,-2.025723c0.989861,-1.724777 1.443451,-4.716148 1.350483,-6.077171c-0.047859,-0.700628 -1.358818,-0.682554 -2.797428,0.96463c-1.830307,2.095669 -3.279623,5.780567 -3.376205,7.717041c-0.057663,1.156116 0.513134,1.905979 0.96463,1.736336c0.959896,-0.360668 2.024864,-2.770134 2.218647,-4.823151c0.217552,-2.304869 -0.876492,-5.15909 -2.315109,-6.077171c-1.494968,-0.954042 -4.412531,-1.398605 -5.884245,-0.578777c-1.430111,0.796652 -2.323057,3.488861 -2.122185,4.726688c0.19545,1.204414 1.896341,2.594395 3.183279,2.6045c1.381096,0.010845 3.176497,-1.781487 3.56913,-3.56913c0.374777,-1.706348 0.159058,-4.678154 -0.96463,-5.498392c-1.134439,-0.828087 -4.139631,0.501238 -5.401928,2.025723c-1.382504,1.669661 -2.036936,4.790857 -1.543407,6.36656c0.490147,1.564907 2.356401,2.959103 3.858521,2.6045c1.469492,-0.346901 3.456383,-2.701084 4.051445,-4.823151c0.552502,-1.970289 0.427433,-5.460329 -0.771704,-6.270094c-1.241041,-0.838062 -4.029234,-0.173204 -5.401928,1.350481c-1.343534,1.491318 -2.121151,4.366756 -1.736334,5.594856c0.465975,1.487106 2.269247,2.935505 3.665594,3.086815c1.537418,0.166599 3.956638,-1.310772 4.919613,-2.89389c0.987455,-1.623365 1.368702,-3.771383 0.868168,-4.726688c-0.379879,-0.725025 -2.397865,-0.688951 -3.762058,0.675241c-1.705242,1.70524 -3.064039,4.80744 -2.89389,6.559484c0.15933,1.64064 1.745138,2.873035 2.89389,2.700966c1.027477,-0.153904 2.509651,-1.303795 3.762058,-3.762058c0.872499,-1.712566 1.129087,-3.496576 0.385851,-5.112539c-0.403076,-0.876379 -1.646482,-1.35807 -3.56913,-0.289389c-1.610811,0.895351 -2.857052,3.03068 -2.990355,5.884243c-0.081522,1.745113 0.758507,3.549686 2.508039,4.051445c0.741798,0.212746 1.690796,-0.175869 2.700964,-1.63987c0.686441,-0.994835 1.279108,-2.346779 0.578777,-4.051445c-0.234718,-0.571327 -1.014299,-1.203609 -2.122187,-0.868168c-0.998634,0.302361 -1.491295,1.142345 -1.736334,1.92926c-0.118248,0.379738 -0.096462,0.67524 0,0.771702c0.096464,0.096462 0.454777,0.020355 0.96463,-1.832794c0.44689,-1.624302 0.385853,-2.893892 0.385853,-3.376207c0,-0.192926 -0.863478,0.328709 -1.736334,1.832798c-1.082645,1.865591 -1.39835,2.78853 -1.446945,3.183279c-0.023571,0.191479 0.124786,0.214645 0.192926,0.096462c0.747984,-1.297325 0.789301,-2.899523 0.67524,-4.051445c-0.048468,-0.489473 -0.812035,-1.793022 -1.157555,-1.832798c-0.818771,-0.094257 -1.473396,1.414263 -1.92926,3.376205c-0.531195,2.286144 -0.385853,2.990353 -0.289389,3.376205c0,0 0.703907,-0.375404 1.254019,-1.92926c1.018028,-2.87554 1.591597,-4.627216 1.63987,-5.787781c0.016035,-0.385517 -0.214167,-0.405638 -0.482315,-0.096462c-0.316013,0.364365 -0.578777,1.446945 -0.578777,2.218649c0,0.675241 -0.039957,1.406988 0.096462,1.543407c0.068211,0.068211 0.289391,-0.192926 0.675241,-0.96463c0.578777,-1.157557 1.205423,-2.306215 1.254019,-2.700964c0.011786,-0.095739 -0.420929,0.274511 -1.061092,1.832798c-1.021107,2.48558 -1.302013,3.561974 -1.350481,4.051445c-0.028515,0.287983 0.285755,0.35899 0.771704,-0.385853c1.461649,-2.240358 1.941809,-4.115297 2.411575,-5.884241c0.252493,-0.950777 0.340101,-1.336077 0.289389,-1.254021c-0.1134,0.183485 -0.414478,0.861237 -0.868168,2.797428c-0.720882,3.076477 -0.916306,4.625723 -0.96463,5.401926c-0.023975,0.385109 0.132998,0.305588 0.289389,-0.096462c0.254585,-0.654488 1.195772,-3.776815 1.736334,-5.787779c0.522873,-1.945156 0.572983,-2.221203 0.192926,-1.350483c-0.293884,0.673298 -0.868057,3.65872 -0.96463,5.691317c-0.041203,0.867191 -0.298912,1.827564 0.192926,1.832798c0.889296,0.00946 0.57762,-2.379841 0.771704,-4.147909c0.115782,-1.054756 -0.011984,-1.610342 -0.192926,-1.543407c-0.834103,0.308554 -0.984657,1.434782 -1.446943,2.218649c-0.504509,0.855461 -0.67618,1.176563 -0.868168,1.157555c-0.489473,-0.048466 -1.075378,-0.62855 -1.639872,-2.122185c-0.604296,-1.598948 -0.815962,-2.285542 -0.868166,-2.411575c-0.036915,-0.089119 -0.436304,0.75996 -0.771704,2.315113c-0.227369,1.054249 -0.325573,2.279388 -0.096464,2.6045c0.20035,0.284302 0.715185,0.202026 1.061094,-0.385853c0.356134,-0.605257 0.533344,-1.712368 0.192924,-2.218647c-0.496244,-0.738022 -1.263868,-0.868683 -1.736334,-0.771706c-0.719639,0.147713 -1.527971,1.606825 -1.63987,2.700966c-0.157333,1.538395 0.267563,2.492142 0.771704,2.700962c0.445601,0.184574 0.90279,-0.206642 1.350481,-1.061092c1.274149,-2.431805 0.96463,-3.954983 0.96463,-5.016075c0,-0.482315 -0.151093,-0.626581 -0.482315,-0.192926c-0.94413,1.236101 -1.555222,3.596243 -2.025723,4.919611c-0.246098,0.692196 -0.289389,0.96463 -0.289389,0.868168c0,-1.736332 0.427996,-3.671829 0.289389,-5.209002c-0.096855,-1.074131 -0.414665,-1.355446 -0.578777,-1.254019c-0.550451,0.340197 -0.385853,1.639872 -0.385853,3.086817c0,1.446943 -0.039955,1.792841 0.096462,1.929258c0.068211,0.068211 0.174866,-0.193207 0.192926,-0.771702c0.048256,-1.545668 0.096464,-2.508039 0.096464,-2.990355c0,-0.192926 -0.050713,-0.274982 0,-0.192926c0.113398,0.183483 0.259916,0.876141 0.482315,1.639872c0.170572,0.585756 0.20175,0.715549 0.289389,0.675241c0.807981,-0.371618 1.071598,-1.635735 1.446945,-2.604502c0.297758,-0.768513 0.482315,-0.96463 0.385851,-0.96463c-0.096464,0 0.02944,0.67565 0,1.736334c-0.04825,1.738344 -0.289389,2.604502 -0.289389,2.89389c0,0.096462 0,-0.192924 0,-1.157555c0,-0.771706 0.096462,-1.446945 0,-1.446945c-0.096462,0 -0.096462,0.482315 -0.096462,1.061092c0,1.832798 0,3.279743 0,4.051445c0,0.385853 0,0.385853 0,0.385853c0,-1.061092 0.041283,-2.322163 -0.192926,-3.56913c-0.164169,-0.874062 -0.338703,-0.997099 -0.578779,-0.578779c-0.989862,1.724771 -0.964186,3.475328 -0.868166,5.209002c0.096611,1.744347 0.588261,2.595852 1.254019,2.797428c0.738592,0.223629 1.777092,-0.444035 3.858521,-2.700966c1.34819,-1.461868 2.400539,-2.517654 2.990353,-3.183277c0.230663,-0.260311 0.182426,-0.4631 -0.096462,-0.385853c-1.084124,0.300285 -2.22134,1.525692 -2.700964,3.183281c-0.269455,0.93124 -0.039572,1.778816 0.578777,2.315109c0.364368,0.316013 0.981741,0.614906 1.350481,0.289391c0.228685,-0.201878 0.284721,-0.739586 -0.482313,-1.446945c-0.730087,-0.673286 -1.583012,-1.208664 -2.315113,-0.96463c-0.457565,0.152523 -0.907385,1.065823 -0.771704,2.025723c0.072704,0.514355 0.536907,1.06115 1.446945,1.157558c0.868649,0.092026 2.14113,-0.733276 2.508038,-1.543411c0.281403,-0.621342 0.099321,-1.117928 -0.96463,-1.061092c-0.982334,0.052475 -2.27194,1.161751 -2.700964,2.025723c-0.312336,0.628983 -0.156717,1.730553 0.385853,2.025726c0.535912,0.29155 1.793383,0.364952 2.315111,0.096462c0.363899,-0.187271 0.412699,-0.775387 0,-1.157558c-0.633049,-0.58622 -2.590219,-1.328453 -2.700964,-1.061092c-0.052204,0.126034 0.280846,0.298332 0.482315,0.482315c1.112658,1.01609 1.719332,1.397388 1.92926,1.446945c0.093882,0.022163 -0.56357,-0.140816 -1.350483,-0.385853c-0.759483,-0.236496 -1.310526,-0.522266 -1.446943,-0.385849c-0.068209,0.068211 0.159634,0.368771 0.771704,0.578777c0.930487,0.319256 2.315113,1.157555 2.411575,0.67524c0.096462,-0.482315 -1.451084,-0.378654 -2.411575,-0.289387c-1.563566,0.145317 -2.053978,0.510567 -2.122187,0.578777c-0.272837,0.272835 0.435453,0.771465 1.350483,1.157555c1.855772,0.783028 2.930607,1.007412 3.472668,1.157555c0.092962,0.025749 -0.405561,0.137089 -1.543409,-0.096462c-0.896439,-0.183998 -1.708553,-0.577003 -2.218649,-0.67524c-0.094721,-0.018242 -0.096462,0 0.192926,0c0.482315,0 1.347464,0.204227 2.411575,0.482315c0.384806,0.100563 0.385853,0.192924 0.289389,0.192924c-0.289389,0 -1.054789,-0.220169 -1.832796,-0.385853c-1.628687,-0.346848 -2.315113,-0.289387 -2.797428,-0.289387c-0.289389,0 -0.38327,-0.022163 -0.289389,0c0.419855,0.099113 0.961023,0.434025 1.92926,0.482315c0.385374,0.019222 0.727446,-0.029572 0.675241,0.096462c-0.07383,0.178242 -0.280481,0.032661 -0.578779,0.096462c-0.948,0.202759 -1.536249,0.144459 -2.025723,0.192928c-0.479967,0.047527 -0.771704,0 -0.96463,0c-0.385851,0 -0.578777,0 -0.771704,0c-0.192926,0 -0.192926,0 -0.385853,0c-0.096462,0 -0.192924,0 -0.192924,0c-0.096464,0 -0.192926,0 -0.385853,0c-0.289389,0 -0.385853,0 -0.385853,0c-0.192924,0 -0.289389,0 -0.385851,0c-0.289389,0 -0.385853,0.096462 -0.385853,0.096462c-0.096462,0 -0.192926,0 0,0c0.096464,0 0.773163,0.055618 1.832798,0c1.840389,-0.096596 3.580011,-0.108379 5.401928,-0.385853c2.917559,-0.444336 5.277447,-1.095188 7.234726,-1.446945c2.579208,-0.463528 4.039478,-0.578449 5.209,-0.67524c0.769077,-0.063652 0.991798,-0.048847 0.675243,-0.192928c-1.001034,-0.455624 -2.609917,-0.463634 -5.884243,-0.67524c-1.934847,-0.125038 -3.665596,-0.192924 -4.147911,-0.192924c-0.096462,0 -0.102446,0.124725 0.289391,0.192924c0.955084,0.166229 2.506136,0.241142 4.340836,0.289391c0.675007,0.01775 1.194469,-0.007343 1.157555,-0.096466c-0.052204,-0.126034 -0.76878,-0.397179 -2.990353,-0.96463c-1.156065,-0.295292 -2.218649,-0.482315 -2.700964,-0.482315c-0.096464,0 0.096462,0 0.675241,0c0.771704,0 1.543407,0.289391 1.543407,0c0,-0.096462 -0.350763,0.11385 -0.868168,0.578781c-0.560392,0.503559 -1.061096,0.868164 -0.96463,0.96463c0.192928,0.192924 0.712561,-0.570831 0.96463,-0.675243c0.089121,-0.036915 -0.017942,0.066807 -0.192924,0.192928c-0.664011,0.4786 -1.323858,1.468426 -1.639872,1.832794c-0.268147,0.309177 -0.294823,0.500481 0,0.578777c0.475389,0.126247 2.335327,-0.351131 3.183279,-0.868164c0.593908,-0.362129 0.992584,-0.679382 0.96463,-0.771706c-0.100788,-0.332878 -1.449129,-0.736782 -2.315113,-0.67524c-0.680378,0.048351 -1.075499,0.142212 -1.157555,0.192924c-0.183485,0.1134 0,0.385853 0.868166,0.868168c0.868168,0.482315 1.73035,0.723305 2.315113,0.771702c0.096134,0.007957 -0.104031,-0.172653 -0.385853,-0.289387c-0.797115,-0.330177 -1.439787,-0.626774 -1.92926,-0.675243c-0.191988,-0.019012 -0.192926,0.096466 -0.192926,0.096466c0.096464,0.289387 0.22118,0.45406 0.289391,0.385849c0.204628,-0.204628 0.014622,-0.583126 -0.192926,-1.254017c-0.270462,-0.874249 -0.331314,-1.268581 -0.578779,-1.446945c-0.078255,-0.056404 -0.192924,0 -0.289389,0.385853c-0.192926,0.771702 -0.226223,1.753403 -0.385851,2.218647c-0.070002,0.204025 -0.121529,0.107075 -0.192926,-0.096462c-0.457167,-1.303284 -0.289389,-2.6045 -0.289389,-4.823151c0,-0.868168 0,-1.157555 0,-1.254017c0,0 0.265501,0.394367 0.482315,0.96463c0.522152,1.373367 0.771704,1.832794 0.96463,2.218647c0,0 0.012028,-0.096714 0,-0.385853c-0.048273,-1.160564 -0.481792,-2.872581 -0.675241,-5.49839c-0.007088,-0.096203 0,0 0,0.482315c0,2.315113 0.102955,4.095535 0.578777,5.691319c0.419838,1.408024 0.586123,1.699417 0.675241,1.736332c0.252069,0.104412 0.434053,-1.058514 0.482315,-2.411575c0.099716,-2.795647 0.139065,-4.641434 0,-5.49839c-0.048862,-0.301102 -0.098467,0.000431 0.192926,1.350483c0.479023,2.21936 0.768414,3.514454 1.254019,4.53376c0.241915,0.50779 0.289389,0.578777 0.289389,0.482315c0,-0.67524 0.152216,-2.042835 -0.096462,-3.56913c-0.240814,-1.47802 -0.506901,-1.800671 -0.578779,-1.736336c-0.650877,0.582561 -0.353823,2.132553 -0.192924,3.376205c0.243166,1.879532 0.645582,2.42952 0.771704,2.604504c0.079765,0.110668 0.163511,-0.158092 0.289389,-0.482315c0.459194,-1.182762 0.604069,-4.154423 0.771706,-5.594856c0.067829,-0.582829 0.081009,-0.86692 0.096462,-0.771702c0.048862,0.301102 0.096462,2.508038 0.096462,4.437298c0,1.832794 0,3.183277 0,3.762054c0,0.192928 0.026382,0.221249 -0.385853,0.578777c-0.364368,0.316013 -1.522449,0.826565 -2.218649,1.061096c-0.376913,0.126972 -0.482315,0.192924 -0.578777,0.192924c-0.096464,0 -0.095995,0.086956 0,0.096462c0.489473,0.048466 1.254019,0.096462 2.508039,0.096462c0.482315,0 0.868164,0.192924 0.868164,0c0,-0.192924 -0.482315,0 -1.350481,0c-1.446945,0 -2.508038,0.096466 -3.279741,0.096466c-0.482315,0 -0.578779,0 0,0c0.771704,0 2.40757,0.337543 3.279741,0.385849c0.288946,0.016003 0.482317,0 0.289389,0c-0.289389,0 -1.144516,-0.288994 -2.218649,-0.385849c-0.960732,-0.086628 -1.543407,0 -1.92926,0c-0.096462,0 0.004139,-0.027954 0.096464,0c0.332878,0.100788 1.109955,0.084747 1.061092,0.385849c-0.015451,0.095215 -0.580233,0.041027 -1.157557,0c-0.680378,-0.048351 -0.771704,-0.192924 -0.771704,-0.192924c0,-0.096462 0,-0.192924 0,-0.192924c-0.289389,-0.289391 -0.875732,-0.751434 -1.157557,-0.868168c-0.199278,-0.082542 -0.367908,-0.222584 -0.192924,-0.096462c0.332005,0.239296 0.81576,0.357292 1.350481,0.578777c0.126036,0.052204 0,0.096462 0,0.096462c-0.192926,0 -0.019581,0.121204 0.096464,0.192924c0.259485,0.16037 1.732328,0.43401 2.6045,0.482315c0.770523,0.042675 1.149279,0.152374 0.96463,0.096466c-0.33288,-0.100788 -1.254019,-0.482315 -1.639872,-0.482315c-0.385851,0 -0.482315,0 -0.096462,0c0.289389,0 1.15543,0.04821 2.797428,0.096462c0.964214,0.028336 1.736332,-0.096462 2.218647,-0.096462c0,0 -0.289387,-0.192928 -0.868168,-0.289391c-0.578777,-0.096462 -1.061092,-0.192928 -1.061092,-0.096462c0,0.096466 0.291355,-0.051487 0.96463,0c1.265079,0.096745 2.409317,0.337597 3.954983,0.385853c0.289249,0.009029 0.477154,0.044327 0.289391,0c-0.209927,-0.049561 -1.057812,-0.434032 -2.122185,-0.482315c-0.578186,-0.026226 -1.231857,-0.093884 -1.254021,0c-0.049557,0.209927 0.735172,0.217705 1.832798,0.482315c0.756046,0.182266 1.254017,0.289387 1.254017,0.096462c0,-0.192924 -0.289387,0 -0.868164,0c-0.578781,0 -1.061096,0 -1.736336,0c-0.385853,0 -0.868168,-0.096462 -0.868168,0c0,0.096462 0.386784,-0.029968 0.868168,0c0.776207,0.048325 1.63987,0.192924 1.92926,0.192924c0.096462,0 0,0 0,0c-0.289391,0 -0.868168,0 -1.543407,0c-0.385853,0 -1.163788,-0.077259 -1.639874,0c-0.301102,0.048862 -0.678978,0.050106 -0.964626,0.096462c-0.301105,0.048862 -0.482317,0.000004 -0.482317,0.096466c0,0.096462 0.965948,0.05286 2.025724,0c0.968239,-0.048294 2.606274,-0.27153 3.665592,-0.385853c0.77322,-0.083447 1.930904,-0.056679 2.411575,-0.096462c0.584763,-0.048397 0.950348,0.170891 1.061092,-0.096466c0.052204,-0.126034 -0.195091,-0.254028 -0.482315,-0.289387c-1.184242,-0.145786 -2.221596,-0.458698 -3.086815,-0.578777c-0.581192,-0.080662 -0.578777,-0.096466 -0.578777,-0.096466c0.482315,0.096466 1.125755,0.432537 2.122185,0.578781c0.190884,0.028015 0.382927,0.129936 0.192928,0.096462c-1.11195,-0.195896 -1.832798,-0.675243 -2.411575,-0.868168c-0.289391,-0.096462 -0.380871,-0.158268 0,-0.096462c0.301102,0.048862 0.422379,0.219009 0.482315,0.096462c0.341694,-0.698627 0.291042,-2.173935 -0.192928,-4.051445c-0.366753,-1.422771 -1.038235,-2.351826 -1.63987,-2.700966c-0.186562,-0.108265 -0.656223,0.24081 -1.061092,2.025723c-0.344074,1.516888 -0.241192,3.277164 -0.192928,4.630226c0.017193,0.48201 0.143368,0.595779 0.192928,0.385853c0.221634,-0.938824 -0.048248,-3.277935 0,-5.209003c0.026505,-1.06076 0,-1.446945 0,-1.157555c0,0.289387 -0.072998,0.779263 0.192924,2.990353c0.151501,1.259693 0.192928,2.315109 0.385853,2.315109c0.096462,0 0,-0.385849 0,-1.446941c0,-1.543411 0.152058,-3.199352 -0.096462,-4.823151c-0.060173,-0.39315 -0.080463,-0.192486 -0.096466,0.096462c-0.048306,0.872173 0.047611,2.005566 0.192928,3.56913c0.062489,0.672344 0.062359,1.100624 0.192924,1.061092c0.47076,-0.142536 0.529881,-2.597961 0.771706,-4.53376c0.240345,-1.923927 0.289387,-3.086815 0.192924,-3.086815c-0.192924,0 0,1.350479 0,3.086815c0,1.832798 0.136463,4.347492 0.289391,5.401928c0.070599,0.486774 0.127365,0.576286 0.096462,0.385853c-0.048862,-0.301105 -0.405056,-1.653812 -0.96463,-4.53376c-0.508881,-2.619057 -0.901756,-5.121052 -1.350483,-8.199356c-0.084637,-0.580626 -0.26897,-0.786821 -0.385853,0c-0.283833,1.910704 -0.273243,4.288399 0.482315,6.945335c0.392246,1.379337 0.507065,2.660557 0.96463,2.508038c0.091511,-0.030502 0.048218,-0.287483 0.096466,-2.122185c0.060863,-2.314312 -0.241039,-4.717905 -0.385853,-8.295818c-0.054615,-1.349379 0,-1.736334 0,-1.061094c0,2.025724 -0.151276,6.000864 0.192924,8.00643c0.201824,1.175987 0.385853,1.736336 0.578777,1.736336c0.096466,0 0.443119,-1.16732 1.350483,-4.726688c0.739838,-2.902201 2.765518,-5.935595 1.639874,-6.559484c-0.238636,-0.132265 -0.686157,0.839064 -1.446945,3.858521c-0.674896,2.678564 -0.771706,5.305464 -0.771706,8.199354c0,1.157558 0.096462,1.543407 0.096462,1.446945c0,-0.289387 0.192898,-1.539963 0.289391,-5.594852c0.07114,-2.989508 0.144707,-5.496748 0.096462,-7.620579c-0.006573,-0.289314 0.004723,-0.385168 -0.192924,0.96463c-0.282642,1.93026 -0.351646,4.538147 -0.096466,7.717041c0.077572,0.966331 0.000004,1.63987 0.192928,1.63987c0.289387,0 0,-0.771702 0,-2.700962c0,-3.858521 0.206402,-6.57139 0.482315,-8.199356c0.148609,-0.876841 0.185509,-0.675171 0.192924,-0.289389c0.048241,2.509428 0.252678,4.73004 0.482315,7.0418c0.249557,2.512314 0.482315,3.279739 0.482315,3.472668c0,0.096462 -0.027527,-0.000393 0,-0.96463c0.096504,-3.380337 0.481792,-6.055859 0.675243,-8.681671c0.127575,-1.731642 0.002296,-2.122158 0,-2.025723c-0.048248,2.027445 -0.309212,4.150715 -0.192928,6.559484c0.144863,3.00083 0.578777,4.051447 0.578777,4.533762c0,0 0.053768,-0.386368 0,-3.183281c-0.048241,-2.509428 -0.047489,-5.310549 0.192928,-7.331188c0.161175,-1.354637 0.243874,-1.464861 0.289387,-1.254019c0.529594,2.453384 -0.214794,5.034304 0.096462,7.427652c0.344082,2.645756 0.722843,3.460953 0.771706,3.762054c0.030903,0.190437 0.018288,0.09631 0,-0.964626c-0.048237,-2.798676 -0.048241,-5.400423 0,-7.717041c0.036148,-1.73596 -0.003208,-1.929207 0,-1.832798c0.04826,1.449354 -0.015831,3.191757 0.192924,5.209002c0.251396,2.429276 0.630268,3.674913 0.771706,4.244371c0.073532,0.296051 0.07103,0.203667 0,0c-0.616779,-1.768503 -0.685562,-3.568686 -0.771706,-5.691317c-0.109596,-2.700462 -0.289093,-3.654924 -0.096462,-3.665594c0.872173,-0.048306 0.092293,2.13999 0.482315,4.051447c0.537922,2.63629 0.800014,3.654152 1.061092,4.340836c0.108406,0.28513 0.079517,0.104044 0,-0.096464c-0.371269,-0.936171 -0.437595,-2.521675 -0.67524,-4.244371c-0.243065,-1.762003 -0.482315,-2.315111 -0.482315,-2.315111c0,0 -0.041763,0.678631 0.096462,2.122185c0.296513,3.096676 0.459293,6.274406 0.578777,6.848873c0.08099,0.389397 -0.291019,-0.85535 -0.482315,-2.700964c-0.19915,-1.921377 -0.096462,-4.726686 -0.096462,-5.980705c0,-0.675241 0,-0.96463 0,-0.868168c0,0.192926 0,1.639872 0,3.665594c0,2.315113 0.007565,4.922768 0.096462,6.173634c0.048355,0.680378 0.243645,0.950222 0.192928,0.868164c-0.1134,-0.183483 -0.381123,-0.949272 -0.578777,-2.411572c-0.181355,-1.341722 -0.000004,-2.797428 -0.192928,-2.797428c-0.096462,0 0.119015,0.283148 0.482315,1.63987c0.41151,1.536766 1.300056,4.359921 1.832798,5.691319c0.352943,0.882057 0.51083,1.156147 0.482315,0.868168c-0.096935,-0.978947 -0.51965,-3.373142 -0.67524,-5.498394c-0.126972,-1.734367 -0.22118,-2.82568 -0.289391,-2.893888c-0.068211,-0.068209 0.005341,1.060768 0.096462,2.604502c0.10247,1.735989 0.310284,3.87178 0.482315,4.630222c0.067478,0.297485 0.02911,-0.293076 -0.192924,-1.92926c-0.170612,-1.257248 -0.15892,-2.510689 -0.578777,-2.411575c-0.093887,0.022163 0,0.192928 0,0.578781c0,2.122185 0.048199,3.952404 0.096462,5.305462c0.024071,0.674816 -0.017178,0.826649 -0.096462,0.771706c-0.677418,-0.469448 -0.593319,-2.233192 -1.061096,-4.630226c-0.246502,-1.263145 -0.466766,-2.081085 -0.67524,-2.025723c-0.336151,0.089268 -0.479805,1.157818 -0.771706,3.954983c-0.19128,1.83297 -0.204624,3.288464 -0.096462,3.954987c0.048862,0.301102 0.092453,0.385765 0.096462,0.289387c0.048275,-1.160564 0.289272,-3.465454 0.385853,-5.401928c0.096104,-1.926865 -0.057167,-2.328552 -0.192924,-2.315113c-0.346111,0.034267 -0.841595,1.917191 -1.157555,3.954983c-0.37215,2.400196 -0.385853,3.279743 -0.385853,3.472672c0,0.096462 0.040051,0.188721 0,0c-0.197224,-0.929356 -0.583103,-3.694622 -0.868168,-4.919617c-0.117737,-0.505951 -0.305977,-0.825783 -0.385853,-0.771702c-0.430153,0.291229 -0.654934,3.282261 -0.868168,4.919613c-0.176174,1.352772 -0.385849,2.218647 -0.192924,2.218647c0.096462,0 0.084415,-0.581238 0.385853,-2.025723c0.463814,-2.222588 1.123314,-4.155628 1.63987,-6.366558c0.090485,-0.387295 0.22118,-0.646988 0.289391,-0.578777c0.136421,0.136421 0.241852,1.259171 0.578777,4.147911c0.169109,1.449921 0.168823,2.263271 0.482315,2.508038c0.076031,0.059364 0.244438,-0.36845 0.482315,-1.157558c0.742893,-2.464417 0.575287,-3.94381 0.868168,-3.858521c0.381866,0.111202 -0.128201,0.669968 -0.192928,1.157558c-0.190838,1.437546 -0.096462,2.025723 -0.096462,2.315113c0,0.192924 -0.060524,0.067177 0.289391,-0.578781c0.165657,-0.305813 0.221176,-0.45406 0.289387,-0.385849c0.068211,0.068211 -0.169361,0.588097 -0.67524,1.832794c-0.276604,0.68058 -0.38089,1.282833 -0.482315,1.446945c-0.1134,0.183487 -0.670742,0.241066 -1.446945,0.289391c-0.385109,0.023975 -0.629723,0.085049 -0.67524,0c-0.164116,-0.306648 0.944294,-0.810661 2.025723,-1.350483c1.042858,-0.520569 1.350479,-0.482315 1.543407,-0.482315c0.096462,0 0.11113,0.104153 -0.096462,0.482315c-0.270668,0.493065 -0.317642,0.607033 -0.385853,0.675243c-0.068211,0.068211 0,0 0.096462,-0.096466c0.289387,-0.289391 0.414104,-0.550526 0.482315,-0.482315c0.068211,0.068211 -0.087414,0.294186 -0.192924,0.482315c-0.445148,0.793724 -0.790058,1.339058 -0.96463,1.639874c-0.108265,0.186558 -0.210999,0.26944 0,0.096462c0.26897,-0.220501 0.759987,-0.529915 1.061092,-0.578777c0.095215,-0.01545 0.147175,-0.014404 0.096462,-0.096462c-0.1134,-0.183483 -0.387794,-0.151173 -1.157555,-0.096466c-0.680382,0.048355 -0.815964,0.066895 -0.868168,0.192928c-0.036915,0.089119 0.365162,0.352573 0.868168,0.482315c0.753059,0.194241 1.157555,0.096462 1.350479,0.096462c0.096466,0 0.211441,-0.338375 0,-0.67524c-0.400528,-0.638111 -0.67524,-0.578781 -0.868164,-0.578781c-0.096466,0 -0.170296,0.014687 -0.096466,0.192928c0.104412,0.252071 0.658306,0.491756 0.771706,0.67524c0.050713,0.082054 -0.050369,0.018181 -0.385853,0.289391c-0.480335,0.388313 -0.790585,0.857719 -1.157555,1.543407c-0.101776,0.190174 -0.192928,0.385853 -0.289391,0.385853c-0.096462,0 -0.192924,0 -0.192924,0c0.096462,0.096462 0.265957,0.288124 0.868168,0.385849c0.380867,0.061806 0.578777,0.096462 0.578777,0c0,-0.192928 -0.387897,0.028015 -0.578777,0c-0.996429,-0.146244 -1.543407,-0.385849 -1.92926,-0.385849c-0.192928,0 -0.385853,0 -0.482315,0c-0.096462,0 -0.289391,-0.096462 -0.289391,0c0,0.096462 0.670105,0.144573 1.350483,0.192924c0.288658,0.020515 0.481846,0.105968 0.385853,0.096462c-0.489471,-0.048466 -1.061092,-0.192924 -1.350483,-0.192924c-0.385853,0 -0.302097,0.02784 0.096462,0.192924c0.281826,0.116734 0.578777,0.096462 0.675243,0.096462c0.096462,0 -0.098343,-0.038021 -0.482315,0c-0.489475,0.04847 -0.675243,0.096466 -0.771706,0.096466c-0.192924,0 -0.096462,0 0.096462,0.096462c0,0 0.4454,0.089119 0.482315,0c0.052204,-0.126034 -0.195091,-0.061104 -0.482315,-0.096462c-0.394749,-0.048595 -0.771702,-0.096466 -0.96463,-0.096466c-0.096462,0 0.000328,0.007957 0.096462,0c0.584766,-0.048397 1.267281,-0.020889 2.025726,-0.192924c0.297485,-0.067478 0.579433,-0.080551 0.771702,-0.096462c0.584763,-0.048397 0.974953,-0.104279 1.350483,-0.192928c0.419857,-0.099113 0.578777,-0.289387 0.67524,-0.289387c0.289391,0 0.289391,0 0.482315,0c0.192928,0 0.385853,0 0.482315,0c0.096462,0 0.153889,0.019211 0.192928,-0.192928c0.175457,-0.95343 -0.188148,-1.929703 -0.289391,-2.990353c-0.092117,-0.965054 0.096466,-1.446945 -0.096462,-1.446945c-0.289391,0 0.136894,0.567879 0.482315,1.92926c0.218719,0.86203 0.240524,1.145844 0.289387,1.446945c0.015453,0.095215 0,-0.192924 0,-0.578777c0,-0.385853 -0.102577,-1.450584 0,-2.89389c0.048355,-0.680378 0.192928,-0.96463 0.096466,-0.96463c-0.096462,0 0.074608,0.289886 0.096462,0.771706c0.048283,1.064373 0.007813,1.650192 0.096462,2.025723c0.049557,0.209927 0,-0.482315 0,-0.96463c0,-0.67524 -0.068211,-0.799957 0,-0.868168c0.068211,-0.068211 0.131268,0.21368 0.385853,0.868168c0.156391,0.40205 0.385853,0.771706 0.385853,0.868168c0,0.192924 0.096462,0.289387 0.096462,0.385853c0,0.192924 0,0.289387 0,0.385849c0,0.096466 0.0476,0.277676 0.096462,0.578777c0.015453,0.095219 0,0.096466 0,0.192928c0,0.192924 0,0.289387 0,0.385853c0,0.096462 0.022163,0.195503 0,0.289387c-0.049557,0.20993 -0.106438,0.376816 -0.192924,0.482315c-0.220505,0.26897 -0.617752,0.522015 -1.061096,0.868168c-0.21505,0.167908 -0.587212,0.269512 -1.061092,0.482315c-0.196766,0.08836 -0.482315,0.096462 -0.578777,0.096462c0,0 -0.167721,-0.217758 0,-0.771702c0.201576,-0.66576 0.649155,-1.083172 1.061092,-1.543411c0.272945,-0.304947 0.668266,-0.601131 1.254021,-0.771702c0.381866,-0.111198 0.658302,-0.183483 0.771702,0c0.050713,0.082054 0.144066,0.374138 0.192928,0.67524c0.077259,0.476086 0.033871,0.887051 -0.192928,1.254021c-0.253567,0.410282 -0.438824,0.670914 -0.771702,0.771702c-0.18465,0.055908 -0.437454,0.066486 -0.578777,-0.096462c-0.399731,-0.460892 -0.192928,-0.96463 -0.192928,-1.350483c0,-0.289387 0,-0.482315 0,-0.482315c0.096462,0 0.289391,0 0.385853,-0.096462c0,0 0.028252,-0.028252 0.096462,-0.096462c0.068211,-0.068211 -0.045116,0.032864 -0.385853,-0.482315c-0.78569,-1.187939 -1.139038,-2.675503 -1.63987,-4.340836c-0.687267,-2.285255 -2.286995,-8.527231 -2.700962,-9.646299c-0.748352,-2.022999 -1.558193,-3.22084 -2.122189,-3.472668c-0.535778,-0.239229 -1.056396,0.654593 -1.446945,2.6045c-0.632301,3.156912 -0.593704,4.924215 -0.482315,6.270098c0.048397,0.584763 0.096462,0.771702 0.096462,0.096462c0,-0.96463 0.048206,-2.312704 0.096466,-3.762058c0.009632,-0.289228 0.021599,-0.373446 -0.096466,-0.192926c-0.412376,0.630522 -1.228386,1.57023 -1.832794,2.122187c-0.556328,0.508047 -0.828213,0.715195 -0.96463,0.578777c-0.341049,-0.341049 0.216755,-1.343395 0.578777,-2.6045c0.4132,-1.439375 0.481068,-1.913809 0.385853,-1.92926c-0.301105,-0.048864 -0.337387,0.957472 -0.385853,1.446945c-0.028515,0.287981 -0.068211,0.414104 0,0.482315c0.204628,0.204628 0.816639,-0.461437 1.157555,-1.254019c0.446133,-1.037193 0.385853,-2.315113 0.385853,-2.89389c0,-0.192926 -0.736496,-0.468582 -1.543407,0.192926c-1.265985,1.037859 -2.387989,3.357279 -2.604502,4.340834c-0.146641,0.666147 0.293125,1.300373 0.578779,1.254019c0.903311,-0.146587 1.790874,-0.905424 2.218647,-2.218649c0.457027,-1.40304 0.399597,-3.201115 -0.096462,-3.56913c-0.417198,-0.309507 -1.735641,-0.095846 -2.508038,0.771704c-0.782978,0.879436 -1.209646,2.430964 -1.061092,2.990353c0.199612,0.751656 0.77667,1.098433 1.63987,0.96463c1.877678,-0.291054 2.845093,-1.722689 3.279743,-2.990353c0.473454,-1.380836 0.398537,-1.959929 0.096462,-2.218649c-0.809231,-0.693085 -2.521397,0.496534 -3.665594,2.025723c-1.448231,1.93552 -1.727982,3.123531 -1.543407,3.569132c0.261026,0.630175 1.036995,0.668428 1.736334,0.289389c1.620243,-0.878168 2.063347,-2.41567 1.92926,-3.472668c-0.18047,-1.422625 -1.544754,-2.339024 -3.472668,-2.218649c-1.661974,0.103769 -3.070919,0.615973 -3.762058,1.63987c-0.563452,0.834732 -0.245945,1.781456 0.868168,2.315113c0.802078,0.384192 2.230276,0.446051 3.376205,-0.192926c1.791187,-0.998777 2.483406,-2.282026 2.122185,-3.279741c-0.256477,-0.708403 -1.430336,-1.530787 -3.954983,-1.543409c-1.842899,-0.009214 -3.95575,0.39348 -4.919613,2.122187c-0.479061,0.859205 -0.351368,2.278242 1.254019,3.183279c1.223494,0.689745 3.250059,0.839878 5.884243,-0.578779c1.88574,-1.015577 3.073336,-2.051195 2.990355,-3.086815c-0.044926,-0.560675 -1.430367,-1.353514 -3.665596,-1.254019c-1.77693,0.079096 -3.311279,0.726486 -3.954983,1.92926c-0.23209,0.433666 0.234909,1.113348 1.446945,1.254019c1.058363,0.122835 2.257032,-0.033825 2.797428,-0.482315c0.165981,-0.137753 0.261133,-0.22118 0.192924,-0.289389c-0.204628,-0.204628 -0.485065,-0.005709 -0.289389,-0.096464c0.666449,-0.309099 1.931913,-0.351847 1.832798,-0.771704c-0.022163,-0.093884 -1.061094,0 -2.218649,0c-1.446945,0 -2.303398,-0.336988 -2.604502,-0.385851c-0.095217,-0.015451 -0.096296,0.008018 0.096462,0c1.160566,-0.048273 2.604502,-0.289391 3.954985,-0.289391c0.96463,0 1.350483,0.096466 1.350483,0c0,-0.096466 -0.462395,0.117516 -1.832798,0.289391c-2.490383,0.312344 -4.150124,0.016447 -5.594854,0.096462c-0.872173,0.048306 -0.96463,0.096462 -0.868168,0.096462c0.868168,0 2.409092,-0.113663 5.691317,-0.578777c2.12064,-0.30051 3.472668,-0.578777 4.340836,-0.771704c0,0 -0.090424,-0.133284 -1.157555,-0.289389c-1.728622,-0.252872 -3.769892,-0.336485 -6.848875,-0.096464c-1.550714,0.120886 -2.649303,0.044804 -2.990353,0.385853c-0.068209,0.068209 0.34454,0.572433 2.122187,0.868166c1.620436,0.269579 3.706495,0.386049 6.077169,-0.096462c0.597828,-0.121677 0.831186,-0.236834 0.675241,-0.385853c-0.686869,-0.656359 -2.425842,-0.463987 -5.209003,-0.868166c-1.554003,-0.225676 -3.52326,0.135715 -3.376205,-0.675241c0.103268,-0.569492 1.932508,0.117357 4.051447,0c3.488691,-0.193222 5.491175,-0.337646 5.980707,-0.96463c0.059364,-0.076033 -0.384193,-0.292959 -3.183281,-0.289389c-2.606283,0.003325 -5.312391,0.266258 -8.006428,0.482315c-0.775223,0.062172 -1.066057,0.125277 -0.96463,0.289389c0.113398,0.183481 0.931442,0.722458 3.56913,0.96463c2.305416,0.211666 4.609667,-0.288902 7.331188,-0.482315c0.673546,-0.047867 0.871895,-0.021002 0.385853,-0.096462c-1.726337,-0.268023 -4.149004,-0.096537 -8.392281,-0.192926c-2.123831,-0.048244 -3.84746,-0.385571 -5.112539,-0.482315c-0.288548,-0.022066 -0.289391,0 -0.192926,0c0.675241,0 3.374699,0.530537 5.691317,0.578777c2.218168,0.046192 4.244371,0.385851 4.244371,0.192926c0,-0.096462 -1.443312,0.23588 -3.472668,0.385853c-1.830341,0.135265 -3.861101,0.267227 -3.954983,0.289389c-0.209929,0.049557 -0.384449,0.537685 0.096462,1.254019c0.571556,0.851353 2.436852,2.215286 3.858521,1.92926c0.845842,-0.170176 1.913776,-1.421036 1.832798,-2.025723c-0.046165,-0.344727 -1.356201,-1.214767 -2.604502,-1.061094c-1.211029,0.149084 -2.612322,1.358068 -3.086817,2.700964c-0.523149,1.480598 -0.430319,3.580223 -0.192924,4.437298c0.081427,0.293976 0.192924,0.482315 0.192924,0.289391c0,-0.192926 0.168411,-1.552626 0,-3.086817c-0.194084,-1.768068 -0.668886,-2.329031 -0.868166,-2.411575c-0.281822,-0.116734 -0.266918,0.386227 -0.289389,1.061092c-0.04826,1.449354 -0.096464,1.92926 -0.096464,2.122187c0,0.096462 0.052704,-0.001419 0.096464,-0.675241c0.144999,-2.232738 0.385851,-3.279741 0.385851,-3.954983c0,-0.192926 -0.132799,0.182056 -0.289389,0.771704c-0.37874,1.426167 -0.578779,2.990355 -0.675241,4.147909c-0.096464,1.157557 -0.028254,1.571663 -0.096462,1.639872c-0.068209,0.068209 -0.117828,-0.079037 -0.192926,-0.192926c-0.857889,-1.301023 -0.868166,-3.376205 -1.254019,-5.112539c-0.385853,-1.736334 -0.368849,-2.364668 -0.578777,-2.315111c-0.093882,0.022161 -0.017525,0.484606 0.192924,2.025723c0.356236,2.608717 0.771706,3.858521 0.96463,4.726686c0,0 0.026266,-0.48418 -0.096462,-2.025723c-0.23843,-2.994846 -0.655996,-4.538742 -0.96463,-5.691317c-0.18165,-0.678362 -0.284037,-0.771629 -0.289389,-0.578777c-0.04825,1.738342 -0.130629,3.477634 0.096462,4.919613c0.167778,1.065357 0.2962,1.444962 0.096464,0.771704c-0.373167,-1.257853 -1.007215,-3.166441 -1.446945,-4.340836c-0.21393,-0.571348 -0.296227,-0.771461 -0.28939,-0.675241c0.048353,0.680382 0.269427,2.204197 0.578778,4.051447c0.256901,1.534056 0.096462,2.218649 0.289389,2.218649c0.096464,0 -0.44109,-0.758591 -0.96463,-3.086817c-0.32373,-1.439651 -0.530381,-2.598516 -0.578777,-3.183279c-0.015912,-0.192268 0.408561,0.070978 1.061092,0.675241c0.600563,0.556139 1.543407,1.350483 1.832798,1.639872c0.096462,0.096462 0.249329,0.11467 0.192924,0.192926c-0.178362,0.247463 -1.160841,0.162998 -1.832796,0.096462c-0.489473,-0.048468 -1.207648,-0.343235 -1.446945,-0.675241c-0.126121,-0.174984 -0.094485,-0.672781 0.385852,-1.061092c0.838706,-0.678022 2.018508,-0.771585 3.954984,-0.868168c0.867088,-0.043247 1.350481,0 1.350481,0c-0.096462,0 -0.289389,0 -1.157555,0c-0.771706,0 -1.639872,0 -2.218651,0c-0.096462,0 0,0 0.385853,0.096464c0.385853,0.096462 2.508038,0.192924 3.569132,0.192924c0.482315,0 0.697489,-0.029249 0.578777,-0.096462c-1.038307,-0.587879 -2.319914,-0.368782 -3.376205,-0.675241c-1.260077,-0.365583 -1.773651,-0.667294 -2.025723,-0.771704c-0.17824,-0.07383 -0.237425,-0.154961 0,-0.289389c0.692204,-0.39192 2.987804,-0.690069 4.630224,-0.96463c1.830107,-0.305937 2.315111,-0.192926 2.315111,-0.289389c0,-0.096462 -1.026644,0.234596 -2.700964,0.578777c-2.379129,0.489063 -3.762056,0.385853 -4.630224,0.385853c-0.578777,0 -1.135393,-0.190348 -1.157556,-0.096464c-0.099114,0.419855 0.641952,0.368774 1.25402,0.578779c1.395731,0.478886 4.366756,0.483349 5.594854,0.868166c0.495705,0.155325 0.763962,0.126438 0.482315,0.192926c-0.419857,0.099115 -2.129675,0.233295 -3.376205,0.096462c-0.884035,-0.097042 -1.789309,-0.381527 -2.122187,-0.482313c-0.184649,-0.055906 -0.289389,0 -0.192926,0c0.289391,0 1.094774,0.282701 2.122187,0.67524c0.604477,0.230949 1.061092,0.385853 0.192926,0.096464c-1.157557,-0.385853 -2.181721,-0.880405 -2.89389,-1.446945c-0.747313,-0.594496 -0.839914,-0.856466 -0.771704,-1.061094c0.13642,-0.409256 1.255758,-0.312603 2.797426,-0.385851c2.032598,-0.096573 3.086817,-0.096464 3.665594,-0.096464c0.192926,0 0.202118,-0.034006 -0.096462,-0.096462c-1.042896,-0.218149 -2.504633,-0.216616 -4.437298,-0.482315c-0.770462,-0.105923 -1.399346,-0.181211 -1.350483,-0.482315c0.030904,-0.190435 0.391607,-0.050108 1.446945,0.096464c1.555374,0.216022 3.472668,0.289389 5.980707,0.289389c1.061092,0 1.63987,0.192926 1.63987,0c0,-0.192926 -0.299295,-0.013638 -1.446945,-0.192926c-2.543108,-0.397289 -4.074228,-0.747665 -5.401928,-1.061092c-1.187529,-0.280338 -1.525166,-0.480574 -1.543407,-0.385853c-0.098236,0.510096 2.133005,0.914995 3.569132,1.254019c1.070425,0.252693 1.894707,0.269403 1.929258,0.482315c0.021852,0.134657 -0.483423,0.183428 -1.350481,0.289389c-1.448971,0.177074 -2.599998,0.337713 -3.376205,0.289389c-0.770212,-0.047953 -1.089346,0.068211 -1.157557,0c-0.068209,-0.068209 0.369921,-0.259418 1.446945,-0.482315c1.335886,-0.276468 2.502899,-0.530424 3.183279,-0.578777c0.28866,-0.020515 0.408901,-0.040119 0.096464,-0.192926c-0.54805,-0.268042 -1.240648,-0.445869 -2.411575,-0.67524c-0.669374,-0.131123 -1.053936,-0.240923 -1.543407,-0.289391c-0.287983,-0.028517 -0.578779,0 -1.350483,0c-0.578778,0 -1.061093,0 -1.446945,0c-0.096463,0 0.105255,0.076754 0.771704,0.385853c0.782705,0.363018 1.904902,0.944117 2.700964,1.157557c0.566746,0.151957 1.254019,0.096462 1.543409,0.096462c0.096462,0 0.196993,-0.277863 -0.385853,-0.482315c-0.455126,-0.159651 -0.973949,-0.044975 -1.543407,0.096464c-0.296047,0.07353 -0.531874,0.07946 -0.482315,0.289389c0.022163,0.093882 0.285782,0.144634 1.254019,0.192924c2.023207,0.100908 2.700964,-0.192924 2.990353,-0.192924c0,0 -0.197065,-0.164972 -0.289389,-0.192926c-0.665758,-0.201576 -0.868168,-0.675241 -0.868168,-0.578777c0,0.096464 0.289391,0 0.578779,0c1.92926,0 3.56913,0 5.305464,0c2.025724,0 2.819456,-0.110744 3.086817,0c0.126034,0.052204 0.192926,0.096462 0.096462,0.096462c-0.482315,0 -1.832796,-0.096462 -2.990353,-0.096462c-1.061092,0 -2.109146,0.096071 -3.183279,0.192924c-0.768585,0.069304 -1.543407,0 -2.122185,0c-0.385853,0 -0.678978,0.046354 -0.96463,0c-0.301105,-0.048862 -0.376957,-0.240793 -0.771706,-0.289389c-0.095739,-0.011786 -0.163353,-0.237185 -0.289389,-0.289389c-0.089119,-0.036915 -0.133377,-0.007343 -0.096462,-0.096462c0.10441,-0.252071 0.768696,-0.434042 1.92926,-0.482315c1.060175,-0.044098 2.129028,0.062019 3.183279,0.289389c0.777576,0.1677 1.403511,0.480146 2.700964,0.675241c0.858515,0.129093 1.543407,0.192924 2.218649,0.192924c0.289389,0 0.385851,0 0.385851,0c0,0.096464 -0.096462,0.096464 -0.385851,0.096464c-1.92926,0 -3.469889,0.048195 -4.726686,0.096462c-1.445879,0.055529 -1.736336,0 -1.832798,0c-0.096462,0 -0.132933,0.238142 0.096462,0.385853c1.385899,0.892403 3.03191,0.987576 4.147909,1.350481c1.230751,0.400221 1.55308,0.539165 1.543409,0.675241c-0.034189,0.481102 -1.154549,0.530504 -2.315113,0.578777c-1.734835,0.072159 -2.499142,0.047869 -2.89389,0.096464c-0.095739,0.011786 0.385853,0.096462 1.92926,0.096462c1.446945,0 2.218649,0 2.89389,0c0,0 -0.181211,-0.0476 -0.482315,-0.096462c-0.380869,-0.061806 -1.638226,-0.349247 -3.376205,-0.289389c-0.777248,0.02677 -1.32943,-0.095312 -1.350481,0.096462c-0.097042,0.884033 2.13612,0.155186 3.472668,-0.192926c1.269678,-0.330696 1.418694,-0.414104 1.350483,-0.482315c-0.136419,-0.136419 -0.673903,-0.114161 -1.832798,-0.192926c-1.831108,-0.124454 -2.797426,-0.096462 -3.279741,-0.096462c-0.096464,0 0.388273,0.174383 1.63987,0.096462c1.552414,-0.096649 3.665594,-0.482313 4.437298,-0.67524c0.385853,-0.096464 0.577677,-0.121706 0.289391,-0.096464c-1.658863,0.145248 -3.175806,0.522573 -4.630224,0.771704c-1.34461,0.230322 -1.736334,0.192928 -1.736334,0.289391c0,0.385851 1.530512,-0.059633 3.183279,-0.385853c2.396023,-0.472923 3.665594,0 3.665594,-0.385853c0,-0.192926 -0.576593,0.105671 -0.96463,0.192926c-1.439651,0.323729 -3.963381,0.623556 -5.305466,0.868168c-0.874931,0.159468 -1.832796,0.289389 -2.025723,0.289389c-0.096464,0 -0.216356,0.095201 0.385851,0.192926c1.237825,0.200872 2.886297,-0.192793 4.726688,-0.289389c0.385321,-0.020224 0.74345,-0.028254 0.67524,-0.096464c-0.204628,-0.204628 -1.544426,-0.278784 -2.6045,-0.385851c-0.869089,-0.087778 -1.724619,-0.240528 -2.025724,-0.289391c-0.095217,-0.015451 -0.029572,-0.044258 0.096464,-0.096462c1.069445,-0.442972 4.133766,-0.556049 6.46302,-0.96463c2.015516,-0.353548 3.858521,-0.578777 4.244371,-0.578777c0.192928,0 0,0 -0.289387,0c-0.385853,0 -4.340836,0.096462 -5.305466,0.096462c-0.675241,0 -0.770992,0.03702 0.192926,0c1.256798,-0.048267 2.988781,-0.241146 5.209002,-0.289389c0.867962,-0.01886 1.350483,0 1.543407,0c0.096462,0 0.004189,-0.126307 -0.578777,-0.192926c-1.536421,-0.175579 -3.279743,-0.096462 -5.787781,-0.096462c-1.157557,0 -1.92926,-0.096464 -2.315111,-0.096464c0,0 0.771704,-0.192924 2.025723,-0.192924c2.218649,0 3.472668,0 4.53376,0c0.482317,0 0.570601,-0.112061 -0.192924,0c-0.996428,0.146244 -1.92926,0.385849 -3.086817,0.67524c-0.385853,0.096464 -0.566977,0.102831 -0.675241,0.289389c-0.174572,0.300817 -0.289389,0.675241 -0.289389,1.061094c0,0.192926 0.037319,0.377903 0.289389,0.482315c0.089121,0.036915 0.147177,0.082056 0.096464,0c-0.1134,-0.183485 -0.750746,-0.344248 -1.446945,-0.578779c-0.753828,-0.253946 -1.282272,-0.31764 -1.350483,-0.385851c-0.068211,-0.068211 0.093609,-0.394642 0.675241,-0.578779c0.960136,-0.303967 2.510929,-0.531633 2.89389,-0.578777c0.394747,-0.048595 0.385851,-0.096462 0.385851,-0.096462c0,0.096462 -0.293739,0.081839 -0.96463,0.289389c-0.582832,0.180307 -0.851231,0.20237 -0.964628,0.385851c-0.050714,0.082058 -0.046288,0.224148 0.096462,0.385853c0.230175,0.26074 0.549206,0.237185 0.675241,0.289389c0.089119,0.036915 -0.02354,-0.01556 -0.482315,-0.192926c-0.52463,-0.202826 -1.251833,-0.587982 -1.639872,-0.67524c-0.479883,-0.10791 -0.969791,-0.148602 -1.157557,-0.192926c-0.209927,-0.049557 -0.583939,-0.148602 -0.771704,-0.192926c-0.209929,-0.049557 -0.249434,-0.056509 -0.385851,-0.192926c-0.068209,-0.068209 -0.21509,-0.195505 -0.192926,-0.289389c0.049557,-0.209929 0.675241,-0.289389 1.543407,-0.289389c1.736334,0 2.799122,0.045355 3.569132,0.096462c1.456545,0.096676 2.218649,0.289391 2.990353,0.289391c0.771704,0 0.96463,0.096462 1.157555,0.096462c0,0 -0.289631,0.006838 -0.385851,0c-0.68038,-0.048353 -2.131735,-0.123158 -3.086817,-0.289389c-0.783672,-0.136398 -1.836832,-0.454205 -2.6045,-0.578779c-0.485516,-0.078789 -1.242304,-0.336988 -1.543409,-0.385851c-0.095217,-0.015451 -0.356279,-0.140721 -0.482313,-0.192926c-0.089121,-0.036915 -0.261137,-0.028254 -0.192926,-0.096463c0.409258,-0.409257 0.885237,-0.063166 1.350481,0.096463c0.408047,0.140003 0.673214,0.199236 0.96463,0.289389c0.670891,0.207548 1.157557,0.192926 1.446945,0.192926c0.482315,0 0.675241,0 0.96463,0c0.192926,0 0.482315,0 0.868168,0c0.67524,0 0.868166,0.096462 1.157555,0.096462c0.289391,0 0.771704,0 1.157557,0c0.385851,0 1.157557,0 1.543409,0c0.289387,0 0.765717,-0.144529 1.350479,-0.192924c0.288406,-0.023869 0.727451,0.029572 0.675243,-0.096464c-0.036915,-0.089119 -0.383076,-0.048195 -1.639874,-0.096462c-0.963917,-0.037018 -2.022713,0.048273 -3.183277,0c-0.289139,-0.012026 -0.434502,0.033339 -0.289389,0.192926c0.612226,0.673302 1.592276,0.7616 2.315111,1.157555c0.423008,0.231716 0.62949,0.496721 0.578777,0.578779c-0.453594,0.733932 -2.230625,0.424459 -3.762056,0.771704c-1.460436,0.331146 -2.884995,0.723108 -3.279741,0.771704c-0.095741,0.011786 -0.009424,0.131592 0.289389,0.192926c1.137846,0.233553 3.671877,0.037321 5.498392,-0.289389c1.452545,-0.259819 2.89389,-0.385853 3.183277,-0.385853c0.096462,0 -0.000656,-0.080549 -0.192924,-0.096462c-0.584763,-0.048397 -2.510647,-0.18038 -3.858521,-0.096464c-0.776207,0.048325 -1.157557,0.096464 -1.157557,0.192926c0,0.096462 0.871311,0.272839 1.92926,0.482315c1.354837,0.268261 3.07966,0.53031 3.569132,0.578777c0.287979,0.028515 0.472771,-0.674248 0,-0.578777c-0.389858,0.078728 -0.293076,1.928959 -0.385853,3.086817c-0.100456,1.253706 0,2.508038 0,2.700964c0,0.096462 0.046356,-0.100201 0,-0.385853c-0.048862,-0.301104 -0.132645,-1.663773 -0.578777,-2.700964c-0.255688,-0.594437 -0.289391,-0.868168 -0.289391,0.289389c0,1.254019 0.112041,2.601517 0.289391,3.569132c0.105782,0.577147 -0.117115,0.062561 -0.578777,-0.868168c-0.749821,-1.511665 -1.378944,-2.161259 -1.639874,-2.89389c-0.196865,-0.55275 0,-0.578777 0,-0.578777c0.385853,0.482315 0.724503,1.279484 1.157558,2.025723c0.34914,0.601635 0.482315,0.868168 0.578777,0.868168c0.192924,0 0.1446,-0.477812 0.192924,-1.254019c0.071926,-1.155319 0.096462,-2.122187 0.096462,-2.315113c0,0 0.122929,0.085367 0.192928,0.289389c0.15963,0.465244 0.192924,1.061094 0.192924,1.254021c0,0 0.114063,-0.391487 0,-1.543409c-0.048466,-0.489473 0,-0.771704 -0.096462,-0.771704c-0.096462,0 0.23597,0.349001 0.578777,1.92926c0.32975,1.520063 0.626202,3.160307 0.771706,4.533762c0.030487,0.287779 -0.012733,0.409454 -0.385853,0.192924c-0.902454,-0.523714 -1.84433,-1.422865 -3.472668,-2.990353c-0.934971,-0.900032 -1.294941,-1.917824 -1.832798,-2.700964c-0.154463,-0.224903 -0.192924,-0.192926 -0.096462,-0.192926c0.578777,0 1.048155,0.406004 1.639872,0.771704c0.661562,0.408867 0.868166,0.385853 0.868166,0.385853c-0.096462,-0.385853 -0.3307,-0.909006 -0.771704,-1.446945c-0.172977,-0.210999 -0.360834,-0.311516 -0.192926,-0.096462c1.038456,1.330029 1.656586,2.69075 2.797428,3.665594c0.997478,0.852339 1.847206,1.401194 1.92926,1.350481c0.183483,-0.1134 0.046139,-1.455759 -0.289391,-3.086815c-0.339447,-1.650103 -0.383663,-3.366999 -0.771702,-3.279743c-0.479885,0.107908 0.33773,1.562899 1.061092,3.279743c0.45256,1.07412 0.819305,1.628155 0.868168,1.92926c0.015453,0.095217 -0.061634,0.046247 -0.192928,-0.192926c-0.855927,-1.559208 -0.482315,-3.472668 -0.482315,-5.016077c0,-0.868166 0.010693,-1.00877 0.096462,-0.96463c0.737839,0.379704 1.045971,1.613733 1.350483,2.700964c0.265316,0.947281 0.192924,1.350483 0.289391,1.350483c0.192924,0 -0.387405,-0.63801 -0.675243,-1.543407c-0.149021,-0.468748 -0.096462,-0.578779 -0.096462,-0.578779c0.096462,0 0.395447,0.149223 0.868168,1.446945c0.376442,1.033419 0.256947,2.053087 0.482315,2.797428c0.062504,0.206442 0.012798,0.094509 -0.096462,-0.578779c-0.172756,-1.064564 -0.558506,-2.419142 -0.675243,-2.700964c-0.082546,-0.199278 -0.096462,0 -0.096462,0.385853c0,0.96463 0,2.508038 0,3.086815c0,0.192926 0.027954,0.381714 0,0.289389c-0.100788,-0.332878 -0.6376,-1.435667 -0.868168,-2.797426c-0.129829,-0.766796 -0.378506,-1.313566 -0.289387,-1.350481c0.126034,-0.052204 0.210052,0.474062 0.482315,1.061092c0.309097,0.666449 0.402401,1.463495 0.67524,1.736334c0.068211,0.068209 0.224434,0.006535 0.289391,-0.385853c0.189713,-1.145969 0.096462,-3.279741 0.096462,-4.437298c0,-0.482315 0,-0.578777 0,-0.482315c0,0.868168 0.293468,2.217522 0.771706,3.954983c0.291878,1.060411 0.670914,1.49992 0.771702,1.832798c0.027954,0.092323 0.240795,-0.569881 0.289391,-0.96463c0.141438,-1.148884 0.096462,-2.508038 0.096462,-3.472668c0,-0.385853 0.005085,-0.290625 0.096462,0.096462c0.204327,0.865555 0.480541,1.708553 0.578777,2.218649c0.036484,0.189445 0.115891,0.285093 0,-0.192926c-0.165459,-0.682489 -0.08757,-1.688465 -0.482315,-1.63987c-0.095741,0.011786 0.107738,0.575657 0.289391,1.254019c0.205757,0.768381 0.385853,1.350481 0.482315,1.543407c0,0 0,0.096464 0,0c0,-0.096462 0.059315,-0.325274 -0.192928,-0.675241c-0.159531,-0.221336 -0.334538,-0.70727 -0.771702,-1.350481c-0.347202,-0.510845 -0.663853,-0.875189 -0.96463,-1.350483c-0.185986,-0.293896 -0.319294,-0.418407 -0.578777,-0.578777c-0.116043,-0.07172 -0.390835,-0.227581 -0.771706,-0.289389c-0.301102,-0.048862 -0.414501,-0.616028 -0.67524,-0.385853c-0.161705,0.142748 0.771702,0.96463 1.061092,1.157557c0.578777,0.385853 0.868168,0.964628 0.96463,0.771704c0.096462,-0.192924 -0.839397,-0.538197 -1.736336,-0.96463c-1.407436,-0.669144 -2.163021,-0.909477 -2.700962,-1.350481c-0.210999,-0.172977 -0.385853,-0.385853 -0.385853,-0.385853c0,0 0,-0.096462 0.192924,-0.096462c0.385853,0 1.242924,0.122925 1.446945,0.192926c0.465244,0.15963 0.851166,0.23983 1.061096,0.289389c0.093884,0.022163 0.192924,0 0.289387,0c0.096462,0 0.192928,0.096466 0.192928,0c0,-0.096466 -0.289391,0 -0.771706,-0.192926c-0.482315,-0.192926 -0.796455,-0.426256 -1.254021,-0.578777c-0.091511,-0.030504 -0.096462,-0.096464 0,-0.096464c0,0 0.192928,-0.096462 0.578781,-0.289389c0.192924,-0.096462 0.586517,-0.029974 0.868164,-0.096462c0.20993,-0.049559 0.578781,-0.096464 0.868168,-0.096464c0.192928,0 0.317642,-0.068209 0.385853,0c0.068211,0.068211 -0.098629,0.157568 -0.385853,0.192926c-0.394749,0.048595 -0.771702,0.096462 -0.868168,0.096462c-0.192924,0 -0.289387,-0.096462 -0.289387,-0.096462c0.096462,-0.192926 0.385853,-0.289389 0.771702,-0.289389c0.192928,0 0.398682,-0.041527 0.771706,0.096462c0.404602,0.149672 0.663811,0.307741 0.96463,0.482315c0.186558,0.108265 0.49313,0.377974 0.771702,0.771704c0.200882,0.283926 0.426258,0.507067 0.578781,0.96463c0.091515,0.274538 0,0.385853 0,0.482315c0,0.192926 -0.012409,0.214527 -0.192928,0.096464c-0.630524,-0.412371 -1.025688,-0.887268 -1.350479,-1.446945c-0.349144,-0.601637 -0.526573,-0.74213 -0.578781,-0.868168c-0.036915,-0.089119 0.009209,-0.002186 0.096466,0.385853c0.10791,0.479883 0.333645,0.838594 0.385849,0.96463c0.036915,0.089119 -0.056885,-0.022472 -0.289387,-0.385853c-0.332893,-0.520281 -0.863842,-1.017603 -0.96463,-1.350481c-0.027954,-0.092325 0.158905,0.003889 0.482315,0.289389c0.521481,0.460352 0.482315,0.675241 0.578777,0.771704c0.096462,0.096462 -0.096462,0.000002 -0.289391,-0.096462c-0.192924,-0.096462 -0.192924,-0.289391 -0.192924,-0.385853c0,-0.096462 0.002579,-0.074299 0.096462,-0.096462c0.20993,-0.049559 0.289391,-0.096464 0.385853,-0.096464c0.096462,0 0.14072,-0.163355 0.192924,-0.289389c0.036915,-0.089119 0,-0.192926 0,-0.385853c0,0 -0.028252,-0.028254 -0.096462,-0.096462c-0.068211,-0.068209 0,-0.192926 0.096462,-0.192926c0.096466,0 0.289391,0 0.482315,0.096464c0,0 0.249435,0.056507 0.385853,0.192924c0.136421,0.136419 0.192924,0.385853 0.289391,0.578779c0.096462,0.192926 0.192924,0.385851 0.192924,0.578777c0,0 -0.029572,0.237185 0.096462,0.289389c0.089119,0.036915 0.096462,0.096464 0.096462,0.096464c-0.192924,-0.289389 -0.404205,-0.56735 -0.578777,-0.868168c-0.108265,-0.18656 -0.140789,-0.284227 -0.096462,-0.096462c0.049557,0.209929 0.192924,0.385851 0.289391,0.482315l0.096462,0.096462l0,0.096464" id="svg_4" stroke-width="1.5" stroke="#000" fill="none"/>
  <path d="m14.980708,21.129019c0,-0.096462 0.329793,-0.329794 0.482315,-0.482315c0.152522,-0.152521 0.414105,-0.164673 0.482315,-0.096462c0.13642,0.136419 0,0.675241 0,1.157557c0,0.192924 0,0.192924 0,0.192924c0,-0.289389 0.021484,-0.458778 -0.192925,-0.482315c-0.395353,-0.0434 -0.561777,0.14337 -0.771705,0.192926c-0.093883,0.022163 -0.192925,0 -0.192925,-0.096462c0,-0.385853 0,-0.578777 0,-0.771704c0,-0.096464 0,-0.192926 0,-0.096464l0,0.096464" id="svg_5" stroke-width="1.5" stroke="#000" fill="none"/>
  <path d="m40.157551,39.456989c-0.096462,0.192928 -0.096462,0.482315 -0.096462,0.578777c0,0.096466 0.096462,0.096466 0.289391,0.096466c0.096462,0 -0.11441,0.163265 -0.289391,0.289387c-0.332008,0.2393 -0.614662,0.326538 -0.96463,0.578777c-0.110668,0.079765 -0.192924,0.096462 -0.192924,0.096462c0.192924,-0.096462 0.289387,-0.096462 0.289387,0c0,0.096466 -0.132771,0.297138 -0.289387,0.675243c-0.036915,0.089119 -0.096134,0.200882 0,0.192924c0.584763,-0.048397 1.061092,-0.096462 1.543407,-0.096462c0.096462,0 0,0 -0.096462,0c-0.192928,0 -0.289391,-0.096462 -0.385853,-0.096462l0,-0.096462" id="svg_6" stroke-width="1.5" stroke="#000" fill="none"/>
  <path d="m37.167198,15.920017c-0.289387,0 -0.868168,0.096462 -1.157555,0.096462c-0.192928,0 -0.289391,0 -0.192928,0c0.096466,0 0.482315,0 1.061096,0c0.385849,0 0.868164,0.096464 0.868164,0.096464c0.096466,0 0,0 -0.192924,0l-0.192924,0.096462l0,0.192926" id="svg_7" stroke-width="1.5" stroke="#000" fill="none"/>
  <path d="m20.864952,20.260853c0,0.192926 0,0.675241 0,1.63987c0,0.192926 0,0.771706 0,0.771706c0,0.096462 0,-0.192926 0,-0.675241c0,-0.771704 -0.019583,-1.229277 0.096462,-1.157557c0.259485,0.160368 -0.110424,0.776762 -0.192926,1.446945c-0.097191,0.789494 -0.289389,1.350483 -0.289389,1.543407c0,0.096464 0,0 0,-0.096462c0,-0.289389 0,-0.675241 -0.096462,-0.96463l0,-0.096462" id="svg_8" stroke-width="1.5" stroke="#000" fill="none"/>
 </g>
</svg>