<?xml version="1.0" encoding="UTF-8"?>
<svg xmlns="http://www.w3.org/2000/svg" xmlns:xlink="http://www.w3.org/1999/xlink" width="512px" height="512px" viewBox="0 0 512 512" version="1.1">
<g id="surface1">
<path style=" stroke:none;fill-rule:nonzero;fill:rgb(0%,0%,0%);fill-opacity:1;" d="M 381.667969 225.917969 C 381.667969 128.332031 329.167969 95.082031 280.082031 87.667969 C 280.082031 87.167969 280.167969 86.667969 280.167969 86.082031 C 280.167969 73.832031 269.332031 64 256 64 C 242.667969 64 232.167969 73.832031 232.167969 86.082031 C 232.167969 86.667969 232.167969 87.167969 232.332031 87.667969 C 183.082031 95.167969 130.332031 128.5 130.332031 226.082031 C 130.332031 339.917969 102 352.082031 64 384.082031 L 448 384.082031 C 410.167969 352 381.667969 339.667969 381.667969 225.917969 Z M 107.167969 368 C 115.832031 359 123.582031 349.582031 129.917969 336.167969 C 141.917969 310.917969 147.332031 277 147.332031 226 C 147.332031 179.582031 159.832031 145.582031 184.417969 124.832031 C 207.332031 105.5 236.082031 101.5 256.167969 101.5 C 276.332031 101.5 305.082031 105.5 327.832031 124.832031 C 352.332031 145.5 364.832031 179.332031 364.832031 225.667969 C 364.832031 309.5 379.667969 343 405.082031 368 Z M 107.167969 368 "/>
<path style=" stroke:none;fill-rule:nonzero;fill:rgb(0%,0%,0%);fill-opacity:1;" d="M 256.167969 448 C 283 448 305 428.082031 307.917969 405 L 204.5 405 C 207.332031 428.082031 229.417969 448 256.167969 448 Z M 256.167969 448 "/>
</g>
</svg>
