<svg version="1.1" id="Layer_1" xmlns="http://www.w3.org/2000/svg" xmlns:xlink="http://www.w3.org/1999/xlink" x="0px" y="0px"
	 width="100%" viewBox="0 0 512 512" enable-background="new 0 0 512 512" xml:space="preserve">
<path fill="#FFFFFF" opacity="1.000000" stroke="none" 
	d="
M266.000000,1.000000 
	C348.297699,1.000000 430.595367,1.000000 512.946533,1.000000 
	C512.946533,171.557129 512.946533,342.114288 512.946533,513.000000 
	C431.978271,513.000000 350.956116,513.000000 269.609192,512.610718 
	C291.318542,509.272369 308.569214,498.229065 321.994568,480.862427 
	C331.248260,468.892181 336.447968,455.217773 338.150635,440.001373 
	C340.095734,440.001373 341.742310,440.001373 343.388855,440.001373 
	C376.545471,440.001373 409.705566,440.258575 442.856049,439.807770 
	C450.468842,439.704254 458.598938,438.461456 465.541046,435.509247 
	C486.959473,426.400879 496.128479,405.187256 490.916168,382.781982 
	C486.948975,365.728882 470.650574,350.906555 452.025116,349.953308 
	C447.979187,349.746246 443.863922,349.357513 439.951874,348.372345 
	C430.080444,345.886292 425.264496,338.413544 421.971802,329.450470 
	C415.952606,313.065430 416.160828,295.789551 415.214172,278.814117 
	C414.004211,257.117035 414.387512,235.333038 413.969452,213.588684 
	C413.842804,207.001328 413.686096,200.380905 412.933044,193.845932 
	C411.146881,178.345352 409.104645,162.871582 406.941803,147.418335 
	C405.966980,140.453308 402.724274,137.892487 396.167358,137.753235 
	C394.989349,133.566833 393.921051,129.771408 392.998962,125.647644 
	C398.332428,121.754272 397.868988,117.216423 395.051056,112.575081 
	C389.639954,103.662560 384.560089,94.481522 378.394470,86.110359 
	C369.209564,73.639915 357.387573,64.075584 343.569946,56.796955 
	C331.827515,50.611473 319.512268,46.196884 306.649414,43.477608 
	C302.101501,42.516159 301.546936,39.943436 301.001770,36.558361 
	C299.397614,26.597488 294.483185,18.154425 286.752838,12.205317 
	C280.602997,7.472545 272.972931,4.663237 266.000000,1.000000 
M402.352936,47.030258 
	C396.881622,43.012360 391.599182,38.695480 385.874451,35.078648 
	C381.865326,32.545708 377.997528,33.856152 375.954956,37.428154 
	C373.470123,41.773552 374.268341,46.193302 377.619720,48.995815 
	C384.553040,54.793697 391.742432,60.367920 398.091187,66.764030 
	C409.160126,77.915604 416.460541,91.561462 422.028809,106.158844 
	C428.998749,124.430893 431.920044,143.412292 432.021027,162.901703 
	C432.046661,167.852554 435.907623,172.324234 440.068817,171.923798 
	C445.156433,171.434235 447.937927,168.784424 448.114777,162.948837 
	C448.535187,149.078751 446.897461,135.392380 443.824768,122.026726 
	C437.249084,93.423897 424.284698,68.071091 402.352936,47.030258 
M471.037140,71.342354 
	C470.036255,69.357399 469.069855,67.354156 468.028717,65.390556 
	C462.368225,54.715023 454.703217,45.704514 444.983459,38.565910 
	C439.915314,34.843655 434.332031,37.090752 432.388428,43.052193 
	C430.765961,48.028767 433.773621,51.151005 437.086487,53.420898 
	C446.172028,59.646046 451.778107,68.609726 456.363068,78.058456 
	C462.268524,90.228470 465.484100,103.253021 465.067657,116.994682 
	C465.001068,119.192360 465.600098,121.493744 466.300262,123.612038 
	C467.419769,126.998924 470.087067,128.064850 473.548096,128.054276 
	C477.022217,128.043655 480.040405,126.973358 480.650543,123.516068 
	C481.329712,119.667519 481.050690,115.626366 480.978271,111.672920 
	C480.723389,97.756790 477.643890,84.498192 471.037140,71.342354 
z"/>
<path fill="#FFFFFF" opacity="1.000000" stroke="none" 
	d="
M244.000000,513.000000 
	C163.035126,513.000000 82.070267,513.000000 1.052700,513.000000 
	C1.052700,342.442505 1.052700,171.884995 1.052700,1.000000 
	C82.688385,1.000000 164.377213,1.000000 246.412201,1.371834 
	C227.791550,6.674230 215.808731,18.272623 211.873642,37.824631 
	C211.406677,40.144760 211.003922,42.582664 206.968124,43.305054 
	C199.302673,44.677132 191.806122,47.345657 184.455353,50.060410 
	C156.115356,60.526783 135.060471,79.478050 121.042885,106.096626 
	C107.559174,131.701416 102.698112,159.664093 100.095779,188.066299 
	C98.863441,201.516052 98.425713,215.054001 98.054970,228.563705 
	C97.504044,248.638962 97.722755,268.741669 96.847893,288.799255 
	C96.345650,300.314056 94.914429,311.871460 92.805748,323.205841 
	C91.228363,331.684418 87.836357,339.738159 80.312195,345.238800 
	C74.389595,349.568604 67.379791,349.240387 60.745083,349.868011 
	C47.341248,351.136017 37.001099,357.566254 29.110806,367.879730 
	C22.121317,377.015778 20.091961,387.796631 20.962839,399.214417 
	C21.528690,406.633118 23.958349,413.381653 28.042486,419.453918 
	C38.147678,434.478302 53.130669,439.784393 70.438576,439.973358 
	C83.434074,440.115265 96.432411,439.982483 109.429405,440.009888 
	C115.335899,440.022369 120.384453,438.757690 122.527435,432.046600 
	C127.291367,432.027100 131.596359,432.042755 135.948608,432.425049 
	C137.791351,438.669586 142.438919,439.955200 147.767090,439.986816 
	C156.728165,440.039948 165.689774,440.001373 174.821243,440.001373 
	C176.532974,452.811188 179.997971,464.835907 187.130875,475.337921 
	C196.907562,489.732574 209.193878,501.409607 225.961716,507.415680 
	C231.881683,509.536163 237.982010,511.153137 244.000000,513.000000 
M100.497719,58.001949 
	C95.001808,65.964134 88.902336,73.584251 84.150711,81.968254 
	C76.930054,94.708748 71.637680,108.479706 69.232193,122.910675 
	C66.956337,136.563950 66.183479,150.481873 65.092834,164.310471 
	C64.740822,168.773758 68.298141,171.841034 72.774872,171.997711 
	C76.986130,172.145096 80.711258,168.511368 81.018661,164.175537 
	C81.621078,155.678909 82.276573,147.185181 83.011002,138.698975 
	C84.403038,122.614296 89.339806,107.408020 96.547813,93.205612 
	C105.717422,75.138130 118.441032,59.782471 135.737167,48.578869 
	C138.754684,46.624271 140.048935,43.525455 138.213577,39.605064 
	C135.147522,33.055862 130.382309,31.636229 123.812355,36.914734 
	C115.844887,43.316040 108.578239,50.589630 100.497719,58.001949 
M80.757362,47.774544 
	C81.513306,43.759537 80.970764,40.145447 77.030312,38.029922 
	C73.079422,35.908787 69.582329,36.799358 66.468262,40.010189 
	C61.926949,44.692616 56.851250,48.915226 52.717949,53.923588 
	C41.708298,67.264107 35.712925,82.924835 33.053726,99.879051 
	C32.073597,106.128029 31.733686,112.476074 31.046274,118.772881 
	C30.694656,121.993774 33.921032,127.180367 36.847668,127.934975 
	C41.519466,129.139557 46.072083,127.227081 46.863255,122.773499 
	C48.307587,114.643173 48.457047,106.268463 50.107548,98.192055 
	C53.748730,80.374695 61.386654,64.686249 76.194527,53.209148 
	C77.813576,51.954281 78.857521,49.957394 80.757362,47.774544 
z"/>
<path fill="#010100" opacity="1.000000" stroke="none" 
	d="
M122.068489,432.081757 
	C120.384453,438.757690 115.335899,440.022369 109.429405,440.009888 
	C96.432411,439.982483 83.434074,440.115265 70.438576,439.973358 
	C53.130669,439.784393 38.147678,434.478302 28.042486,419.453918 
	C23.958349,413.381653 21.528690,406.633118 20.962839,399.214417 
	C20.091961,387.796631 22.121317,377.015778 29.110806,367.879730 
	C37.001099,357.566254 47.341248,351.136017 60.745083,349.868011 
	C67.379791,349.240387 74.389595,349.568604 80.312195,345.238800 
	C87.836357,339.738159 91.228363,331.684418 92.805748,323.205841 
	C94.914429,311.871460 96.345650,300.314056 96.847893,288.799255 
	C97.722755,268.741669 97.504044,248.638962 98.054970,228.563705 
	C98.425713,215.054001 98.863441,201.516052 100.095779,188.066299 
	C102.698112,159.664093 107.559174,131.701416 121.042885,106.096626 
	C135.060471,79.478050 156.115356,60.526783 184.455353,50.060410 
	C191.806122,47.345657 199.302673,44.677132 206.968124,43.305054 
	C211.003922,42.582664 211.406677,40.144760 211.873642,37.824631 
	C215.808731,18.272623 227.791550,6.674230 246.879181,1.371834 
	C253.021149,1.000000 259.042297,1.000000 265.531738,1.000000 
	C272.972931,4.663237 280.602997,7.472545 286.752838,12.205317 
	C294.483185,18.154425 299.397614,26.597488 301.001770,36.558361 
	C301.546936,39.943436 302.101501,42.516159 306.649414,43.477608 
	C319.512268,46.196884 331.827515,50.611473 343.569946,56.796955 
	C357.387573,64.075584 369.209564,73.639915 378.394470,86.110359 
	C384.560089,94.481522 389.639954,103.662560 395.051056,112.575081 
	C397.868988,117.216423 398.332428,121.754272 392.586395,125.605057 
	C385.458344,127.000473 382.551270,123.066338 380.099091,117.793015 
	C367.753021,91.243034 347.516266,73.350014 319.970276,63.616924 
	C294.259827,54.532410 267.662933,52.951267 240.748459,54.486126 
	C234.147308,54.862572 227.594406,56.085182 220.595032,56.874809 
	C194.358887,60.823971 171.092514,70.227943 152.503220,89.215797 
	C135.883957,106.191368 127.319496,127.337685 121.920761,149.981140 
	C116.367706,173.271835 114.910553,197.042694 114.193138,220.865417 
	C113.370857,248.170151 113.030731,275.492371 111.924271,302.784454 
	C111.272385,318.864136 108.247803,334.535583 99.255508,348.429230 
	C99.060043,348.731171 99.308601,349.320526 99.322380,349.471985 
	C204.314529,349.471985 309.150787,349.471985 413.923645,349.471985 
	C411.201599,343.745331 408.647827,338.372589 406.091248,332.599548 
	C404.680573,325.213379 402.368408,318.271667 402.024475,311.233795 
	C400.678314,283.684906 399.862793,256.108429 399.024841,228.536850 
	C398.246857,202.938858 397.450317,177.338028 391.643219,152.259048 
	C390.251953,146.250534 390.679565,141.526855 396.277069,138.144196 
	C402.724274,137.892487 405.966980,140.453308 406.941803,147.418335 
	C409.104645,162.871582 411.146881,178.345352 412.933044,193.845932 
	C413.686096,200.380905 413.842804,207.001328 413.969452,213.588684 
	C414.387512,235.333038 414.004211,257.117035 415.214172,278.814117 
	C416.160828,295.789551 415.952606,313.065430 421.971802,329.450470 
	C425.264496,338.413544 430.080444,345.886292 439.951874,348.372345 
	C443.863922,349.357513 447.979187,349.746246 452.025116,349.953308 
	C470.650574,350.906555 486.948975,365.728882 490.916168,382.781982 
	C496.128479,405.187256 486.959473,426.400879 465.541046,435.509247 
	C458.598938,438.461456 450.468842,439.704254 442.856049,439.807770 
	C409.705566,440.258575 376.545471,440.001373 343.388855,440.001373 
	C341.742310,440.001373 340.095734,440.001373 338.150635,440.001373 
	C336.447968,455.217773 331.248260,468.892181 321.994568,480.862427 
	C308.569214,498.229065 291.318542,509.272369 269.142212,512.610718 
	C260.979095,513.000000 252.958191,513.000000 244.468643,513.000000 
	C237.982010,511.153137 231.881683,509.536163 225.961716,507.415680 
	C209.193878,501.409607 196.907562,489.732574 187.130875,475.337921 
	C179.997971,464.835907 176.532974,452.811188 174.821243,440.001373 
	C165.689774,440.001373 156.728165,440.039948 147.767090,439.986816 
	C142.438919,439.955200 137.791351,438.669586 136.147629,432.119873 
	C137.362091,427.084290 139.547836,423.968842 144.559555,423.920715 
	C146.357651,423.903473 148.154861,423.796051 150.421432,423.806152 
	C249.028336,423.890503 347.166290,423.898590 445.304230,423.904938 
	C446.137085,423.904999 446.971863,423.914764 447.802490,423.865295 
	C466.834045,422.732269 479.582489,406.959625 476.165375,388.782684 
	C473.449310,374.334686 461.278168,365.063629 444.830719,365.060577 
	C347.859009,365.042633 250.887283,365.050964 153.915558,365.058258 
	C152.586166,365.058350 151.256775,365.159607 149.468903,365.138550 
	C121.691742,365.059937 94.372513,364.950958 67.054520,365.088104 
	C47.113094,365.188232 33.715107,380.782623 36.865189,399.863800 
	C39.174065,413.849518 51.411793,423.727722 66.948105,423.879272 
	C80.939301,424.015778 94.941277,424.196320 108.921745,423.786224 
	C115.589752,423.590607 120.251106,425.234436 122.068489,432.081757 
M263.925598,497.217041 
	C287.994843,495.033295 311.224609,476.990387 318.757355,454.514496 
	C320.056213,449.577637 321.355103,444.640747 322.770630,439.260468 
	C278.337463,439.260468 234.776886,439.260468 191.219818,439.260468 
	C191.067139,446.481537 194.510086,456.899658 199.999771,466.016602 
	C213.016571,487.634155 240.423157,501.178925 263.925598,497.217041 
M279.068481,26.465555 
	C268.862671,16.267284 256.441956,13.465115 244.527039,18.871132 
	C235.465820,22.982372 229.624619,29.732267 227.495636,39.462799 
	C247.252579,39.462799 266.312469,39.462799 286.506104,39.462799 
	C284.109619,35.166542 281.831696,31.082830 279.068481,26.465555 
z"/>
<path fill="#F7D360" opacity="1.000000" stroke="none" 
	d="
M396.167358,137.753235 
	C390.679565,141.526855 390.251953,146.250534 391.643219,152.259048 
	C397.450317,177.338028 398.246857,202.938858 399.024841,228.536850 
	C399.862793,256.108429 400.678314,283.684906 402.024475,311.233795 
	C402.368408,318.271667 404.680573,325.213379 405.616455,332.612854 
	C342.662994,333.029266 280.181091,333.130585 217.700638,332.876160 
	C211.725555,332.851868 205.258377,331.686401 199.885513,329.188385 
	C185.199402,322.360474 178.232559,309.880096 178.127457,293.937317 
	C178.015610,276.970490 178.536896,259.996552 178.949768,243.029816 
	C179.536285,218.926849 180.062927,194.819214 181.016159,170.729431 
	C181.824844,150.292679 184.892502,130.137039 190.091476,110.326408 
	C195.508896,89.683266 203.957962,70.811516 221.019333,56.918777 
	C227.594406,56.085182 234.147308,54.862572 240.748459,54.486126 
	C267.662933,52.951267 294.259827,54.532410 319.970276,63.616924 
	C347.516266,73.350014 367.753021,91.243034 380.099091,117.793015 
	C382.551270,123.066338 385.458344,127.000473 392.440186,125.933388 
	C393.921051,129.771408 394.989349,133.566833 396.167358,137.753235 
z"/>
<path fill="#000000" opacity="1.000000" stroke="none" 
	d="
M402.651001,47.231720 
	C424.284698,68.071091 437.249084,93.423897 443.824768,122.026726 
	C446.897461,135.392380 448.535187,149.078751 448.114777,162.948837 
	C447.937927,168.784424 445.156433,171.434235 440.068817,171.923798 
	C435.907623,172.324234 432.046661,167.852554 432.021027,162.901703 
	C431.920044,143.412292 428.998749,124.430893 422.028809,106.158844 
	C416.460541,91.561462 409.160126,77.915604 398.091187,66.764030 
	C391.742432,60.367920 384.553040,54.793697 377.619720,48.995815 
	C374.268341,46.193302 373.470123,41.773552 375.954956,37.428154 
	C377.997528,33.856152 381.865326,32.545708 385.874451,35.078648 
	C391.599182,38.695480 396.881622,43.012360 402.651001,47.231720 
z"/>
<path fill="#000000" opacity="1.000000" stroke="none" 
	d="
M471.258728,71.664673 
	C477.643890,84.498192 480.723389,97.756790 480.978271,111.672920 
	C481.050690,115.626366 481.329712,119.667519 480.650543,123.516068 
	C480.040405,126.973358 477.022217,128.043655 473.548096,128.054276 
	C470.087067,128.064850 467.419769,126.998924 466.300262,123.612038 
	C465.600098,121.493744 465.001068,119.192360 465.067657,116.994682 
	C465.484100,103.253021 462.268524,90.228470 456.363068,78.058456 
	C451.778107,68.609726 446.172028,59.646046 437.086487,53.420898 
	C433.773621,51.151005 430.765961,48.028767 432.388428,43.052193 
	C434.332031,37.090752 439.915314,34.843655 444.983459,38.565910 
	C454.703217,45.704514 462.368225,54.715023 468.028717,65.390556 
	C469.069855,67.354156 470.036255,69.357399 471.258728,71.664673 
z"/>
<path fill="#E48D13" opacity="1.000000" stroke="none" 
	d="
M149.952484,423.729767 
	C148.154861,423.796051 146.357651,423.903473 144.559555,423.920715 
	C139.547836,423.968842 137.362091,427.084290 136.100372,431.753235 
	C131.596359,432.042755 127.291367,432.027100 122.527435,432.046600 
	C120.251106,425.234436 115.589752,423.590607 108.921745,423.786224 
	C94.941277,424.196320 80.939301,424.015778 66.948105,423.879272 
	C51.411793,423.727722 39.174065,413.849518 36.865189,399.863800 
	C33.715107,380.782623 47.113094,365.188232 67.054520,365.088104 
	C94.372513,364.950958 121.691742,365.059937 149.273712,365.388367 
	C147.834167,367.263184 145.937469,368.648285 144.458908,370.388641 
	C131.242477,385.945251 132.848984,410.511108 149.952484,423.729767 
z"/>
<path fill="#000000" opacity="1.000000" stroke="none" 
	d="
M100.753036,57.743874 
	C108.578239,50.589630 115.844887,43.316040 123.812355,36.914734 
	C130.382309,31.636229 135.147522,33.055862 138.213577,39.605064 
	C140.048935,43.525455 138.754684,46.624271 135.737167,48.578869 
	C118.441032,59.782471 105.717422,75.138130 96.547813,93.205612 
	C89.339806,107.408020 84.403038,122.614296 83.011002,138.698975 
	C82.276573,147.185181 81.621078,155.678909 81.018661,164.175537 
	C80.711258,168.511368 76.986130,172.145096 72.774872,171.997711 
	C68.298141,171.841034 64.740822,168.773758 65.092834,164.310471 
	C66.183479,150.481873 66.956337,136.563950 69.232193,122.910675 
	C71.637680,108.479706 76.930054,94.708748 84.150711,81.968254 
	C88.902336,73.584251 95.001808,65.964134 100.753036,57.743874 
z"/>
<path fill="#000000" opacity="1.000000" stroke="none" 
	d="
M80.462784,48.039604 
	C78.857521,49.957394 77.813576,51.954281 76.194527,53.209148 
	C61.386654,64.686249 53.748730,80.374695 50.107548,98.192055 
	C48.457047,106.268463 48.307587,114.643173 46.863255,122.773499 
	C46.072083,127.227081 41.519466,129.139557 36.847668,127.934975 
	C33.921032,127.180367 30.694656,121.993774 31.046274,118.772881 
	C31.733686,112.476074 32.073597,106.128029 33.053726,99.879051 
	C35.712925,82.924835 41.708298,67.264107 52.717949,53.923588 
	C56.851250,48.915226 61.926949,44.692616 66.468262,40.010189 
	C69.582329,36.799358 73.079422,35.908787 77.030312,38.029922 
	C80.970764,40.145447 81.513306,43.759537 80.462784,48.039604 
z"/>
<path fill="#E48E13" opacity="1.000000" stroke="none" 
	d="
M220.595032,56.874809 
	C203.957962,70.811516 195.508896,89.683266 190.091476,110.326408 
	C184.892502,130.137039 181.824844,150.292679 181.016159,170.729431 
	C180.062927,194.819214 179.536285,218.926849 178.949768,243.029816 
	C178.536896,259.996552 178.015610,276.970490 178.127457,293.937317 
	C178.232559,309.880096 185.199402,322.360474 199.885513,329.188385 
	C205.258377,331.686401 211.725555,332.851868 217.700638,332.876160 
	C280.181091,333.130585 342.662994,333.029266 405.619263,333.013153 
	C408.647827,338.372589 411.201599,343.745331 413.923645,349.471985 
	C309.150787,349.471985 204.314529,349.471985 99.322380,349.471985 
	C99.308601,349.320526 99.060043,348.731171 99.255508,348.429230 
	C108.247803,334.535583 111.272385,318.864136 111.924271,302.784454 
	C113.030731,275.492371 113.370857,248.170151 114.193138,220.865417 
	C114.910553,197.042694 116.367706,173.271835 121.920761,149.981140 
	C127.319496,127.337685 135.883957,106.191368 152.503220,89.215797 
	C171.092514,70.227943 194.358887,60.823971 220.595032,56.874809 
z"/>
<path fill="#F6D260" opacity="1.000000" stroke="none" 
	d="
M150.421432,423.806152 
	C132.848984,410.511108 131.242477,385.945251 144.458908,370.388641 
	C145.937469,368.648285 147.834167,367.263184 149.732178,365.463501 
	C151.256775,365.159607 152.586166,365.058350 153.915558,365.058258 
	C250.887283,365.050964 347.859009,365.042633 444.830719,365.060577 
	C461.278168,365.063629 473.449310,374.334686 476.165375,388.782684 
	C479.582489,406.959625 466.834045,422.732269 447.802490,423.865295 
	C446.971863,423.914764 446.137085,423.904999 445.304230,423.904938 
	C347.166290,423.898590 249.028336,423.890503 150.421432,423.806152 
z"/>
<path fill="#E48D13" opacity="1.000000" stroke="none" 
	d="
M263.061249,497.182526 
	C240.423157,501.178925 213.016571,487.634155 199.999771,466.016602 
	C194.510086,456.899658 191.067139,446.481537 191.219818,439.260468 
	C234.776886,439.260468 278.337463,439.260468 322.770630,439.260468 
	C321.355103,444.640747 320.056213,449.577637 318.171295,454.493195 
	C294.981323,454.351349 272.362213,453.690796 249.779495,454.324982 
	C237.420364,454.672058 231.150070,467.976410 238.451630,477.434479 
	C244.960617,485.865997 252.947449,492.984528 263.061249,497.182526 
z"/>
<path fill="#F6D25F" opacity="1.000000" stroke="none" 
	d="
M263.493408,497.199768 
	C252.947449,492.984528 244.960617,485.865997 238.451630,477.434479 
	C231.150070,467.976410 237.420364,454.672058 249.779495,454.324982 
	C272.362213,453.690796 294.981323,454.351349 317.917328,454.747375 
	C311.224609,476.990387 287.994843,495.033295 263.493408,497.199768 
z"/>
<path fill="#E18C13" opacity="1.000000" stroke="none" 
	d="
M279.311127,26.732338 
	C281.831696,31.082830 284.109619,35.166542 286.506104,39.462799 
	C266.312469,39.462799 247.252579,39.462799 227.495636,39.462799 
	C229.624619,29.732267 235.465820,22.982372 244.527039,18.871132 
	C256.441956,13.465115 268.862671,16.267284 279.311127,26.732338 
z"/>
</svg>