<svg version="1.1" id="Layer_1" xmlns="http://www.w3.org/2000/svg" xmlns:xlink="http://www.w3.org/1999/xlink" x="0px" y="0px"
	 width="100%" viewBox="0 0 512 512" enable-background="new 0 0 512 512" xml:space="preserve">
<path fill="#EA7B0C" opacity="1.000000" stroke="none" 
	d="
M513.000000,225.000000 
	C513.000000,246.020889 513.000000,267.041779 512.605042,288.324890 
	C511.817719,289.265991 511.192261,289.905151 511.068604,290.629913 
	C509.672485,298.812714 508.767181,307.102417 506.936737,315.183685 
	C501.229523,340.380432 491.890076,364.255280 478.769165,386.490173 
	C463.964081,411.579071 445.311646,433.523132 423.119110,452.494293 
	C408.796051,464.738251 393.379730,475.313446 376.727966,484.024628 
	C349.706848,498.160431 321.223297,507.820587 290.746552,511.099701 
	C290.103668,511.168884 289.579498,512.341919 289.000000,513.000000 
	C267.979095,513.000000 246.958206,513.000000 225.796555,512.753296 
	C225.086731,511.945007 224.517654,511.383453 223.761322,510.560913 
	C207.673187,494.339935 191.747299,478.404694 175.910736,462.381195 
	C174.355240,460.807373 173.348251,458.691406 172.480438,456.862183 
	C177.240433,457.622528 181.606628,458.347839 186.410599,459.141724 
	C205.588120,458.205292 218.898331,444.234802 218.947281,425.317261 
	C219.016632,398.521667 218.991470,371.725769 218.957748,344.930054 
	C218.941833,332.286255 218.812042,319.642578 218.791870,306.785889 
	C218.849899,306.572906 218.894028,306.134186 218.929932,305.658264 
	C218.937256,288.687378 218.908691,272.192413 219.128632,255.447586 
	C237.521011,248.980286 250.506805,237.076172 258.361389,219.619308 
	C262.304962,210.854660 263.918365,201.578430 263.928558,191.988159 
	C263.970276,152.660629 264.036682,113.333145 264.375183,74.176086 
	C270.481598,79.775444 276.311859,85.198891 282.130707,90.634575 
	C290.490601,98.443993 298.842194,106.262337 307.145447,114.451294 
	C302.357483,126.386131 300.596039,138.404480 300.749908,150.888214 
	C301.010315,172.017227 300.789703,193.151886 300.855713,214.283890 
	C300.866058,217.592804 300.947601,220.980301 301.635345,224.194702 
	C304.653748,238.302658 313.805511,247.004745 326.865967,252.548218 
	C326.894867,270.783295 326.939178,288.554962 326.946747,306.773651 
	C326.897858,347.122711 326.746887,387.025391 326.935608,426.926422 
	C327.022064,445.206787 341.753082,459.195312 360.432312,459.124451 
	C379.693604,458.305054 392.972626,444.419250 392.996765,425.583466 
	C393.012115,413.618408 393.018951,401.653229 392.996460,389.688171 
	C392.944550,362.105713 392.872437,334.523285 392.847961,306.713745 
	C392.887451,306.486603 392.844971,306.026245 392.885559,305.557526 
	C392.898346,287.922241 392.870483,270.755646 392.894226,253.148773 
	C392.963837,245.055817 392.993195,237.403198 392.998169,229.750565 
	C393.033325,175.514938 393.063446,121.279320 393.368896,67.220078 
	C395.089203,68.768219 396.568176,70.107590 397.977692,71.516495 
	C429.497955,103.023621 460.998077,134.550888 492.561371,166.014816 
	C494.138062,167.586609 496.249695,168.621780 498.081360,169.919708 
	C498.050507,169.932602 498.055908,169.866104 498.074951,170.155182 
	C498.343079,170.955902 498.592163,171.467529 499.012207,172.322128 
	C505.152832,188.896378 509.269653,205.562088 511.092285,222.785156 
	C511.176636,223.581818 512.339478,224.264328 513.000000,225.000000 
z"/>
<path fill="#FD9827" opacity="1.000000" stroke="none" 
	d="
M307.197327,114.076881 
	C298.842194,106.262337 290.490601,98.443993 282.130707,90.634575 
	C276.311859,85.198891 270.481598,79.775444 264.118225,73.820007 
	C252.871109,73.293480 242.162216,73.293480 230.904572,73.293480 
	C230.904572,83.109253 230.904572,92.566536 230.634766,101.835808 
	C220.901077,92.433365 211.437180,83.218933 201.684265,73.690826 
	C196.255890,73.277000 191.116516,73.176842 185.515839,73.011856 
	C180.131592,72.947029 175.208664,72.947029 169.765793,72.947029 
	C169.765793,82.415970 169.765793,91.209724 169.499756,99.822662 
	C159.463135,90.773232 149.692566,81.904633 139.459106,73.004883 
	C128.733414,72.973740 118.470612,72.973740 108.040573,72.973740 
	C107.926071,74.861870 107.778610,76.162361 107.778297,77.462891 
	C107.769043,116.248650 107.758148,155.034424 107.806274,193.820129 
	C107.810387,197.137497 107.972557,200.493561 108.486122,203.764954 
	C111.314919,221.784317 120.710136,235.799942 135.216492,246.952728 
	C135.623856,247.448151 135.857193,247.729218 136.003189,247.974121 
	C135.915863,247.937958 135.986679,247.762680 136.222198,247.973846 
	C137.031738,248.434738 137.605774,248.684464 138.123779,248.927643 
	C138.067764,248.921112 138.083954,248.809494 138.116577,249.163437 
	C142.902008,254.302185 147.654785,259.087006 152.507324,264.337585 
	C152.695908,278.637909 152.784775,292.472412 152.814178,306.753357 
	C152.710144,345.498657 152.907150,383.800140 152.498428,422.095154 
	C152.341827,436.769196 157.591476,447.912445 170.192184,455.939148 
	C170.941406,456.452362 171.508881,456.702606 172.052872,456.919281 
	C172.029404,456.885681 172.086670,456.827087 172.086670,456.827087 
	C173.348251,458.691406 174.355240,460.807373 175.910736,462.381195 
	C191.747299,478.404694 207.673187,494.339935 223.328934,510.633179 
	C215.065353,509.644470 206.962402,508.700775 199.043747,506.931976 
	C171.598373,500.801605 145.880569,490.192261 122.015343,475.396088 
	C99.111893,461.196228 79.090820,443.551392 61.492432,423.084015 
	C49.424801,409.049072 38.938259,393.921509 30.375223,377.620422 
	C16.084414,350.415527 6.218044,321.666382 2.915697,290.900665 
	C2.841191,290.206573 1.663235,289.630920 0.999998,289.000000 
	C1.000000,267.645782 1.000000,246.291550 1.332086,224.807343 
	C2.095740,224.005905 2.788309,223.381393 2.918785,222.655807 
	C4.329507,214.810501 5.329698,206.877701 7.057532,199.105637 
	C12.694243,173.750824 22.131887,149.786423 35.299026,127.446228 
	C50.078350,102.370712 68.759468,80.475128 90.911949,61.489758 
	C104.962112,49.448326 120.075745,38.963654 136.362030,30.379944 
	C163.561523,16.044403 192.355331,6.312272 223.096909,2.916020 
	C223.793335,2.839081 224.368347,1.663246 225.000000,1.000000 
	C246.020889,1.000000 267.041779,1.000000 288.194672,1.339733 
	C293.851318,2.783839 299.359772,3.977998 304.903473,4.976679 
	C326.253204,8.822776 346.704803,15.508751 366.284851,24.756674 
	C387.459778,34.757866 406.974854,47.321327 424.539673,62.932907 
	C437.650818,74.586044 450.250885,86.700226 460.430298,101.028488 
	C468.238098,112.018494 476.249298,122.992538 482.708679,134.774841 
	C488.831757,145.943558 493.054047,158.154327 498.112244,169.906830 
	C496.249695,168.621780 494.138062,167.586609 492.561371,166.014816 
	C460.998077,134.550888 429.497955,103.023621 397.977692,71.516495 
	C396.568176,70.107590 395.089203,68.768219 393.020691,66.991409 
	C381.557648,67.531181 370.716553,68.475990 359.489624,69.519218 
	C354.027802,71.603828 348.767700,73.220856 343.909088,75.643120 
	C327.102631,84.021980 315.493469,97.499344 307.197327,114.076881 
z"/>
<path fill="#000000" opacity="1.000000" stroke="none" 
	d="
M498.081360,169.919724 
	C493.054047,158.154327 488.831757,145.943558 482.708679,134.774841 
	C476.249298,122.992538 468.238098,112.018494 460.430298,101.028488 
	C450.250885,86.700226 437.650818,74.586044 424.539673,62.932907 
	C406.974854,47.321327 387.459778,34.757866 366.284851,24.756674 
	C346.704803,15.508751 326.253204,8.822776 304.903473,4.976679 
	C299.359772,3.977998 293.851318,2.783839 288.663330,1.339733 
	C363.593719,1.000000 438.187408,1.000000 513.000000,1.000000 
	C513.000000,75.354088 513.000000,149.708389 513.000000,224.531342 
	C512.339478,224.264328 511.176636,223.581818 511.092285,222.785156 
	C509.269653,205.562088 505.152832,188.896378 499.076172,172.008423 
	C498.664764,170.856537 498.360321,170.361328 498.055908,169.866119 
	C498.055908,169.866104 498.050507,169.932602 498.081360,169.919724 
z"/>
<path fill="#000000" opacity="1.000000" stroke="none" 
	d="
M0.999998,289.468658 
	C1.663235,289.630920 2.841191,290.206573 2.915697,290.900665 
	C6.218044,321.666382 16.084414,350.415527 30.375223,377.620422 
	C38.938259,393.921509 49.424801,409.049072 61.492432,423.084015 
	C79.090820,443.551392 99.111893,461.196228 122.015343,475.396088 
	C145.880569,490.192261 171.598373,500.801605 199.043747,506.931976 
	C206.962402,508.700775 215.065353,509.644470 223.516205,510.894165 
	C224.517654,511.383453 225.086731,511.945007 225.327896,512.753296 
	C150.406296,513.000000 75.812599,513.000000 1.000000,513.000000 
	C1.000000,438.645905 1.000000,364.291626 0.999998,289.468658 
z"/>
<path fill="#000000" opacity="1.000000" stroke="none" 
	d="
M289.468628,513.000000 
	C289.579498,512.341919 290.103668,511.168884 290.746552,511.099701 
	C321.223297,507.820587 349.706848,498.160431 376.727966,484.024628 
	C393.379730,475.313446 408.796051,464.738251 423.119110,452.494293 
	C445.311646,433.523132 463.964081,411.579071 478.769165,386.490173 
	C491.890076,364.255280 501.229523,340.380432 506.936737,315.183685 
	C508.767181,307.102417 509.672485,298.812714 511.068604,290.629913 
	C511.192261,289.905151 511.817719,289.265991 512.605042,288.793518 
	C513.000000,363.593719 513.000000,438.187408 513.000000,513.000000 
	C438.645905,513.000000 364.291626,513.000000 289.468628,513.000000 
z"/>
<path fill="#000000" opacity="1.000000" stroke="none" 
	d="
M224.531342,1.000000 
	C224.368347,1.663246 223.793335,2.839081 223.096909,2.916020 
	C192.355331,6.312272 163.561523,16.044403 136.362030,30.379944 
	C120.075745,38.963654 104.962112,49.448326 90.911949,61.489758 
	C68.759468,80.475128 50.078350,102.370712 35.299026,127.446228 
	C22.131887,149.786423 12.694243,173.750824 7.057532,199.105637 
	C5.329698,206.877701 4.329507,214.810501 2.918785,222.655807 
	C2.788309,223.381393 2.095740,224.005905 1.332086,224.338684 
	C1.000000,149.739456 1.000000,75.478920 1.000000,1.000000 
	C75.354088,1.000000 149.708389,1.000000 224.531342,1.000000 
z"/>
<path fill="#D2EAFD" opacity="1.000000" stroke="none" 
	d="
M185.977142,73.076691 
	C191.116516,73.176842 196.255890,73.277000 201.593628,74.150993 
	C201.774796,80.250694 201.741898,85.576553 201.743118,90.902420 
	C201.748199,113.039116 201.660309,135.176605 201.829269,157.312103 
	C201.891098,165.413345 208.204117,171.481140 216.103683,171.733612 
	C223.716095,171.976929 230.929138,165.642868 230.994278,157.934616 
	C231.151810,139.299271 230.957214,120.660942 230.904572,102.023811 
	C230.904572,92.566536 230.904572,83.109253 230.904572,73.293480 
	C242.162216,73.293480 252.871109,73.293480 263.836975,73.649559 
	C264.036682,113.333145 263.970276,152.660629 263.928558,191.988159 
	C263.918365,201.578430 262.304962,210.854660 258.361389,219.619308 
	C250.506805,237.076172 237.521011,248.980286 218.724731,255.509186 
	C207.399597,256.784332 196.726898,257.748047 186.057480,258.521240 
	C186.060760,258.330750 185.950958,257.965698 185.957458,257.499237 
	C185.968353,195.714081 185.972748,134.395386 185.977142,73.076691 
z"/>
<path fill="#EEF9FF" opacity="1.000000" stroke="none" 
	d="
M307.145447,114.451294 
	C315.493469,97.499344 327.102631,84.021980 343.909088,75.643120 
	C348.767700,73.220856 354.027802,71.603828 359.513458,70.027351 
	C359.942078,131.280792 359.961090,192.124512 359.517731,253.033630 
	C348.330719,252.760956 337.606049,252.422867 326.881378,252.084778 
	C313.805511,247.004745 304.653748,238.302658 301.635345,224.194702 
	C300.947601,220.980301 300.866058,217.592804 300.855713,214.283890 
	C300.789703,193.151886 301.010315,172.017227 300.749908,150.888214 
	C300.596039,138.404480 302.357483,126.386131 307.145447,114.451294 
z"/>
<path fill="#D2EBFF" opacity="1.000000" stroke="none" 
	d="
M359.980072,252.968231 
	C359.961090,192.124512 359.942078,131.280792 359.899261,69.928932 
	C370.716553,68.475990 381.557648,67.531181 392.746979,66.815033 
	C393.063446,121.279320 393.033325,175.514938 392.998169,229.750565 
	C392.993195,237.403198 392.963837,245.055817 392.434326,253.156189 
	C381.302155,253.650009 370.681458,253.696075 360.071777,253.545410 
	C360.082825,253.348694 359.980072,252.968231 359.980072,252.968231 
z"/>
<path fill="#605553" opacity="1.000000" stroke="none" 
	d="
M170.010437,455.676208 
	C157.591476,447.912445 152.341827,436.769196 152.498428,422.095154 
	C152.907150,383.800140 152.710144,345.498657 153.296631,306.731262 
	C164.498032,306.137726 175.157471,306.012665 185.873734,305.995239 
	C185.930542,306.102875 186.044525,306.317932 186.034515,306.766602 
	C186.007278,357.834534 185.990051,408.453857 185.972824,459.073151 
	C181.606628,458.347839 177.240433,457.622528 172.480453,456.862183 
	C172.086670,456.827087 172.029404,456.885681 171.893646,456.645050 
	C171.175400,456.161682 170.592926,455.918945 170.010437,455.676208 
z"/>
<path fill="#605553" opacity="1.000000" stroke="none" 
	d="
M359.997559,459.044952 
	C341.753082,459.195312 327.022064,445.206787 326.935608,426.926422 
	C326.746887,387.025391 326.897858,347.122711 327.416748,306.744324 
	C338.615875,306.277496 349.308289,306.287079 360.007874,306.746643 
	C360.009247,357.812775 360.003387,408.428864 359.997559,459.044952 
z"/>
<path fill="#4C403F" opacity="1.000000" stroke="none" 
	d="
M360.432312,459.124451 
	C360.003387,408.428864 360.009247,357.812775 360.000732,306.659729 
	C359.986359,306.122803 359.992645,305.948456 360.458801,305.999115 
	C371.293274,306.109253 381.661621,306.168732 392.140472,306.367004 
	C392.416718,306.676605 392.602570,306.821625 392.808533,306.940857 
	C392.872437,334.523285 392.944550,362.105713 392.996460,389.688171 
	C393.018951,401.653229 393.012115,413.618408 392.996765,425.583466 
	C392.972626,444.419250 379.693604,458.305054 360.432312,459.124451 
z"/>
<path fill="#4C403F" opacity="1.000000" stroke="none" 
	d="
M186.410599,459.141724 
	C185.990051,408.453857 186.007278,357.834534 186.488708,306.675079 
	C197.304779,306.184113 207.656647,306.233337 218.101593,306.427917 
	C218.345596,306.751556 218.525330,306.893433 218.733841,306.998840 
	C218.812042,319.642578 218.941833,332.286255 218.957748,344.930054 
	C218.991470,371.725769 219.016632,398.521667 218.947281,425.317261 
	C218.898331,444.234802 205.588120,458.205292 186.410599,459.141724 
z"/>
<path fill="#FEE781" opacity="1.000000" stroke="none" 
	d="
M359.993530,306.209717 
	C349.308289,306.287079 338.615875,306.277496 327.453491,306.297241 
	C326.939178,288.554962 326.894867,270.783295 326.865967,252.548218 
	C337.606049,252.422867 348.330719,252.760956 359.517731,253.033630 
	C359.980072,252.968231 360.082825,253.348694 360.037476,254.031403 
	C359.992279,271.792236 359.992462,288.870331 359.992645,305.948456 
	C359.992645,305.948456 359.986359,306.122803 359.993530,306.209717 
z"/>
<path fill="#FBBE2C" opacity="1.000000" stroke="none" 
	d="
M360.458801,305.999115 
	C359.992462,288.870331 359.992279,271.792236 360.026428,254.228119 
	C370.681458,253.696075 381.302155,253.650009 392.382751,253.596512 
	C392.870483,270.755646 392.898346,287.922241 392.675446,305.580322 
	C392.424713,306.071808 392.029938,306.228210 392.029938,306.228210 
	C381.661621,306.168732 371.293274,306.109253 360.458801,305.999115 
z"/>
<path fill="#FBBE2D" opacity="1.000000" stroke="none" 
	d="
M218.008514,306.282562 
	C207.656647,306.233337 197.304779,306.184113 186.498718,306.226440 
	C186.044525,306.317932 185.930542,306.102875 185.893280,305.532166 
	C185.922058,289.544891 185.988129,274.128357 186.054199,258.711792 
	C196.726898,257.748047 207.399597,256.784332 218.476196,255.759033 
	C218.908691,272.192413 218.937256,288.687378 218.704193,305.666992 
	C218.442581,306.151581 218.008514,306.282562 218.008514,306.282562 
z"/>
<path fill="#FD9827" opacity="1.000000" stroke="none" 
	d="
M498.074951,170.155197 
	C498.360321,170.361328 498.664764,170.856537 498.905212,171.665451 
	C498.592163,171.467529 498.343079,170.955902 498.074951,170.155197 
z"/>
<path fill="#605553" opacity="1.000000" stroke="none" 
	d="
M218.101593,306.427917 
	C218.008514,306.282562 218.442581,306.151581 218.668304,306.142883 
	C218.894028,306.134186 218.849899,306.572906 218.791870,306.785889 
	C218.525330,306.893433 218.345596,306.751556 218.101593,306.427917 
z"/>
<path fill="#605553" opacity="1.000000" stroke="none" 
	d="
M392.140472,306.367004 
	C392.029938,306.228210 392.424713,306.071808 392.634827,306.049011 
	C392.844971,306.026245 392.887451,306.486603 392.847992,306.713745 
	C392.602570,306.821625 392.416718,306.676605 392.140472,306.367004 
z"/>
<path fill="#EEF9FE" opacity="1.000000" stroke="none" 
	d="
M185.515839,73.011856 
	C185.972748,134.395386 185.968353,195.714081 185.498505,257.565063 
	C174.329346,257.350861 163.625671,256.604340 152.677811,255.629944 
	C147.650421,253.204544 142.867188,251.007019 138.083954,248.809494 
	C138.083954,248.809494 138.067764,248.921112 137.942841,248.651291 
	C137.207520,248.175201 136.597092,247.968948 135.986679,247.762680 
	C135.986679,247.762680 135.915863,247.937958 136.007462,247.659943 
	C135.746857,247.167404 135.394653,246.952896 135.042450,246.738403 
	C120.710136,235.799942 111.314919,221.784317 108.486122,203.764954 
	C107.972557,200.493561 107.810387,197.137497 107.806274,193.820129 
	C107.758148,155.034424 107.769043,116.248650 107.778297,77.462891 
	C107.778610,76.162361 107.926071,74.861870 108.040573,72.973740 
	C118.470612,72.973740 128.733414,72.973740 139.473846,73.470123 
	C139.951874,101.433937 139.904938,128.901474 139.979980,156.368698 
	C140.004135,165.210571 146.551437,171.860992 154.882080,171.882584 
	C162.916016,171.903412 169.808975,165.363251 169.872925,156.922836 
	C170.016663,137.951065 169.822449,118.976761 169.765793,100.003487 
	C169.765793,91.209724 169.765793,82.415970 169.765793,72.947029 
	C175.208664,72.947029 180.131592,72.947029 185.515839,73.011856 
z"/>
<path fill="#EA7C0D" opacity="1.000000" stroke="none" 
	d="
M169.499756,99.822662 
	C169.822449,118.976761 170.016663,137.951065 169.872925,156.922836 
	C169.808975,165.363251 162.916016,171.903412 154.882080,171.882584 
	C146.551437,171.860992 140.004135,165.210571 139.979980,156.368698 
	C139.904938,128.901474 139.951874,101.433937 139.936737,73.501266 
	C149.692566,81.904633 159.463135,90.773232 169.499756,99.822662 
z"/>
<path fill="#EA7B0D" opacity="1.000000" stroke="none" 
	d="
M230.634766,101.835808 
	C230.957214,120.660942 231.151810,139.299271 230.994278,157.934616 
	C230.929138,165.642868 223.716095,171.976929 216.103683,171.733612 
	C208.204117,171.481140 201.891098,165.413345 201.829269,157.312103 
	C201.660309,135.176605 201.748199,113.039116 201.743118,90.902420 
	C201.741898,85.576553 201.774796,80.250694 201.882629,74.464661 
	C211.437180,83.218933 220.901077,92.433365 230.634766,101.835808 
z"/>
<path fill="#FFE780" opacity="1.000000" stroke="none" 
	d="
M152.921982,255.857803 
	C163.625671,256.604340 174.329346,257.350861 185.492004,258.031555 
	C185.950958,257.965698 186.060760,258.330750 186.057480,258.521271 
	C185.988129,274.128357 185.922058,289.544891 185.836456,305.424530 
	C175.157471,306.012665 164.498032,306.137726 153.356110,306.284851 
	C152.784775,292.472412 152.695908,278.637909 152.587189,263.905090 
	C152.685532,260.623810 152.803757,258.240814 152.921982,255.857803 
z"/>
<path fill="#EA7E12" opacity="1.000000" stroke="none" 
	d="
M152.677811,255.629944 
	C152.803757,258.240814 152.685532,260.623810 152.487457,263.439301 
	C147.654785,259.087006 142.902008,254.302185 138.116577,249.163437 
	C142.867188,251.007019 147.650421,253.204544 152.677811,255.629944 
z"/>
<path fill="#EA7E12" opacity="1.000000" stroke="none" 
	d="
M136.222198,247.973846 
	C136.597092,247.968948 137.207520,248.175201 137.998871,248.657837 
	C137.605774,248.684464 137.031738,248.434738 136.222198,247.973846 
z"/>
<path fill="#EA7B0C" opacity="1.000000" stroke="none" 
	d="
M170.192184,455.939148 
	C170.592926,455.918945 171.175400,456.161682 171.917114,456.678650 
	C171.508881,456.702606 170.941406,456.452362 170.192184,455.939148 
z"/>
<path fill="#EA7E12" opacity="1.000000" stroke="none" 
	d="
M135.216492,246.952728 
	C135.394653,246.952896 135.746857,247.167404 136.094788,247.696106 
	C135.857193,247.729218 135.623856,247.448151 135.216492,246.952728 
z"/>
</svg>