<svg width="64" height="64" xmlns="http://www.w3.org/2000/svg">

 <title/>
 <g>
  <title>background</title>
  <rect fill="none" id="canvas_background" height="402" width="582" y="-1" x="-1"/>
 </g>
 <g>
  <title>Layer 1</title>
  <path stroke-width="2px" stroke-linejoin="round" stroke="#000000" fill="none" id="svg_1" d="m40.87,45.5l9,9a3,3 0 1 0 4.24,0a3,3 0 1 0 0,-4.24l-9.11,-9.13" class="a"/>
  <path stroke-width="2px" stroke-linejoin="round" stroke="#000000" fill="none" id="svg_2" d="m43.53,34.72l0,0c-3.46,-3.72 -5.91,-8.88 -6,-17.46l0,0c-0.53,-8.26 -8.42,-13.26 -16.53,-13.26a17,17 0 0 0 -17,17c0,7.51 4,16 11.63,16.12l0,0c5.76,-0.3 11.61,2.06 17.56,6.94l0,0a7,7 0 0 0 10.35,-9.35l-0.01,0.01z" class="a"/>
  <path d="m26.662388,23.027344c-0.257235,0.128618 -2.053822,0.781382 -4.5016,1.80064c-2.182913,0.908968 -5.122948,1.873316 -6.302241,2.186493c-0.633852,0.168327 -1.232897,0.439127 -1.414789,0.257235c-0.090947,-0.090946 0.697761,-1.459106 1.800641,-3.215429c1.328043,-2.114893 3.123913,-4.374584 3.858515,-7.588413c0.316555,-1.384906 -0.040916,-1.981977 -0.385853,-1.672024c-0.74719,0.67141 -1.831568,2.475334 -2.829576,5.916389c-0.548038,1.889597 -0.514469,3.344048 -0.514469,4.372984c0,0.385853 0.526752,0.525274 1.543406,-0.643085c1.217644,-1.399343 2.63475,-3.936932 2.572344,-6.559475c-0.02523,-1.060305 -1.08095,-2.149424 -3.086811,-1.672024c-1.905806,0.453587 -3.302279,1.600304 -4.244368,2.829578c-0.874706,1.141352 -1.137974,1.702202 -0.90032,1.80064c0.168047,0.069607 0.763214,-1.204441 1.286172,-3.215429c1.011798,-3.890779 0.808677,-6.061398 0,-7.331179c-0.488541,-0.767104 -1.424622,-0.778934 -1.800641,-0.257235c-0.713446,0.989853 -0.662219,2.075078 -0.514468,2.70096c0.132153,0.559807 0.703206,0.695027 1.028937,0.257235c1.133576,-1.523561 1.286172,-2.563202 1.286172,-3.472664c0,-0.909461 -0.363183,-0.962861 -0.643086,-1.028937c-0.125176,-0.029551 -0.763714,0.391941 -1.157555,0.900321c-1.008722,1.302086 -1.844523,2.142279 -2.186491,3.086812c-0.218923,0.604675 -0.109408,0.832702 0,0.90032c0.244644,0.151198 0.924792,-0.885082 1.157554,-1.286172c0.288705,-0.497491 0.257235,-0.90032 0.128617,-0.90032c-0.128617,0 -0.696284,0.080426 -1.157555,0.643085c-0.588007,0.717253 -0.899065,1.387813 -1.028937,2.315109c-0.017839,0.127374 0.113379,0.104144 0.514469,-0.128617c0.248746,-0.144353 1.093026,-1.535426 1.157555,-2.315109c0.042434,-0.512715 0,-1.028937 0,-1.157554c0,-0.128617 0,-0.385852 0,-0.385852c0.257234,-0.257235 0.643085,-0.514469 0.771703,-0.771703c0.128617,-0.257235 0.128617,-0.257235 0.128617,-0.257235c0,-0.385852 0,-0.514469 0,-0.643086c0,-0.128616 0,-0.257234 0,-0.257234c-0.257235,0 -0.60831,0.415286 -1.157555,1.028937c-0.363923,0.406599 -0.662086,0.764424 -0.90032,1.414788c-0.139895,0.381907 -0.3585,0.644057 -0.385852,1.028937c-0.064471,0.907173 -0.161609,1.002828 -0.257235,1.157555c-0.213827,0.34598 -0.385851,0.90032 -0.385851,1.028937c0,0.128617 -0.380085,0.456483 -0.514469,0.90032c-0.149085,0.492394 -0.173893,0.753681 -0.257235,1.028938c-0.30049,0.992451 -0.257234,1.543406 -0.257234,2.057875c0,0.128616 0.00979,0.306454 0.128617,0.257235c0.336093,-0.139214 0.908906,-1.154154 1.414789,-2.443727c0.654218,-1.6677 0.835171,-2.428106 0.900321,-2.829578c0.061807,-0.380869 0.128616,-0.514468 0.128616,-0.643085c0,-0.128617 0,-0.257235 -0.257234,-0.257235c-0.257235,0 -0.257235,0.128617 -0.514469,0.257235c-0.257235,0.128617 -0.363183,0.448393 -0.643085,0.514468c-0.125176,0.029551 -0.128617,0.257235 -0.257235,0.385852c-0.128617,0.128617 -0.21769,0.152541 -0.385851,0.385852c-0.212708,0.295116 -0.514469,0.514468 -0.514469,0.771703c0,0.257235 -0.197418,0.425819 -0.385852,0.643086c-0.266485,0.307261 -0.288561,0.909603 -0.385851,1.414789c-0.13098,0.680126 -0.649864,1.284523 -0.771703,1.80064c-0.272439,1.15407 -0.257235,1.80064 -0.257235,2.057875c0,0.257235 0.246075,-0.518723 0.643086,-1.543407c0.50046,-1.291687 0.524886,-1.814402 0.643086,-2.315107c0.066076,-0.279903 0.166288,-0.476799 0.257234,-0.385853c0.090947,0.090946 -0.126254,0.220194 -0.257234,0.90032c-0.19458,1.010372 -0.194567,2.58016 -0.385852,3.858515c-0.097053,0.648602 -0.132058,1.385239 -0.257234,1.414789c-0.279903,0.066076 0.140944,-1.154884 0.385851,-2.315109c0.13545,-0.641682 0.257234,-1.028936 0.128617,-1.028936c-0.385851,0 -0.256985,1.402782 -0.385851,3.472664c-0.079919,1.283686 0,1.929256 0,2.829576c0,0.257235 0.059101,0.378971 0,0.128618c-0.198229,-0.83971 -0.333632,-1.22242 -0.643086,-1.80064c-0.257482,-0.48111 -0.385851,-0.643085 -0.385851,-0.90032c0,0 -0.030178,-0.148199 -0.128617,-0.385853c-0.069607,-0.168045 -0.158167,-0.260675 -0.128617,-0.385851c0.066076,-0.279903 0.128617,-0.771704 0.385851,-1.028938c0.257234,-0.257233 0.69602,-0.952284 1.157555,-1.543406c0.671632,-0.860209 1.724676,-1.753979 3.086812,-3.344046c1.071568,-1.250876 2.071543,-1.864787 2.829577,-2.572344c0.339004,-0.316429 0.346422,-0.584076 0.514468,-0.514469c0.237654,0.098439 -0.107345,0.65558 -0.643085,1.543406c-0.866409,1.435806 -1.618721,2.533927 -2.443727,4.244367c-0.425542,0.882254 -0.601285,1.751766 -1.028937,2.443726c-0.095627,0.154728 -0.02724,-0.019621 0.257235,-0.385851c1.061477,-1.366541 3.17206,-2.540405 4.244367,-5.273304c0.387395,-0.987323 0.24187,-1.245124 0,-1.157555c-0.944532,0.341968 -1.286172,1.672024 -1.80064,2.70096c-0.514469,1.028938 -0.689489,1.571075 -1.028937,2.443727c-0.10426,0.268032 -0.141291,0.385225 -0.128617,0.257233c0.064623,-0.65263 0.765974,-1.461823 1.028937,-2.70096c0.106799,-0.50326 -0.016543,-0.800501 -0.257235,-0.643085c-0.840698,0.549828 -1.649802,1.575642 -2.572343,2.70096c-0.588007,0.717253 -0.899065,1.773664 -1.028938,2.700962c-0.053518,0.382122 0.089188,0.830711 0.257235,0.90032c0.35648,0.147659 0.925618,-0.758007 1.543406,-1.929258c0.939224,-1.780657 1.028937,-2.572344 1.028937,-2.958195c0,-0.257235 -0.142196,-0.314754 -0.257235,-0.257235c-1.150388,0.575193 -1.380437,3.069744 -1.80064,5.659155c-0.498301,3.070667 -0.578653,4.495598 -0.643086,5.530539c-0.031968,0.513475 -0.063994,0.138163 -0.128617,-0.514469c-0.088715,-0.895939 -0.326751,-2.193373 -0.385851,-2.443726c-0.066076,-0.279903 -0.257235,-0.257235 -0.257235,-0.128616c0,0.385851 0.237815,0.956221 0,1.286171c-0.075203,0.10434 -0.201093,-0.218971 -0.514469,-0.90032c-0.169952,-0.369513 -0.286784,-0.639645 -0.257234,-0.514469c0.066076,0.279903 0.192084,0.370234 0.257234,0.771704c0.020602,0.126955 -0.05901,0.039429 -0.128617,-0.128618c-0.049219,-0.118826 0,0.257235 0,0.643087c0,1.543406 0.158422,2.820272 0.385851,3.60128c0.296532,1.018307 0.573479,1.37536 0.643086,1.543406c0.098441,0.237656 -0.094289,0.122837 0,-0.643085c0.064794,-0.526329 0.128617,-0.90032 0.128617,-1.028936c0,-0.385853 -0.090945,-0.423523 0,-0.514469c0.090946,-0.090946 0.233109,0.141403 0.514469,0.643085c0.59353,1.058296 1.081872,1.595367 1.543406,2.186491c0.335815,0.430107 0.633294,0.593864 0.514468,0.643085c-0.168046,0.069607 -0.15071,-0.236893 -0.385851,-0.514469c-0.715151,-0.844212 -1.470465,-2.289696 -1.800641,-3.086811c-0.155646,-0.375763 -0.133946,-0.767662 0.257234,-0.257235c0.421315,0.549749 0.828255,1.728132 1.543406,2.572344c0.235141,0.277576 0.385851,0.514469 0.385851,0.257236c0,-0.514471 -0.0723,-1.415545 0,-4.887455c0.064322,-3.08882 0.450146,-6.171528 0.514469,-9.131819c0.005589,-0.257174 0,-0.514469 0,-0.128616c0,1.028936 0.249315,2.959154 0.643085,6.173624c0.252165,2.058502 0.641403,3.441423 0.771703,4.244366c0.061807,0.380871 0,-0.90032 0,-2.829576c0,-2.057875 -0.253188,-4.425983 -0.514468,-4.887453c-0.089618,-0.158281 -0.666457,0.762901 -1.286172,2.443726c-0.802108,2.175522 -1.873314,4.994329 -2.186492,6.173624c-0.168328,0.633852 -0.128617,1.028938 -0.128617,0.643087c0,-0.385853 0.648243,-2.055981 1.543406,-4.501602c1.034904,-2.8274 2.245498,-6.362852 2.443727,-7.20256c0.0591,-0.250353 0.05901,-0.425282 0.128616,-0.257235c0.196877,0.475307 0,2.186491 0,3.472664c0,0.643085 0.128617,1.028936 0.128617,0.90032c0,-0.90032 0.308192,-3.487633 0.643086,-5.016069c0.313869,-1.432479 0.346421,-2.127482 0.514468,-2.057876c0.118827,0.04922 -0.192904,1.798104 -0.257235,4.244367c-0.071004,2.700027 0.048247,6.076876 0.643086,7.459797c0.340914,0.79258 0.524259,1.33539 0.643085,1.286171c0.840233,-0.348036 1.908504,-4.044027 3.344048,-7.588413c1.166801,-2.880856 2.678892,-5.938457 2.315107,-6.302241c-0.090946,-0.090945 -1.283501,0.644806 -2.443726,2.443727c-1.411543,2.188587 -2.049367,4.503981 -2.70096,6.81671c-0.253922,0.90126 -0.385851,1.543406 -0.257235,1.543406c0.128616,0 0.425121,-1.533461 1.286172,-5.016069c0.539124,-2.180542 0.752122,-3.245607 0.514468,-3.344046c-0.336093,-0.139214 -1.335361,1.660784 -1.929257,4.372984c-0.280565,1.281284 -0.321763,2.435747 -0.257235,3.215429c0.021216,0.256357 0.514468,-0.771704 1.028937,-2.829578c0.385852,-1.543406 0.889905,-3.615044 0.771704,-4.115749c-0.066076,-0.279903 -0.319053,-0.306841 -0.514469,0c-0.808677,1.269783 -1.779283,4.727518 -2.443727,7.202562c-0.307448,1.145241 -0.51431,2.051468 -0.385851,2.057875c1.290983,0.064388 0.283241,-3.295935 1.414788,-6.173624c2.147062,-5.460295 4.364611,-8.323747 5.787773,-10.289374c1.178215,-1.627314 1.943022,-1.790224 2.443726,-1.672024c1.119614,0.264305 1.725897,0.933322 1.929258,1.543406c0.203362,0.610085 -0.168018,1.891774 -0.90032,2.70096c-1.226593,1.355371 -2.394424,2.275353 -3.729898,2.958196c-1.744255,0.891856 -3.074951,1.221377 -3.60128,1.286172c-0.382961,0.047146 -0.801253,-0.132059 -0.771704,-0.257235c0.198229,-0.83971 1.389378,-1.984934 2.186493,-2.315109c0.375763,-0.155646 1.028936,-0.128617 1.286171,-0.128617c0,0 0.072609,0.637832 -0.514469,0.90032c-0.598703,0.267687 -1.80064,0.128617 -2.057874,0.128617c-0.128617,0 -0.276277,-0.157989 -0.128617,-0.514469c0.278429,-0.672186 1.383549,-1.155871 2.186491,-1.286171c0.888695,-0.144216 1.830139,-0.214535 2.315109,0c0.424093,0.187606 0.703232,0.797287 0.514469,1.157555c-0.29846,0.569632 -2.315109,1.543406 -3.344046,1.80064c-1.028938,0.257235 -1.790741,0.379065 -2.057876,0c-0.30548,-0.433477 -0.025173,-1.683233 1.157554,-2.829577c0.461779,-0.447573 1.066879,-1.150485 2.186493,-1.414789c0.500706,-0.1182 1.294476,-0.103011 1.929258,0c0.40147,0.06515 0.485332,0.206309 0.514467,0.385852c0.046068,0.283882 -0.570652,0.794045 -2.057875,1.414788c-1.239195,0.51722 -2.448109,0.665618 -3.729897,0.771703c-0.779682,0.064529 -1.119711,0.066231 -1.286172,-0.257234c-0.357989,-0.695639 0.056898,-1.630256 1.286172,-2.572344c0.913081,-0.699765 2.057876,-0.771703 3.601281,-0.771703c0.643085,0 1.639101,0.356294 2.572344,1.028937c0.590233,0.425416 1.049809,1.115811 0.643085,1.929257c-0.325378,0.650758 -1.3957,1.028308 -2.70096,1.157555c-0.511965,0.050694 -1.929258,-0.514469 -2.186493,-0.90032c-0.257235,-0.385852 -0.400843,-0.952477 0.128618,-2.186492c0.408863,-0.952934 1.095074,-1.797276 2.70096,-2.057875c0.888695,-0.144215 2.083885,-0.259321 3.086811,0.514468c0.652042,0.503071 1.183531,1.371141 0.90032,1.800641c-0.539217,0.817742 -2.411808,1.436912 -4.5016,1.80064c-1.273441,0.221642 -2.5306,0.406723 -3.344046,0c-0.650758,-0.325379 -0.999054,-0.89593 -0.900321,-1.672023c0.159863,-1.256604 1.047866,-1.856555 1.672023,-2.057875c1.479053,-0.477063 2.320019,-0.678881 2.829578,-0.128617c0.195406,0.211016 0.33147,0.572095 0.128616,0.90032c-0.755993,1.223221 -2.443726,0.90032 -3.60128,0.90032c-0.90032,0 -1.157555,-0.128617 -1.157555,-0.257235c0,-0.514468 0.487064,-1.193819 1.157555,-1.672023c1.556673,-1.110242 2.70096,-0.643086 3.472664,-0.643086c0.643085,0 1.066608,-0.015604 1.157555,0.257235c0.090946,0.272839 -0.726213,0.889568 -1.929258,1.286172c-2.252348,0.742523 -3.47428,0.81729 -4.115749,0.771703c-0.907172,-0.064471 -1.240285,-0.62028 -1.414788,-1.414788c-0.24985,-1.137563 -0.279025,-1.633338 0,-1.929258c0.475162,-0.503934 1.273973,-0.54099 1.929257,-0.514468c0.935581,0.037867 1.438713,0.474924 1.672024,0.643085c0.147558,0.106354 0.147558,0.279498 0,0.385852c-0.699932,0.504483 -1.705025,0.825576 -2.315109,1.028937c-0.610085,0.203362 -0.920923,-0.00166 -0.900321,-0.128617c0.06515,-0.401472 0.40583,-1.012717 1.028937,-1.80064c0.398904,-0.504416 0.643086,-0.643086 1.028938,-0.643086c0.385851,0 0.573477,-0.03943 0.643085,0.128617c0.09844,0.237653 -0.027225,0.734934 -0.385851,1.028937c-0.703324,0.576589 -1.286173,0.90032 -1.929258,0.90032c-0.128617,0 -0.276443,0.067618 -0.385852,0c-0.244644,-0.151198 -0.079398,-0.395641 -0.128617,-0.514468c-0.069607,-0.168046 -0.172559,-0.29797 0,-0.643086c0.287597,-0.575193 0.996408,-0.593828 1.543406,-0.771703c0.743999,-0.241937 0.989509,-0.187627 1.157554,-0.257234c0.237654,-0.09844 0.104694,-0.039544 -0.128616,0.128617c-0.295116,0.212708 -0.822871,0.265561 -1.543406,0.643086c-0.569633,0.29846 -1.028938,0.385851 -1.543406,0.385851c-0.128617,0 -0.14922,-0.00166 -0.128617,-0.128617c0.06515,-0.401471 0.597748,-0.768167 1.157555,-0.90032c0.500707,-0.118201 0.86089,-0.05901 1.028937,-0.128617c0.237654,-0.098439 0.151286,0.191158 -0.128617,0.257234c-0.375529,0.08865 -0.90032,0.128617 -1.157555,0.128617c-0.128617,0 -0.113399,-0.196545 0,-0.257234c0.408864,-0.218818 0.660403,-0.618836 1.028937,-0.900321c0.646451,-0.493758 1.013318,-0.320702 1.414788,-0.385851c0.380871,-0.061807 1.028938,0 1.543407,0c0.385851,0 1.289413,0.113356 1.929256,0.257235c0.517384,0.116342 1.164841,0.503861 1.543407,0.771703c0.524975,0.371428 1.620306,1.088915 2.186491,1.800641c0.755386,0.949559 1.349638,1.656403 1.414789,2.057875c0.061808,0.38087 0.155645,1.167643 0,1.543406c-0.220118,0.53141 -1.024563,0.964563 -2.443726,1.028937c-1.156366,0.052454 -3.030216,0.263371 -4.115751,-0.771703c-0.671236,-0.640034 -1.093189,-1.925245 -1.157553,-3.472664c-0.016035,-0.385517 -0.072609,-0.895066 0.514467,-1.157554c0.598703,-0.267687 1.331697,-0.297059 2.572344,0.128616c0.54406,0.186671 1.052862,0.474927 1.286171,0.643086c0.14756,0.106355 0.158121,0.547825 -0.128616,0.771703c-0.591124,0.461535 -1.538065,0.835913 -2.70096,0.90032c-0.513681,0.02845 -0.964144,-0.245373 -1.028938,-0.771703c-0.047146,-0.382961 -0.049219,-0.91011 0,-1.028937c0.139214,-0.336093 0.653049,-0.380848 1.414789,-0.257235c0.802944,0.1303 1.583279,0.557875 1.929258,0.771703c0.154726,0.095626 0.257235,0.128617 0.257235,0.257235c0,0.257235 -0.022581,0.398442 0.128616,0.643086c0.338089,0.547041 0.535181,1.025572 1.028938,1.672023c0.281485,0.368534 0.69636,0.847045 0.514467,1.028937c-0.090946,0.090945 -0.593866,-0.267025 -0.643085,-0.385852c-0.278429,-0.672186 -0.672808,-0.618438 -1.414789,-1.543406c-0.402397,-0.501634 -0.569548,-1.212004 -1.157555,-1.929257c-0.461269,-0.562659 -0.491457,-0.938738 -0.90032,-1.157555c-0.113398,-0.060689 -0.257235,-0.257235 -0.257235,-0.385852c0,-0.128617 -0.319775,-0.363183 -0.385851,-0.643085c-0.029551,-0.125177 -0.15309,-0.370614 -0.385851,-0.771703c-0.144354,-0.248745 -0.246639,-0.178376 -0.385853,-0.514469c-0.09844,-0.237654 -0.257233,-0.257235 -0.257233,-0.385851c0,-0.128617 0,-0.128617 0,-0.385851c0,0 0.112997,-0.063468 0.514467,-0.128617c0.253914,-0.041204 0.514469,-0.128617 0.771704,-0.128617c0.257235,0 0.370232,0.063468 0.771704,0.128617c0.126955,0.020602 0.234564,-0.062541 0.514467,-0.128617c0.250353,-0.059101 0.385853,0 0.514469,0c0.128618,0 0.514469,0 0.771704,0.128617c0.257235,0.128617 0.274342,0.073248 0.771702,0.257234c0.269733,0.099781 0.502609,0.321057 1.028938,0.385851c0.255308,0.03143 0.489471,0.186291 1.028936,0.385852c0.497362,0.183987 0.812675,0.285697 1.543407,0.643086c0.83316,0.407486 1.528379,0.885288 2.70096,1.929257c1.156733,1.02986 2.129055,2.189486 2.958195,3.729898c0.520838,0.967637 0.514469,1.414789 0.514469,1.672023c0,0.128617 -0.287395,0.616936 -1.157555,0.385852c-1.002207,-0.26615 -2.414299,-0.925967 -3.987133,-2.70096c-1.230198,-1.388318 -1.49505,-3.430915 -2.572344,-5.401922c-0.44482,-0.81384 -0.749033,-1.609482 -1.028936,-1.543406c-0.125177,0.02955 0.245007,0.524825 0.90032,1.286172c1.010342,1.17382 1.738623,2.112827 2.315109,2.70096c0.703173,0.717378 0.989393,1.310095 1.157555,1.543406c0.106354,0.147558 0.219563,0.423523 0.128616,0.514468c-0.181892,0.181892 -0.643085,0 -1.414789,0c-0.514467,0 -1.543406,-0.257234 -2.057875,-0.514468c-0.514467,-0.257235 -0.972113,-0.709875 -1.414787,-1.028937c-0.233311,-0.168161 -0.444862,-0.217806 -0.514469,-0.385852c-0.049219,-0.118827 0,-0.128617 0,-0.385851c0,-0.257235 0.518324,-0.322992 1.028936,-0.385852c0.526329,-0.064794 1.289614,0.099068 1.414789,0.128617c0.279903,0.066076 0.128618,0.128617 0,0.128617c-0.514469,0 -1.543406,-0.128617 -2.057875,-0.385852c-0.514469,-0.257234 -1.028936,-0.385851 -1.028936,-0.385851c-0.128618,-0.128617 0.001661,-0.108015 0.128616,-0.128617c0.40147,-0.06515 0.552139,-0.037672 0.643085,-0.128617c0.090946,-0.090946 -0.128616,-0.128617 -0.385851,-0.643085c0,0 0.181616,-0.132663 0.643085,0.128617c0.474848,0.268854 0.996016,0.48491 1.929258,1.157555c0.590233,0.425417 1.129229,1.05345 1.80064,1.80064c0.619905,0.689871 0.903593,1.880936 1.929256,3.344047c0.576622,0.822553 0.994164,1.57284 1.543407,2.186492c0.121307,0.135532 -0.292519,0.060933 -0.771704,-0.257234c-0.987864,-0.655917 -1.599083,-1.646612 -1.929258,-2.443727c-0.311293,-0.751527 -0.385851,-1.286172 -0.385851,-1.286172c0,-0.257235 0.137953,-0.325898 0.385851,-0.257235c0.72275,0.20019 1.049677,0.874116 1.543407,1.286172c0.220802,0.184277 0.633295,0.208015 0.514467,0.257235c-0.168047,0.069607 -0.128616,-0.257235 -0.128616,-0.257235c0,-0.128617 -0.039429,-0.316245 0.128616,-0.385852c0.118828,-0.04922 0.177839,-0.00979 0.128618,-0.128617c-0.069609,-0.168046 -0.682959,-0.429257 -1.028938,-0.643085c-0.46418,-0.28688 -0.514467,-0.514468 -0.514467,-0.514468c0,0.128616 0.115881,0.244499 0.771702,0.90032c0.327911,0.327911 0.850653,0.681286 1.157555,1.028937c0.190332,0.215605 0.053873,0.311107 0.257235,0.514468c0.203362,0.203362 0.346422,0.316245 0.514469,0.385852c0.118826,0.049219 0.193068,0.080602 -1.929258,-2.700961c-0.499559,-0.654733 -0.860752,-1.210406 -1.286171,-1.80064c-0.168161,-0.233311 -0.44486,-0.603656 -0.514469,-0.771703c-0.09844,-0.237654 -0.246637,-0.178376 -0.385851,-0.514469c-0.049219,-0.118827 -0.05901,-0.346422 -0.128618,-0.514469c-0.049219,-0.118827 0,-0.257235 0,-0.385852c0,0 0.257235,-0.128617 0.385853,-0.128617c0.128616,0 0.617739,-0.194388 2.443726,0.90032c0.551559,0.330669 1.144722,0.684161 1.80064,1.672023c0.159084,0.239593 0.300644,0.55434 0.514469,0.90032c0.095625,0.154727 0.250353,0.444952 0,0.385852c-0.559807,-0.132153 -1.03199,-0.357699 -1.672024,-1.028937c-0.517536,-0.542768 -0.90032,-1.157555 -0.90032,-1.286172c0,0 0,-0.128617 0,-0.128617c0.514469,0.128617 1.083387,0.440931 1.80064,1.028937c1.125319,0.922542 1.599958,1.856749 2.315111,2.70096c0.47028,0.555149 1.205315,1.382217 1.543404,1.929258c0.453594,0.733934 0.495426,1.315544 0.643085,1.672023c0.069611,0.168048 0.020874,0.406723 -0.385849,0c-0.406723,-0.406724 -1.393154,-1.224714 -1.80064,-2.057875c-0.357388,-0.730732 -0.597431,-2.072189 -0.900322,-2.958195c-0.224051,-0.655387 -0.491886,-0.91291 -0.643085,-1.157555c-0.135237,-0.218817 0,-0.385852 0,-0.514469c0,0 0.070629,0.380086 0.514469,0.514469c0.123098,0.037271 0.444862,0.217806 0.514469,0.385851c0.049221,0.118827 0.311108,0.439724 0.514469,0.643086c0.203362,0.20336 0.761105,0.435611 0.900318,0.771703c0.049221,0.118827 0.141918,0.245186 0.257236,0.385852c0.294003,0.358624 0.399147,0.888273 0.514465,1.028937c0.294003,0.358626 0.527771,0.888271 0.643089,1.028937c0.294003,0.358624 0.510426,0.953319 0.771702,1.414788c0.089619,0.158283 0.482998,0.660065 0.771702,1.157555c0.232761,0.401093 0.322994,0.904175 0.385853,1.414789c0.129589,1.052658 0.320885,1.80327 0.257233,2.572344c-0.064529,0.77968 -0.418255,1.656654 -0.771702,2.443726c-0.283737,0.63184 -0.524887,1.299934 -0.643085,1.80064c-0.066074,0.279903 -0.498848,0.577936 -0.900322,0.643085c-0.634781,0.10301 -1.604042,-0.34305 -2.315109,-1.414787c-0.987848,-1.488905 -1.735592,-4.862131 -1.929256,-7.073944c-0.145844,-1.665651 -0.623285,-2.964795 -0.257235,-3.086813c0.610085,-0.203362 0.789497,1.277968 1.672026,3.215429c0.525097,1.152771 1.641285,2.304262 2.186489,3.858515c0.085148,0.242733 0.231628,0.377546 0.128616,-0.257235c-0.260597,-1.605885 -0.771698,-2.315111 -1.028934,-2.572344c-0.12862,-0.128618 -0.208954,0.015188 0,0.900322c0.280338,1.187527 0.461067,2.336746 0.900318,3.344046c0.114956,0.263622 0.247444,0.46525 0.128616,0.514469c-0.168045,0.069607 -0.430607,-0.6278 -1.157555,-2.829578c-0.548462,-1.661182 -0.680855,-2.890451 -1.414787,-3.344046c-0.109407,-0.067617 -0.384596,-0.026976 -0.514469,0.90032c-0.178394,1.273739 -0.000523,2.789459 0.643085,4.244366c0.187607,0.424095 0,0.771704 0.257236,0.771704c0.257236,0 -0.234962,-1.114241 -0.643087,-3.987133c-0.308058,-2.168498 0.020872,-3.43092 -0.385851,-4.244367c-0.081345,-0.162688 -0.274683,1.049911 0,2.443727c0.338249,1.716372 1.105133,3.239168 2.057873,5.273304c0.243973,0.520889 0.346424,0.712692 0.514469,0.643085c0.118828,-0.049219 0.062977,-0.908188 -0.257233,-3.215429c-0.215092,-1.549841 -0.641403,-2.926955 -0.771702,-3.729897c-0.020603,-0.126957 0.052593,0.099854 0.385849,0.771703c0.307777,0.620485 0.37907,2.14847 1.157555,3.987133c0.2924,0.690611 0.514469,1.028936 0.514469,1.157555c0,0 -0.142662,-0.25379 -0.514469,-1.80064c-0.401031,-1.668447 -0.241631,-2.428123 -0.514469,-2.700962c-0.090946,-0.090946 0.452984,1.781445 0.900322,3.472664c0.303219,1.146368 0.702095,2.275681 0.771702,2.443727c0.049217,0.118826 0,0 0,-0.514469c0,-1.414789 -0.19244,-2.174633 -0.257233,-2.70096c-0.031429,-0.255308 -0.011276,0.132561 0.128616,0.514467c0.238232,0.650366 0.514469,0.90032 0.514469,1.028938c0,0 0.090771,-0.191006 0.257233,-0.514469c0.35799,-0.695639 0.434536,-1.692667 0.257236,-2.443726c-0.066074,-0.279903 -0.166286,-0.605417 -0.257236,-0.514469c-0.181892,0.181892 -0.063995,0.633541 -0.128616,1.286171c-0.076042,0.767948 -0.128616,1.157555 -0.128616,1.286173c0,0 -0.320103,-0.028578 -0.514469,-0.385853c-0.393562,-0.723427 -0.752663,-1.186924 -0.900322,-1.543406c-0.139214,-0.336092 -0.415398,-0.511028 -0.385849,-0.385851c0.066074,0.279903 0.257233,0.643085 0.257233,0.514469c0,-0.128618 0.03767,-0.423523 0.128616,-0.514469c0.09095,-0.090948 0.257236,0 0.385853,0c0,0 0.162029,-0.030874 -1.028938,-1.286171c-0.500767,-0.527816 -0.734932,-0.927547 -1.028934,-1.286173c-0.230637,-0.281331 -0.423523,-0.294906 -0.514469,-0.385851c-0.090946,-0.090945 -0.257236,0 -0.643087,0c-0.385851,0 -0.643085,0 -0.90032,0c-0.90032,0 -1.562986,-0.030178 -1.80064,-0.128617c-0.336094,-0.139215 -0.455139,-0.335233 -0.771704,-0.514469c-0.461468,-0.261279 -2.205622,0.355738 -4.244366,1.672024c-2.727139,1.760737 -3.885742,2.664189 -4.244368,2.958194c-0.140665,0.115318 0.170481,0.05287 1.157555,-0.771702c1.885805,-1.575346 3.858515,-4.115752 4.372984,-5.144688c0.128618,-0.257234 0.128618,-0.385851 0,-0.385851c-0.514467,0 -1.944004,1.131433 -3.344046,2.572344c-1.595789,1.642372 -2.818981,3.265186 -2.958195,3.60128c-0.049219,0.118826 0.238136,-0.143511 0.643085,-0.643085c0.860935,-1.062111 1.414789,-1.414789 1.414789,-1.543406c0,0 0,0.128616 0,0.385851c0,1.672024 -0.222908,2.706741 -0.128618,3.472664c0.064795,0.526327 0.418964,1.123947 1.157555,0.90032c1.775352,-0.537533 3.008686,-2.673363 4.115749,-4.758835c0.809086,-1.524144 1.164175,-2.867996 1.028938,-3.086813c-0.151199,-0.244644 -1.121721,-0.241851 -1.929258,0.514468c-1.334206,1.249582 -2.261049,3.621459 -2.572342,4.372985c-0.11006,0.265705 0.045656,0.696533 0.385851,0.514467c0.817728,-0.437634 1.882971,-2.856529 2.572344,-3.987131c0.48284,-0.791878 0.662582,-1.280372 0.385851,-0.385852c-0.48082,1.554218 -1.134327,3.611745 -2.186493,5.91639c-1.887772,4.134941 -3.081083,5.834806 -3.344046,7.073944c-0.0534,0.251631 -0.013466,0.117191 0.643085,-0.643085c2.143196,-2.481787 3.954613,-4.947386 5.401922,-7.073946c1.104609,-1.623024 1.152426,-1.965216 1.028936,-1.929256c-1.610086,0.468859 -2.910046,2.374062 -4.630219,3.729898c-1.878933,1.48097 -2.384714,1.761211 -2.315107,1.929256c0.049219,0.118826 0.446573,-0.334604 1.414787,-1.543406c2.476973,-3.092463 3.887253,-5.461166 4.758837,-6.81671c0.347799,-0.54092 -0.131285,-0.13109 -1.800642,1.672022c-3.091755,3.339478 -5.162367,4.754927 -6.430859,6.302242c-0.294003,0.358625 -0.505133,0.583134 -0.257233,0.514469c0.722748,-0.20019 2.174826,-1.304136 4.115749,-3.472664c1.098488,-1.227304 1.737171,-1.656404 1.672022,-2.057875c-0.020601,-0.126955 -1.01058,0.81053 -3.086811,3.472664c-1.360855,1.744883 -2.340406,3.458965 -2.958195,4.630217c-0.134176,0.254379 -0.128618,0.514469 0,0.514469c0.385851,0 6.927649,-2.608265 9.774904,-3.987131c4.091005,-1.981188 6.002655,-2.922369 7.331181,-3.472664c0.375763,-0.155645 0.641827,-0.026978 0.771702,0.90032c0.124878,0.891617 0.128616,1.80064 0.385853,2.829578c0.128616,0.514467 0.310509,1.104279 0.128616,1.286171c-0.272839,0.272839 -1.395409,-0.038126 -2.443726,-1.414789c-0.696945,-0.915236 -0.789577,-2.220705 -1.157555,-3.215429c-0.099781,-0.269733 -0.318336,-0.611216 -0.771706,-0.257235c-0.934647,0.72975 -1.813248,1.828016 -2.70096,3.215429c-0.310003,0.484507 -0.405432,0.741526 -0.643085,0.643085c-0.168045,-0.069607 -0.450125,-0.897108 -0.514469,-2.829576c-0.042801,-1.285461 -0.25555,-1.898018 -0.385851,-2.700962c-0.020601,-0.126955 0.0569,0.901896 0,1.929258c-0.064407,1.162895 -0.449675,3.074953 -0.514469,3.60128c-0.015715,0.127655 -0.021338,-0.000591 0,-0.385851c0.064407,-1.162895 0.46188,-3.992903 0.643087,-5.40192c0.099792,-0.775957 0.128616,-0.90032 0.128616,-0.90032c0.128616,0.128616 0.086756,1.042395 0.643085,2.70096c0.478748,1.427273 0.796885,2.655798 1.286173,2.958195c0.109407,0.067617 0.064795,0.01186 0,-0.514469c-0.094288,-0.765923 -0.522947,-2.44125 -1.157555,-4.630219c-0.260721,-0.899317 -0.47504,-1.355779 -0.643087,-1.286171c-0.118826,0.04922 0.089624,0.783304 0.643087,2.572344c0.360615,1.165663 0.77002,2.026634 0.90032,2.829576c0.020603,0.126957 0.038441,-0.000957 0,-0.771702c-0.064388,-1.290983 -0.385853,-3.086813 -0.385853,-3.601282c0,-0.257233 -0.182293,-0.267195 -0.514467,1.672024c-0.307095,1.79281 -0.514469,3.729898 -0.514469,6.045008c0,0.514467 0.019207,0.832701 0.128616,0.90032c0.244646,0.151199 0.424133,-0.757938 1.286173,-3.215429c0.538511,-1.535181 1.006868,-3.237497 0.643085,-3.60128c-0.090946,-0.090946 -0.572817,0.383415 -2.057875,2.70096c-1.334785,2.083033 -2.457502,3.979086 -3.729898,6.173624c-0.520121,0.897066 -0.860889,1.484396 -1.028936,1.414789c-0.475307,-0.196877 0.488539,-1.813091 1.672022,-4.244368c0.62937,-1.292938 0.90032,-1.80064 0.90032,-1.929256c0,0 0.050066,0.135281 -0.128616,1.286171c-0.100615,0.648058 -0.485098,1.524366 -0.128616,1.672024c0.168047,0.069607 0.385851,-0.385853 1.286171,-2.186493c0.514469,-1.028936 0.682514,-1.85965 0.514469,-1.929256c-0.475307,-0.196878 -1.719982,0.982222 -3.472664,2.829576c-1.190966,1.255299 -2.03668,2.028776 -2.315109,2.700962c-0.049219,0.118826 0.249245,-0.134708 0.643085,-0.643087c1.008722,-1.302086 2.751183,-2.917446 3.215429,-4.758835c0.031443,-0.124714 -0.396622,-0.307707 -1.929258,1.028938c-1.577946,1.37616 -2.622269,2.929527 -3.344046,4.244366c-0.553577,1.008436 -0.509487,1.476597 -0.128616,1.414789c2.007357,-0.325748 3.338493,-1.982574 4.244366,-3.60128c0.899317,-1.606991 0.658846,-2.323944 0.128618,-2.315109c-1.872437,0.031199 -3.177834,1.018383 -3.858517,1.80064c-0.909319,1.045012 -0.741526,1.948837 -0.643085,2.186491c0.139214,0.336094 0.754707,0.372656 1.157555,-0.128616c0.973524,-1.21138 0.643085,-2.057875 0.643085,-2.057875c-0.514467,-0.257235 -1.853527,0.327234 -2.572342,1.028936c-0.978346,0.955055 -1.092405,1.656404 -1.157555,2.057875c-0.041204,0.253914 0.138407,0.435072 0.257233,0.385853c0.336094,-0.139214 0.78042,-1.831606 0.514469,-2.958195c-0.132153,-0.559807 -1.295,-0.885201 -2.572344,0c-1.345515,0.932444 -2.626215,2.605345 -2.829576,3.215429c-0.162688,0.488066 0,0.90032 0.128616,0.90032c0.385852,0 1.285201,-1.005219 1.414789,-2.057875c0.078574,-0.638269 -0.491455,-2.224909 -0.90032,-2.443727c-0.453594,-0.242756 -0.908732,-0.002703 -1.028937,0.385853c-0.276731,0.89452 -0.618908,1.673134 0,2.829576c0.257483,0.48111 0.70794,0.638519 1.286172,0.257235c0.911105,-0.600779 1.221739,-1.923252 1.286172,-2.958195c0.023975,-0.385105 -0.37302,-0.602013 -1.028937,0.385851c-0.636333,0.95837 -0.92839,2.197285 -1.157555,3.858517c-0.089621,0.64967 -0.31051,0.975662 -0.128617,1.157555c0.090946,0.090946 0.334611,-0.285236 0.128617,-1.028938c-0.20019,-0.722748 -0.910643,-1.117588 -1.286172,-1.028938c-0.559807,0.132153 -0.963549,0.869692 -1.157555,2.700962c-0.1355,1.279016 0,2.057875 0,2.572344c0,0 0.128334,-0.115814 0.257235,-2.057877c0.076661,-1.155012 -0.128616,-1.929256 -0.257235,-2.057875c-0.128617,-0.128616 -0.514469,0.128618 -0.514469,1.414789c0,0.771704 -0.060722,1.641663 0.514469,1.929256c0.230078,0.11504 0.748708,0.151646 1.543406,-0.514465c0.76986,-0.645294 0.881379,-1.392527 1.028937,-1.286173c0.233311,0.168159 -0.44994,0.763723 -0.514468,1.543406c-0.042434,0.512714 -0.151628,1.195972 0.257235,1.414787c0.113399,0.060688 -0.257236,-0.385849 -0.514469,-0.514465c-0.257236,-0.12862 -0.257235,-0.12862 -0.257235,0c0,0.128616 -0.000001,0.385849 0.257235,0.643085c0.128617,0.128616 0.257232,0.643085 0.385852,0.514469c0.12862,-0.128616 -0.112998,-0.449318 -0.514469,-0.514469c-0.126957,-0.020603 -0.491887,-0.116028 -0.643085,0.128616c-0.202855,0.328224 -0.14775,0.788906 0,1.414787c0.066076,0.279903 0.37606,0.465248 0.257235,0.514469c-0.336092,0.139214 -0.476585,-0.816227 -0.771704,-1.028938c-0.23331,-0.168159 -0.37606,-0.306454 -0.257234,-0.257233c0.336091,0.139214 0.514468,0.385853 0.514468,0.257233c0,-0.385849 -0.090948,-0.552135 0,-0.643085c0.090946,-0.090946 0.722574,0.211304 1.543406,0.643085c1.225978,0.644897 1.948838,0.416031 2.186492,0.514469c0.168046,0.069607 0.09938,-0.229568 -0.385852,-0.771702c-0.549244,-0.613651 -1.184782,-1.120781 -1.543406,-1.414787c-0.140665,-0.115318 0,-0.12862 0.385852,-0.12862c0.128617,0 1.169049,0.061386 2.700961,-0.257233c1.038382,-0.215969 1.532808,-0.306995 1.672022,-0.643085c0.147659,-0.356482 -0.270901,-1.233807 -0.90032,-2.057875c-0.883259,-1.156408 -1.498068,-1.797106 -2.057874,-1.929258c-0.250353,-0.059101 -0.739703,0.883511 -0.771703,2.829578c-0.021251,1.292412 0.346306,1.953182 0.514468,2.186493c0.106354,0.147556 0.514469,-0.257236 0.771703,-1.414791c0.514469,-2.315109 0.666098,-3.382463 0.257235,-3.60128c-0.907188,-0.485512 -2.23129,0.655436 -2.70096,1.543406c-0.437791,0.827698 -0.467393,1.443941 -0.385852,1.543406c0.415783,0.507175 1.221856,-0.214539 2.057875,-1.543406c1.257297,-1.998495 1.655219,-2.974751 1.543406,-3.344046c-0.134384,-0.44384 -1.11815,-0.549149 -1.929258,0c-0.753094,0.509871 -1.028937,0.771702 -1.028937,1.028936c0,0.128618 0.257673,0.267843 0.385852,0.257235c0.779681,-0.064528 1.275575,-0.692842 1.414789,-1.028936c0.147659,-0.356482 -0.44869,-0.716881 -1.157555,-0.385853c-1.074414,0.501734 -1.413534,1.387814 -1.543406,2.315109c-0.160554,1.146366 0.099517,1.908064 0.771703,2.186493c1.425921,0.590637 3.390877,-0.573292 5.144688,-1.80064c3.308884,-2.315617 5.016068,-3.858519 5.659155,-4.501602c0.128618,-0.128616 -0.241219,-0.39386 -2.315109,0.643085c-1.659111,0.829556 -3.993877,2.169949 -5.659155,3.858517c-0.705361,0.715225 -0.787417,1.287134 -0.771703,1.414787c0.064795,0.526329 0.511508,0.873882 1.543406,0.771704c1.21423,-0.120234 2.572344,-1.414789 4.115749,-3.729898c0.771702,-1.157555 0.90032,-1.80064 0.514467,-2.186491l-0.514467,0l-0.514469,-0.128618l-0.128618,0" id="svg_3" fill-opacity="null" stroke-opacity="null" stroke-width="2px" stroke="#000000" fill="none"/>
  <path stroke="#000000" d="m40.683535,37.075602c-0.116943,0.120245 -0.34449,0.138108 -1.286349,0.480968c-1.394389,0.50759 -3.738733,1.142254 -5.26233,1.202417c-1.285399,0.050759 -2.648413,0.003306 -3.157396,-0.120241c-0.113813,-0.027628 -0.261488,-0.693065 0,-0.961935c0.261486,-0.268866 1.168093,-0.352328 1.871051,-0.240482c0.817168,0.130016 2.104932,0.120241 2.806575,0.120241c0.467763,0 0.620552,0.055167 0.467763,0.120241c-0.216077,0.092028 -1.052466,0 -1.403289,0c-0.11694,0 -0.23388,0 0,0c0.233883,0 0.946077,-0.113693 1.520229,0c0.618381,0.122452 1.382756,0.49274 1.520229,0.721453c0.061481,0.102285 -0.112046,0.109999 -0.818583,-0.240486c-4.994858,-2.477743 -5.598966,-3.020632 -5.847035,-2.76556c-0.165381,0.170048 1.161007,1.575133 2.455754,2.525079c1.161963,0.852521 3.040458,2.164352 3.040458,1.683384c0,-0.120241 -0.801817,-0.507351 -2.221872,-1.442903c-1.502976,-0.99018 -3.855949,-1.931092 -4.911509,-2.404834c-0.816228,-0.366329 -1.396708,-0.332271 -1.286348,-0.120241c0.198951,0.382238 0.746768,0.760921 1.403288,1.202417c0.764375,0.514027 1.403289,0.84169 1.637171,1.082176c0.11694,0.120241 -0.081092,-0.055167 -0.233882,-0.120241c-0.216078,-0.092028 -0.350823,0 -0.350823,0.120241c0,0.120241 -0.026457,0.461153 0.584705,0.721449c0.324117,0.138044 0.565391,0.174292 0.467761,0.240486c-0.743505,0.504102 -1.41046,-0.700362 -2.104932,-0.961935c-0.591321,-0.222722 -1.018214,-0.395944 -0.935524,-0.480968c0.248069,-0.255072 0.567482,0.33991 0.701645,0.240482c0.212128,-0.157213 -0.898768,-0.56546 -1.871051,-0.961931c-1.134909,-0.462787 -1.754111,-0.601208 -1.754111,-0.480968c0,0.120241 0.680078,0.239573 1.637169,0.360723c0.928517,0.117531 1.610301,0.117024 1.637169,0c0.060078,-0.261676 -0.359994,-0.215211 -0.701643,-0.360723c-0.966332,-0.411568 -2.494346,-1.249107 -3.625161,-1.92387c-0.729354,-0.435208 -1.169406,-0.721449 -1.169406,-0.84169c0,0 0.34737,0.02368 1.052466,0.120241c1.164951,0.159538 3.201157,0.247533 4.677626,-0.360727c0.970919,-0.399988 1.753407,-1.302879 1.871051,-2.404834c0.102081,-0.956192 -0.302642,-2.946033 -1.286348,-3.727496c-1.241543,-0.986289 -4.041388,-0.715638 -5.49621,0.240484c-0.985332,0.647568 -1.44804,1.331813 -1.403289,1.442901c0.126575,0.314208 1.140696,0.583149 2.221874,0c1.326187,-0.715298 3.268085,-2.874947 3.975983,-4.448945c0.357337,-0.79453 0.214504,-1.057777 0,-0.961933c-2.200623,0.983279 -2.688579,3.544784 -3.625161,5.410878c-0.938117,1.869151 -1.169406,2.284595 -1.169406,2.64532c0,0.120241 0.027924,0.012325 0.11694,-0.240482c0.695244,-1.974508 1.15517,-3.53774 0.701645,-4.088222c-0.459782,-0.558074 -2.246669,0.509186 -3.859043,1.803627c-2.215995,1.779038 -2.855557,2.67617 -3.040457,3.246526c-0.073961,0.228146 -0.116941,-0.360723 -0.116941,-1.202417c0,-0.961933 0.233882,-1.683384 0.233882,-1.923868c0,0 -0.151192,-0.035217 -0.233882,-0.120241c-0.082691,-0.085024 0.056863,-0.219291 0.116941,-0.480968c0.10747,-0.4681 -0.021752,-0.684481 -0.233882,-0.841692c-0.134163,-0.09943 -0.407686,-0.021193 -0.467763,0.240484c-0.080603,0.351074 0.233882,0.841692 0.467763,0.961933c0.467763,0.240484 1.582861,0.21984 2.455754,-0.721449c0.941105,-1.014846 2.122354,-3.240151 2.572695,-4.569188c0.24334,-0.718136 0.198951,-1.328847 0,-1.202417c-0.444868,0.282705 -1.310919,2.397282 -1.754111,3.967977c-0.371516,1.316672 -0.368044,2.185165 -0.233882,2.284593c0.21213,0.157211 1.926189,-0.662353 3.39128,-2.16435c1.582117,-1.621973 2.702465,-4.033367 4.911509,-5.531123c0.525737,-0.356454 1.226222,0.107497 1.403288,1.082176c0.173117,0.952939 -0.061957,2.333958 0.233882,3.246528c0.184899,0.570357 0.279121,0.711544 0.584703,0.841692c0.108038,0.046014 0.522551,-1.54691 0.935524,-3.126285c0.405086,-1.54921 0.525791,-3.355683 0.584703,-3.847736c0.01429,-0.119342 -0.452398,0.606551 -1.052464,2.404836c-0.68418,2.050359 -1.323676,4.337425 -1.637171,6.974022c-0.186656,1.569845 -0.23388,2.64532 -0.23388,3.366771c0,0.120241 0.095864,-0.844716 0.350821,-2.64532c0.324078,-2.288767 0.486739,-5.492097 0.11694,-6.252572c-0.147919,-0.30419 -0.969116,-0.062883 -1.286346,0.961933c-0.466502,1.507039 -0.715275,4.016741 -0.233882,5.170396c0.371744,0.89088 0.935524,1.442901 0.935524,1.442901c0.116942,0 0.233882,-1.202417 0.233882,-2.525077c0,-1.683384 0,-2.645318 0,-2.76556c0,0 0.374434,0.440595 0.701645,1.923868c0.417113,1.890809 1.173502,5.22442 1.871051,6.613297c0.506207,1.007897 0.852833,1.648171 0.935526,1.563144c0.248069,-0.255072 -0.105678,-1.44511 -0.467763,-3.366769c-0.453664,-2.407689 -0.604768,-4.950543 -0.935526,-5.290639c-0.248069,-0.255072 -1.049837,1.26852 -1.286348,2.885803c-0.208663,1.42686 0.105643,3.128318 0.233882,3.847738c0.107497,0.60307 0.11694,0.961931 0.11694,0.961931c-0.11694,-0.120241 -0.467761,-0.480968 -0.584703,-0.721449c-0.81859,-1.683381 -0.92069,-1.120089 -0.350821,-0.480968c0.506018,0.567511 1.286348,1.082176 1.403288,1.082176c0,0 -0.034953,-0.241377 0,-0.961935c0.058543,-1.206914 -0.002629,-2.328667 -0.350821,-2.284593c-0.478546,0.060575 -1.586822,1.905796 -1.987992,3.607255c-0.28098,1.191707 -0.408527,2.029503 -0.467761,2.404834c-0.018731,0.11869 0.02487,-0.000906 0,-0.360727c-0.058619,-0.848096 -0.467061,-1.663606 -0.584705,-2.76556c-0.051041,-0.478093 -0.104594,-0.667677 0,-0.721449c0.522976,-0.26887 1.089812,1.190424 1.987992,1.803625c1.089203,0.743618 1.544997,0.915691 1.637169,0.841694c0.380041,-0.305103 -0.167268,-2.849233 -0.584703,-5.290639c-0.590343,-3.452667 -0.799314,-4.662223 -1.052466,-5.290637c-0.044751,-0.111088 -0.227821,0.967957 -0.116942,2.044111c0.176393,1.71202 1.207026,4.609544 2.104932,6.372813c0.753589,1.479867 1.258745,2.885801 1.520229,2.885801c0.261485,0 0.077987,-0.842108 0.11694,-2.76556c0.058484,-2.887679 0.362043,-7.578515 0.233883,-10.22055c-0.058543,-1.206914 -0.177172,-1.214341 -0.350823,-0.120241c-0.359848,2.267222 -0.236197,6.632074 0.23388,9.378856c0.373697,2.183599 0.841478,4.166242 1.286349,4.448949c0.099477,0.063216 0.093043,0.004654 -0.11694,-1.202421c-0.396065,-2.276761 -1.146164,-6.980555 -1.987992,-10.100307c-0.68283,-2.530524 -1.529131,-3.893751 -1.637169,-3.847736c-0.305582,0.130148 -0.597624,1.689576 -0.467763,3.126285c0.176166,1.948995 1.192297,4.435924 1.637169,5.290637c0.246772,0.47411 0.233883,0.360727 0.233883,0c0,-0.480966 -0.058532,-3.122195 0,-4.448945c0.037094,-0.840827 0.197746,-0.93168 0.584703,-0.480968c0.623951,0.726754 1.694904,2.483879 2.572692,3.847738c0.752618,1.169375 1.03186,2.82733 1.286349,2.765559c0.227623,-0.055253 -0.365328,-1.679194 -0.818586,-3.366769c-0.483267,-1.7993 -0.536264,-3.437205 -0.701643,-3.607253c-0.08269,-0.085024 -0.073117,1.202888 -0.11694,3.366769c-0.058484,2.887683 0.098811,6.948113 0.35082,8.176442c0.194607,0.94854 0.159809,0.838987 0.116943,0.480968c-0.058914,-0.492055 -0.409279,-4.326825 -0.467763,-7.214507c-0.053562,-2.644745 -0.258651,-4.402703 -0.350823,-4.328704c-0.380041,0.305103 -0.149185,1.803911 -0.11694,3.727496c0.05848,3.488567 0.467059,5.631585 0.584703,6.73354c0.063801,0.597617 0,0.120241 0,-2.404838c0,-2.76556 0.409262,-5.047151 0.467763,-6.853781c0.007783,-0.24035 0.043788,0.722154 0,2.164352c-0.058498,1.926684 0.172552,3.798812 0.350823,4.80967c0.08346,0.47325 0.11694,0.480968 0.11694,0.240486c0,-0.601208 0.048484,-2.520828 0.23388,-5.050155c0.158439,-2.16156 0.19963,-3.64247 0.11694,-3.727494c-0.08269,-0.085024 -0.186079,0.364236 -0.11694,1.082176c0.117512,1.220263 0.818586,2.885801 1.052466,3.607253c0.11694,0.360725 0.133519,0.480361 0.11694,0.240484c-0.117235,-1.696198 -0.572456,-3.066956 -1.052466,-3.967979c-0.280904,-0.527283 -0.26813,-0.756668 -0.35082,-0.841692c-0.08269,-0.085024 -0.063718,0.137152 0.11694,0.721451c0.348943,1.128584 0.570503,2.105016 0.935526,2.044109c0.34629,-0.057781 -0.147639,-0.713243 -0.467763,-2.044109c-0.258856,-1.076149 -0.584703,-2.164352 -0.701643,-2.404836c-0.116943,-0.240484 -0.006038,-0.152232 0.46776,1.803625c0.460112,1.899361 0.906964,3.821005 1.520229,6.132329c0.410642,1.547662 0.59379,2.592171 1.052466,3.246528c0.096698,0.137951 0.138739,0.23979 0.11694,-0.120241c-0.058584,-0.967548 -0.320312,-2.581661 -1.169406,-4.689429c-0.300199,-0.745205 -0.502013,-1.1672 -0.584703,-1.082176c-0.08269,0.085024 -0.132475,0.722348 0,3.006044c0.104672,1.804421 0.377159,3.387147 0.701643,4.689431c0.091777,0.368341 0.24115,0.480736 0.233883,0.360723c-0.058584,-0.967545 0.067928,-2.431235 -0.233883,-3.967977c-0.0732,-0.372716 -0.279274,-0.258606 -0.35082,0c-0.353421,1.27743 -0.11694,2.164352 -0.11694,3.126287c0,0.601208 0,0.84169 0.11694,0.84169c0.35082,0 -0.161977,-1.36739 -0.467763,-1.803625c-0.096698,-0.137948 -0.23388,-0.120241 -0.350823,0c-0.23388,0.240482 -0.336908,0.627107 -0.11694,1.322658c0.080862,0.255692 0.174553,0.357802 0.11694,-0.240482c-0.058754,-0.610131 -0.096331,-1.143948 -0.35082,-1.082176c-0.341438,0.082877 -0.144274,0.865553 0.701643,2.164352c0.184046,0.282578 0.583173,0.149445 0.701643,-0.601208c0.318439,-2.017717 -0.019059,-3.489663 0.11694,-4.448945c0.102609,-0.723757 0.125843,-0.88771 0.233883,-0.841694c0.152789,0.065074 0.154808,0.957113 1.169406,2.044111c0.472154,0.505846 0.64892,1.32805 1.052466,1.202417c0.111921,-0.034843 -0.350823,-0.721449 -0.701643,-1.803625c-0.467763,-1.442903 -0.33697,-2.502203 -0.701646,-2.284595c-0.226163,0.134954 0.759471,1.171125 1.169409,2.044109c0.273818,0.58311 0.467763,1.082176 0.467763,1.082176c-0.350823,-0.601208 -0.519182,-1.014388 -1.169409,-1.803625c-0.106895,-0.129749 -0.11694,-0.120241 -0.11694,-0.120241c0,0.480968 0.232232,1.138452 0.818586,2.284593c0.392582,0.76738 0.818583,1.683384 0.935523,2.044111c0,0 0.067776,0.37104 0,0.601208c-0.122184,0.414938 -0.521412,0.444103 -0.584703,0.601208c-0.044753,0.111086 -0.11694,0.120241 -0.11694,0c0,-0.240482 0.116062,-0.706756 0,-0.721449c-0.478546,-0.060573 -0.15119,0.876908 -0.23388,0.961931c-0.082693,0.085027 -0.467767,-0.360723 -0.818586,-1.442899c-0.11694,-0.360727 -0.385073,-0.686232 -0.467763,-0.601208c-0.08269,0.085024 -0.071442,0.124745 0,0.721449c0.05891,0.492055 0.198034,1.027009 0.350823,0.961935c0.10804,-0.046016 -0.191867,-1.089487 -0.350823,-1.92387c-0.092686,-0.486524 -0.152789,-0.776616 0,-0.84169c0.10804,-0.046016 0.584703,0 0.935526,0.240482c0.350823,0.240486 0.502013,0.565991 0.584703,0.480968c0.330759,-0.340096 -0.292065,-1.193494 -0.350823,-1.803625c-0.023047,-0.239316 -0.19963,-0.275703 -0.11694,-0.360727c0.165379,-0.170048 0.436145,0.027517 0.935526,0.601208c0.110294,0.126707 0.11694,0.360727 0.23388,0.360727c0.233883,0 0,-0.240486 -0.11694,-0.360727c-0.11694,-0.120241 -0.036109,0.128875 0.11694,0.721449c0.094916,0.367502 0.233883,1.322662 0.233883,1.92387c0,0.841694 0.11694,1.683384 0.11694,2.76556c0,0.360727 0,0.480968 -0.23388,0.480968c-0.116943,0 -0.096435,-0.007375 -0.350823,-0.721449c-0.216604,-0.608013 -0.332184,-1.721112 0.23388,-3.126287c0.200136,-0.496805 0.233883,-0.601208 0.350823,-0.601208c0.11694,0 0.060745,0.124899 0.11694,0.480968c0.236942,1.501311 0.467763,2.044107 0.467763,2.525075c0,0.360727 -0.174643,0.255089 -0.23388,-0.120241c-0.112389,-0.712134 0,-1.322658 0,-1.442903c0,-0.120241 0.170592,-0.157102 0.23388,0c0.313261,0.777626 0,1.322662 0,1.803629c0,0.240482 0,0.240482 0,0.120241c0,-0.240482 0,-0.360727 0,-0.240482c0,0.360723 -0.023294,0.373811 -0.11694,0.721449c-0.182017,0.675683 -0.781599,1.003243 -1.286346,1.442899c-0.76757,0.668586 -1.031857,0.779922 -1.286349,0.841694c-0.113811,0.027624 -0.292065,-0.231559 -0.350823,-0.841694c-0.092186,-0.957249 0.233883,-1.442899 0.233883,-1.803625c0,-0.120241 0.041062,0.023541 -0.233883,0.480968c-0.307396,0.511416 -0.888048,1.143859 -1.169406,1.322658c-0.314568,0.199901 -0.467763,0 -0.467763,-0.240482c0,-0.240482 0.440054,-0.767209 1.169409,-1.202417c0.226163,-0.134952 0.521412,-0.157106 0.584703,0c0.044753,0.111086 0.002789,0.454509 -0.467763,0.961935c-0.290966,0.313762 -0.690863,0.540632 -1.169406,0.601208c-0.232132,0.029383 -0.525793,-0.109157 -0.584703,-0.601208c-0.071442,-0.596708 0.022891,-1.039955 0.46776,-1.322662c0.198953,-0.126432 0.350823,0 0.350823,0c-0.350823,0.601208 -0.705743,1.077287 -1.520229,1.803625c-1.151856,1.027198 -2.104932,1.082176 -2.689635,1.082176c-0.701643,0 -0.758507,0.021191 -0.818583,-0.240482c-0.053736,-0.234048 0.235631,-0.211099 0.46776,-0.240482c0.478546,-0.060577 0.656897,-0.009155 0.701646,-0.120245c0.126575,-0.314208 -0.635629,-0.476053 -1.169406,-0.721449c-0.544348,-0.250257 -0.935526,-0.120241 -0.935526,-0.120241c0,0.240482 0.935526,0.961935 0.935526,0.961935c0.11694,0.120241 0.11694,0 0.11694,0c0,-0.480968 -0.290747,-0.940744 -0.350823,-1.202421c-0.026866,-0.117024 0.11694,-0.240482 0.701643,-0.240482c0.467763,0 1.286349,0 2.338815,0c0.467763,0 0.575068,0.073722 0.701643,-0.240486c0.044749,-0.11109 -0.297167,-0.203621 -0.23388,-0.360723c0.089502,-0.222176 0.314971,0.055167 0.467763,0.120241c0.216077,0.092028 0.35082,0 0.11694,0c-0.11694,0 -0.584703,0 -0.584703,0c-0.350823,0.120241 -0.467763,0.360727 -0.584703,0.601208c-0.116943,0.240486 -0.233883,0.601208 -0.233883,0.721449c0,0.240486 0.053652,0.564351 0.11694,0.721453c0.044753,0.11109 0.116943,0.120241 0.233883,0.120241c0,0 0.15119,0.155458 0.23388,0.240482c0.082693,0.085027 0.270135,0.160829 0.584703,0.360727c0.140681,0.0894 0.278636,0.111086 0.233883,0c-0.126579,-0.314208 -0.687457,-0.615798 -0.935526,-0.360727c-0.330759,0.340096 0.268134,0.75667 0.350823,0.841694c0.08269,0.085024 0.23388,0 0.11694,0c-0.11694,0 -0.469272,-0.22122 -0.584703,-0.240482c-0.365026,-0.060909 -0.467763,-0.120245 -0.467763,-0.120245c-0.11694,-0.240482 -0.554708,-0.216074 -0.467763,-0.360723c0.194413,-0.323452 0.820577,0.190893 1.403289,0.240482c0.708899,0.060327 1.170204,0.140077 1.403286,0.120241c0.708902,-0.060327 1.135978,-0.50642 1.403289,-0.84169c0.524242,-0.657524 0.701643,-0.841694 0.935526,-1.082176c0,0 -0.387075,-0.079664 -0.701646,0.120241c-0.422039,0.268199 -0.827975,1.007195 -1.286346,1.202417c-0.216077,0.092028 -0.23388,0.120241 -0.23388,0.120241c-0.116943,0.120245 -0.116943,0.240486 -0.116943,0.360727c0,0.120241 -0.15119,0.035217 -0.23388,0.120241c-0.082693,0.085027 -0.068501,0.190679 -0.23388,0.360727c-0.082693,0.085027 -0.213274,0.058469 -0.467763,0.120241c-0.113815,0.027628 -0.385073,0.275703 -0.467763,0.360727c-0.08269,0.085024 -0.020609,0.058469 0.23388,0.120241c0.227626,0.055253 0.480277,0.110505 0.935526,0c0.254489,-0.061772 0.343123,-0.137591 0.584703,-0.240482c0.341649,-0.145512 0.584703,-0.120245 1.052466,-0.240486c0.467763,-0.120241 0.5705,-0.299814 0.935526,-0.360723c0.115431,-0.019262 0.467763,0 0.467763,0c0.467763,-0.120245 0.467763,-0.360727 0.701643,-0.480968c0.23388,-0.120245 0.264211,-0.333145 0.467763,-0.601208c0.419639,-0.552632 0.362269,-0.940823 0.584703,-1.082176c0.099477,-0.063216 0.161692,-0.11109 0.11694,0c-0.063288,0.157102 -0.407576,0.342824 -0.935526,0.601208c-0.870716,0.426136 -2.920386,0.541049 -4.560684,0.601208c-1.519261,0.05572 -4.308744,-0.295267 -5.963975,-0.841694c-1.621176,-0.535182 -4.17079,-1.383263 -5.37927,-2.044107c-1.404319,-0.767936 -2.844835,-2.013066 -3.39128,-2.765564c-0.504523,-0.694767 -1.196506,-1.674686 -1.403288,-2.404834c-0.134806,-0.476 -0.16609,-1.582006 0.116942,-2.284593c0.400267,-0.993609 1.096358,-1.916659 1.754109,-2.284595c0.974518,-0.54513 2.134826,-0.491991 3.39128,-0.120241c2.420754,0.716234 3.621769,1.390054 4.209864,1.923868c0.316091,0.286915 0.584703,0.581696 0.584703,0.961935c0,0.380238 -1.076974,1.51987 -2.104932,2.164352c-1.079981,0.677096 -2.224971,1.214514 -2.689635,1.082176c-0.318758,-0.090783 -0.101115,-0.705711 0.350821,-1.202417c0.849266,-0.93339 1.26737,-1.442903 1.637169,-1.442903c0.3698,0 0.43181,0.142609 0.584705,0.360727c0.096698,0.137948 0.159594,0.325185 -0.233882,0.480964c-2.978688,1.179275 -4.93045,-0.455233 -5.14539,0.480968c-0.120157,0.523353 1.380956,0.780618 2.221874,1.082176c1.25896,0.451471 1.733498,0.419196 1.98799,0.480968c0.341436,0.082877 0.467763,0.120241 0.584703,0.120241c0.233882,0 0.433513,0.155462 0.350823,0.240486c-0.165379,0.170048 -0.488312,0.04725 -1.052466,-0.240486c-0.610855,-0.311555 -1.169408,-0.601208 -1.169408,-0.721449c0,-0.120241 0.43764,-0.437552 1.520229,-0.84169c1.600465,-0.597467 3.543722,-1.24722 4.326804,-1.683388c0.370733,-0.206495 0.455164,-0.882182 0.233882,-1.322658c-0.494801,-0.984932 -2.430117,-2.211261 -3.859041,-3.006044c-1.149969,-0.639625 -2.526562,-1.063885 -3.27434,-0.721451c-1.437187,0.658139 -1.712365,2.150026 -1.871051,3.246528c-0.224415,1.550686 0.279005,2.203824 0.935526,2.64532c0.764374,0.514023 1.129452,0.895467 1.286348,0.841694c0.784464,-0.268866 0.142587,-1.691148 -0.350823,-3.366771c-0.889508,-3.020777 -1.754109,-4.809672 -2.338812,-6.372815l-1.169408,-1.923868l-0.350821,-0.721449" id="svg_4" fill-opacity="null" stroke-opacity="null" stroke-width="2px" fill="none"/>
  <path d="m13.800671,7.593284c0,0 -0.257234,-0.128617 -0.514468,-0.257235c-0.257235,-0.128617 -1.028937,-0.257234 -1.414789,-0.257234c-0.128617,0 -0.257234,0 -0.385851,0c-0.128617,0 -0.177837,0.138407 -0.128617,0.257234c0.069607,0.168046 0.242483,0.273913 0.385851,0.385851c0.591123,0.461535 1.046043,0.4591 1.543406,0.643086c0.539465,0.199561 1.021465,0.292049 1.543406,0.385851c1.146314,0.206011 1.931522,0.064795 2.829576,0.128617c1.814346,0.128942 3.094736,0.486514 4.501602,0.90032c2.458536,0.723136 3.983727,1.036666 5.144686,1.543406c0.897728,0.391845 1.543407,0.771703 1.80064,0.90032l0.128618,0.128617l0,0" id="svg_5" fill-opacity="null" stroke-opacity="null" stroke-width="2px" stroke="#000000" fill="none"/>
  <path d="m29.234732,8.23637c0.128616,0 0.385851,0 0.514469,0c0.257235,0 0.514467,0 0.771702,0c0.385853,0 0.771704,0 0.771704,0c0.128616,0.128617 0.385851,0.257234 0.514469,0.257234c0,0 0.166286,0.037672 0.257233,0.128617c0.090946,0.090946 0.18763,0.089189 0.257236,0.257235c0.098438,0.237654 0.128616,0.257235 0.128616,0.257235c0,0.128617 0.246635,0.049758 0.385853,0.385851c0.049221,0.118827 -0.039543,0.281158 0.128616,0.514469c0.212708,0.295117 0.349079,0.67031 0.643085,1.028937c0.461273,0.562659 0.819466,1.124981 1.157555,1.672023c0.302395,0.489288 0.514469,1.157555 0.643085,1.543406c0.257233,0.771703 0.460953,1.289902 0.514469,1.672023c0.129871,0.927296 0.380085,1.099567 0.514469,1.543406c0.111816,0.369297 0.059101,0.378971 0,0.128618c-0.066074,-0.279903 -0.205013,-0.579334 -0.514469,-1.157555c-0.343307,-0.641479 -0.552139,-0.734031 -0.643085,-0.643085c-0.272839,0.272839 -0.029549,0.903761 0,1.028936c0.066074,0.279903 0.128616,0 0.128616,0c0,-0.128616 -0.085209,0.168491 0.128616,0.514469c0.191254,0.309454 0.57037,1.266754 0.900322,1.028938c0.10434,-0.075205 0,-0.257235 -0.257236,-0.514469c0,0 -0.03767,-0.037672 -0.128616,-0.128618c-0.090946,-0.090946 -0.128616,-0.257235 -0.257233,-0.385851c-0.12862,-0.128618 -0.12862,-0.257235 -0.257236,-0.257235c-0.128616,0 -0.128616,-0.128616 -0.128616,-0.257235c0,-0.257235 -0.090946,-0.680756 0,-0.771702c0.090946,-0.090945 0.182491,0.053871 0.385853,0.257235c0.203362,0.20336 0.257229,0.643085 0.385849,0.643085c0.12862,0 -0.147823,-0.324852 -0.257233,-0.257235c-0.244644,0.151199 -0.28524,0.895348 -0.385853,1.543406c-0.17868,1.15089 -0.253696,2.141155 -0.385849,2.70096c-0.118202,0.500706 -0.032993,0.669197 -0.12862,0.514469c-0.213829,-0.345978 -0.449673,-1.017076 -0.514469,-1.543406c-0.015717,-0.127655 -0.128616,-0.257235 -0.128616,-0.257235c-0.128616,0 -0.238293,0.022263 -0.385849,0.128616c-0.233311,0.168161 -1.286251,0.892609 -1.672024,0.90032c-6.434715,0.128643 -9.033066,1.026743 -11.061077,2.443727c-2.836866,1.982138 -3.85515,3.796036 -4.115749,5.40192c-0.185419,1.142609 0.536491,2.829168 1.286171,3.344048c1.044182,0.717142 2.123962,0.447409 2.958195,-0.514469c0.842703,-0.971643 1.86025,-3.711292 2.315109,-5.273304c0.296532,-1.018309 0.385851,-1.157555 0.385851,-1.157555c0.257235,0.128616 0.85635,0.818909 1.543407,1.414789c0.971643,0.842701 2.65172,1.945574 3.60128,2.70096c0.56938,0.45295 0.90032,0.771704 0.771704,0.771704c-0.643087,0 -1.286173,0 -1.414789,0c-0.257235,0 -0.128618,0.128616 0.128616,0.257235c0.514469,0.257235 0.950079,0.761106 1.286173,0.90032c0.237652,0.098438 -0.489058,-0.184294 -1.286173,-0.514469c-0.751526,-0.311293 -1.543406,-0.90032 -1.543406,-0.643085c0,0.128616 0.385851,0.128616 0.643085,0.385851c0.385851,0.385851 0.514469,0.643087 0.514469,0.514469c0,-0.128618 -0.319061,-0.046219 -0.514469,-0.257235c-0.509562,-0.550261 -0.680758,-0.552139 -0.771704,-0.643085c-0.090946,-0.090946 -0.115316,0.245188 0,0.385851c0.294003,0.358625 0.749441,0.495525 0.643087,0.643085c-0.168159,0.233311 -0.362841,-0.424269 -0.771704,-0.643085c-0.566992,-0.303444 -0.811413,0.395084 -0.643085,1.028936c0.104393,0.393099 0.694426,0.8046 0.514469,1.028938c-0.331823,0.413658 -1.334129,-0.909149 -2.572344,-1.543406c-0.97806,-0.500996 -1.672024,-0.385853 -1.672024,-0.385853c-0.128616,0.385853 -0.058634,1.196611 0.643085,2.186491c0.952557,1.343723 1.957905,2.150993 2.443727,2.572346c0.274822,0.23835 0.277954,-0.206524 -0.514469,-1.543407c-0.655815,-1.106411 -1.40229,-2.41489 -1.672024,-2.315109c-0.497362,0.183989 0.340015,1.056602 1.286173,2.572346c0.491117,0.78677 1.223631,1.392117 1.157555,1.67202c-0.029551,0.125179 -0.259298,0.022949 -0.385853,0c-1.08127,-0.196072 -1.603027,-0.736343 -2.443726,-1.286171c-0.24069,-0.157413 -0.37606,-0.177837 -0.257235,-0.128616c0.336094,0.139217 0.662504,0.441753 0.90032,0.771702c0.15041,0.208679 -0.128616,-0.128616 -1.028936,-1.028934c-1.800642,-1.80064 -3.23848,-2.5196 -4.758837,-3.215431c-0.523018,-0.239372 -0.771223,-0.405071 -0.385851,-0.385851c1.290981,0.064388 2.586796,0.327595 3.215429,0.514469c0.66391,0.197361 0.385851,0.385851 0,0.514467c-0.771704,0.257235 -1.983131,0.439724 -2.186493,0.643087c-0.203362,0.203363 -0.149364,0.536398 0.257235,0.90032c0.613651,0.549248 1.356804,1.151787 1.800642,1.286171c0.123098,0.03727 0.126112,0.077919 -0.385853,0.128616c-0.65263,0.064625 -0.771702,0.12862 -0.90032,0.12862c-0.128616,0 0.390833,0.452656 0.771704,0.514465c0.401472,0.065151 0.643085,0.12862 0.514469,0.12862c-0.643087,0 -1.414789,0 -2.186493,0c-1.286171,0 -1.904936,0.126297 -1.929258,0c-0.130981,-0.68013 1.408846,-0.283913 1.929258,-0.385853c0.892498,-0.174828 1.028938,-0.257233 1.028938,-0.257233c-0.128618,-0.257236 -0.763233,-0.790264 -1.028938,-0.900322c-0.375763,-0.155643 -0.643085,-0.257233 -0.771704,-0.257233c-0.128616,0 -0.194693,-0.022667 -0.128616,0.257233c0.029551,0.125175 0.089186,0.316242 0.257235,0.385853c0.118826,0.049221 0.154726,0.290222 0,0.385849c-0.34598,0.213829 -0.4918,0.319778 -0.771704,0.385853c-0.125175,0.029549 -0.03767,0.03767 -0.128616,0.128616c-0.090946,0.090946 -0.257235,0 -0.257235,0.128616c0,0 -0.023012,0.295654 0.385851,0.514469c0.1134,0.060688 0.238293,0.150879 0.385853,0.257236c0.233309,0.168159 0.346422,0.187626 0.514467,0.257233c0.237654,0.098438 0.653408,0.08865 1.028938,0c0.279903,-0.066074 0.49885,-0.192081 0.90032,-0.257233c0.126955,-0.020603 0.514469,0 0.643085,-0.12862c0,0 0.112999,-0.063465 0.514469,-0.128616c0.126955,-0.020603 0.257235,0 0.514469,0c0.257233,0 0.885082,0.281708 1.286171,0.514469c0.497492,0.288708 0.824703,0.381809 1.286171,0.643085c0.158283,0.089619 0.336632,0.376064 0.385853,0.257236c0.139215,-0.336094 -0.465338,-0.46854 -1.286173,-0.900322c-0.612988,-0.322449 -1.030598,-0.36525 -1.157555,-0.385853c-0.40147,-0.065151 -0.514467,-0.128616 -0.514467,-0.128616c0,0.385853 0,0.514469 0,0.514469c-0.128618,0 -0.385853,0 -0.514469,0c0,0 0.005518,-0.03727 0.128616,0c0.44384,0.134384 0.627466,0.449318 1.028938,0.514469c0.253914,0.041203 0.5851,0.122849 1.028936,0.257233c0.369297,0.111813 0.662666,0.030182 0.90032,0.12862c0.168047,0.069607 0.385853,0.128616 0.514469,0.128616c0.514469,0 0.763725,0.192703 1.543406,0.257233c0.12818,0.010609 0.514469,0 0.643087,0c0.257233,0 0.411491,-0.235912 0.514467,-0.385849c0.717144,-1.044182 0.802698,-2.609776 1.929258,-5.401922c0.473969,-1.174719 0.713707,-2.006052 1.543406,-2.572344c0.335936,-0.229286 0.662666,-0.355675 0.90032,-0.257235c0.168047,0.069607 0.643087,1.414789 1.286173,2.70096c0.900318,1.80064 2.177849,4.570969 2.958195,6.302242c1.070164,2.37426 1.028938,3.472664 1.028938,3.60128c0,0.128616 -0.12862,0.257236 -0.257236,0.385853c-0.257233,0.257233 -0.517361,0.467323 -0.900318,0.514469c-0.526329,0.064793 -0.902824,0.17931 -1.414791,0.128616c-0.65263,-0.064621 -1.028938,-0.12862 -1.414787,-0.257236c-0.771702,-0.257236 -1.032259,-0.344646 -1.286173,-0.385849c-0.40147,-0.065151 -0.491796,-0.191158 -0.771702,-0.257236c-0.125177,-0.029552 -0.257235,0 -0.385853,0c-0.128616,0 -0.348181,-0.03767 -0.257235,-0.128616c0.090946,-0.090946 0.391371,0.091347 0.514469,0.128616c0.44384,0.134384 0.499231,0.281708 0.90032,0.514469c0.248745,0.144352 0.521353,0.198135 0.771704,0.257236c0.2799,0.066074 0.385853,0.128616 0.385853,0.128616c0.128616,0.128616 0.385849,0.257233 0.514465,0.257233c0.12862,0 0.395641,0.079403 0.514469,0.12862c0.168049,0.069607 0.395641,0.079395 0.514469,0.128616c0.168045,0.069607 0.389294,0.227684 0.514469,0.257233c0.279903,0.066074 0.44685,0.147827 0.514469,0.257236c0.151199,0.244644 0.423523,0.294903 0.514469,0.385849c0.181892,0.181892 0.385853,0 0.514469,0.12862c0.128616,0.128616 0.385849,0.257233 0.514469,0.257233c0.128616,0 0.257233,0 0.385849,0c0.12862,0 0.12862,0 0.257236,0c0.385849,0 0.524258,0.049221 0.643085,0c0.33609,-0.139214 0.643085,-0.257233 0.771702,-0.385853c0.128616,-0.128616 0.385853,-0.257233 0.514469,-0.385849c0.128616,-0.12862 0.26572,-0.112885 0.514469,-0.257236c0.401093,-0.232758 0.519989,-0.348579 0.643085,-0.385849c0.44384,-0.134384 0.631039,-0.399151 0.771702,-0.514469c0.358627,-0.294006 0.51791,-0.356304 0.643085,-0.385853c0.279903,-0.066074 0.385853,-0.257233 0.514469,-0.257233c0,0 0.257236,0 0.385853,0c0.128616,0 0.177837,0.138405 0.128616,0.257233c-0.069607,0.168045 -0.152538,0.217693 -0.385849,0.385853c-0.14756,0.106354 -0.269825,0.36327 -0.514469,0.514469c-0.109409,0.067619 -0.524258,0.336632 -0.643085,0.385849c-0.168049,0.069607 -0.326035,0.03997 -0.514469,0.257236c-0.266483,0.307259 -0.385853,0.385849 -0.514469,0.514469c0,0 -0.141209,0.23465 -0.385853,0.385849c-0.109409,0.067619 -0.514469,0.257236 -0.643085,0.385853c-0.128616,0.128616 -0.385853,-0.000004 -0.385853,0.128616c0,0.12862 0.476227,-0.198246 0.900322,-0.385853c0.48497,-0.214535 0.784294,-0.23465 1.028938,-0.385849c0.547043,-0.338089 0.860775,-0.667011 1.028934,-0.900322c0.425415,-0.590237 0.538395,-0.732155 0.771706,-0.900318c0.14756,-0.106358 0.166286,-0.16629 0.257233,-0.257236c0.090946,-0.090946 0.257236,0 0.385853,0.128616c0.128616,0.12862 0.511925,0.574314 1.028938,1.672024c0.346607,0.735909 0.698166,1.597855 1.286171,2.315109c0.230633,0.28133 0.495258,0.44685 0.385849,0.514469c-0.244644,0.151199 -0.680508,-0.15094 -1.543404,-0.514469c-0.955605,-0.402588 -1.437553,-0.687481 -2.057877,-0.900318c-0.54406,-0.186672 -1.04018,-0.359344 -1.672024,-0.643085c-0.524712,-0.23563 -0.643085,-0.257236 -0.900318,-0.257236c-0.128616,0 -0.385853,0 -0.514469,0c0,0 -0.257233,0 -0.514469,0c0,0 -0.166286,0.03767 -0.257233,0.128616c-0.09095,0.09095 -0.203823,0.152897 -0.12862,0.257236c0.237816,0.329952 0.771706,0.128616 1.157555,0.128616c0.514469,0 1.018948,0.163788 1.414791,0.257233c0.885132,0.20895 1.420101,0.237587 1.929256,0.385853c0.781006,0.227428 1.142319,0.410324 1.543407,0.643085c0.497494,0.288704 0.950077,0.632488 1.286171,0.771706c0.237652,0.098438 0.917641,0.747452 1.286171,1.028934c0.323227,0.24688 0.465248,0.267025 0.514469,0.385853c0.069607,0.168045 -0.499229,-0.153091 -0.900318,-0.385853c-0.99498,-0.577415 -1.470802,-0.766445 -2.057877,-1.028934c-0.598705,-0.267689 -1.157555,-0.385853 -1.672024,-0.643089c-0.514469,-0.257233 -0.900318,-0.385849 -1.286171,-0.643085c-0.385853,-0.257233 -0.643085,-0.257233 -0.771702,-0.385849c-0.12862,-0.12862 -0.12862,0 0,0.128616c0,0 0.654598,0.755219 1.028934,1.028938c0.664787,0.486107 1.695057,1.510429 2.443729,2.057873c0.664787,0.486103 1.731758,1.088676 2.186489,1.543407c0.454731,0.454731 1.093803,0.848103 1.672024,1.157555c0.48111,0.257481 1.091564,0.653439 1.414791,0.900318c0.368534,0.281487 0.385849,0.514469 0.514465,0.514469c0.385849,0 -0.444279,-0.9585 -1.414787,-2.057873c-0.601883,-0.681801 -1.12278,-1.315605 -1.672024,-1.92926c-0.849152,-0.94873 -1.120785,-2.030643 -1.414787,-1.67202c-0.461269,0.56266 1.414787,1.543404 1.929256,2.057873c1.028938,1.028938 1.969154,1.764496 2.315109,2.186493c0.294003,0.358624 0.485035,0.549244 -0.128616,0c-0.677666,-0.606541 -1.534412,-1.678833 -2.315109,-2.700962c-0.890133,-1.165409 -1.481583,-1.6152 -1.80064,-2.057873c-0.168159,-0.233311 -0.24688,-0.323227 0,0c0.281483,0.36853 1.398567,1.048912 2.186493,1.672024c0.504414,0.398903 1.310093,0.860775 1.543404,1.028934c0.29512,0.212711 0.228592,0.421352 -0.257233,0c-0.412235,-0.357529 -1.301537,-1.144608 -2.057877,-2.057873c-0.525291,-0.634277 -0.966816,-0.9687 -1.543404,-1.672024c-0.294006,-0.358627 -0.286667,-0.929417 -1.028938,-1.286171c-0.115921,-0.055714 -0.128616,-0.257236 -0.257236,-0.257236c0,0 0,-0.128616 0,-0.257233c0,-0.128616 0,-0.257236 0,-0.257236c0.12862,0 0.238293,0.022263 0.385853,0.12862c0.233307,0.168163 0.70998,0.438541 1.157555,0.900318c0.573174,0.591362 0.771702,0.643085 1.028938,0.900322c0.257233,0.257233 0.771702,0.643082 1.028938,0.900318c0.257236,0.257236 0.795624,0.603546 1.028934,0.771706c0.14756,0.106354 0.385857,0.128613 0.771706,0.514465c0.257233,0.257236 0.567463,0.381813 1.028934,0.643089c0.158283,0.089619 0.541695,0.477695 0.900322,0.771702c0.140663,0.115318 0.56834,0.439724 0.771702,0.643085c0.203362,0.203362 0.50285,0.554089 0.771706,1.028938c0.26128,0.461468 0.385849,0.771702 0.385849,1.028934c0,0 -0.112995,0.320702 -0.514469,0.385853c-0.634781,0.103008 -1.981964,-0.30299 -2.829578,-0.900318c-0.969284,-0.683075 -1.121758,-1.419701 -1.67202,-1.92926c-0.211018,-0.195408 -0.504681,-0.465248 -0.385853,-0.514469c0.672188,-0.278427 0.893917,1.034115 1.414787,1.672024c0.635338,0.778099 1.028938,1.028938 1.414791,1.414791c0.128616,0.128616 0.287926,0.251484 0.128616,-0.514469c-0.107986,-0.519192 -0.385853,-0.643085 -0.385853,-0.900322c0,-0.128616 0.300644,0.297108 0.514469,0.643085c0.28688,0.46418 0.514469,0.514469 0.514469,0.643085c0,0 0,0 0,-0.128616c0,-0.643085 0.257236,-1.157555 0,-1.157555c-0.257236,0 -0.079086,0.305084 0.257236,0.771706c0.106354,0.147556 0.168045,0.444859 0,0.514465c-0.237656,0.098438 -0.643089,0.12862 -0.900322,0.385853c-0.128616,0.128616 -0.320881,0.388481 -0.257233,1.157555c0.064529,0.779682 0.257233,1.157555 0.385849,1.543407c0,0 0,0 0,-0.128616c0,-0.12862 0,-0.385853 0,-0.385853c0,0 -0.082409,0.135258 0,0.643085c0.065151,0.401474 0.257236,0.643085 0.257236,0.771702c0,0.12862 -0.16629,0.037674 -0.257236,0.12862c-0.090946,0.090946 0,0.385849 -0.128616,1.028934c0,0 -0.128616,0.12862 -0.128616,0.385853c0,0.128616 0,0.128616 0.128616,0.128616c0.128616,0 0.128616,0 0.128616,-0.128616c0,-0.257233 0,-0.385853 0,-0.385853c0,-0.128616 0.090946,-0.090946 0,0c-0.090946,0.090946 -0.108013,-0.130276 -0.128616,-0.257233c-0.065151,-0.401474 -0.336632,-0.91011 -0.385853,-1.028938c-0.069607,-0.168045 -0.257233,0.257236 -0.257233,0.385853c0,0.385849 0,0.514469 0,0.643085c0,0.128616 -0.128616,0.128616 -0.128616,0.257233c0,0 0,0.514469 0,0.643085c0,0.12862 0.23465,0.269825 0.385849,0.514469c0.067619,0.109409 0.409775,0.089077 0.643085,0.257236c0.14756,0.106354 0.257236,0.128616 0.385853,0.128616c0.128616,0 0.276447,-0.060997 0.385853,-0.128616c0.244644,-0.151199 0.230202,-0.524559 0.385849,-0.900322c0.110058,-0.265705 0.108017,-0.516129 0.12862,-0.643085c0.065151,-0.401474 0.155647,-0.781792 0,-1.157555c-0.110058,-0.265705 -0.075344,-0.589809 -0.257236,-0.771702c-0.090946,-0.090946 -0.187626,-0.168045 -0.257233,0c-0.246098,0.594135 -0.128616,1.028938 -0.128616,1.543404c0,0.12862 0.128616,0.385853 0.257233,0.514469c0.128616,0.12862 0.385853,0.12862 0.514469,0.12862c0.128616,0 0.36327,-0.012592 0.514469,-0.257236c0.270473,-0.437634 0.128616,-0.771702 0.128616,-0.900318c0,-0.514469 0.05901,-0.682518 0.128616,-0.514469c0.049217,0.118828 0,0.514469 0,0.643085c0,0.128616 0.062542,0.363182 0.128616,0.643085c0.059101,0.250351 0,0.257233 0,0.385853c0,0.128616 0,0.257233 0,0.385849c0,0.128616 -0.187626,0.089188 -0.257233,0.257236c-0.049217,0.118828 0,0.257233 -0.128616,0.257233c0,0 0,-0.128616 0,-0.643085c0,-0.643085 0,-1.543407 0,-2.315109c0,-0.771702 -0.126255,-1.763599 -0.257236,-2.443726c-0.024323,-0.126297 0,-0.257236 0,-0.257236c0.12862,0 0.257236,0 0.385853,0c0.257233,0 0.771702,0.257236 1.157555,0.385853c0.385853,0.128616 0.732269,0.316242 0.900318,0.385853c0.118828,0.049221 0.118828,-0.177841 0,-0.12862c-0.168049,0.069611 -0.079395,0.118828 -0.128616,0c-0.069607,-0.168045 -0.069515,-0.392731 -0.128616,-0.643085c-0.066074,-0.2799 -0.128616,-0.514469 -0.128616,-0.771702c0,-0.257233 0.019581,-0.544647 0.257233,-0.643085c0.168045,-0.069607 0.281158,-0.21769 0.514469,-0.385853c0.147556,-0.106354 0.385853,-0.257233 0.514469,-0.257233c0,0 0.279495,0.109673 0.385853,0.257233c0.168163,0.233311 0.091843,0.413082 0.385849,0.771706c0.115318,0.140667 0.12862,0.257233 0.12862,0.514465c0,0.257236 0.088654,0.396175 0,0.771706c-0.066078,0.279903 -0.150883,0.366909 -0.257236,0.514469c-0.168159,0.233311 -0.205013,0.451832 -0.514469,0.643085c-0.345978,0.213825 -0.643085,0.257233 -0.900318,0.257233c-0.385853,0 -0.706554,-0.112995 -0.771706,-0.514469c-0.020603,-0.126957 -0.291565,-0.647751 -0.257233,-0.771702c0.200191,-0.722748 0.733459,-1.098568 1.157555,-1.286171c0.48497,-0.214535 0.903759,-0.158169 1.028938,-0.128616c0.2799,0.066074 0.385849,0.257233 0.643085,0.514465c0,0 0,0.385853 0,0.514469c0,0.514469 0.022583,0.655678 -0.128616,0.900322c-0.338089,0.547043 -0.385853,0.643082 -0.643089,0.900318c-0.257236,0.257236 -0.257233,0.257236 -0.514465,0.257236c-0.257236,0 -0.227684,-0.132057 -0.257236,-0.257236c-0.066074,-0.2799 -0.213825,-0.297104 0,-0.643085c0.095627,-0.154724 0.47504,-0.316242 0.643085,-0.385849c0.35648,-0.147659 0.824703,-0.261276 1.286171,0c0.158283,0.089619 0.12862,0.257233 0.12862,0.257233c0,0.128616 -0.105953,0.319778 -0.385853,0.385853c-0.125175,0.029549 -0.644745,0.020603 -0.771702,0c-0.401474,-0.065151 -0.903763,-0.356304 -1.028938,-0.385853c-0.559807,-0.132153 -1.100731,-0.709877 -1.543407,-1.028938c-0.466621,-0.336319 -1.157555,-0.514469 -1.414787,-0.643085c-0.257236,-0.128616 -0.662666,-0.287407 -0.900322,-0.385849c-0.336094,-0.139217 -0.719921,-0.243996 -1.157555,-0.514469c-0.244644,-0.151199 -0.795624,-0.474926 -1.028934,-0.643085c-0.29512,-0.212711 -0.538647,-0.517818 -1.157555,-0.900322c-0.345982,-0.213825 -0.671734,-0.47897 -1.157555,-0.900318c-0.412235,-0.357529 -0.838493,-0.714882 -1.157555,-1.157555c-0.336323,-0.466621 -0.745495,-0.792446 -1.157555,-1.286175c-0.184277,-0.220802 -0.542831,-0.492771 -1.028938,-1.157555c-0.273724,-0.374336 -0.440933,-0.826153 -1.028938,-1.543404c-0.461269,-0.56266 -0.867344,-1.180588 -1.414787,-1.92926c-0.486103,-0.664787 -0.864803,-1.201836 -1.672024,-2.186489c-0.882008,-1.075878 -1.419281,-1.926777 -2.057877,-3.086815c-0.77718,-1.411785 -1.280403,-2.128502 -1.414787,-2.572342c-0.03727,-0.123096 0.077408,-0.145226 -0.128616,-1.414789c-0.130302,-0.802942 -0.585072,-2.162569 -0.771706,-2.829576c-0.210808,-0.75341 -0.24197,-1.675266 -0.385849,-2.315109c-0.116341,-0.517384 -0.257236,-1.414789 -0.257236,-2.057875c0,-0.514469 0,-1.286173 0,-1.672024c0,-0.128616 0,-0.643085 0,-0.90032c0,-0.257235 -0.041206,-0.517792 0,-0.771704c0.065151,-0.401472 0.191162,-0.749033 0.257236,-1.028936c0.029549,-0.125177 0,-0.257235 0,-0.514469c0,-0.257235 0.128616,-0.385851 0.128616,-0.514469c0,-0.257235 0,-0.514467 0,-0.514467c0,-0.385853 0,-0.514469 0,-0.643087c0,-0.128616 0,-0.385851 0,-0.385851c0,-0.514469 0,-0.771704 0,-1.028936c0,-0.257235 0.090946,-0.423524 0,-0.514469c-0.090946,-0.090945 -0.061714,0.04163 0.128616,0.257235c0.306904,0.347654 0.514469,0.643085 0.900322,1.286171c0,0 0.128616,0.257235 0.128616,0.128616c0,-0.128616 -0.128616,-0.385851 -0.257233,-0.643085c0,0 -0.12862,-0.128616 -0.257236,-0.128616l-0.128616,0l0,0l-0.128616,0" id="svg_6" fill-opacity="null" stroke-opacity="null" stroke-width="2px" stroke="#000000" fill="none"/>
  <path d="m13.028968,23.413197c-0.128617,0.128616 -0.392122,0.50913 -1.157555,1.414787c-0.648429,0.76722 -1.180454,1.652428 -2.057875,2.700962c-0.528519,0.63159 -1.249282,1.516771 -1.543406,2.70096c-0.188586,0.759279 -0.128617,1.286171 -0.128617,1.800642c0,0.257233 0.128617,0.257233 0.257235,0.257233c0.257234,0 0.370232,0.063465 0.771703,0.128616c0.126957,0.020603 0.370233,0.063465 0.771703,0.128616c0.126957,0.020603 0.267025,-0.049221 0.385852,0c0.168048,0.069611 0.257234,0.257236 0.257234,0.257236c0,0.128616 0,0.257233 0,0.514469c0,0.128616 0,0.257233 0,0.385849c0,0.12862 0.128617,0.12862 0.128617,0.257236c0,0 0.128617,0 0,0l0,0.128616l-0.257234,0l-0.128617,0" id="svg_7" fill-opacity="null" stroke-opacity="null" stroke-width="2px" stroke="#000000" fill="none"/>
 </g>
</svg>