<?xml version="1.0" encoding="UTF-8"?>
<svg xmlns="http://www.w3.org/2000/svg" xmlns:xlink="http://www.w3.org/1999/xlink" width="512px" height="512px" viewBox="0 0 512 512" version="1.1">
<g id="surface1">
<path style=" stroke:none;fill-rule:nonzero;fill:rgb(0%,0%,0%);fill-opacity:1;" d="M 508.167969 261.667969 L 268.25 13.582031 C 264.832031 10.082031 260.417969 8.332031 256 8.332031 C 251.582031 8.332031 247.167969 10.082031 243.75 13.582031 L 194.417969 64.582031 L 194.417969 27.332031 L 115.082031 27.332031 L 115.082031 146.582031 L 3.832031 261.667969 C -2.917969 268.667969 -0.5 274.332031 9.167969 274.332031 L 79.75 274.332031 L 79.75 468.417969 C 79.75 487.832031 95.582031 503.667969 115 503.667969 L 211.832031 503.667969 L 211.832031 362.582031 L 300.082031 362.582031 L 299.832031 503.667969 L 397.25 503.667969 C 416.667969 503.667969 432.582031 487.832031 432.582031 468.417969 L 432.582031 274.332031 L 502.75 274.332031 C 512.5 274.332031 514.917969 268.667969 508.167969 261.667969 Z M 508.167969 261.667969 "/>
</g>
</svg>
