<svg width="150" height="60" xmlns="http://www.w3.org/2000/svg">

 <g>
  <title>background</title>
  <rect fill="none" id="canvas_background" height="62" width="152" y="-1" x="-1"/>
 </g>
 <g>
  <title>Layer 1</title>
  <path id="svg_1" d="m83,8.706999l0,5.586l-8,-8l-23.707,23.707l1.414,1.414l1.293,-1.293l0,23.586l14,0l14,0l14,0l0,-23.586l1.293,1.293l1.414,-1.414l-6.707,-6.707l0,-14.586l-9,0zm2,2l5,0l0,10.586l-5,-5l0,-5.586zm-15,41l0,-16l10,0l0,16l-10,0zm24,0l-12,0l0,-18l-14,0l0,18l-12,0l0,-23.586l19,-19l19,19l0,23.586z"/>
  <path d="m68.416664,20.039583c0.166664,0 -0.38932,1.140112 -1,2.5c-0.735352,1.63752 -1.728142,3.294119 -2.666664,4.833332c-0.893314,1.465073 -1.666664,2.333336 -1.5,2.5c0.166664,0.166664 1.038017,-1.307434 2.666664,-2.666666c2.023201,-1.688517 4.203232,-2.777498 5.5,-3.666666c0.687286,-0.471256 0.480095,-0.350109 -0.5,0.833332c-1.361382,1.643839 -1.857193,3.076578 -2.833336,4c-0.270729,0.256107 -0.5,0.166668 -0.166664,0l0.166664,-0.5l0,-0.166666" id="svg_3" fill-opacity="null" stroke-width="2" stroke="#000000" fill="none"/>
  <path d="m84.916664,29.706249c0.5,1.166666 1.597168,2.61692 2.5,4.5c0.936707,1.953724 1.41626,3.487633 1.5,4.333332c0.082115,0.829281 -0.330109,1.620434 0,1.666668c1.201622,0.168293 0.869843,-2.492474 1.333336,-4.833332c0.361923,-1.827904 0.5,-3.333336 0.5,-4.000002c0,-0.166666 -0.366493,0.985292 -1.166672,2.833334c-1.217506,2.811859 -2.333328,5.166668 -3.5,7.5c-0.666664,1.333332 -0.961555,2.449459 -1.166664,2.333332c-0.597984,-0.338573 1.013344,-2.963596 1.5,-5.833332c0.532379,-3.139343 0.416618,-5.828873 0.5,-8.166666c0.035645,-0.999365 0.101685,-1.226568 0.166664,-1c0.612999,2.137445 -1.411568,4.860857 -2.333328,7.666666c-0.608856,1.853336 -1.249596,3.487633 -1.333336,4.333332c-0.016426,0.165855 -0.129967,-0.504612 0,-2.333332c0.167091,-2.351093 0.583229,-4.160435 0.666664,-5.833332c0.058113,-1.16522 0.227386,-1.676949 0.166672,-0.5c-0.106201,2.058815 -0.818001,4.004436 -1.5,6.333332c-0.489021,1.669922 -1.081047,2.970623 -1.166672,3.333332c-0.076584,0.324417 0.074707,-0.988976 0.333336,-3c0.234818,-1.825855 0.292534,-3.505096 0.5,-5c0.139359,-1.004169 0.333328,-1.666664 0.166664,-1.666664c-1.166664,0 0.07373,2.668705 0,4c-0.083458,1.50692 -0.333336,3.333332 -0.5,4.666664c-0.166672,1.333336 -0.416451,2.657787 -0.5,3.833336c-0.047264,0.664986 0,1 0,1.333332c0,0.166668 -0.073692,-0.357239 0.5,-2c0.591827,-1.694691 1.089836,-3.185833 1.5,-4.666668c0.281372,-1.015846 0.382149,-1.45118 0.5,-1.333332c0.235703,0.235703 -0.166664,1.833332 -0.5,4c-0.333328,2.166668 -0.646103,3.835518 -0.833328,5.5c-0.1502,1.335289 -0.166672,2.166668 -0.166672,2.333332c0,0.166668 -0.104095,-0.01968 0.166672,-1.166664c0.484367,-2.051788 1.205528,-4.322166 1.666664,-6c0.364227,-1.32523 0.333336,-1.833336 0.333336,-1.666668c0,0.166668 -0.296638,2.17429 -0.833336,4.666668c-0.468094,2.173782 -1.115746,4.180439 -1.5,5.5c-0.147354,0.506027 -0.166664,0.833332 -0.166664,0.666664c0,-0.333332 0.115417,-0.864334 0.333328,-1.166664c0.137817,-0.191216 0.333336,-0.333336 0.666672,-0.333336c0.166664,0 0.5,0 0.666664,0c0.166664,0 1,0 2.333336,0c1.166664,0 1.666664,0 1.833328,0c0,0 0.166672,0 0.333336,0c0.166664,0 0.430969,0.235699 0.666664,0c0.117851,-0.117847 -0.333328,-0.166664 -1,-0.166664c-0.166664,0 -0.333328,0 -0.666664,0c0,0 -0.430969,-0.235699 -0.666664,0c-0.117851,0.117847 -0.137299,0.414375 -0.5,0.5c-0.324417,0.076588 -0.637299,0.081043 -1,0.166664c-0.486626,0.114876 -0.496758,0.065689 0.166664,0c0.845703,-0.08374 1.5,-0.333332 2,-0.333332c0.333336,0 1,0 1.5,0c0.166664,0 0.5,0 0.5,0c0.333336,0 1.325554,0.24984 2.666664,0.333332c0.665382,0.041424 0.784523,0.215485 0.666672,0.333336c-0.471405,0.471409 -1.822998,0.249714 -2.833336,0.333332c-1.328796,0.109974 -2.779236,0.360382 -3.833336,-0.166668c-0.210815,-0.105408 -0.5,-0.333332 -0.666664,-0.333332c0,0 -0.166664,0 -0.333336,0c-0.166664,0 -0.333328,0 -0.333328,0c-0.166672,0 -0.5,0 -0.666672,0c-0.5,0 -0.666664,0 -0.833328,0c-0.166672,0 -0.333336,0 -0.333336,-0.166668c0,0 -0.035027,-0.179737 0.166664,-0.666664c0.285233,-0.688622 1.03862,-1.654613 1.333336,-2.666668c0.384262,-1.319557 0.983932,-2.836327 1.333336,-4.666668c0.318703,-1.669521 0.83252,-3.308598 1,-5c0.131386,-1.326843 0.166664,-2.333332 0.166664,-2.833332c0,-0.166668 0.047699,1.011562 -0.5,3.166668c-0.766914,3.017662 -1.27401,6.0126 -1.833336,8.5c-0.301514,1.340885 -0.430138,1.659599 -0.333328,1c0.252678,-1.721607 1.259064,-3.814068 1.666664,-6c0.43206,-2.317089 0.353149,-3.869236 0.666664,-4.833336c0.11525,-0.354412 0.108742,0.148586 -0.333328,1.666668c-0.576385,1.97934 -0.782417,3.847107 -1.166672,5.166668c-0.147354,0.506027 -0.166664,-0.166668 -0.166664,-2.166668c0,-2.166668 0,-4.166668 0,-5.833332c0,-1.166668 -0.151558,-1.999657 -0.166664,-1.666668c-0.08342,1.839001 -0.61235,4.174023 -1,6.833332c-0.292473,2.006382 -0.654572,3.411022 -0.333336,3.5c0.936562,0.259415 1.529289,-2.644447 3.166664,-4.833332c1.357872,-1.815235 2,-2.666668 2.166672,-2.833332c0,0 0.126793,0.670376 0,2.833332c-0.166954,2.847984 -0.485527,5.697575 -1,8.166668c-0.247505,1.18784 -0.360031,1.664513 -0.333336,1.5c0.084419,-0.520241 0.950851,-1.84901 2,-4.166668c0.934853,-2.065174 1.744789,-3.923294 2,-5.166668c0.067024,-0.326523 0.050674,0.347916 -0.5,2.166668c-0.763649,2.52216 -1.335625,4.751106 -2.166664,6.166668c-0.421898,0.718639 -0.5,0.833332 -0.5,0.5c0,-2 0.300262,-4.502598 0.5,-6.833336c0.143013,-1.668861 0.382149,-2.784519 0.5,-2.666664c0.235703,0.235703 -0.641747,2.126438 -1.333336,4.833332c-0.631104,2.470161 -0.853149,4.202568 -1.166664,5.166668c-0.11525,0.354412 -0.230217,0.164238 -0.166672,-0.666668c0.167152,-2.185776 0.651909,-4.52166 1,-6.666668c0.220146,-1.356621 0.377823,-1.993954 0.333336,-1.833332c-0.259415,0.936562 -1.406914,2.804241 -2.166664,4.833332c-0.554436,1.480743 -0.637291,2.918957 -1,2.833336c-0.162209,-0.038292 0.052483,-0.811092 0.666664,-2.333336c0.729912,-1.809082 1.072441,-3.025162 1.5,-3.333332c0.135208,-0.09745 0.333336,0.166668 0.333336,1.833332c0,2.333336 0.082703,3.984631 0.166664,4.666668c0.040726,0.330833 0,0.166668 0,-0.333332c0,-0.5 0.135208,-0.735882 0,-0.833336c-0.427567,-0.30817 -1,0.5 -1.333336,0.833336c0,0 -0.166664,0.166664 0,0.166664c0,0 0.656334,-0.048832 1.333336,-0.166664c1.650169,-0.287209 3.139168,-0.498859 3.166664,-0.166668c0.083618,1.010338 -2.007446,0.79356 -3,1c-0.672783,0.139931 -1.166664,0.5 -1.5,0.5c0,0 -0.046707,-0.284008 0.666672,-0.5c1.286049,-0.389381 2.666664,-0.333332 4,-0.333332c0.666664,0 0.666664,0 0.666664,0.166664c0,0 -0.166664,0.333336 0,0.333336c0.166664,0 0,-0.333336 0,-1.166668c0,-1.166668 0,-2.666668 0,-4.333332c0,-1.5 0,-3 0,-3.666668c0,-0.333332 -0.019089,0.664871 -0.166664,2.333332c-0.19146,2.164619 -0.583206,4.326412 -0.666672,5.833336c-0.046082,0.832058 -0.166664,1.333332 -0.166664,1.166664c0,-0.5 0.308151,-1.841095 0.833336,-3.5c0.477226,-1.507401 0.500809,-2.650242 0.666664,-2.666664c0.845695,-0.08374 0.445526,2.006348 0.666664,3.666664c0.133842,1.004921 0.166672,2 0.166672,2.666668c0,0.166668 0.096855,0.403141 -0.166672,0.666668c-0.263519,0.263519 -0.382149,0.451187 -0.5,0.333332c-0.235703,-0.235703 0,-0.833332 0,-1c0,-0.166668 -0.117851,-0.382149 0,-0.5c0.117851,-0.117855 0.333336,0 0.833336,0c0.5,0 0.448753,0.19767 0.666664,0.5c0.137817,0.191216 0.243141,0.282238 0.333336,0.5c0.063782,0.15398 0,0.166668 0,0.333332c0,0.333336 0.166664,-0.5 0.166664,-0.833332c0,-0.666668 0,-1.333332 0,-2c0,-0.333332 0,-0.666668 0,-1c0,-0.333332 0,-0.5 0,-0.666668c0,-0.333332 0,-0.666664 0,-1c0,-0.166664 0,-0.333332 0,-0.666664c0,-0.333336 0,-0.666668 0,-1c0,-0.333336 0,-0.666668 0,-1.166668c0,-0.5 0,-0.833332 0,-1.166668c0,0 -0.084549,0.004055 -0.166664,0.833336c-0.08374,0.845699 -0.416382,1.989662 -0.5,3c-0.054985,0.664394 -0.082245,1.146423 -0.166664,1.666664c-0.026695,0.164516 0,0.333336 0,0.5c0,0.166668 0,0.333336 0,0.666668c0,0.166668 0,0.333332 0,0.5c0,0.333332 0,0.5 0,0.666668c0,0.166664 -0.063782,0.34602 0,0.5c0.090195,0.217758 0.166664,0.333332 0.166664,0.833332c0,0 -0.063782,0.179356 0,0.333332c0.090195,0.217762 0.166664,0.333336 0.333336,0.5c0,0 0.166611,0.495838 0,0.5c-3.336456,0.083363 -0.416382,-4.489662 -0.5,-5.5c-0.041237,-0.498295 -0.247711,-0.970627 -0.333336,-1.333332c-0.076584,-0.324417 0,-0.666668 -0.166664,-1c0,0 0.038292,-0.171127 0,-0.333332c-0.085625,-0.362713 -0.094925,-0.688835 -0.333336,-1.333336c-0.129295,-0.349529 -0.166664,-1 -0.166664,-1.333332c0,-0.333332 0,-0.666668 0,-1.166668c0,-0.5 0,-1.166664 0,-1.833332c0,-0.666668 0.059875,-1.50861 0.166664,-2.166668c0.084419,-0.520241 0.215485,-0.617855 0.333336,-0.5c0.235703,0.235703 -0.083206,1.493076 -0.166672,3c-0.110603,1.996941 0,3.666668 0,4.666668c0,0.666668 0.214767,0.688618 0.5,0c0.403381,-0.973858 0.58522,-2.171661 0.666672,-2.833332c0.083961,-0.682037 0.166664,-1.333336 0.166664,-1.5c0,-0.166668 0.166664,-0.166668 0.166664,0c0,0.333332 -0.146881,1.170864 -0.333328,2c-0.150764,0.670441 -0.333344,1.5 -0.166672,1.5c0.166672,0 -0.026878,-0.540672 -0.333328,-1.333336c-0.350433,-0.906441 -0.560135,-2.202518 -1,-3.333332c-0.405312,-1.041981 -0.833336,-1.5 -0.833336,-1.5c-0.5,0.5 -1.016029,1.445137 -1.333336,2.833332c-0.410202,1.794613 -0.41626,2.654301 -0.5,3.5c-0.016426,0.165855 0.126167,0.04932 0.333336,-0.666664c0.465561,-1.608978 0.874191,-3.660286 1.166664,-5.666668c0.193825,-1.329655 0.278038,-2.331802 0.333336,-1.333332c0.083458,1.50692 0.24987,2.826408 0.333336,4.333332c0.055305,0.99847 -0.117851,1.382149 0,1.5c0.235695,0.235699 0.192863,-0.174088 0.333328,-1.5c0.251396,-2.373024 0.531296,-5.025204 1,-7.166666c0.25943,-1.185295 0.5,-1.833334 0.5,-1.5c0,1.666666 0.011688,2.334848 -0.166664,3.666666c-0.156425,1.168083 -0.500008,2.166668 -0.333336,2.166668c0.166672,0 0,-0.5 0,-1.5c0,-0.833336 0,-2 0,-2.833334c0,-0.333334 -0.082924,-0.179035 -0.166664,0.666666c-0.11496,1.160992 -0.083168,2.825554 -0.166664,4.166668c-0.062134,0.998066 0,1.833332 0,2.333332c0,0.166668 -0.026695,0.331181 0,0.166668c0.084419,-0.520241 0.199837,-1.344097 0.333328,-2.166668c0.084427,-0.520241 0.166672,-1 0.166672,-1c0,0 0.065697,0.669914 0,1.333332c-0.08374,0.845703 -0.666672,1.666668 -0.333336,1.666668c0.333336,0 0.18412,-1.084431 -0.5,-2.333332c-0.800705,-1.461731 -2.884102,-3.262722 -5.666664,-4.333336c-2.905914,-1.118073 -5.492218,-1.58317 -6.833336,-1.666666c-0.332695,-0.020712 -0.166664,0 0.166664,0c1.333336,0 3.333336,0 5.333336,0c1,0 1.333336,0 1.333336,0c0.166664,0.166668 -0.486488,1.056803 -1.166672,2.166666c-0.663246,1.08223 -0.833328,1.833336 -0.833328,2c0,0.166668 0.666664,0.000004 1.5,-0.166664c1.666664,-0.333332 3.5,-0.5 4.5,-0.666668c0,0 0.254288,-0.024891 0.166664,-0.166668c-0.391853,-0.634037 -1.17485,-0.917515 -1.5,-1.833332c-0.394302,-1.11059 -0.333336,-1.833334 -0.333336,-2.333334c0,-0.166666 0.25322,-0.240301 0.666672,0.333334c0.653725,0.906996 1.333328,2.333332 1.666664,3c0.166664,0.333332 0.166664,0.5 0,0.5c-0.666664,0 -1.873344,-0.790035 -3.5,-2.333334c-1.19693,-1.135593 -1.675247,-1.883116 -1.5,-2.166666c0.19593,-0.31702 1.8853,-0.347446 3.333336,0.166666c1.404793,0.49876 2,1.333334 2,2.166668c0,0.666666 0.031219,1.3678 -0.333336,1.666666c-0.464722,0.380978 -0.869095,0.574818 -1.666664,0.333332c-1.150284,-0.348274 -2.076462,-1.245207 -2.333336,-2.333332c-0.229752,-0.973249 -0.073639,-2.086548 0.5,-2.5c0.302338,-0.217909 0.703789,-0.379337 1.333336,0.166666c0.890312,0.77216 1.576469,1.782242 1.666664,2c0.063782,0.153982 -0.046181,0.461998 -0.666664,0.166668c-0.752449,-0.358143 -1.081047,-1.137291 -1.166672,-1.5c-0.153175,-0.648832 -0.063782,-1.346022 0,-1.5c0.090202,-0.217764 0.34671,-0.281546 0.833336,-0.166668c0.725418,0.171247 1.454002,0.870453 2,1.5c0.154434,0.178062 0.247711,0.137291 0.333336,0.5c0.038292,0.162209 0.166664,0.166668 0.5,0.166668c0,0 0.048813,-0.215483 0.166664,-0.333334c0.117851,-0.117849 0.166664,-0.166666 0.166664,-0.166666c0.166672,-0.166668 0.166672,-0.5 0.166672,-0.666668c0,-0.166666 -0.012688,-0.269548 -0.166672,-0.333332c-0.217758,-0.0902 -0.179352,-0.269556 -0.333328,-0.333334c-0.217766,-0.090199 -0.19767,-0.282097 -0.5,-0.5c-0.191216,-0.137817 -0.54882,-0.382145 -0.666672,-0.5c-0.117851,-0.117851 -0.166664,-0.166666 -0.166664,-0.166666c-0.166664,-0.166668 -0.403145,-0.236479 -0.666664,-0.5c-0.527046,-0.52705 -0.932335,-0.585501 -1.333336,-0.833334c-0.448334,-0.277084 -0.579041,-0.358225 -0.666664,-0.5c-0.19593,-0.31702 -0.475456,-0.362183 -0.666672,-0.5c-0.30233,-0.217903 -0.475456,-0.528849 -0.666664,-0.666666c-0.30233,-0.217911 -0.5,-0.333334 -0.666664,-0.5c0,0 -0.470741,-0.18298 -0.666672,-0.5c-0.087624,-0.141775 -0.166664,-0.333334 -0.333328,-0.5c-0.333336,-0.333336 -0.452354,-0.535276 -0.833336,-1c-0.149429,-0.182278 -0.666664,-0.499998 -0.833336,-0.666668c-0.333328,-0.33333 -0.448753,-0.697668 -0.666664,-1c-0.275635,-0.382423 -0.61557,-0.9098 -0.833336,-1c-0.153976,-0.063778 -0.362183,-0.475452 -0.5,-0.666666c-0.435822,-0.60466 -0.59008,-1.008917 -0.666664,-1.333334c-0.085625,-0.362707 -0.492531,-0.591527 -0.666664,-1.166666c-0.048294,-0.159515 -0.166672,-0.666667 -0.333336,-0.833333c-0.166664,-0.166667 -0.285683,-0.535283 -0.666664,-1c-0.149437,-0.182281 -0.333336,-0.500002 -0.5,-0.666667c-0.166672,-0.166668 -0.324753,-0.549783 -0.5,-0.833333c-0.19593,-0.31702 -0.54882,-0.215478 -0.666672,-0.333333c-0.117851,-0.117851 -0.166664,-0.333334 -0.333328,-0.333334c-0.166672,0 -0.432899,0.183816 -1,-0.166667c-0.317024,-0.195928 -0.5,-0.499999 -0.666672,-0.499999c0,0 -0.166664,-0.166667 -0.166664,-0.166667c-0.333336,-0.333333 -0.382149,-0.548816 -0.5,-0.666667c-0.117851,-0.117849 -0.368523,-0.149069 -0.666664,0c-0.745354,0.372678 -1,1.333333 -1.5,2c-0.5,0.666667 -0.895226,1.291124 -1.333336,2c-0.391861,0.634038 -0.986496,1.8431 -1.833336,3c-0.984436,1.344868 -2.052513,2.623631 -3,3.833334c-0.884056,1.128716 -1.166664,1.833332 -1,1.833332c0.166664,0 0.440758,-0.761805 2,-1.666666c2.900993,-1.683514 6.477562,-2.887403 8.833336,-3.833334c1.321449,-0.530611 1.575317,-0.449902 1,0.333334c-1.188095,1.617472 -3.051384,3.478987 -5.333336,5.166666c-2.230217,1.649414 -3.882149,2.117855 -4,2c-0.117851,-0.117851 -0.145058,-0.906464 0.833336,-2.666666c0.875847,-1.57572 2.074249,-2.741327 3.333336,-3.833334c0.178062,-0.154432 0.376106,-0.161083 0.333328,0c-0.344887,1.298695 -1.838478,2.662046 -3.333328,4.333334c-1.337959,1.495878 -2.081047,2.303957 -2.166672,2.666666c-0.038292,0.162209 1.166672,0.166668 3.166672,0.166668c3.166664,0 6,0 7.333328,0c0,0 0.181473,0.200323 -0.166664,0.333332c-1.775146,0.678215 -4.679268,0.940668 -7.166664,1.5c-0.670448,0.150761 -0.66465,0.211571 -0.166672,0.166668c1.855865,-0.167343 4.833336,-0.666668 8,-0.666668c1.833336,0 2.747711,-0.029375 2.833336,0.333334c0.153168,0.648832 1.256233,1.458355 0.833336,2c-0.205139,0.262737 -1.5,-0.833332 -2.833336,-2.166666c-1.5,-1.499998 -1.990623,-2.20611 -1.833336,-2.5c0.283554,-0.529821 1.83979,-0.184048 5,1c3.507271,1.314083 7.104019,3.291365 9.333336,4.333332c0.813103,0.380037 0.833336,0.333334 1,0.333334c0,0 0,-0.166666 0,-0.5c0,-0.333334 -0.318268,-0.884678 -0.666664,-1.5c-0.338577,-0.597986 -0.902267,-1.270889 -1.5,-2c-0.380981,-0.464722 -1.049782,-0.636847 -1.333336,-1.166666c-0.078644,-0.146946 -0.166664,-0.333332 -0.333336,-0.5c-0.333336,-0.33333 -0.465813,-0.870035 -1,-1.333334c-0.629539,-0.546001 -1.0495,-1.102304 -1.5,-1.5c-0.279388,-0.246635 -0.530998,-0.615427 -0.833328,-0.833334c-0.382423,-0.275637 -0.637405,-0.349646 -0.833336,-0.666666c-0.175247,-0.28355 -0.166664,-0.499998 -0.333336,-0.666666c-0.166664,-0.166666 -0.243134,-0.282242 -0.333328,-0.5c-0.063782,-0.153982 -0.236481,-0.236481 -0.5,-0.5c-0.263527,-0.263525 -0.269554,-0.512686 -0.333336,-0.666668c-0.090195,-0.217758 -0.448753,-0.364334 -0.666664,-0.666666c-0.275635,-0.382425 -0.509384,-0.372776 -0.666672,-0.666666c-0.283554,-0.529821 -0.891029,-0.617576 -1.166664,-1.000001c-0.217911,-0.302331 -0.637405,-0.349646 -0.833336,-0.666666c-0.175247,-0.28355 -0.333328,-0.499998 -0.5,-0.666667c-0.166664,-0.166665 -0.201942,-0.285687 -0.666664,-0.666667c-0.364555,-0.298865 -0.864334,-0.615428 -1.166664,-0.833333c-0.191216,-0.137819 -0.282242,-0.409801 -0.5,-0.5c-0.153984,-0.063784 -0.333336,0 -0.666672,0c-0.833328,0 -2.5,0.166668 -3.833328,0.666667c-1.333336,0.500001 -2.80629,0.472953 -3.333336,1c-0.263519,0.263523 -0.330162,0.342559 0.166664,0.166666c1.342361,-0.475237 2.679138,-0.75327 4,-0.999999c0.675507,-0.126181 0.882149,-0.284516 1,-0.166667c0.117851,0.117851 -0.085098,1.377336 -0.833328,2.666666c-1.206482,2.078988 -2.785904,3.796079 -3.666672,5.333333c-0.262009,0.457304 -0.196442,0.624275 0.5,0.166668c1.122993,-0.737875 2.098274,-1.528357 2.666672,-1.333334c0.49852,0.171047 -0.407997,1.240911 -1.5,2.5c-1.081032,1.246437 -2.252296,1.803955 -2.166672,2.166666c0.038292,0.162212 0.555344,-0.078007 1.666672,-0.833332c0.882622,-0.599884 1.166664,-1 1.5,-1.333334c0,0 -0.057022,-0.069052 0.333328,-0.333334c1.051064,-0.711611 2.06868,-0.828087 2.666672,-1.166666c0.41021,-0.23226 0.554985,-0.164394 0.5,0.5c-0.083618,1.01034 -0.190529,2.07658 -1.166672,3c-0.270729,0.256107 -0.356445,-0.001612 -0.333328,-0.166666c0.168289,-1.201624 0.927139,-2.105059 1.666664,-3.333334c0.38446,-0.63855 0.49395,-0.877823 0.333336,-0.833334c-0.936562,0.259413 -2.314972,1.549419 -4.5,2.333334c-1.488258,0.533936 -1.702118,0.498741 -1.666672,0c0.083549,-1.175547 0.939209,-2.705896 2.166672,-3.833334c1.157982,-1.063618 2.333328,-1.333332 2.333328,-1.166666c0,1.166666 -0.11599,3.014578 -0.666664,4.833334c-0.458191,1.513296 -0.958855,3.111216 -1.166664,3c-0.749283,-0.400997 1.199448,-2.148918 2,-3.666668c0.521606,-0.988901 0.769547,-1.48731 0.833328,-1.333332c0.450996,1.088799 -2.116478,2.552149 -3.5,3.833332c-1.127426,1.044035 -1.37381,1.168848 -0.333328,1c3.125771,-0.507244 8.144249,0.416222 12.333328,0.666668c0.831848,0.049732 1.041145,0.222115 0.833336,0.333332c-1.49855,0.802008 -4.5,0.333334 -8,0.333334c-2,0 -2.162361,0.053392 -1.833336,0c0.520241,-0.084423 2.036598,-0.069851 4.166672,-0.5c1.033234,-0.208652 0.173569,-0.494762 -0.333336,0.166666c-0.545952,0.712383 -0.588455,1.550747 -0.333336,2.166668c0.270599,0.653282 1,0.833332 1,0.833332c0.333336,-0.166666 -0.644234,-1.043947 -1.333328,-2c-0.217911,-0.302332 -0.147812,-0.548456 0.333328,-0.333332c2.453362,1.096926 5.907196,2.766853 9.166672,5c1.461563,1.001352 1.215958,0.933216 0.333328,0.333332c-2.222649,-1.510641 -4.93972,-3.224121 -7.166664,-5.5c-1.40361,-1.434454 -1.833336,-2.166666 -1.833336,-2c0,0.5 0.905479,1.775179 1.833336,3c0.725731,0.957998 1.283905,1.478701 1.166664,1.166668c-0.623146,-1.658484 -4.041206,-3.941338 -8.333328,-7c-2.524704,-1.79916 -2.852745,-2.37241 -2.166672,-2.333334c2.843399,0.161951 6.85228,2.769995 10,5.5c2.136749,1.853191 2.708313,3.077099 2.166672,3.5c-0.131371,0.102571 -0.537811,0.070793 -1.833336,-0.666666c-2.410683,-1.372248 -5.223534,-3.276043 -5.666664,-4.5c-0.113472,-0.313425 0.247299,-0.624294 1.333328,-0.166668c2.519035,1.061459 4.980408,3.481379 7.333336,5.5c0.536667,0.460419 0.556976,0.605497 -0.333336,-0.166666c-2.518181,-2.184004 -7.913521,-5.065107 -10.833328,-8c-0.918076,-0.922817 -0.792877,-1.659292 0.5,-1.333334c2.386131,0.601587 5.113571,3.197351 7.333328,5.166668c1.586845,1.407808 2,2.166666 2,2.166666c-0.166664,0 -1.445625,-0.913 -4.833328,-3.166666c-3.118378,-2.074499 -5.029266,-3.349649 -4.833336,-3.666668c0.175247,-0.283552 1.285484,-0.319487 3,0.5c3.338814,1.595854 6.77478,4.525734 8.333336,5.833334c0.180565,0.151493 -0.028847,0.549925 -1.5,-0.333334c-2.893326,-1.737108 -6.786781,-3.790745 -7.5,-5.666666c-0.236923,-0.623148 -0.029373,-1.081043 0.333328,-1.166666c0.648834,-0.153172 2.333336,1.000002 5,3.166666c2.666672,2.166668 3.882149,3.715483 4,3.833334c0.117851,0.117855 -0.623184,-1.03981 -2,-2.5c-1.131889,-1.200432 -1.617851,-1.882149 -1.5,-2c0.117851,-0.117855 1.123184,0.539814 2.5,2c1.778687,1.886395 3.500008,3.499996 4.166672,4.833332c0.166664,0.333334 0.166664,0.333334 0.166664,-0.166666c0,-0.5 -0.622627,-1.372572 -1.666664,-2.5c-1.12104,-1.210581 -2.595741,-2.398893 -3.833336,-3.666666c-0.909294,-0.931467 -1.419884,-1.426363 -1.833336,-2c-0.217911,-0.302332 -0.5,-0.666668 -0.666664,-0.833334c-0.333336,-0.333336 -0.666664,-0.5 -1,-0.833334c-0.333336,-0.333332 -0.653587,-0.368359 -0.166664,-0.166666c0.344307,0.142616 0.5,0.166666 0.333328,0.166666c-0.166664,0 -0.743965,-0.781513 -2,-1.666666c-1.098366,-0.77404 -1.833328,-1.333331 -2,-1.666667c-0.166664,-0.333332 -0.179352,-0.397112 -0.333328,-0.333333c-0.217766,0.090199 -0.352821,0.827941 -0.666672,2c-0.17775,0.663797 0.029381,1.585623 -0.333328,1.5c-0.162209,-0.038292 0,-0.166666 0,-1.5c0,-1.333333 0.166664,-2.166667 0.166664,-2.666667c0,0 0,-0.166666 0,-0.333333c0,0 0.056252,0.885 0.333336,1.333333c0.619583,1.002497 2.070564,1.404704 3,2.166667c0.182274,0.149431 0.333328,0.166666 0.333328,0.333334c0,0.5 0.226547,1.175274 0.333336,1.833332c0.084419,0.520241 0.200851,0.647255 0,0.333334c-0.575157,-0.898932 -1.359795,-2.15049 -2.166664,-3.5c-0.689552,-1.153292 -1.082245,-1.813091 -1.166672,-2.333333c-0.053398,-0.329028 0,-0.5 0.166672,-0.5c0.5,0 1.166664,0.833333 2.166664,2c1,1.166666 1.833336,1.999995 2.333336,2.499999c0.166664,0.166668 0.166664,0.333334 0.166664,0.5c0,0.166668 0.127563,0.358707 0,0.666668c-0.090195,0.217758 -0.502563,0.243931 -1.666664,0.166666c-2.516586,-0.167034 -5.495201,-0.749939 -7.666672,-0.833334c-1.498894,-0.057566 -2.166664,0.333336 -2.833328,1c-0.666672,0.66667 -1.249374,1.317965 -1.333336,2c-0.020363,0.165419 0.011993,0.00779 0.333336,-0.5c0.519684,-0.821201 1.571365,-2.07056 2.333328,-3c0.747162,-0.911393 1.470177,-2.116884 2,-1.833333c0.440834,0.235929 0.022171,1.50574 -0.333328,2.833333c-0.31385,1.17206 -1.330109,2.2871 -1,2.333334c1.201622,0.168291 1.06311,-2.383781 1.833328,-3.833334c0.737778,-1.388493 1.5,-1.999999 1.5,-2.333333c0,-0.166666 0.215126,-0.14781 0,0.333334c-0.548462,1.226677 -1.740067,2.598294 -2.666664,3.666667c-0.545998,0.629545 -0.693359,0.831181 -0.666664,0.666666c0.168846,-1.04048 1.19442,-2.23 1.833328,-3.666667c0.493042,-1.108664 0.617851,-1.382149 0.5,-1.5c-0.117851,-0.117849 -0.383942,-0.07598 -1.666664,0.833334c-1.741241,1.234354 -3.361656,2.292098 -4.833336,3.333333c-0.680283,0.48131 -0.859688,0.471369 -0.5,0.166666c1.093956,-0.926727 2.483231,-1.853239 3.666672,-2.833333c0.821915,-0.680687 1.429924,-0.985698 1.333328,-0.666666c-0.348274,1.15028 -1.5,2.499999 -2.666664,4.166667c-1.166664,1.666666 -2.145645,3.192556 -3.166664,4c-0.653641,0.516914 -0.871628,0.828873 -0.833336,0.666666c0.171249,-0.725418 1.397438,-2.110107 3,-3.5c1.259094,-1.092003 1.451187,-1.284515 1.333336,-1.166666c-0.117851,0.117851 -1.536362,1.12398 -3.5,2.833332c-1.868805,1.626797 -3.204811,2.788271 -4,3.5c-0.175629,0.157196 0.307941,-1.029673 1.666664,-2.166666c1.636871,-1.369747 3.061287,-3.40601 3.666664,-2.833334c0.436546,0.412962 -1.471748,1.865335 -3.166664,3.333334c-1.967907,1.704439 -3.812813,4.020519 -4.5,3.333334c-0.687183,-0.687185 1.784248,-2.384081 3.333336,-3.833334c1.29377,-1.21039 2.655663,-1.97961 2.333328,-2.166666c-1.039494,-0.603237 -1.97575,2.339268 -3.499996,3.833332c-1.859211,1.822395 -2.882149,3.048817 -3,3.166668c-0.117851,0.117851 0.473042,-0.364296 2,-1.666668c1.802265,-1.537188 3.68008,-2.816734 5.333332,-4.166666c1.008286,-0.823294 1.457253,-1.367167 1.333336,-1.166666c-0.277084,0.448334 -1.166672,1.500002 -1.833336,2.166666c-0.333336,0.333334 -0.112137,0.043026 0.666664,-1c0.719063,-0.963017 1.325867,-1.591528 1.5,-2.166666c0.096596,-0.319031 0.253242,-0.673124 0.333336,-1.166668c0.084419,-0.520241 0.258797,-0.815742 0.333336,-0.666666c0.372681,0.745356 -1.213013,1.955711 -2.166672,3c-0.877785,0.96121 -1.579041,1.808439 -1.666664,1.666666c-0.391857,-0.634039 1.12085,-1.743925 1.833336,-2.833332c0.611954,-0.935688 0.952347,-1.868618 1.333328,-2.333334c0.149437,-0.18228 0.307259,-0.191759 -0.333328,0.5c-1.044037,1.127432 -1.788879,2.038786 -2.666672,3c-0.158939,0.174047 -0.166664,0.333332 0,0.166666c0.666664,-0.666672 1.378891,-1.149097 1.166672,-0.666666c-0.690941,1.570683 -1.901421,3.579533 -3.666668,5.666666c-2.056252,2.431198 -3.401821,5.051271 -4.166668,4.5c-0.604664,-0.43582 1.233452,-1.950706 1.833336,-2.833332c0.755322,-1.111324 0.839249,-1.917376 1.333332,-2.666668c0.129753,-0.196774 0.166668,-0.333332 0.166668,-0.333332c-1.333336,1 -2.53981,1.789848 -4,3.166666c-0.685963,0.646797 -1.038292,0.995541 -1,0.833334c0.171246,-0.725418 0.946575,-1.428518 1.333332,-2.166668c0.244606,-0.466846 0.333332,-0.666666 0.333332,-0.666666c0,0.166666 0,0.5 -0.166664,1.166666c-0.166668,0.666668 -0.086575,1.173124 -0.166668,1.666668c-0.084423,0.520241 -0.166668,1.166666 -0.166668,2.166666c0,1 0,1.666668 0,3c0,0.666668 0,1.333332 0.166668,1.333332c0.166668,0 0.249897,-0.993767 0.333332,-2.666664c0.099625,-1.997519 0,-4.000002 0,-5.500002c0,-0.666666 0.166668,-1.166666 0.166668,-0.833332c0,1.666666 0.62146,3.640165 1,5.666666c0.246731,1.320862 0.337791,1.538292 0.5,1.5c0.362709,-0.085625 1.795399,-0.894691 4.999996,-2.833334c3.130775,-1.893982 5.455544,-3.705456 6.333336,-4.666666c0.317886,-0.348097 0.397118,-0.65398 0.333336,-0.5c-0.541199,1.306562 -3.151428,2.849775 -5.666672,5.166666c-1.822361,1.678652 -2.833328,2.500002 -2.833328,2.666666c0,0 0.136005,-0.524357 1.333332,-1.999998c1.788303,-2.203983 3.762661,-4.275667 4.833332,-6.166668c0.367233,-0.648609 -0.16906,-0.502928 -2,1c-2.837055,2.328804 -4.960636,4.52426 -6,6.166666c-0.321342,0.50779 -0.094349,-0.060373 1,-1.666666c1.539085,-2.259079 3.614853,-4.247608 4.833336,-6c0.554794,-0.797897 0.552704,-0.991447 0.5,-0.833332c-0.263527,0.790569 -2.033928,1.972206 -3.666668,4c-1.191772,1.480133 -1.784519,2.215481 -1.666668,2.333332c0.117851,0.117851 0.52589,-0.645647 1.333336,-1.666666c1.033829,-1.30728 2.183464,-2.88039 3,-4.333334c0.43972,-0.782431 0.129829,-0.892448 -0.166672,-0.666666c-1.783932,1.35844 -3.657719,3.381563 -4.999996,5.333334c-0.761417,1.107159 -1.144894,1.645212 -1,1.166666c0.348278,-1.150282 1.750652,-2.626835 2.666668,-4.666666c0.735355,-1.637522 0.798862,-2.531223 0.5,-2.166668c-1.142941,1.394163 -2,3.5 -2.833336,6c-0.5,1.5 -0.5,2.166668 -0.5,2.5c0,0 0.323818,-0.195786 2.833336,-1c4.317535,-1.383619 9.269104,-2.858662 13,-4c1.31424,-0.402046 1.622177,-0.493948 1.666664,-0.333332c0.259415,0.936565 -3.46917,1.959099 -8.666664,3.166666c-4.807648,1.116991 -7.918961,1.303955 -7.833336,1.666666c0.076584,0.324419 1.737003,-1.318464 5.666664,-2.333332c4.74884,-1.226427 9.484444,-1.333012 12.166672,-1.5c0.332687,-0.020712 0.617165,0.102306 0.166664,0.5c-1.955727,1.726473 -5.727432,2.323896 -9.333336,3.666666c-1.189499,0.442945 -1.003014,0.477329 0.166672,0.333334c4.822716,-0.5937 11.867058,-0.418537 18.5,-1.166668c2.858978,-0.322464 3.008064,-0.725702 2,-0.833332c-3.484161,-0.372 -8.823441,-0.607233 -13.666672,-1c-2.828941,-0.229416 -4.351166,-0.346827 -5,-0.5c-0.362701,-0.085625 -0.333328,-0.333334 0.5,-0.333334c1.833336,0 5.189674,-0.195114 8.833336,0.333334c2.523109,0.365932 3.666664,0.666666 3.666664,0.666666c0.166672,0.333334 -0.64193,0.499186 -2.333328,0.666666c-3.317116,0.328459 -6.783188,-0.5811 -8.666672,-0.833332c-0.330376,-0.044243 -0.5,-0.166668 -0.333328,-0.166668c1.666664,0 6.01786,0.754477 11.333328,2c2.676254,0.627102 3,0.666668 2.833336,0.666668c-1.5,0 -4.996025,-0.028467 -9.666664,-0.666668c-3.830215,-0.523365 -4.666672,-0.5 -3.833336,-0.5c1.833336,0 4.346275,-0.23642 6.5,0c1.527412,0.167667 2.204956,0.671125 2.166664,0.833334c-0.085625,0.362709 -1.325554,1.059877 -3.666664,1.333332c-3.656921,0.427147 -6.333336,0.333336 -7,0.333336c0,0 0.300102,-0.124683 1.333336,-0.333336c2.130066,-0.430151 4.5,-0.166666 5.333328,-0.166666c0.166672,0 -0.510948,0.200048 -2.333328,0c-3.054832,-0.335335 -6.357292,-0.201233 -6.666672,-1.166666c-0.07193,-0.224463 1,-0.166668 3.166672,0.166666c2.166664,0.333332 3.617851,0.548817 3.5,0.666668c-0.117851,0.117855 -1.333336,0 -3,0c-1.166672,0 -0.165375,-0.083212 2.5,0c2.670563,0.083374 4.320961,0.249592 5.166664,0.333332c0.331711,0.032846 0.81797,0.082705 1.5,0.166666c0.661667,0.081455 0.833336,0 1,0c0.166664,0 -0.021744,0.081261 -0.833336,0.333336c-1.212173,0.376488 -2.656326,0.916382 -3.666664,1c-0.1661,0.013748 0.324455,0.083542 1.5,0c1.994972,-0.141777 2.5,0.166664 2.5,0c0,-0.333336 -1.670555,0.14851 -4.5,0c-3.179787,-0.166897 -4.525375,-0.372437 -4.833336,-0.5c-0.217758,-0.090199 -0.166664,-0.333336 0,-0.333336c0.5,0 2.166672,0 4.166672,0c1.333328,0 1.756866,-0.05109 1.666664,0.166668c-0.127563,0.307961 -1.666664,0.166668 -4,0.166668c-2.5,0 -4.166664,0 -4.5,0l0,-0.166668l0,-0.166668" id="svg_4" fill-opacity="null" stroke-width="2" stroke="#000000" fill="none"/>
  <path d="m66.75,31.706249c0,0.166666 -0.034851,1.327335 -0.333336,3.166668c-0.377556,2.326588 -0.512878,4.806393 -1.166664,6.166664c-0.102104,0.212444 -0.25795,-0.008404 -0.166672,-0.5c0.42379,-2.282387 1.535103,-4.875668 2.666672,-8.166664c1.046623,-3.043961 1.618668,-6.003065 2.5,-5.833334c1.145615,0.220627 -0.693069,4.49382 -1.5,7.999998c-0.689262,2.994892 -1.416382,5.15633 -1.5,6.166668c-0.013748,0.1661 -0.072746,0.329353 0,-0.333332c0.167664,-1.527416 1.060974,-3.316246 1.5,-5c0.387688,-1.486877 0.5,-2 0.5,-2.166668c0,-0.166668 0.016312,-0.137405 0.333328,-0.333332c0.708878,-0.43811 1.270889,-1.235603 2,-1.833334c0.464722,-0.380981 0.948761,-0.697668 1.166672,-1c0.137817,-0.19121 0,-0.166668 0,-0.166668c-0.333336,0 -1,0 -2,0c-1.333336,0 -2.666672,0 -4,0c-1,0 -1.54882,0.117855 -1.666672,0c-0.471405,-0.471403 0.331154,-1.792852 0.5,-2.833332c0.106789,-0.65806 0.416595,-0.005198 0.5,2c0.110825,2.664362 0,5.333334 0,6.999998c0,0.666668 0.349365,0.054863 0.666672,-1.333332c0.410202,-1.794609 0.329613,-3.896029 0.833328,-5.666666c0.101974,-0.358458 0.166672,-0.166668 0,0.333332c-0.833344,2.499996 -1.716263,6.156218 -2.5,10.000002c-0.71183,3.491096 -0.979752,6.084423 -1.499996,6c-1.645145,-0.266972 0.158749,-5.167019 0.333332,-9c0.159431,-3.500336 -0.15329,-6.051794 0.333336,-6.166668c0.362709,-0.085623 -0.330559,2.639393 -0.833336,6.166668c-0.496132,3.480656 -0.832073,6.135925 -1,7.5c-0.061092,0.496254 0,0.333332 0,-1c0,-2.5 0,-5.166668 0,-7.5c0,-1.5 0.066299,-1.966396 0.166668,-1.833336c0.730675,0.968678 -0.703583,3.850609 -1.166668,6.833336c-0.521523,3.3591 -0.996937,5.118664 -1.166664,6c-0.031517,0.163658 0.047722,0.01133 0.5,-2c0.745773,-3.316532 1.053226,-6.682327 1.5,-9.5c0.399265,-2.518051 0.715481,-3.715483 0.833332,-3.833334c0.117851,-0.117851 0.376686,0.669729 0.166668,3.333334c-0.27636,3.504959 -0.523277,6.662922 -0.833336,8.666664c-0.180218,1.16465 -0.166664,1.333336 -0.166664,1.166668c0,-0.166668 0.185978,-1.830833 0.5,-4.333332c0.355202,-2.830677 0.749836,-5.492222 0.833332,-6.833336c0.010357,-0.166344 0.223625,0.334084 0.166668,2.5c-0.083363,3.169956 -0.249897,6.160435 -0.333336,7.833336c-0.041512,0.832298 0,1 0,1c0,-1 0.164749,-3.307659 0.5,-6c0.330154,-2.651394 0.665413,-4.635929 0.833336,-6c0.040726,-0.330837 0.092545,0.511868 -0.166672,2.166664c-0.369301,2.357555 -0.916451,4.491119 -0.999996,5.666668c-0.011814,0.166248 0,0 0,-0.166668c0,-1.333332 0.39695,-3.156231 0.666668,-5c0.218452,-1.493336 0.353691,-2.498753 0.333328,-2.333332c-0.083961,0.682037 -1.032837,2.98996 -1.833328,5.666668c-0.695297,2.324963 -1.333336,3.833332 -1.333336,4.166664c0,0 0,-1.5 0,-3.833332c0,-2.666668 0.083122,-4.824451 0.166668,-6c0.011814,-0.166248 0.221657,-0.164398 0.166668,0.5c-0.167236,2.020679 -0.716003,5.160152 -1,7.5c-0.201817,1.662777 -0.666668,3 -0.333336,3c0.166668,0 0,-0.333332 0,-1.833332c0,-2.333336 0.05962,-5.193962 -0.333332,-7.5c-0.31921,-1.873291 -0.544483,-2.659176 -0.666668,-1.666668c-0.251888,2.046108 -0.78442,4.644512 -1.166664,7c-0.241753,1.489742 -0.166668,2 -0.166668,2.333332c0,0.166668 0,-0.833332 0,-2.833332c0,-2.333332 0,-4.833332 0,-6.5c0,-0.5 0.014969,-0.332657 0,-0.166668c-0.167343,1.855862 -0.462364,4.335957 -0.666668,7c-0.140762,1.835506 -0.414375,2.803959 -0.5,3.166668c-0.038292,0.162209 0,0.333332 0,-0.833332c0,-1.5 0.155342,-3.671497 0,-6.166668c-0.083492,-1.34111 0.166668,-2.333332 -0.166664,-2.333332c-1,0 0,2.833332 0,5c0,1.833332 0,2.666664 -0.166668,3.333332c0,0 -0.06797,-1.334873 0,-2.833332c0.08342,-1.839005 0.582245,-3.146427 0.666668,-3.666668c0.026699,-0.164516 0.175217,0.498592 0.5,2.5c0.513531,3.164501 1.414776,6.287224 1.666664,8.333332c0.122185,0.992508 0.053246,1.373287 0.166668,1.166668c0.739422,-1.346985 0.5,-3.833332 0.5,-6.166668c0,-1.333332 0,-2 0,-2c-0.333332,1.5 -0.464931,4.356583 -0.833332,6.666668c-0.216442,1.357216 -0.500004,1.666668 -0.333336,1.666668c0.333336,0 0.201736,-1.856583 -0.166664,-4.166668c-0.324661,-2.035828 -0.167435,-3.805683 -0.666668,-3.833332c-1.50692,-0.083462 -0.187145,3.330498 -0.5,5.666664c-0.178356,1.331821 -0.166668,2 -0.166668,0.5c0,-1.833332 -0.460445,-4.175064 -0.833332,-5.833332c-0.150761,-0.670444 -0.215485,-1.117847 -0.333332,-1c-0.824959,0.824959 -0.166668,3 -0.166668,5.166668c0,2 -0.039104,3.192039 -0.166668,3.5c-0.090199,0.217758 -0.076878,-1.149502 0.166668,-2.666668c0.26548,-1.653809 -0.069035,-2.59763 0.166668,-2.833332c0.117847,-0.117847 0.416561,0.493767 0.5,2.166664c0.107929,2.163979 0.249836,3.825558 0.333332,5.166668c0.041424,0.665379 0.016312,1.362595 0.333332,1.166668c0.850651,-0.52573 0.428249,-2.022167 0.666668,-2.666668c0.129299,-0.349529 0.353695,-0.165421 0.333332,0c-0.083961,0.682037 -0.333332,1.166668 -0.5,1.333332c0,0 0,-0.5 0,-1c0,-0.333332 0.026695,-0.331181 0,-0.166664c-0.168846,1.040482 -0.5,1.833332 -0.5,2.5c0,0.5 0.211151,0.602669 3,-0.666668c0.678394,-0.308769 1,-0.666668 1.333336,-1c0.333332,-0.333332 0.999996,-0.5 1.166664,-0.666668c0.166668,-0.166668 0.20496,-0.337791 0.166668,-0.5c-0.171246,-0.725414 -0.995419,-1.774582 -1.166668,-2.5c-0.229755,-0.973248 0.327316,-1.60363 0,-1.666664c-0.881332,-0.169727 -0.5,2.333332 -0.833332,3.666664c-0.333332,1.333336 -0.483551,1.761139 -0.333332,1.833336c0.961861,0.462292 1.730885,-1.795288 2.5,-3.166668c0.364597,-0.650097 0.461998,-0.620487 0.166664,0c-0.716286,1.504894 -2.196167,2.776684 -3.666664,3.333332c-0.948135,0.35891 -1.397118,0.320648 -1.333336,0.166668c0.090199,-0.217762 0.333336,-0.166668 0.333336,-0.166668c0.166664,0 0.166664,-0.166664 0.166664,-0.333332c0,-0.166668 0,-0.333332 0,-0.333332c-0.166664,-0.166668 -0.333332,-0.166668 -0.5,-0.166668c-0.166664,0 -0.403141,-0.096855 -0.666664,0.166668c-0.263523,0.263523 -0.409801,0.61557 -0.5,0.833332c-0.063782,0.15398 -0.166668,0.333332 -0.333336,0.666668c-0.166664,0.333332 -0.166664,0.5 -0.166664,0.5c-0.166668,0.166664 -0.423534,0.282238 -0.333336,0.5c0.063782,0.15398 0.333336,0 0.5,0c0.5,0 0.984631,-0.249374 1.666668,-0.333336c0.992508,-0.122185 1.666668,-0.166664 2.333332,-0.166664c0.166668,0 0.666668,0 1.166668,0c0.5,0 0.615574,-0.076469 0.833332,-0.166668c0.461937,-0.191345 1.666664,0 2.333336,0c0.166664,0 0.1661,-0.013748 0,0c-1.010338,0.083618 -2.006889,0.141205 -2.666668,0.333332c-0.506027,0.147354 -1.115574,0.409801 -1.333332,0.5c-0.15398,0.063782 -0.333336,0 -0.666668,0c-0.5,0 -0.617851,0.048817 -0.5,0.166668c0.117851,0.117851 0.5,0 1,0c0.833332,0 2.325554,0.083172 3.666668,0.166668c1.829788,0.113918 2.512688,-0.063778 2.666664,0c0.217758,0.090199 0,0.166664 -0.666664,0.166664c-0.666672,0 -1.166672,0 -2,0c-0.833336,0 -1.5,0 -1.666668,0c-0.333332,0 -0.333332,0 -0.5,0c-0.5,0 -0.666668,-0.166664 -1,-0.166664c-0.166668,0 -0.166668,0 -0.333332,0c-0.166668,0 -0.504303,-0.113274 -0.833336,-0.166668c-0.520241,-0.084423 -0.833332,-0.166668 -1,-0.166668c-0.166664,0 -0.666664,0 -1.166664,0c-0.166668,0 -0.160622,-0.122173 0,-0.166664c0.936562,-0.259415 1.989689,-1.179768 2.833332,-1.833336c0.658775,-0.510353 1.294922,-0.898499 1.666668,-1.5c0.277084,-0.448334 0.588726,-1.366486 0.833332,-1.833332c0.386753,-0.738148 0.499996,-1 0.499996,-1.166668c0,-0.333332 -0.117847,-0.548817 0,-0.666664c0.117851,-0.117855 0.166672,1.166664 0.166672,2.333332c0,1.333332 0,2.333332 0,2.833332c0,0 -0.065689,-2.003242 0,-2.666664c0.08374,-0.845703 0.333328,-2 0.5,-3.333336c0.166664,-1.333332 0.498367,-2.131706 0.666664,-3.333332c0.092468,-0.660225 -0.235703,-1.09763 0,-1.333332c0.117851,-0.117847 0.41626,0.154297 0.5,1c0.049271,0.497566 0.249596,1.320965 0.333336,2.166664c0.082115,0.829281 0.248909,1.313095 0.333328,1.833336c0.080093,0.493546 0,1 0,1.666664c0,0.5 0.04882,0.784523 0.166672,0.666668c0.235703,-0.235703 0.082245,-0.979759 0.166664,-1.5c0.133484,-0.822571 0,-1.5 0,-2.166668c0,-0.333332 -0.069038,-0.764297 0.166664,-1c0.117851,-0.117855 0.166672,0.166668 0.166672,0.666668c0,0.5 0,1.166668 0,2c0,0.666668 0.082703,1.484631 0.166664,2.166668c0.081451,0.661671 0,1.166664 0,1.5c0,0.333332 0,0.833332 0,1.166664c0,0.5 0.350487,1.099567 0,1.666668c-0.19593,0.31702 -0.215485,0.382149 -0.333336,0.5c-0.117851,0.117847 -0.144218,-0.518044 -0.333328,-1.5c-0.169731,-0.881332 -0.58271,-1.484631 -0.666672,-2.166668c-0.081459,-0.661671 0.127563,-1.192039 0,-1.5c-0.090195,-0.217758 -0.333328,-0.166664 -0.333328,0.166668c0,0.666668 0.133492,1.844093 0,2.666668c-0.084427,0.520241 -0.166672,0.833332 -0.166672,0.666664c0,0 0,-0.666664 0,-1.5c0,-0.5 -0.117851,-0.548817 0,-0.666664c0.117851,-0.117855 0.278008,0.204891 0,0.833332c-0.243103,0.549553 -0.862617,1.101173 -1.666664,1.5c-0.870605,0.431843 -1.282238,0.756866 -1.5,0.666668c-0.15398,-0.063782 0.380043,-1.112144 1.166668,-1.833336c0.885876,-0.812191 1.195263,-1.333336 1.666668,-1.333332c0.235703,0.000004 0.166664,0.833332 0.166664,1.666668c0,0.5 0,1.166664 0,1.333332c0,0.333332 -0.012688,0.436222 -0.166664,0.5c-0.217766,0.090199 -0.334587,0.187031 -0.5,0.166668c-0.682037,-0.083961 -1.333336,-0.666668 -2,-1.333336c-0.5,-0.5 -0.641209,-1.17355 -0.833336,-1.833332c-0.147354,-0.506027 -0.102882,-1.012688 -0.166664,-1.166668c-0.090199,-0.217758 -0.298309,0.013073 -0.5,0.5c-0.427849,1.032928 -0.666668,1.5 -0.666668,1.833336c0,0 0,0 0.166668,-0.333336l0,-0.166664l0,-0.166668l0,-0.333332" id="svg_6" fill-opacity="null" stroke-width="2" stroke="#000000" fill="none"/>
  <path d="m86.75,45.706249c0.166664,0.666668 0.001625,1.63171 -0.166672,2.833332c-0.115585,0.825279 -0.333328,1.166668 -0.333328,1.5c0,0.166668 -0.04882,0.451191 -0.166672,0.333336c-0.471405,-0.471405 0.249374,-1.984631 0.333336,-2.666668c0.061089,-0.496254 0,-0.666668 -0.833336,0c-0.833328,0.666668 -1.382149,1.215477 -1.5,1.333332c-0.117851,0.117851 0.166672,0 0.666672,-0.333332c0.5,-0.333332 1.012688,-0.76955 1.166664,-0.833332c0.217758,-0.090199 0.215485,-0.284523 0.333336,-0.166668c0.117851,0.117851 0.166664,0.333332 0.166664,0.5l0,0.166668l0.166664,0l0.166672,0" id="svg_7" fill-opacity="null" stroke-width="2" stroke="#000000" fill="none"/>
  <path d="m57.583332,42.872917c0.333332,0.166664 0.333332,0.833332 0.333332,1.5c0,0.833332 -0.082703,1.484631 -0.166664,2.166664c-0.061092,0.496254 0.040779,0.521999 -0.333336,1.166668c-0.30162,0.519745 -0.372437,0.858707 -0.5,1.166668c-0.090199,0.217758 -0.166664,0.166664 -0.166664,-0.166668c0,-0.333332 -0.117851,-0.882149 0,-1c0.117847,-0.117847 0.129299,0.483807 0,0.833332c-0.238415,0.644501 -0.495544,1.128376 -0.333336,1.166668c0.362709,0.085625 0.269554,-0.512688 0.333336,-0.666668c0.180397,-0.43552 0.581043,-0.637291 0.666664,-1c0.076584,-0.324417 0.166668,-1 0.333336,-1.666664l0.166664,-0.666668" id="svg_8" fill-opacity="null" stroke-width="2" stroke="#000000" fill="none"/>
  <path d="m162.916656,37.039581c0.166672,0 0.166672,0 0.166672,-0.166664l0.166672,0" id="svg_9" fill-opacity="null" stroke-width="2" stroke="#000000" fill="none"/>
  <path d="m88.75,13.706249c0.166664,0.666667 0.261185,2.003354 0.166664,3.333334c-0.083542,1.175545 -0.1269,2.174112 -0.333336,3.166666c-0.139931,0.672785 -0.268806,0.831549 -0.333328,-0.333334c-0.083466,-1.506922 -0.665413,-2.969261 -0.833336,-4.333333c-0.16291,-1.323343 0.164513,-1.973303 0,-2c-0.520241,-0.084422 -0.498741,1.469263 -0.666664,2.833333c-0.122185,0.992508 -0.166672,2 -0.166672,2.666668c0,0 0.072495,-0.168922 0,-1.333334c-0.083496,-1.341114 -0.417885,-2.670722 -0.5,-3.5c-0.08374,-0.8457 -0.154846,-1.166247 -0.166664,-1c-0.083542,1.175547 -0.166664,2.333333 -0.166664,3.166666c0,0.666668 0,1.333334 0,1.333334c0,-0.833334 0,-1.5 0,-2.833333c0,-1.166667 0,-1.833334 0,-2.333333c0,-0.166667 0.166664,-0.166667 0.166664,-0.333334c0,-0.333333 0.166664,-0.5 0.166664,-0.666666c0,-0.166667 0.430969,0.069037 0.666672,-0.166667c0.117851,-0.117851 0.333328,-0.166667 0.5,-0.166667c0.166664,0 0.11557,-0.256865 0.333328,-0.166667c0.769905,0.3189 -0.082703,1.651299 -0.166664,2.333334c-0.101814,0.827089 -0.333336,1.666666 0,1.666666c0.166664,0 0,-0.333333 0,-1.166666c0,-0.5 0.082703,-0.984632 0.166664,-1.666667c0.061089,-0.496254 0.076469,-0.61557 0.166672,-0.833333c0.063782,-0.153979 0.166664,-0.333334 0.333328,-0.333334c0,0 0.012688,0.063783 0.166672,0c0.217758,-0.090199 0.333328,-0.166666 0.5,-0.166666c0.166664,0 0.282234,-0.243134 0.5,-0.333333c0.153976,-0.063778 0.166664,0.499999 0.166664,1.166666c0,0.666667 0,1.166667 0,1.666667c0,0.166666 0,0.333333 0,0.5c0,0.5 0,1 0,1.333333c0,0.5 0,1 0,1.333334c0,0.5 0,1.166666 0,1.666666c0,0.333334 -0.249374,0.984631 -0.333336,1.666666c-0.081459,0.661673 -0.248909,1.479759 -0.333328,2c-0.106789,0.65806 0.035019,1.179739 -0.166672,1.666668c-0.142616,0.344307 -0.247704,0.803957 -0.333328,1.166666c-0.076584,0.324417 -0.166672,0.5 -0.166672,0.333334c0,0 0.166672,-0.666668 0.166672,-1.333334c0,-0.666666 0,-1.333334 0,-2c0,-0.5 0,-1.333334 0,-1.666666c0,-0.333334 -0.081047,-0.470623 -0.166672,-0.833334c-0.038292,-0.162207 0,-0.5 0,-0.666666c0,-0.333334 -0.166664,-0.833334 -0.166664,-1.166668c0,-0.5 -0.166664,-1 -0.166664,-1.333332c0,-0.333334 -0.166672,-0.666667 -0.333336,-1.000001c0,0 0.038292,-0.504458 0,-0.666666c-0.085625,-0.362708 -0.255821,-0.551791 -0.5,-0.833334c-0.345322,-0.398159 0.011986,-0.768506 -0.333336,-1.166666c-0.244179,-0.281537 -0.5,-0.333334 -0.5,-0.5c0,-0.166667 -0.082245,-0.146427 -0.166664,-0.666667c-0.026695,-0.164515 0,-0.166667 -0.166664,-0.166667l0,-0.166666" id="svg_13" fill-opacity="null" stroke-opacity="null" stroke-width="2" stroke="#000000" fill="none"/>
  <polyline stroke-linecap="round" id="svg_14" points="91.2499981299043,33.70624904523915 91.2499981299043,33.87291570942229 " fill-opacity="null" stroke-opacity="null" stroke-width="2" stroke="#000000" fill="none"/>
  <path d="m84.75,25.539583c0,0 -0.109138,-0.362829 0.166664,-1.166668c0.362839,-1.057518 0.791069,-1.860197 1.333336,-2.666666c0.464989,-0.69154 0.833328,-1.333332 1,-1.666666c0.166664,-0.333332 0.166664,-0.333334 0.333328,-0.333334c0.166672,0 0.333336,0 0.5,0.666666c0.166672,0.666668 0.448906,1.409801 0.666672,1.5c0.153976,0.063778 0.557693,-0.11758 0.833328,-0.5c0.217911,-0.302332 0.215485,-0.882149 0.333336,-1c0.117851,-0.117849 0.214958,-0.007151 0.166664,-0.166666c-0.174133,-0.575138 -0.946571,-1.261852 -1.333328,-2c-0.244606,-0.466846 -0.333336,-1.166668 -0.5,-1.5c-0.166672,-0.333336 -0.255821,-0.88513 -0.5,-1.166667c-0.345322,-0.39816 -0.205772,-0.692039 -0.333336,-1c-0.090195,-0.217759 -0.333336,-0.333333 -0.333336,-0.666666c0,-0.333334 -0.159195,-0.758195 -0.333328,-1.333333c-0.048294,-0.159515 -0.076469,-0.282238 -0.166672,-0.500001c-0.063782,-0.153979 -0.11557,-0.4098 -0.333328,-0.499999c-0.153984,-0.063783 -0.166672,-0.166667 -0.166672,-0.333334c0,-0.166667 0,-0.166667 0,-0.333333l-0.166664,-0.166667l-0.166664,-0.166666l-0.166672,-0.166667" id="svg_15" fill-opacity="null" stroke-opacity="null" stroke-width="2" stroke="#000000" fill="none"/>
  <polyline stroke-linecap="round" id="svg_16" points="76.41666501760484,23.0395825375182 76.2499983534217,23.0395825375182 " fill-opacity="null" stroke-opacity="null" stroke-width="2" stroke="#000000" fill="none"/>
  <path d="m81.916664,18.039583c0.166664,0 0.166664,0.166666 0.666664,0.333332c0.5,0.166668 1.330757,0.513458 2.166672,0.666668c0.997185,0.182768 1.881516,0.325218 2.666664,0c0.555183,-0.229963 1.163605,-0.952 1.333336,-1.833334c0.157593,-0.818298 0,-1.666667 0,-2.333333c0,-0.5 0,-0.833334 0,-1c0,-0.333334 -0.115425,-0.531002 -0.333336,-0.833334c-0.275635,-0.382425 -0.364334,-0.448761 -0.666664,-0.666666c-0.191216,-0.137819 -0.115433,-0.364335 -0.333336,-0.666667c-0.137817,-0.191211 -0.409805,-0.448908 -0.5,-0.666667c-0.063782,-0.153979 0,-0.333333 -0.166664,-0.333333l0,0l0,-0.166666" id="svg_17" fill-opacity="null" stroke-opacity="null" stroke-width="2" stroke="#000000" fill="none"/>
  <polyline stroke-linecap="round" id="svg_18" points="86.08333154022698,10.372916059599575 85.91666487604382,10.372916059599575 " fill-opacity="null" stroke-opacity="null" stroke-width="2" stroke="#000000" fill="none"/>
  <polyline stroke-linecap="round" id="svg_19" points="82.74999825656415,27.539582470462975 82.9166649207473,27.539582470462975 83.08333158493043,27.539582470462975 " fill-opacity="null" stroke-opacity="null" stroke-width="2" stroke="#000000" fill="none"/>
 </g>
</svg>