<svg width="140.8" height="64" xmlns="http://www.w3.org/2000/svg">

 <title/>
 <g>
  <title>background</title>
  <rect fill="none" id="canvas_background" height="66" width="142.8" y="-1" x="-1"/>
 </g>
 <g>
  <title>Layer 1</title>
  <path stroke-width="2px" stroke-linejoin="round" stroke="#000000" fill="none" id="svg_1" d="m79.55488,46.242765l9,9a3,3 0 1 0 4.24,0a3,3 0 1 0 0,-4.24l-9.11,-9.13" class="a"/>
  <path stroke-width="2px" stroke-linejoin="round" stroke="#000000" fill="none" id="svg_2" d="m82.21488,35.462765l0,0c-3.46,-3.72 -5.91,-8.88 -6,-17.46l0,0c-0.53,-8.26 -8.42,-13.26 -16.53,-13.26a17,17 0 0 0 -17,17c0,7.51 4,16 11.63,16.12l0,0c5.76,-0.3 11.61,2.06 17.56,6.94l0,0a7,7 0 0 0 10.35,-9.35l-0.01,0.01z" class="a"/>
 </g>
</svg>