<svg width="120.00000000000001" height="47.99999999999999" xmlns="http://www.w3.org/2000/svg">

 <title/>
 <g>
  <title>background</title>
  <rect fill="none" id="canvas_background" height="50" width="122" y="-1" x="-1"/>
 </g>
 <g>
  <title>Layer 1</title>
  <g stroke="null" id="svg_4">
   <path stroke="#000000" stroke-width="1.5" stroke-linejoin="round" stroke-linecap="round" fill="none" id="svg_2" d="m67.178573,5.178136l6.221431,0a3.334049,3.147012 0 0 1 3.350001,3.131954l0,34.391265a3.334049,3.147012 0 0 1 -3.350001,3.131954l-26.800011,0a3.334049,3.147012 0 0 1 -3.350001,-3.131954l0,-34.391265a3.334049,3.147012 0 0 1 3.350001,-3.131954l6.221431,0" class="cls-1"/>
   <polygon stroke="#000000" stroke-width="1.5" stroke-linejoin="round" stroke-linecap="round" fill="none" id="svg_1" points="69.07689666748047,20.724973678588867 54.86332702636719,33.96049690246582 50.923091888427734,33.96049690246582 50.923091888427734,30.286470413208008 65.13667297363281,17.05095100402832 69.07689666748047,20.724973678588867 " class="cls-1"/>
   <rect stroke="#000000" stroke-width="1.5" stroke-linejoin="round" stroke-linecap="round" fill="none" id="svg_3" y="2.166653" x="52.821424" width="14.357149" rx="1" height="6.022989" class="cls-1"/>
  </g>
 </g>
</svg>