<svg width="120" height="48" xmlns="http://www.w3.org/2000/svg">

 <title/>
 <g>
  <title>background</title>
  <rect fill="none" id="canvas_background" height="50" width="122" y="-1" x="-1"/>
 </g>
 <g>
  <title>Layer 1</title>
  <g stroke="null" id="svg_4">
   <path stroke="#000000" stroke-width="1.5" stroke-linejoin="round" stroke-linecap="round" fill="none" id="svg_2" d="m67.178573,5.178136l6.221431,0a3.334049,3.147012 0 0 1 3.350001,3.131954l0,34.391265a3.334049,3.147012 0 0 1 -3.350001,3.131954l-26.800011,0a3.334049,3.147012 0 0 1 -3.350001,-3.131954l0,-34.391265a3.334049,3.147012 0 0 1 3.350001,-3.131954l6.221431,0" class="cls-1"/>
   <polygon stroke="#000000" stroke-width="1.5" stroke-linejoin="round" stroke-linecap="round" fill="none" id="svg_1" points="69.07689666748047,20.724973678588867 54.86332702636719,33.96049690246582 50.923091888427734,33.96049690246582 50.923091888427734,30.286470413208008 65.13667297363281,17.05095100402832 69.07689666748047,20.724973678588867 " class="cls-1"/>
   <rect stroke="#000000" stroke-width="1.5" stroke-linejoin="round" stroke-linecap="round" fill="none" id="svg_3" y="2.166653" x="52.821424" width="14.357149" rx="1" height="6.022989" class="cls-1"/>
  </g>
  <path d="m50.912411,13.787476c-0.0625,0.125 -0.316288,0.245504 -0.687496,0.562499c-0.505234,0.431445 -1.08968,1.003039 -1.4375,1.624997c-0.260643,0.46607 -0.294193,0.643305 -0.25,0.687498c0.044193,0.044193 0.738369,-0.393837 1.4375,-0.812498c0.984344,-0.589458 1.739784,-1.139015 2.249996,-1.499997c0.36792,-0.260308 0.408009,-0.430103 0.4375,-0.374999c0.106331,0.198682 -0.616013,0.75758 -1.25,1.499997c-0.862888,1.010465 -1.559711,1.960353 -1.687496,2.562495c-0.038925,0.183414 0.0093,0.289097 0.875,0.0625c1.835922,-0.480553 3.853367,-1.452991 6.249989,-1.749996c1.926785,-0.238779 3.276142,-0.48836 3.499992,-0.1875c0.389507,0.52351 -0.618015,1.617649 -1.374996,2.499996c-0.74818,0.872087 -1.488472,1.249525 -1.999996,1.312496c-0.124062,0.015272 -0.117363,-0.000469 -0.125,-0.0625c-0.031487,-0.255762 -0.125,-0.437498 -0.125,-0.562498l0,-0.125" id="svg_5" fill-opacity="null" stroke-opacity="null" stroke-width="2" stroke="#000000" fill="none"/>
  <path d="m49.474915,9.724982c-0.0625,0.0625 -0.362572,0.389627 -0.875,0.812499c-0.549622,0.453566 -0.997192,0.659321 -1.062496,0.874998c-0.018112,0.059818 0.263458,0.130668 1.062496,-0.0625c1.152649,-0.278654 1.935905,-0.563782 2.187496,-0.874998c0.08786,-0.108683 0.060677,-0.224451 -0.312496,-0.1875c-1.268551,0.125611 -2.783836,0.567644 -3.499996,1.437498c-0.51643,0.627259 -0.586967,1.559592 -0.25,2.187496c0.314163,0.585411 1.067879,0.791059 2.062496,0.687498c1.207005,-0.125675 2.235115,-0.73126 2.624996,-1.374997c0.266994,-0.440837 0.197273,-1.198927 -0.3125,-1.624997c-0.55925,-0.467422 -1.64542,-0.763566 -2.624996,-0.562499c-0.466263,0.095704 -0.7551,0.585793 -0.624996,0.937498c0.199917,0.540429 0.813461,0.656068 1.312496,0.624999c0.502918,-0.03131 0.788433,-0.101749 0.625,0.125c-0.258408,0.358521 -1,0.524652 -1,0.749998c0,0.225347 0.819786,0.019192 1.5,-0.249999c0.442585,-0.175151 0.499996,-0.25 0.437496,-0.25c0,0 -0.687496,0 -1.749996,0c-1.124996,0 -1.631115,0.135973 -1.749996,0.0625c-0.053165,-0.032858 0.208961,-0.457595 0.5,-0.999998c0.385292,-0.71806 1.034283,-1.264543 1.749996,-1.812497c0.527527,-0.40388 0.835751,-0.711567 1.0625,-0.874998c0.14341,-0.103363 0.365791,-0.260818 0.437496,-0.312499c0.113377,-0.081716 0.1875,0.124999 0.1875,0.374999c0,0.125 0.0625,0.125 0.0625,-0.1875c0,-0.437499 -0.061584,-0.783008 -0.1875,-1.124998c-0.131355,-0.356759 -0.168201,-0.629486 -0.25,-0.937498c-0.050728,-0.191021 -0.0625,-0.4375 -0.0625,-0.4375c0,-0.125 0,-0.25 0,-0.312499c0,-0.0625 0.014271,-0.115747 0.1875,-0.1875c0.081661,-0.033824 0.1875,-0.125 0.25,-0.125c0.0625,0 0.0625,0 0.0625,0.0625c0,0.0625 0,0.1875 0,0.374999c0,0.1875 0,0.25 0,0.437499c0,0.0625 -0.044193,0.205806 0,0.25c0.044193,0.044194 0.09536,-0.134334 0.0625,-0.1875c-0.073475,-0.118882 -0.620819,-0.269121 -1.437496,-0.437499c-0.684376,-0.141101 -1.113983,-0.280391 -1.25,-0.3125c-0.060829,-0.014359 -0.077168,0.009514 -0.125,0.125c-0.033821,0.081658 -0.099621,0.282063 -0.249996,0.374999c-0.168125,0.103907 -0.502583,0.177951 -0.75,0.25c-0.37952,0.110517 -0.679909,0.218341 -0.875,0.25c-0.246773,0.040045 -0.355835,0.028675 -0.437496,0.0625c-0.057743,0.023918 -0.058071,-0.062657 -0.0625,-0.125c-0.03133,-0.440829 -0.180119,-0.879548 -0.375,-1.187498c-0.120502,-0.19042 -0.216175,-0.20666 -0.25,-0.125c-0.095673,0.23097 0,0.562499 0,0.749999c0,0.1875 0.183624,0.343642 0.5625,0.374999c0.622868,0.05155 1.129032,0.050057 1.437496,0c0.195091,-0.031659 0.305096,-0.136892 0.5,-0.25c0.241749,-0.140293 0.312466,-0.24792 0.25,-0.25c-0.93906,-0.031267 -1.748051,-0.156222 -2.499996,-0.1875c-0.437122,-0.018182 -0.767319,-0.048249 -1,0.0625c-0.282169,0.134304 -0.403675,0.355839 -0.4375,0.437499c-0.023918,0.057743 0.018307,0.044194 0.0625,0c0.044193,-0.044194 0.133175,0.122373 0.25,0.499999c0.134476,0.434681 0.343727,1.185698 0.375,1.999997c0.031181,0.811899 0,1.312498 0,1.812497c0,0.249999 -0.060829,0.36064 0,0.374999c0.27203,0.064218 0.471287,-0.830003 0.9375,-1.562497c0.530613,-0.833672 0.965218,-1.336287 1.062496,-1.687497c0.016682,-0.060232 0.031357,-0.058503 0,0.0625c-0.161411,0.622903 -0.676777,1.073221 -0.5,1.249998c0.132584,0.132583 0.745018,-0.194594 1.1875,-0.5c0.370922,-0.256013 0.576725,-0.503664 0.812496,-0.624998c0.338036,-0.173962 0.624393,-0.137318 0.5,-0.125c-0.634274,0.062806 -1.949867,0.159591 -3.187492,0.374999c-0.507755,0.088375 -0.582897,0.156834 -0.5,0.1875c0.764282,0.282726 2.124996,-0.1875 3.187492,-0.1875c0.5,0 0.5,0 0.5,0c0,0.25 -0.0625,0.374999 -0.0625,0.437499c0,0.0625 0,0.0625 0.3125,0.0625c0.5,0 1.4375,0.25 1.4375,0c0,-0.0625 -0.1875,0.0625 -0.6875,0.3125c-0.625,0.312499 -1.292892,0.718238 -2.062496,1.187497c-0.5494,0.334992 -0.6875,0.375 -0.6875,0.3125c0,-0.125 0.154747,-0.867568 0.375,-1.812497c0.21703,-0.931106 0.42025,-1.513917 0.625,-1.749997c0.173737,-0.20032 0.249996,-0.25 0.499996,-0.25c0.25,0 0.5,0 1,0.25c0.5,0.25 1.029026,0.529027 1.249996,0.749999c0.22097,0.220971 0.25,0.437499 0.25,0.499999c0,0 -0.778927,0.261677 -1.687496,0.812499c-1.2304,0.745933 -2.406277,1.648042 -3.124996,2.249996c-0.98312,0.823402 -1.545982,1.51471 -1.937496,1.937496c-0.240223,0.25941 -0.087738,0.007708 0.0625,-0.812499c0.250031,-1.365012 0.313889,-2.523505 0.125,-3.187494c-0.038239,-0.13442 -0.058617,-0.062379 -0.0625,0c-0.031311,0.502916 -0.074806,1.438934 0.0625,2.562496c0.114731,0.93881 0.1875,1.687497 0.1875,2.124996c0,0.249999 0.004757,0.336417 0.0625,0.312499c0.163319,-0.06765 0.823032,-1.121957 1.125,-2.187496c0.194298,-0.685609 0.1875,-0.812498 0.1875,-0.812498c0,0.437499 0.152672,2.006436 0.562496,4.124992c0.460957,2.382881 0.906242,4.436516 0.9375,5.93749c0.014313,0.687349 -0.007584,0.981691 0.125,0.937498c0.662914,-0.22097 0.757641,-2.004021 0.624996,-4.187492c-0.156536,-2.57673 -0.759331,-4.559244 -1.124996,-5.624991c-0.128284,-0.373888 -0.154716,-0.383628 -0.25,0c-0.274925,1.106885 -0.438137,2.942325 -0.625,4.937491c-0.18795,2.006777 -0.437191,3.240719 -0.499996,3.874994c-0.006157,0.062197 0.051434,0.14657 0.1875,-0.25c0.310276,-0.904316 0.374958,-3.059265 0.437496,-4.874992c0.053783,-1.56157 0.119587,-2.398783 0,-2.687494c-0.033825,-0.08166 -0.257786,0.300476 -0.437496,1.562497c-0.309521,2.173589 -0.297329,4.252408 -0.375,5.49999c-0.031311,0.502918 -0.016663,0.518064 0.0625,0.25c0.320587,-1.085573 0.156792,-2.754663 -0.125,-4.562492c-0.224716,-1.441666 -0.1875,-2.437495 -0.5,-2.437495c-0.0625,0 0,0.312499 0,1.187498c0,1.312497 0.1875,2.812495 0.1875,3.874993c0,0.687498 -0.033115,0.936399 0,0.4375c0.062637,-0.94372 0.380836,-2.193213 0.25,-3.687494c-0.094109,-1.074803 -0.198223,-1.82322 -0.375,-1.999997c-0.044193,-0.044194 -0.074951,0.061566 -0.125,0.812499c-0.083229,1.248789 -0.0625,2.874994 -0.0625,4.249992c0,0.625 0.004246,0.87602 0.0625,0.625c0.202297,-0.871698 0.304832,-2.317093 0.1875,-3.812494c-0.09404,-1.198526 -0.109837,-1.922332 -0.375,-2.187496c-0.044193,-0.044194 -0.0625,0.0625 -0.0625,0.687499c0,1.562497 -0.028965,3.817964 0.125,5.62499c0.117813,1.382713 0.193619,2.051523 0.3125,2.124996c0.053165,0.032858 0.235413,-0.295235 0.6875,-1.624996c0.630104,-1.853371 0.990849,-3.814514 1.312496,-5.249991c0.18232,-0.813676 0.188309,-1.114986 0.25,-1.124998c0.195091,-0.031659 0.289021,1.68098 0.625,3.812493c0.353691,2.243889 0.531231,3.998531 0.562496,4.999992c0.015602,0.499754 0.006599,0.590448 0.0625,0.562498c0.559017,-0.279507 1.22007,-1.835417 2.374996,-3.312494c1.340797,-1.714798 2.374996,-2.874994 2.749996,-3.249994c0.0625,-0.0625 0.00462,0.002714 -0.4375,0.749998c-0.742268,1.254602 -1.659863,2.167156 -2.124996,2.812496c-0.081715,0.113375 -0.005066,0.058838 0.3125,-0.375c0.553741,-0.756487 1.491859,-2.008619 2.749996,-3.187494c0.712406,-0.667526 1.075108,-0.926975 0.812496,-0.624998c-1.015438,1.16765 -2.992153,2.946062 -4.562492,4.374992c-1.243824,1.131819 -1.454178,1.372728 -1.437496,1.312496c0.097279,-0.35121 0.564896,-1.123669 1.1875,-2.249994c0.690155,-1.248531 1.249744,-2.304049 1.312496,-2.999996c0.016838,-0.186743 -0.093266,-0.297062 -0.6875,0.125c-1.193913,0.84799 -2.179089,1.915462 -2.374996,2.562496c-0.036224,0.119637 0.039528,0.095163 0.4375,-0.1875c0.89135,-0.633091 2.467266,-1.497456 4.374992,-2.499996c2.152725,-1.131291 3.721226,-1.904292 4.187492,-1.999996c0.061222,-0.012567 -0.214813,0.409252 -1.249996,1.437498c-1.694321,1.682966 -3.639053,2.790327 -4.374992,3.624992c-0.24102,0.273354 -0.122826,0.252136 0,0.125c0.891022,-0.922279 2.396637,-2.156862 3.999992,-3.312494c1.521076,-1.09633 2.374996,-1.749996 2.499996,-1.999996c0.0625,-0.125 -0.00346,-0.148658 -0.9375,0c-1.694855,0.269745 -3.751587,0.677351 -5.374989,0.937499c-0.375381,0.060155 -0.4599,0.045453 -0.3125,-0.125c0.550003,-0.636025 1.91761,-1.474421 3.749992,-2.437496c1.731911,-0.91027 3.336285,-1.369585 3.624996,-1.249997c0.081661,0.033824 -0.152008,0.993688 -0.9375,2.249995c-0.78199,1.250707 -1.613861,2.149043 -2.187496,2.562495c-0.226749,0.163431 -0.259014,0.12007 -0.1875,0c0.390396,-0.655454 1.396004,-1.687489 2.687496,-2.499995c0.971142,-0.610967 1.562496,-0.624998 1.562496,-0.687498c0,-0.0625 -0.771225,0.45968 -2.312496,0.812498c-1.904301,0.435922 -3.955868,0.32909 -5.999989,-0.1875c-1.073746,-0.271357 -1.18021,-0.286912 -1.1875,-0.374999c-0.044346,-0.535812 1.065205,-1.2571 2.812496,-1.687497c1.896862,-0.467239 3.36655,-0.187753 4.062492,-0.125c0.124496,0.011226 0.129154,0.051566 -0.1875,-0.062499c-1.729397,-0.622964 -4.544804,-1.432295 -6.687489,-1.687497c-0.994915,-0.118499 -1.28846,-0.049263 -1.249996,0c0.158588,0.203115 1.46059,0.442788 3.687492,1.374997c3.096634,1.296289 6.263096,2.643858 7.749989,3.874993c0.375984,0.311313 0.200127,0.761415 -0.6875,0.874999c-1.427216,0.182632 -3.401421,-0.055243 -5.624989,-0.937499c-1.899418,-0.753642 -2.362762,-1.130104 -2.312496,-1.374997c0.095703,-0.466265 0.667473,-0.939083 1.374996,-1.124998c0.735382,-0.193234 1.687496,0.125 1.687496,-0.125c0,-0.1875 -0.384434,-0.097834 -0.499996,0.0625c-0.07309,0.101405 -0.044193,0.205805 0,0.249999c0.044193,0.044194 -0.063591,0.028594 -0.4375,0c-0.819664,-0.062682 -1.724564,-0.40472 -2.249996,-0.499999c-0.061497,-0.011151 -0.195393,-0.310185 -0.375,-0.937498c-0.196148,-0.685081 -0.360867,-1.564365 -0.5,-2.562495c-0.113495,-0.814186 -0.25,-1.249998 -0.25,-1.249998c0,0.25 0.093513,0.556736 0.125,0.812498c0.022911,0.186095 0.021091,0.269376 0.125,0.4375c0.046467,0.075188 0.125,0.124999 0.125,0.187499c0,0 0.125,0 0.25,0c0.125,0 0.250809,0.052488 0.3125,0.0625c0.195091,0.031659 0.330807,0.018306 0.375,0.0625c0.044193,0.044194 0.0625,0.124999 0.3125,0.374999c0.249996,0.249999 0.374996,0.375 0.437496,0.375c0.0625,0 0.158173,-0.081531 0.0625,-0.3125c-0.1353,-0.32664 -0.499996,-0.562499 -0.999996,-0.937498c-0.25,-0.1875 -0.375,-0.25 -0.4375,-0.25c-0.0625,0 -0.269375,-0.041407 -0.4375,0.0625c-0.150375,0.092937 -0.136017,0.155391 0,0.1875c0.486626,0.114877 1.126457,-0.013181 1.749996,0.0625c0.438721,0.053249 0.813286,0.102847 1.125,0.125c0.44083,0.031329 0.934578,0.156189 1.437496,0.187499c0.436653,0.027185 0.625,0 0.8125,0c0.1875,0 0.506287,0.024238 0.999996,0.125c0.445816,0.090988 0.75,0.1875 0.9375,0.1875c0.25,0 0.5,0 0.875,0c0.437496,0 0.749996,0 1.124996,0c0.375,0 0.80917,-0.031171 1.249996,-0.0625c0.374058,-0.026584 0.8125,0 1.1875,0c0.375,0 0.875,0 1.25,0c0.375,0 0.752792,0.047586 1.124992,0.125c0.504593,0.104949 0.997086,0.218689 1.5,0.249999c0.311897,0.019418 0.5,0 0.5,0c0.0625,0 -0.307785,0.042727 -1.25,0.125c-1.495605,0.130593 -3.31303,0.110146 -5.249989,0.1875c-1.312939,0.052433 -2.185104,0.140322 -2.937496,0.249999c-0.498623,0.072684 -0.676479,0.092891 -0.812496,0.125c-0.243313,0.057438 -0.738472,0.124528 -1.25,0.1875c-0.062031,0.007636 -0.06242,0.068007 0.125,0.062499c1.063877,-0.031263 2.624996,-0.124999 4.249992,-0.124999c1.5,0 2.374996,0 2.624996,0c0.0625,0 0.164528,0.006414 0.125,0.124999c-0.197643,0.592927 -0.750702,1.010064 -1.999996,1.499998c-1.566692,0.614407 -3.232708,0.90554 -3.999992,0.999998c-0.124062,0.015273 -0.014023,-0.019465 0.499996,-0.374999c0.670204,-0.463562 1.52174,-0.980312 2.374996,-1.249998c0.666283,-0.21059 0.786613,-0.213388 0.875,-0.125c0.265163,0.265164 -0.009964,1.019608 -0.3125,1.749997c-0.267406,0.645579 -0.976471,1.06752 -0.874996,1.312497c0.023918,0.057742 0.035007,-0.087652 0.437496,-0.499999c0.587337,-0.60172 1.478374,-1.160998 2.187496,-1.562497c0.364841,-0.20657 0.389252,-0.055028 0.1875,0.3125c-0.350739,0.63893 -0.716724,1.366084 -0.874996,1.937496c-0.153812,0.555312 -0.426777,1.073221 -0.25,1.249998c0.088387,0.088388 0.812496,0 1.562496,0c0.375,0 0.463455,-0.050703 0.5,0c0.115562,0.160336 -0.180779,0.444603 -0.3125,0.562498c-0.298199,0.266897 -0.612652,0.464554 -1,0.625c-0.365192,0.151268 -0.518303,0.231693 -0.562496,0.1875c-0.044193,-0.044193 0.32888,-0.223299 0.749996,-0.5c0.261166,-0.171604 0.700787,-0.416948 1,-0.624998c0.328571,-0.228464 0.648251,-0.33657 0.874996,-0.5c0.071705,-0.051682 0.315845,-0.09628 0.437504,-0.124999c0.136017,-0.032109 0.193916,-0.164528 0.3125,-0.125c0.296463,0.098821 0.530327,0.365695 0.812492,0.499999c0.232681,0.11075 0.49424,0.218513 0.75,0.25c0.124062,0.015272 0.36924,0.031013 0.625,0.0625c0.372192,0.045818 0.689072,0.117584 1,0.1875c0.251419,0.056534 0.504982,0.240496 0.75,0.374998c0.319466,0.175369 0.625,0.437502 0.874992,0.625c0.25,0.1875 0.338493,0.297565 0.4375,0.499998c0.086838,0.177546 0.098091,0.445812 0.1875,0.6875c0.096977,0.262146 0.248283,0.477966 0.3125,0.749998c0.014359,0.060827 0.097961,0.059116 0.0625,-0.125c-0.063652,-0.3305 -0.657036,-0.857513 -1.562492,-1.437498c-0.848618,-0.543575 -1.637993,-0.995665 -2.125,-1.124998c-0.181221,-0.048124 -0.25,0 -0.3125,0c-0.0625,0 -0.25,0 -0.3125,0.0625c-0.0625,0.0625 -0.117874,0.38899 0.375,0.6875c0.863663,0.523081 1.878662,0.744934 2.3125,1.062498c0.252159,0.18458 0.31472,0.406511 0.5,0.687498c0.194626,0.295158 0.425705,0.445915 0.562492,0.624998c0.119965,0.157066 0.137131,0.430534 0.3125,0.75c0.201752,0.367527 0.449631,0.618032 0.625,0.937498c0.134499,0.245018 0.359146,0.635073 0.5625,0.937498c0.17437,0.259327 0.3125,0.5 0.3125,0.5l0,0.0625l0,0.0625" id="svg_6" fill-opacity="null" stroke-opacity="null" stroke-width="0" stroke="#000000" fill="none"/>
  <path d="m65.062515,33.279724c-0.125,0.25 -0.142792,0.57938 -1,1.625008c-1.120747,1.367096 -2.823383,2.484806 -5.125019,3.500011c-1.592979,0.702633 -2.287575,0.642326 -1.000004,-1.125004c1.564873,-2.147957 3.72681,-4.154484 5.625019,-5.625023c1.48225,-1.148296 2.057453,-1.243317 2.000011,-1.000004c-0.321091,1.360165 -1.862122,3.736042 -4.000019,6.250027c-2.119411,2.492249 -3.974373,4.222488 -4.375015,3.875015c-0.944324,-0.819004 2.155384,-2.467899 3.875015,-4.125019c1.654804,-1.59465 4.182064,-3.050278 3.625011,-3.625011c-0.434982,-0.448792 -2.404392,1.585213 -5.125019,3.625011c-2.780632,2.084785 -5.447662,3.407089 -5.250019,4.000019c0.039528,0.118584 0.875004,-0.750004 3.000011,-2.500011c2.125008,-1.750008 3.832047,-3.542664 4.750019,-3.875015c0.117535,-0.042553 -0.403374,0.626751 -2.500011,2.125008c-2.878365,2.056877 -6.496239,3.764694 -9.375038,4.500019c-0.499355,0.127548 -0.623386,0.145023 -0.5,0.125c1.170544,-0.189953 3.373211,-0.812492 6.625027,-0.875004c3.37439,-0.064869 5.963009,-0.692909 6.250023,0c0.06765,0.163319 -1.364937,0.683945 -4.125015,1.125004c-3.613491,0.577435 -6.229462,1.124256 -7.375031,1.250008c-0.124252,0.013641 0.24572,-0.388107 1.375008,-0.750004c1.619083,-0.51886 3.098743,-1.1152 3.250011,-0.750004c0.213928,0.516464 -1.991505,0.749874 -4.750019,0.875004c-2.747185,0.124615 -4.125015,0 -4.250015,0c-0.125,0 -0.125,-0.125 0,-0.125c0.375,0 1.63644,-0.13377 3.875015,0.125c2.143566,0.247787 3.375011,0.5 3.750015,0.5c0.125,0 0.5,0 1.000004,0c0.875004,0 2.127182,0.069904 3.250011,0c1.00584,-0.062622 1.250004,-0.125 1.125004,-0.125c-1.000004,0 -2.875244,0.246113 -5.000019,0.375004c-2.000233,0.121338 -3.375011,0.125 -4.125015,0.125c-0.375004,0 -0.750004,0 -1.250008,-0.125c0,0 -0.25,-0.125 -0.5,-0.125c-0.375,0 -0.427361,0.052357 -0.625004,0.25c-0.197643,0.197643 -0.375,0.375 -0.375,0.5c0,0 -0.004589,0.145058 0.5,0.250004c0.744419,0.154831 1.625008,0.25 2.500011,0.25c0.500004,0 0.752815,-0.045818 1.125004,0c0.511532,0.062973 0.975712,0.181049 1.500008,0.375c0.483376,0.17881 0.875004,0.125 1.375004,0.125c0.375004,0 0.875004,0 1.125004,0c0.375004,0 0.500004,0 0.875004,0c0.500004,0 1.413067,0.066341 1.875008,-0.125c0.163319,-0.06765 0.504513,-0.077724 0.750004,-0.125c0.661003,-0.127296 1.113476,-0.312027 1.625008,-0.375c0.248127,-0.030544 0.750004,-0.125 1.250004,-0.125c0.625004,0 1.125004,0 1.500008,0c0.5,0 1,0 1.750008,0c0.5,0 0.875,0 1.375,0c0.875008,0 1.875008,0 2.500015,0c0.5,0 0.875,0 1.25,-0.125c0.375008,-0.125004 0.880173,-0.105907 1.375008,-0.250004c0.379524,-0.110516 0.5,-0.125 0.625,-0.125c0.125008,0 0.625008,0 1.000008,0c0.375,0 0.625,0.125 0.625,0c0,-0.125 -0.557091,-0.287014 -1.25,0c-0.326637,0.1353 -0.411613,0.286613 -0.500008,0.375004c-0.176773,0.176777 -0.75,0 -1.875008,0c-1.125,0 -1.375,0 -1.125,0c0.375,0 0.75,0 1.125,0c0.125,0 0.628654,-0.073902 1.375008,0c0.634277,0.062805 0.750008,0.125 0.875008,0.125c0.125,0 0.240486,-0.047836 0.125,0c-0.326637,0.1353 -0.61348,0.312027 -1.125008,0.375c-0.744377,0.091637 -1.375008,0 -1.625008,0c-0.125,0 -0.25,0 -0.5,0c-0.25,0 -0.375,0 0,0c0.625,0 0.875,0 1,0c0.125008,0 0.375008,0 0.500008,0c0.375,0 0.484818,-0.061684 0.875,-0.125c0.246773,-0.040047 0.461678,-0.18235 0.625008,-0.25c0.230972,-0.095669 0.5,0 0.625,0c0.125,0 0.25,0 0.375,0c0.125,0 0.375,0 0.5,0c0.125,0 0.30735,0.038322 0.375008,-0.125c0.047836,-0.115486 0,-0.125004 0,-0.375004c0,-0.25 0.143509,-0.403545 0,-0.750004c-0.135307,-0.326645 -0.312035,-0.488472 -0.375008,-1.000004c-0.061089,-0.496254 -0.023788,-0.860195 -0.25,-1.250004c-0.140289,-0.241749 -0.125,-0.375 -0.125,-0.750004c0,-0.125 0,-0.5 0,-0.750004c0,-0.25 0,-0.625 0,-1.125004c0,-0.5 0.060783,-0.727974 0.125,-1.000004c0.028717,-0.121655 0.132103,-0.131721 0.25,0c0.533806,0.596397 0.937202,1.24073 1.000008,1.875008c0.024635,0.248783 0,0.500004 0,0.625004c0,0.125 0,0.25 0,0.375c0,0 0,0.25 0,0.500004c0,0.375 -0.310783,0.727974 -0.375,1.000004c-0.057442,0.243313 0.02002,0.501614 0,0.625c-0.063316,0.390182 -0.148788,0.735191 -0.375008,1.125008c-0.140297,0.241749 -0.197151,0.282928 -0.625,-0.750004c-0.151268,-0.3652 -0.048134,-1.046505 -0.375,-1.500008c-0.103363,-0.14341 -0.281631,-0.182518 -1.000008,0.250004c-0.921204,0.554642 -1.91864,1.406319 -3.250008,2.000008c-1.552803,0.692432 -2.750015,0.5 -3.000015,0.625c0,0 0.085968,-0.442299 1.125008,-1.000004c1.330795,-0.714306 3.848511,-1.496464 5.875023,-1.875008c0.990646,-0.185047 0.873398,-0.15329 0.625,-0.125c-1.657005,0.188713 -4.742317,1.240269 -9.500038,1.500008c-4.120773,0.224964 -6.036636,0.338387 -6.125023,0.25c-0.088387,-0.088387 1.63834,-0.720139 3.625015,-1.625008c2.391594,-1.089298 4.601303,-1.997192 6.875023,-2.375008c1.116623,-0.185547 1.557449,-0.118313 1.500008,0.125c-0.256874,1.088127 -1.487015,2.274757 -3.375015,3.250011c-1.241669,0.641392 -1.604355,0.806194 -1.5,0.875004c0.794746,0.524052 2.823097,-1.278542 4.500015,-2.625011c1.31131,-1.052906 2.015175,-1.85984 1.750008,-2.125008c-0.176773,-0.176777 -1.861626,0.217373 -5.000023,0.625004c-3.737324,0.485424 -6.224266,1.864079 -6.500023,1.250004c-0.343506,-0.764942 2.225903,-1.06773 4.250015,-1.750008c2.473351,-0.833702 4.33902,-1.372707 5.000023,-1.500004c0.122742,-0.02364 0.025368,0.269539 -0.750008,1.250004c-1.211174,1.531532 -2.547058,2.510052 -2.750008,3.000011c-0.047836,0.115486 0.131622,0.134842 1.250008,-0.625c1.634811,-1.110706 3.360466,-2.397171 4.875015,-3.375015c0.990715,-0.639637 1.289536,-0.993587 1.250008,-0.875004c-0.197639,0.59293 -1.004166,1.705002 -2.375008,2.375011c-1.527504,0.746578 -2.823242,1.051781 -3.000015,0.875004c-0.088394,-0.08839 0.328102,-0.52486 0.875,-1.500008c0.576843,-1.028542 1.060791,-1.727978 1.125008,-2.000008c0.057442,-0.243313 -0.31572,-0.408081 -1.375008,0.125c-1.362961,0.685902 -2.315277,1.603985 -3.125008,2.000008c-0.355095,0.173672 -0.536621,0.213387 -0.625008,0.125c-0.44194,-0.44194 0.432907,-1.682755 1.625008,-3.000011c0.948952,-1.04858 1.644035,-1.779335 1.875008,-1.875008c0.163322,-0.06765 -0.51973,0.843334 -1.750008,2.125008c-1.042343,1.085888 -1.711685,1.817657 -1.875008,1.750008c-0.115486,-0.047836 0.070015,-0.425301 0.875008,-1.250004c1.174675,-1.203438 2.379639,-2.245857 3.500015,-3.500015c0.71637,-0.801914 0.926781,-1.448227 0.75,-1.625006c-0.176773,-0.176777 -1.47802,0.29812 -3.625015,1.250006c-1.48555,0.65863 -1.692657,1.038322 -1.625008,0.875004c0.047836,-0.115486 1.236557,-0.777445 3.000015,-1.625008c1.613098,-0.775293 2.573235,-1.301781 2.750008,-1.125004c0.353554,0.353556 -0.249054,1.351952 -0.375,2.37501c-0.122185,0.99251 0,2.000006 0.125,2.50001c0.125,0.500004 0.25,0.500004 0.75,0.625004c0.500008,0.125 1.048637,0.331989 1.375008,0.75c0.448555,0.574501 0.685791,0.852974 0.750008,1.125008c0.114876,0.486626 0.07119,0.766624 0.25,1.250004c0.096977,0.262146 0.143669,0.440716 0.25,0.375c0.475525,-0.293892 0.25,-1.125004 0.25,-1.625004c0,-0.500004 0.14183,-1.138538 0,-1.875008c-0.127296,-0.661003 -0.375,-1.125008 -0.625,-1.625008c-0.25,-0.500004 -0.474251,-0.885933 -0.750008,-1.500006c-0.229004,-0.50996 -0.437027,-0.988478 -0.5,-1.500006c-0.030548,-0.248129 0.036613,-0.46339 0.125,-0.375002c0.530334,0.530331 0.303986,1.601723 0.875008,3.000013c0.553139,1.354504 0.975769,2.378811 1.125,3.250011c0.107613,0.628231 0.25,0.875004 0.375,1.125004c0,0 0.061684,-0.109821 0.125,-0.5c0.080093,-0.493549 0,-1.000004 0,-1.500008c0,-0.25 0,-0.5 0,-0.750004c0,-0.25 0.125,-0.625 0.125,-0.875004c0,-0.375 0,-0.5 0,-0.625c0,-0.125 0.02002,-0.376617 0,-0.500004c-0.063316,-0.390179 -0.186684,-0.734821 -0.25,-1.125004c-0.080093,-0.493546 -0.036072,-1.10854 -0.25,-1.625008c-0.151268,-0.365196 -0.18235,-0.461679 -0.25,-0.625002c-0.095673,-0.23097 0,-0.375002 0,-0.500002c0,-0.125 -0.125,-0.125 -0.125,-0.375002c0,0 -0.038841,-0.385031 -0.125,-0.750002c-0.064217,-0.272034 -0.125,-0.750004 -0.125,-1.000004c0,-0.500002 0,-1.000004 0,-1.500006c0,-0.500002 -0.125,-1.000004 -0.125,-1.375006c0,-0.375002 0,-0.875004 -0.125,-0.875004c-0.125,0 -0.033569,0.259611 0.125,0.750002c0.207108,0.640497 0.469414,1.266506 0.75,1.750008c0.226219,0.389812 0.25,0.500002 0.25,0.500002c0,0.125 0.05735,0.211681 0.125,0.375002c0.047836,0.115484 0.098732,0.259804 0.250008,0.625002c0.106964,0.258232 0.029327,0.644033 0.125,0.875004c0.06765,0.163321 0.125,0.375002 0.125,0.625002c0,0.375002 0,0.500002 0,0.875004c0,0.125002 0.125,0.250002 0.125,0.375002c0,0.125 -0.045822,0.25281 0,0.625002c0.062973,0.511528 0.125,0.625004 0.125,1.125006c0,0.25 0.060783,0.47797 0.125,0.750004c0.057434,0.243313 0,0.25 0,0.5c0,0.25 -0.040047,0.753231 0,1.000004c0.063316,0.390182 0.125,0.750004 0.125,1.250008c0,0.5 0,1.000004 0,1.375004c0,0.375 -0.062027,0.613476 -0.125,1.125004c-0.045822,0.372192 0,0.750004 0,1.000004c0,0 -0.165459,0.059978 -0.375,-0.125c-0.337875,-0.298271 -0.369904,-0.90873 -0.625008,-1.625008c-0.33812,-0.949371 -0.898987,-1.956818 -1.625008,-2.750011c-0.778107,-0.850101 -1.564842,-1.442657 -2.000008,-2.000006c-0.448555,-0.574501 -0.711807,-1.510336 -1,-2.50001c-0.331551,-1.138569 -0.701035,-2.398417 -0.5,-3.250013c0.19265,-0.816097 0.865723,-1.187201 1.5,-1.250006c0.373184,-0.036953 0.667992,-0.140158 0.875008,0c0.557411,0.377386 0.618095,1.367247 0.625,2.37501c0.007751,1.131901 -0.987106,2.45142 -1.375008,3.500013c-0.17881,0.483376 -0.275757,0.489071 0,-0.125c0.458015,-1.01992 1.072151,-1.967079 1.500008,-3.000011c0.302536,-0.730394 0.375,-1.250006 0.375,-1.250006c-0.375,0 -1.5,0.125 -2.875008,1.000004c-1.375008,0.875004 -2.239708,1.423365 -2.375008,1.750008c-0.047836,0.115484 0.186806,-0.467472 0.625,-1.375006c0.585381,-1.212372 1.05748,-2.355303 1.375008,-3.375013c0.153229,-0.492085 0.25,-0.500002 0.25,-0.500002c-0.125,0.125 -0.652527,0.47436 -1.000008,0.875004c-0.4095,0.472158 -0.523254,0.586569 -0.75,0.750002c-0.14341,0.103365 -0.302361,0.302359 -0.5,0.500002c-0.197639,0.197643 -0.25,0.375002 -0.25,0.375002c-0.250008,0.125 -0.42337,0.364702 -0.750008,0.500002c-0.346458,0.143507 -0.735191,0.273787 -1.125,0.500002c-0.483505,0.280588 -0.875008,0.500002 -1.000008,0.500002c0,0 0.147385,-0.092951 0.875008,-0.625002c0.646088,-0.472433 1.550499,-0.801447 2.125008,-1.250006c0.278671,-0.217581 0.525848,-0.476583 0.75,-0.750002c0.285736,-0.348541 0.429329,-0.643875 0.75,-0.875004c0.10141,-0.073093 0.125008,-0.25 0,-0.25c-0.375,0 -1.051506,-0.003929 -1.5,0.25c-0.461502,0.261295 -0.864708,0.548361 -1.000008,0.875004c-0.047836,0.115484 -0.201332,0.144909 -0.375,0.500002c-0.198013,0.404867 -0.561684,0.734821 -0.625,1.125004c-0.02002,0.123388 -0.168274,0.213181 -0.375008,0.500002c-0.163437,0.226749 -0.461571,0.523252 -0.625,0.750004c-0.206726,0.286818 -0.336567,0.398252 -0.5,0.625002c-0.103363,0.143408 -0.250004,0.375002 -0.500004,0.625004c-0.125,0.125 -0.314125,0.324251 -0.5,0.625002c-0.207817,0.336252 -0.184288,0.393671 -0.250004,0.500002c-0.146946,0.237764 -0.384514,0.327166 -0.5,0.375002c-0.326641,0.1353 -0.394035,0.404331 -0.625004,0.500002c-0.163319,0.06765 -0.375,0.249998 -0.750004,0.375c-0.375,0.125 -0.646637,0.231594 -0.75,0.375004c-0.163433,0.226749 -0.125004,0.25 -0.375004,0.375c-0.25,0.125 -0.625,0.375 -0.750004,0.500004c-0.25,0.25 -0.279652,0.092793 0.125004,-0.250004c0.820469,-0.695042 2.190987,-0.94099 2.750008,-1.500006c0.27951,-0.279509 0.287128,-0.576731 0.625004,-0.875002c0.209541,-0.18498 0.512928,-0.488295 0.625004,-0.625004c0.285736,-0.348541 0.375,-0.500002 0.375,-0.500002c0,0.125002 -0.016499,0.094418 -0.5,0.375002c-0.389812,0.226215 -0.921505,0.67314 -1.375008,1.000004c-0.286819,0.206728 -0.5,0.250002 -0.625,0.250002c0,0 -0.286617,0.088388 -0.375004,0c-0.08839,-0.08839 0.364792,-0.764021 0.875004,-1.125006c0.36792,-0.260309 0.411613,-0.46339 0.500004,-0.375c0.265163,0.265165 -0.046421,0.718344 -0.375004,1.250004c-0.146946,0.237766 -0.671501,0.548138 -1.125004,0.875004c-0.430225,0.310091 -0.713184,0.668278 -1.000004,0.875004c-0.453503,0.326866 -0.519913,0.326328 -0.875004,0.5c-0.404865,0.198017 -0.593346,0.546421 -1.125004,0.875004c-0.237762,0.146946 -0.463188,0.418278 -0.750004,0.625004c-0.226749,0.163433 -0.213184,0.168274 -0.5,0.375c-0.226753,0.163437 -0.319778,0.314915 -0.750004,0.625004c-0.226749,0.163433 -0.560867,0.385067 -0.875004,0.625004c-0.35817,0.273567 -0.577168,0.509514 -0.625004,0.625c-0.06765,0.163319 -0.474625,0.407066 -0.625,0.500004c-0.336254,0.207813 -0.381691,0.192562 -0.625004,0.25c-0.27203,0.064217 -0.721245,0.193581 -1.250004,0.375004c-0.602882,0.206856 -1.11573,0.187195 -1.750008,0.25c-0.124393,0.012318 -0.254826,-0.21484 0.125,-0.625004c0.495232,-0.53479 1.250004,-0.750004 1.625008,-1.000004c0,0 -0.000607,0.012318 -0.125004,0c-0.634277,-0.062805 -1.250004,-0.375 -1.250004,-0.25c0,0.125 0.25,0 1.000004,0c0.625004,0 1.250008,0 1.500008,0c0.25,0 0.375,0 0.375,0c0.375004,0 0.988476,0.187027 1.500008,0.25c0.248127,0.030544 0.5,0 0.5,0c0.375004,0 0.737858,-0.028027 1.000004,-0.125c0.483379,-0.178814 1.098785,-0.001221 2.000008,0.125c0.742756,0.104027 1.161621,0.036613 1.250008,0.125c0.265167,0.265167 -0.619617,0.791145 -2.375011,1.000004c-2.61842,0.311543 -5.633942,1.853531 -5.875023,0.875004c-0.255486,-1.036995 2.246407,-0.812458 3.875015,-0.875004c0.624542,-0.023987 0.645027,0.001614 0.625004,0.125c-0.126637,0.780365 -0.775707,1.596474 -1.750008,2.500011c-0.916542,0.849976 -1.719646,1.123367 -2.500011,1.250004c-0.740314,0.120136 -1.648659,0.077896 -3.000011,-0.375c-1.276512,-0.427814 -2.250008,-0.875004 -2.250008,-1.125004c0,-0.250004 0.515835,-0.693542 1.500004,-1.000004c1.019711,-0.317532 1.500008,-0.500004 1.500008,-0.500004c0.25,0.125 0.528969,0.615963 0.750004,1.375008c0.144096,0.494835 0.015179,1.18832 -0.375004,1.125004c-0.246773,-0.040047 0.658005,-0.938835 1.625008,-1.500008c0.779621,-0.452431 1.073639,-0.413452 0.500004,0c-0.907001,0.653728 -2.24482,0.687408 -3.375015,0.750004c-0.249619,0.013824 -0.436684,0.015179 -0.5,-0.375c-0.100113,-0.616932 -0.061584,-1.128048 0,-1.750008c0.062805,-0.634281 0.426701,-1.078171 0.875,-1.625008c0.285736,-0.348541 0.088928,-0.016464 -0.125,0.500004c-0.30254,0.730389 -0.352634,1.287342 -0.75,1.500004c-0.110214,0.058983 -0.106594,0.021637 -0.250004,0.125c-0.226749,0.163433 -0.25,0.250004 -0.375,0.375004c0,0 -0.168274,0.213181 -0.375004,0.5c-0.163433,0.226749 -0.3647,0.423363 -0.5,0.750004c-0.095673,0.230968 -0.125,0.25 -0.125,0.25c0,0.125 0.006435,0.162338 -0.125,0.375004c-0.14695,0.237766 -0.310787,0.22797 -0.375004,0.5c-0.028721,0.121655 -0.146637,0.10659 -0.25,0.25c-0.163433,0.226753 -0.25,0.375004 -0.25,0.375004c0,0.125 -0.095669,0.269032 0,0.5c0.1353,0.326645 0.5,0.500004 0.625,0.500004c0.125004,0 0.154331,0.019032 0.250004,0.25c0.06765,0.163319 0.161613,0.161613 0.25,0.25c0.08839,0.08839 0.125,0.125004 0.25,0.125004c0.125,0 0.478058,-0.112762 0.625004,0.125c0.065716,0.106331 0.25,0.125 0.375,0.125c0.125,0 0.500004,0 0.875004,0c0.25,0 0.25,0 0.25,0.125c0,0 -0.125,0 -0.375,0c-0.5,0 -0.948227,0.176777 -1.125004,0c-0.088387,-0.088387 -0.246567,-0.45594 -0.375004,-1.000004c-0.11488,-0.486629 -0.125,-1.000004 -0.125,-1.375008c0,-0.375 0,-0.625 0,-0.875c0,-0.250004 -0.036613,-0.286617 -0.125,-0.375004c-0.088387,-0.088387 -0.143669,-0.059284 -0.25,-0.125c-0.237762,-0.146946 -0.318645,-0.6194 -0.750004,-0.750004c-0.119637,-0.036224 -0.230904,-0.505165 -0.375,-1.000004c-0.110516,-0.37952 -0.436687,-0.609821 -0.500004,-1.000004c-0.08009,-0.493546 0,-0.750004 0,-1.125004c0,-0.375 -0.048672,-0.519913 0.125,-0.875004c0.198017,-0.404865 0.250004,-0.750004 0.250004,-1.125004c0,-0.500004 0.063908,-1.00375 0.125,-1.500008c0.062973,-0.511528 0.437027,-0.988478 0.5,-1.500006c0.045818,-0.37219 -0.070915,-1.131771 0,-1.500006c0.1273,-0.661003 0.312031,-0.988478 0.375004,-1.500006c0.045818,-0.372192 -0.049267,-0.752436 0,-1.250004c0.062805,-0.634279 0.125,-1.125006 0.125,-1.625008c0,-0.750002 0,-1.250004 0.125,-2.125008c0.125,-0.875004 0.267387,-1.74678 0.375,-2.37501c0.149231,-0.871199 0.441616,-1.527407 0.875004,-2.37501c0.331821,-0.648962 0.625004,-1.000004 1.000004,-1.375006l0,-0.250002" id="svg_11" fill-opacity="null" stroke-opacity="null" stroke-width="3" stroke="#000000" fill="none"/>
  <path d="m53.812473,12.27964c-0.375,0 -1.282631,0.432243 -2.375008,1.000004c-1.293468,0.672279 -2.242516,1.296925 -2.625011,2.000008c-0.1889,0.347229 -0.163322,0.557353 0,0.625003c1.154854,0.478358 3.614395,-0.338483 6.375027,-0.625003c1.74509,-0.181119 2.288326,-0.317651 2.125008,-0.250001c-0.115486,0.047835 -1.396648,0.719369 -3.000011,1.875009c-2.028111,1.461782 -4.101147,3.096481 -5.875023,4.375017c-0.934914,0.673847 -1.253937,0.948494 -1.000004,0.500002c0.696789,-1.230652 2.7686,-2.220741 4.750019,-3.500015c1.514542,-0.977842 2.366848,-1.544428 2.250008,-1.500006c-1.406948,0.53492 -3.182297,2.1709 -5.625023,4.000017c-1.92205,1.439234 -2.461693,2.692659 -2.625011,2.62501c-0.115486,-0.047836 0.134338,-0.725386 1.125004,-1.750006c1.35722,-1.40374 3.722023,-2.685575 6.375027,-3.875017c2.35144,-1.054239 3.743584,-1.462667 3.875015,-1.250004c0.146946,0.237764 -0.982944,1.270138 -2.750011,2.750011c-2.724072,2.281343 -5.229736,4.064159 -5.625023,5.250021c-0.079056,0.237171 0.053532,0.072081 0.625004,-0.625004c1.008675,-1.230383 2.687382,-2.614372 5.125019,-3.875015c2.931316,-1.515953 5.375023,-2.125008 5.875027,-2.25001c0,0 -0.808189,0.433313 -2.250011,1.750008c-2.088581,1.907324 -4.302975,4.136772 -5.125019,5.625023c-0.325466,0.589235 0.081104,-0.284481 0.875004,-1.250006c1.068081,-1.298981 2.181793,-2.431555 3.125011,-3.500013c0.584961,-0.66263 0.634518,-1.17284 0.750004,-1.125004c0.163319,0.06765 -0.043274,0.463186 -0.25,0.750002c-0.163433,0.226751 -0.316868,0.538847 -0.500004,0.750004c-0.258991,0.29862 -0.489704,0.548359 -0.625004,0.875004c-0.047836,0.115484 -0.148251,0.211567 -0.375,0.375c-0.14341,0.103365 -0.148418,0.22415 0.125,0c0.348541,-0.285736 0.774475,-0.70611 1.250004,-1.000004c0.531658,-0.328585 0.536613,-0.786613 0.625004,-0.875004c0.088387,-0.088388 0.202164,-0.240484 0.25,-0.125c0.06765,0.163321 -0.389015,0.489792 -0.75,1.000004c-0.260311,0.367922 -0.589268,0.901464 -0.875004,1.250006c-0.224152,0.273418 -0.451385,0.366011 -0.750004,0.625002c-0.211155,0.183136 -0.383255,0.359709 -0.625004,0.500002c-0.389809,0.226217 -0.740044,0.395998 -1.250004,0.625004c-0.614075,0.275761 -1.171505,0.298136 -1.625008,0.625002c-0.286816,0.206726 -0.48159,0.396639 -0.625,0.500002c-0.226753,0.163433 -0.771969,0.45088 -1.375008,0.750002c-0.652958,0.323883 -1.046505,0.67314 -1.500008,1.000006c-0.430225,0.310089 -0.715813,0.911703 -1.250004,1.375004c-0.47216,0.409502 -0.849361,0.777533 -1.250004,1.125006c-0.47216,0.409502 -0.625004,0.750002 -0.750004,0.875004c-0.25,0.25 -0.273418,0.34915 0,0.125c0.697086,-0.571472 1.625008,-1.000004 2.375011,-1.500006c0.75,-0.500002 1.088184,-0.918278 1.375004,-1.125006c0.453503,-0.326864 0.875004,-0.500002 1.375004,-0.750002c0.500004,-0.250002 0.802361,-0.552361 1.000008,-0.750004c0.197643,-0.197641 0.538776,-0.464876 0.875,-0.875004c0.285736,-0.348541 0.336575,-0.648252 0.500004,-0.875002c0.206726,-0.286819 0.621567,-0.70594 0.750004,-1.250006c0.11488,-0.486626 -0.028717,-1.003347 0,-1.125004c0.064217,-0.272034 0.125,-0.375002 0.125,-0.625004c0,-0.25 0.115486,-0.327166 0,-0.375002c-0.163322,-0.06765 -0.2155,0.152842 -0.625004,0.625004c-0.463299,0.534187 -0.875004,0.875004 -1.375004,1.250004c-0.500004,0.375002 -0.755043,0.830921 -1.125004,1.250006c-0.298275,0.337879 -0.521641,0.481592 -0.625004,0.625002c-0.163433,0.226751 -0.339268,0.526461 -0.625004,0.875004c-0.224152,0.273418 -0.756691,0.43244 -1.000004,0.375002c-0.27203,-0.064219 -0.562286,-0.742249 -0.625,-1.500006c-0.07217,-0.872023 0,-1.875008 0,-2.50001c0,-0.250002 -0.007401,-0.128567 -0.125004,0.125c-0.400543,0.863609 -0.5,1.625006 -0.5,2.37501c0,0.750002 0.043148,1.272125 0.25,1.875008c0.181419,0.528761 0.436687,0.859823 0.500004,1.250004c0.020023,0.123388 0.230904,0.755169 0.375,1.250006c0.221035,0.759043 0.25,1.500006 0.25,2.25001c0,0.750004 0,1.500004 -0.125,1.750008c-0.125,0.25 -0.06765,0.288319 0,0.125c0.191341,-0.461945 0.062027,-0.988476 0.125,-1.500008c0.061092,-0.496256 0.125,-1.000004 0.125,-1.250004c0,-0.250002 0.137928,-0.613295 0.250004,-0.750004c0.285736,-0.348541 0.25,-0.750002 0.375,-0.875004c0.125,-0.125 0.18235,-0.211679 0.25,-0.375c0.047836,-0.115486 0.125004,-0.375002 0.125004,-0.500002c0,-0.125002 0.036613,-0.036613 0.125,-0.125002c0.088387,-0.088388 0.122746,-0.398638 0,-0.375c-0.661003,0.127296 -1.347504,0.497023 -1.875008,1.000004c-0.326183,0.311018 -0.552361,0.677361 -0.750004,0.875004c-0.395283,0.395287 -0.500004,0.750002 -0.750004,1.125004c-0.25,0.375002 -0.443619,0.976755 -0.625004,1.625008c-0.20488,0.732224 -0.125,1.250004 -0.125,1.750004c0,0.750004 -0.125,1.250008 -0.125,1.750008c0,0.500004 0,0.750004 0,1.000004c0,0.250004 -0.125,0.625004 0,0.625004c0.125,0 0.08279,-0.508274 0.25,-1.250004c0.200127,-0.887741 0.298477,-2.137585 0.500004,-3.125015c0.181976,-0.891636 0.500004,-1.375004 0.625004,-1.500004c0.125,-0.125002 0.080696,0.001572 0.125,0.625002c0.062656,0.881662 0.392387,1.746778 0.5,2.37501c0.149231,0.871201 0.125,1.500008 0.125,2.000008c0,0.25 0.029716,0.258629 0.125004,-0.125c0.183289,-0.737926 0.25,-1.500008 0.25,-2.375011c0,-0.75 0,-1.000004 0,-1.000004c-0.125,0.375004 -0.312031,0.863476 -0.375004,1.375008c-0.076366,0.620319 -0.062027,1.113476 -0.125,1.625008c-0.045818,0.372189 0.036613,0.588387 0.125,0.5c0.088387,-0.088387 0.411076,-0.60854 0.625004,-1.125004c0.151268,-0.365196 0.25,-0.375 0.25,-0.375c-0.125,0.5 -0.125,1.000004 -0.125,1.500004c0,0.375 0.125,0.625004 0.25,0.625004c0,0 0.159294,-0.110622 0.250004,-0.375004c0.206852,-0.602879 0.5,-1.125004 0.25,-1.125004c-0.125,0 0.116116,0.991119 1.000004,1.875008c0.883888,0.883888 1.713188,1.293278 2.000008,1.500008c0.453499,0.326866 1.621887,0.437466 3.500015,0.5c1.998901,0.066555 3.523418,0.201035 4.375015,0c0.816097,-0.192654 1.63504,-0.857841 2.500011,-1.375004c1.012142,-0.605156 2.060108,-1.560108 2.875011,-2.375011c0.814903,-0.814903 1.321091,-1.847851 1.625008,-2.750011c0.164536,-0.488419 0.411072,-1.10854 0.625,-1.625006c0.302536,-0.730392 0.375,-1.375006 0.375,-1.750006c0,-0.250002 0.012314,-0.55624 -0.5,-0.500002c-0.833519,0.091497 -1.048141,0.921503 -1.375008,1.375006c-0.103363,0.143408 -0.102966,0.56422 -0.375,0.500002c-0.121658,-0.028719 0,-0.250002 0,-0.500002c0,-0.250002 0.038322,-0.557354 -0.125,-0.625004c-0.923882,-0.382683 -1.411621,0.213388 -1.500008,0.125c-0.265167,-0.265165 0.500008,-0.750002 0.750008,-1.000004c0.25,-0.25 0.376274,-0.469072 0.75,-0.500002c0.757759,-0.062714 1.551514,-0.246069 2.000008,-0.500002c0.615326,-0.348392 0.913788,-0.839876 1.250008,-1.250004c0.285736,-0.348543 0.5,-0.750004 0.625,-1.000004c0.125,-0.250002 0.125,-0.375002 0.125,-0.625004c0,-0.125 0,-0.125 0,-0.375c0,-0.250002 0.153854,-0.552952 0,-0.750004c-0.317177,-0.406231 -1.125,-0.125 -1.500008,-0.125c0,0 -0.161613,0.088388 -0.25,0c-0.088387,-0.08839 -0.076866,-0.296507 0.25,-0.750004c0.206734,-0.286819 0.500008,-0.625002 0.750008,-0.625002c0.125,0 0.25,0 0.375,0c0.125,0 0.30735,-0.086679 0.375,-0.250002c0.047836,-0.115484 0,-0.125 0.125,-0.25c0,0 0.2397,-0.048359 0.375,-0.375002c0.047836,-0.115484 0.018669,-0.43428 0.125008,-0.500002c0.237762,-0.146948 0.125,-0.375002 0.375,-0.625002c0.25,-0.250002 0.5,-0.500002 0.625,-0.500002c0.125,0 0.393463,0.492929 0.625,1.125004c0.271927,0.742338 0.250008,1.375006 0.250008,1.875008c0,0.500002 0,1.000004 0,1.250006c0,0.25 0.038841,0.635033 0.125,1.000004c0.128433,0.544064 0.67205,0.885042 0.875,1.375004c0.047836,0.115486 0.009514,0.172838 0.125,0.125002c0.48996,-0.20295 0.436684,-0.859823 0.5,-1.250006c0.060066,-0.370159 0,-0.500002 0,-0.625002c0,-0.125 0.125,-0.125 0.250008,-0.125c0.125,0 0.411613,-0.088388 0.5,0c0.088387,0.088388 0,0.25 0,0.500002c0,0.25 0,0.25 0,0.375c0,0.125002 -0.125,0 -0.125,-0.125c0,-0.125 -0.3694,-0.568644 -0.500008,-1.000004c-0.072449,-0.239273 0.047836,-0.384518 0,-0.500002c-0.06765,-0.163321 -0.177551,-0.385729 -0.25,-0.625002c-0.130608,-0.431356 -0.413841,-0.760035 -0.5,-1.125006c-0.128433,-0.544064 -0.391335,-0.891094 -0.5,-1.250004c-0.130608,-0.431356 -0.310783,-0.602972 -0.375,-0.875004c-0.028717,-0.121656 -0.125,-0.500002 -0.125,-0.750004c0,-0.375 0,-0.875004 -0.125008,-1.375006c-0.125,-0.500002 -0.375,-0.875002 -0.375,-1.000004c0,-0.25 -0.047836,-0.365484 0,-0.25c0.270599,0.653288 0.750008,0.875004 1.000008,1.500006c0.25,0.625002 0.437027,1.113478 0.5,1.625006c0.030548,0.248129 0.042191,0.663754 0.25,1.000004c0.092934,0.150377 0.25,0.500002 0.25,0.625004c0,0.500002 0,0.750002 0,1.000004c0,0.500002 -0.125,0.875004 0,0.875004c0.125,0 0.125,-0.375002 0.25,-0.875004c0.125008,-0.500002 0.125008,-1.000004 0.125008,-1.375006c0,-0.375002 -0.105911,-0.630167 -0.250008,-1.125004c-0.110519,-0.379522 -0.098732,-0.634808 -0.25,-1.000004c-0.106964,-0.258234 -0.311684,-0.484823 -0.375,-0.875004c-0.060066,-0.370159 0,-0.625004 0,-1.125006c0,-0.25 0,-0.500002 0,-0.875003c0,-0.375002 0,-0.625003 0,-0.875004c0,-0.250001 0,-0.500002 0,-0.750003c0,-0.250001 0,-0.500002 0,-0.625002c0,-0.125001 0.033569,-0.384613 -0.125,-0.875004c-0.207108,-0.640496 -0.329178,-1.002813 -0.375,-1.375006c-0.062973,-0.511529 -0.163841,-0.885036 -0.25,-1.250005c-0.064217,-0.272032 -0.125,-0.375002 -0.125,-0.625003c0,-0.250001 -0.088387,-0.536613 0,-0.625002c0.265167,-0.265165 0.875,0 1.125,0c0.125,0 0.398254,-0.086566 0.625008,-0.250001c0.14341,-0.103363 0.125,-0.125001 0.25,-0.125001c0.125,0 0.148544,0.242958 0.25,0.625003c0.163597,0.616027 0.112923,1.127117 0.25,1.875008c0.114906,0.626936 0.106491,1.028549 0.25,1.375005c0.06765,0.163321 0.125,0.375002 0.125,0.500002c0,0.375002 0.060783,0.852973 0.125,1.125005c0.086159,0.36497 0,0.750003 0,1.250005c0,0.375002 0,0.750004 0,1.125006c0,0.375 0.036949,0.876827 0,1.250004c-0.062805,0.634277 -0.033363,1.255625 -0.125,2.000008c-0.062973,0.511528 -0.25,1.000004 -0.25,1.250006c0,0.125 0,0 0,-0.500002c0,-0.750004 0,-1.625006 0,-2.625011c0,-1.000004 -0.18734,-1.618345 -0.25,-2.50001c-0.070892,-0.997488 -0.5,-1.875006 -0.750008,-2.50001c-0.25,-0.625002 -0.413841,-1.135036 -0.5,-1.500006c-0.064217,-0.272032 -0.25,-0.500002 -0.25,-0.625003c0,-0.375001 0.066345,-0.413061 -0.125,-0.875004c-0.06765,-0.163321 -0.125,-0.375001 -0.125,-0.500002c0,-0.125 0.05735,-0.33668 0.125,-0.500002c0.095673,-0.230971 0,-0.375001 0,-0.500002c0,-0.125 0.061684,-0.359821 0.125,-0.750003c0.040047,-0.246773 0,-0.375001 0,-0.500002c0,0 0.625,0.125 0.625,0c0,-0.125 -0.876884,0.053166 -1.625,0c-0.881668,-0.062658 -1.500008,-0.125 -2.000015,-0.125c-0.125,0 -0.25,0 -0.5,0c-0.125,0 -0.48159,0.021637 -0.625,0.125c-0.226746,0.163432 -0.551514,0.121067 -1.000008,0.375001c-0.153831,0.087098 -0.338387,0.161612 -0.25,0.250001c0.265167,0.265165 0.875008,0 1.375008,-0.125c0.5,-0.125 0.984818,-0.186683 1.375008,-0.250001c0.370155,-0.060068 0.625,-0.125 1.125,-0.125c0.375,0 0.625008,0 0.750008,0c0.125,0 0.25,0 0.375,0c0.125,0 0.25,0 0.375,0c0.125,0 0.314125,-0.05075 0.5,0.250001c0.207817,0.336251 0.310783,0.477968 0.375008,0.750003c0.028717,0.121655 0.176781,0.448224 0,0.625002c-0.088394,0.088394 -0.375008,0 -0.625008,0c-0.375,0 -0.773254,-0.33657 -1,-0.500002c-0.286819,-0.206727 -0.484825,-0.561685 -0.875008,-0.625002c-0.370155,-0.060069 -0.375,0 -0.5,0c-0.375,0 -0.86348,-0.187029 -1.375008,-0.250001c-0.372192,-0.045819 -0.5,0 -0.625,0c-0.25,0 -0.375,-0.125 -0.5,-0.125c-0.25,0 -0.25,0 -0.375008,0c-0.125,0 -0.25,0.125 -0.25,0.500002c0,0.875004 0.479393,1.514167 1.000008,2.250009c0.360985,0.510214 0.957428,1.195668 1.750008,1.625007c0.837051,0.453428 1.43235,0.711679 1.500008,0.875004c0.095673,0.230969 0.022034,0.685785 -0.250008,0.750003c-0.608284,0.143592 -1.180092,-0.094273 -2.500008,-1.000004c-1.43187,-0.982553 -2.507858,-1.667116 -2.250008,-2.25001c0.294868,-0.666561 1.36573,-0.687197 2.000008,-0.750003c0.248787,-0.024634 0.411613,-0.088388 0.5,0c0.088387,0.088389 0.312027,0.363475 0.375,0.875004c0.076363,0.62032 -0.375,1.125005 -0.75,1.500006c-0.125,0.125001 -0.257072,0.143469 0.375,0.375002c0.74234,0.271925 1.250008,0.250001 1.000008,0.250001c-0.500008,0 -1.47126,-0.114378 -2.750015,-0.375002c-1.109123,-0.22605 -2.373947,-0.382681 -3.250008,-0.500002c-0.998871,-0.133767 -2.000011,-0.250001 -2.875015,-0.250001c-0.375,0 -0.375,-0.125 -0.125,-0.125c1.000004,0 2.869827,-0.312406 4.000015,-0.375002c0.499237,-0.027651 0.501617,-0.104979 0.625,-0.125001c0.39019,-0.063317 0.500008,-0.25 0.500008,-0.375001c0,-0.125001 0,-0.250001 0,-0.375002c0,-0.375001 0,-0.500002 -0.125,-0.500002c0,0 -0.75563,-0.091639 -1.500008,0c-0.511528,0.062972 -0.727974,0.185783 -1.000008,0.250001c-0.486626,0.114877 -1.380589,0.02983 -2.125008,-0.125c-0.504589,-0.104949 -0.875,-0.125001 -1.000004,-0.125001c-0.5,0 -1.000004,0 -1.625004,0c-0.500004,0 -0.750004,0 -0.875004,0c-0.125,0 -0.256687,0.067562 -0.500004,0.125001c-0.27203,0.064218 -0.5,0.250001 -0.75,0.250001c-0.375004,0 -0.613476,0.062028 -1.125008,0.125c-0.496254,0.061091 -0.859821,0.061683 -1.250004,0.125001c-0.370159,0.060069 -1.125004,0.125 -1.500008,0.125c-0.25,0 -0.625,0 -1.000004,0c-0.75,0 -1.125004,0 -1.250004,0c0,0 0.028721,-0.128344 0,-0.250001c-0.064217,-0.272032 -0.096279,-0.378345 -0.125,-0.500002c-0.064217,-0.272032 -0.125,-0.375001 -0.125,-0.500002c0,-0.125 0,-0.375001 0,-0.500002c0,0 -0.05735,-0.086679 -0.125,-0.250001c-0.047836,-0.115486 0,-0.250001 0,-0.250001c0,-0.125 0.08839,-0.286613 0,-0.375001c-0.088387,-0.088388 -0.250004,0 -0.750004,0c-0.375,0 -0.625004,0 -0.875004,0c-0.25,0 -0.375,0 -0.500004,0c0,0 -0.128345,-0.028719 -0.25,0c-0.544064,0.128436 -0.990726,0.312195 -1.625004,0.375001c-0.248787,0.024635 -0.375004,0 -0.500004,0c-0.125,0 -0.125,0 -0.25,0c-0.250004,0 -0.375004,0 -0.375004,0c-0.125,0 -0.5,0 -0.625,0c-0.125,0 -0.246658,0.02872 -0.125,0c0.27203,-0.064218 0.86834,-0.437344 1.750004,-0.500002c0.623432,-0.044306 1.625008,0.125 1.625008,0c0,-0.125 -0.25,0 -0.625004,0c0,0 -0.234818,-0.061683 -0.625,-0.125c-0.987091,-0.160183 -2.000008,0 -2.625011,0c-0.125,0 -0.25,0 -0.25,0c-0.125,0 -0.125,0.125 -0.125,0.375001c0,0.250001 0,0.250001 0,0.625003c0,0.375001 0.084953,0.50323 0.125,0.750003c0.063316,0.390182 0.214264,0.776463 0.5,1.125004c0.224152,0.27342 0.223736,0.384807 0.375004,0.750004c0.106964,0.258233 0.125,0.500002 0.25,0.750003c0.125,0.250001 0.077164,0.259516 0.125,0.375001c0.06765,0.163321 0.125,0.250001 0.25,0.250001c0,0 0.119396,-0.193644 0.250004,-0.625002c0.181118,-0.598185 0.041496,-1.278675 0.25,-1.750008c0.182331,-0.412167 0.25,-0.250001 0.25,-0.125c0,0.125 -0.007755,0.187286 0.750004,0.250001c1.12117,0.092792 2.23848,-0.062029 2.750011,-0.125001c0.124062,-0.015273 0.25,0 0.25,0c-0.125,0.250001 -0.321186,0.516628 -0.5,1.000005c-0.193951,0.524297 -0.45594,0.871568 -1.000008,1.000004c-0.364967,0.086157 -0.5,0 -0.5,0c-0.125,0 -0.239937,-0.435866 0,-0.750003c0.273567,-0.358171 0.643673,-0.315718 0.750004,-0.250001c0.237766,0.146947 -0.279095,0.84166 -1.000004,1.500006c-0.783218,0.715247 -1.518879,1.179334 -1.750008,1.500006c-0.07309,0.101406 0.436768,-0.279255 1.500004,-0.625002c1.446159,-0.470267 3.087406,-0.685829 4.500019,-0.875004c0.991154,-0.132733 2.000008,0 2.750011,0c0.750004,0 1.500008,0 2.250008,0c0.750004,0 1.500008,0 2.250011,0c0.750004,0 1.213394,0.161612 1.125004,0.250001c-0.176777,0.176777 -1.258873,-0.044634 -2.625011,0.250001c-2.015224,0.434623 -3.500011,0.875004 -4.000015,1.000004c0,0 0.594643,-0.373366 1.375004,-0.500002c1.357254,-0.220253 2.250011,0 2.375011,0c0,0 -0.734505,0.544262 -1.750008,0.875004c-2.220402,0.72317 -3.661629,0.786614 -3.750015,0.875003c-0.08839,0.088389 0.361691,-0.149587 1.500008,-0.750003c0.988907,-0.521608 2.121662,-0.937464 3.875015,-1.000004c2.623344,-0.093572 4.625019,0 5.125019,0c0.125,0 -0.747581,0.013165 -2.750011,0.375002c-2.871658,0.518905 -5.744186,1.062383 -6.750027,1.125004c-0.12476,0.007767 -0.14682,0.069816 1.375008,-0.500002c2.221123,-0.831656 5.279484,-1.167883 7.750031,-1.625007c1.401432,-0.259307 1.49464,-0.411224 1.375004,-0.375001c-0.862717,0.261209 -2.522793,1.306337 -4.875019,2.125009c-2.65295,0.923336 -4.500019,1.875007 -4.750019,1.875007c-0.125,0 -0.035801,-0.094021 1.500008,-0.625002c2.20702,-0.763041 4.858124,-1.249498 6.250023,-1.375006c0.497982,-0.044903 0.405106,0.032035 -0.125,0.500002c-1.068462,0.943216 -2.802147,2.075186 -3.875015,3.250013c-0.658348,0.720911 -0.663757,0.584452 0.25,-0.250002c0.720913,-0.658346 1.500008,-1.125004 1.875008,-1.500006c0.125,-0.125 0.125,0 0.125,0c-0.25,0.375002 -0.796421,0.843346 -1.125004,1.375006c-0.146946,0.237766 -0.25,0.375002 -0.25,0.375002c0,0.125 0,0.25 0.375,0.25c0.375004,0 0.625004,-0.375 1.125008,-0.625002c0.25,-0.125 0.411613,-0.46339 0.5,-0.375002c0.176777,0.176779 0,0.500002 0,0.500002c0,0 0.185783,-0.102968 0.25,-0.375c0.057438,-0.243315 0.161613,-0.536613 0.250004,-0.625004c0.088387,-0.088388 0.25,0 0.25,0c-0.25,0.250002 -0.500004,0.500002 -0.500004,0.500002c0,0 0.215816,-0.411703 0.750004,-0.875002c0.47216,-0.409504 0.461685,-0.682354 0.625004,-0.750004c0.115486,-0.047835 0.134514,-0.202166 0.25,-0.250001c0.163322,-0.06765 0.401459,-0.339266 0.750004,-0.625003c0.410126,-0.336224 0.836678,-0.557352 1,-0.625002c0.115486,-0.047835 0.375008,0 0.375008,0.125c0,0.250001 -0.500008,0.750003 -1.000008,1.250005c-0.625,0.625003 -0.977974,1.060786 -1.250004,1.125005c-0.121655,0.028719 -0.25,0 -0.375004,0c-0.125,0 -0.081726,-0.088181 0.125004,-0.375002c0.326866,-0.453499 0.586567,-0.898254 0.75,-1.125004c0.20673,-0.286819 0.574253,-0.564128 0.875004,-0.750003c0.33625,-0.207814 0.5,-0.250001 0.625,-0.250001c0.250008,0 0.767738,0.095179 1.625008,0.625002c1.150154,0.710835 2.128265,1.398502 2.500015,2.000008c0.207817,0.33625 0.338387,0.661615 0.25,0.750004c-0.088387,0.088388 -0.622009,-0.255283 -1.500008,-0.750004c-1.121223,-0.631769 -1.682358,-1.086683 -1.750008,-1.250005c-0.047836,-0.115485 0.077164,0.009515 0.125,0.125001c0.1353,0.326641 0.968353,0.796421 1.500008,1.125004c0.475525,0.293894 0.769028,0.404333 1,0.500002c0.326645,0.1353 0.73484,0.234837 1.000008,0.500002c0.265167,0.265167 0.2397,0.423361 0.375,0.750004c0.095673,0.230972 0.125,0.250002 0.125,0.375002c0,0.125 0,0.25 0,0.375002c0,0 0,0.25 0,0.25c-0.25,0 -0.411613,0.088388 -0.5,0c-0.176773,-0.176777 0,-0.625002 0,-1.000004c0,-0.625002 -0.161613,-0.786615 -0.25,-0.875004c-0.088387,-0.088388 0.036224,-0.255363 0,-0.375002c-0.130608,-0.431356 -0.375,-0.625 -0.750008,-1.000004c-0.125,-0.125 -0.25,-0.375001 -0.25,-0.875003c0,-0.500002 -0.052849,-1.05601 -0.25,-1.375006c-0.14695,-0.237764 -0.25,-0.250001 -0.25,-0.250001c-0.375,0 -0.413322,0.057351 -0.25,0.125001c0.461937,0.191342 0.628746,-0.061092 1.125008,0c1.023056,0.125944 2.231232,0.462719 2.875008,1.000004c0.479843,0.400469 0.589874,1.163781 1.000008,1.500007c0.348541,0.285734 0.435783,0.352968 0.5,0.625002c0.086159,0.364971 -0.047836,0.759518 0,0.875004c0.06765,0.163321 0.134888,-0.010736 0,-0.125002c-0.820473,-0.695047 -2.132591,-1.612787 -3.750015,-2.62501c-1.381561,-0.864615 -1.750008,-0.875004 -1.750008,-0.875004c0,0.375002 0.230827,0.760547 0.375,1.000004c0.554642,0.921211 1.49073,1.437201 2.125008,1.500006c0.12439,0.012318 0.501701,0.041241 1.000008,0c0.757751,-0.062714 1,-0.125 0.75,-0.125c-1.375008,0 -3.260704,-0.334038 -5.250023,-0.875004c-2.13739,-0.581233 -4.888435,-1.703424 -8.000031,-2.62501c-2.009121,-0.595057 -2.625732,-0.851702 -3.000011,-0.875004c-1.00584,-0.062621 -1.625004,-0.250001 -2.500008,-0.250001c-0.500004,0 -0.875004,0 -1.125004,0.125c-0.250004,0.125001 -0.400856,0.476584 -0.625004,0.750003c-0.285736,0.348542 -0.452129,0.843389 -0.625004,1.375006c-0.235134,0.723078 -0.374977,1.449622 -0.625,2.25001c-0.263546,0.843683 -0.436687,1.484825 -0.500004,1.875008c-0.020023,0.123386 0.053165,-0.251888 0,-1.000004c-0.062656,-0.881664 -0.500004,-1.625008 -0.500004,-2.50001c0,-0.500002 0.25,-0.875004 0,-0.875004c-0.25,0 -0.182472,0.730296 -0.5,1.750007c-0.306461,0.984169 -0.25,2.000008 -0.25,2.750011c0,0.125 0.225533,0.23979 0.125,-0.250002c-0.19141,-0.932533 -1.09399,-1.948994 -1.875008,-3.500013c-0.42815,-0.850262 -0.286613,-1.411616 -0.375004,-1.500006c-0.088387,-0.088388 -0.125,0.125001 -0.125,1.000004c0,1.125005 0,2.50001 0,3.625015c0,0.750002 0,1.000004 0,0.750002c0,-0.875004 0.014778,-1.753391 -0.25,-2.875011c-0.236824,-1.003206 -0.6665,-2.028678 -0.875004,-2.50001c-0.182331,-0.412168 -0.25,-0.500002 -0.25,-0.375002c0,0.125001 0.082481,0.878411 0,1.875008c-0.062714,0.757757 -0.25,1.500006 -0.125,1.500006c0.125,0 0,-0.500002 0,-1.000004c0,-0.750003 -0.187027,-1.363478 -0.25,-1.875007c-0.045818,-0.372192 -0.125004,-0.625003 -0.125004,-0.750004c0,-0.250001 0,-0.500002 0,-0.625002c0,-0.250001 -0.040047,-0.37823 0,-0.625003c0.06332,-0.390182 0.125004,-0.625002 0.125004,-1.000004c0,-0.125 -0.176777,-0.198224 0,-0.375002c0.088387,-0.088388 0.136929,0.122169 0.25,0.625003c0.139832,0.621852 0.312195,1.49073 0.375,2.125009c0.073902,0.746353 -0.114876,1.26338 0,1.750007c0.064217,0.272032 0.125,0.500002 0.125,0.625003c0,0.250001 0,0.625002 0,1.125004c0,0.250002 0.185783,0.47797 0.250004,0.750004c0.028721,0.121656 0.125,0.25 0.125,0.500002c0,0.25 0.062027,0.738476 0.125,1.250006c0.061092,0.496256 0.062027,0.988478 0.125,1.500006c0.061092,0.496256 0.061684,1.109823 0.125,1.500006c0.040047,0.246773 0,0.375002 0,0.500002c0,0.25 0,0.625002 -0.125,1.250004c-0.125,0.625004 -0.43235,1.086683 -0.500004,1.250006c-0.047836,0.115484 0.030544,0.248129 0,0c-0.062973,-0.511528 -0.5,-1.250006 -0.75,-2.000008c-0.250004,-0.750004 -0.316723,-1.512081 -0.500004,-2.25001c-0.095284,-0.383631 -0.125,-0.625002 -0.125,-0.750002c0,-0.250002 0,-0.500002 0,-0.750004c0,-0.25 -0.06007,-0.504845 0,-0.875004c0.063316,-0.390182 0.084953,-0.753229 0.125,-1.000004c0.063316,-0.390182 0.125,-0.750002 0.125,-1.000004c0,-0.125 0,-0.375002 0,-0.250001c0,0.125001 0,0.625003 0,1.250005c0,0.750004 0,1.625008 0,2.25001c0,0.750002 0,1.125004 0,1.625006c0,0.375002 0,0.625004 0,0.875004c0,0.375002 0,0.750004 0,1.250006c0,0.500002 0,0.625002 0,1.000004c0,0.125 -0.036224,0.505365 0,0.625002c0.130608,0.431358 0.310787,0.60297 0.375004,0.875004c0.057438,0.243313 0.125,0.625002 0.125,0.750002c0,0.375002 0,0.625004 0,0.750004c0,0.250002 0,0.500002 0,0.875004c0,0.25 0,0.625002 0,1.000004c0,0.250002 0,0.625002 0,0.875004c0,0.25 -0.375,0.625002 -0.25,0.625002c0.125,0 0.186684,-0.484821 0.25,-0.875004c0.060066,-0.370157 0.375,-1.000002 0.875004,-1.750006c0.5,-0.750002 1.048542,-1.791258 1.750008,-3.000013c0.678646,-1.169432 1.375004,-2.500008 2.000008,-3.625013c0.625,-1.125004 1.21664,-2.165781 2.125008,-2.875011c0.660934,-0.516041 1.238476,-0.687033 1.750008,-0.750004c0.248127,-0.030546 0.5,-0.125 0.75,-0.25l0.250004,0l0.125,-0.125002l0.125,0" id="svg_12" fill-opacity="null" stroke-opacity="null" stroke-width="3" stroke="#000000" fill="none"/>
  <path d="m64.062515,14.77965c0,0.125001 -0.216202,0.778608 -0.750004,1.375006c-0.353691,0.395164 -1.000004,0.625002 -1.625008,0.625002c-1.000004,0 -2.255238,0.036428 -3.250011,-0.125c-0.62915,-0.102097 -0.786617,-0.213388 -0.875004,-0.125c-0.088387,0.088388 -0.052261,0.339054 0.750004,0.750002c0.950554,0.486906 2.118347,0.562346 3.000011,0.625004c0.374058,0.026583 0.500004,0 0.625004,-0.250002c0.125,-0.25 0.25,-0.375002 0.25,-0.375002c-0.125,0 -0.41375,-0.082813 -0.750004,0.125002c-0.451126,0.278811 -0.836685,0.557352 -1.000004,0.625002c-0.115486,0.047836 -0.10297,0.185781 -0.375,0.25c-0.121655,0.028719 -0.221287,0.128345 -0.250004,0.250002c-0.064217,0.272034 -0.185783,0.35297 -0.25,0.625002c-0.028721,0.121658 0,0.250002 0,0.375002c0,0.125 0.026459,0.285738 0.375004,0c0.136707,-0.112074 0.310783,-0.227968 0.375,-0.500002c0.057438,-0.243313 0.125,-0.25 0.125,-0.375002c0,-0.125 0.032063,-0.224625 0.125,-0.375002c0.207813,-0.33625 0.375004,-0.625002 0.625004,-0.875002c0.125,-0.125002 0.482906,-0.393353 0.750004,-0.625004c0.47216,-0.4095 0.637238,-0.603056 0.875004,-0.750002c0.106331,-0.065716 0.5,-0.250001 1.000004,-0.500003c0.5,-0.25 0.88504,-0.547053 1.375008,-0.750003c0.461937,-0.191339 1.125,0 1.75,0c0.875008,0 1.264801,-0.058982 1.375008,0c0.397369,0.212665 0.523788,0.610191 0.750008,1.000004c0.140297,0.241751 0.125,0.500002 0.125,0.875004c0,0.125 0.028717,0.128344 0,0.250002c-0.064217,0.272032 -0.18235,0.336679 -0.25,0.500002c-0.047836,0.115484 -0.086685,0.30735 -0.250008,0.375c-0.115486,0.047836 -0.25,0 -0.25,0.125002c0,0.125 -0.125,0.125 -0.125,0.25c0,0.125 0,0.125 0.25,0.125c0.25,0 0.543282,-0.213182 0.750008,-0.500002c0.326866,-0.453501 0.375,-1.000004 0.375,-1.500006c0,-0.375001 -0.602448,-1.042443 -1.750008,-1.625006c-1.595871,-0.810151 -3.119461,-1.267088 -4.250015,-1.625007c-1.244183,-0.393893 -3.079136,-1.030083 -5.375023,-1.625007c-1.969803,-0.510427 -3.000011,-0.500002 -3.375015,-0.500002c-0.125,0 -0.625,0 -1.125004,0c-0.5,0 -0.875004,0 -1.000004,0c0,0 -0.146637,0.018409 -0.25,-0.125c-0.326862,-0.4535 -0.223728,-0.759809 -0.375,-1.125005c-0.106964,-0.258234 -0.250004,-0.375002 -0.250004,-0.375002c0,-0.125 0.088387,-0.286613 0,-0.375001c-0.088387,-0.088388 -0.125,-0.250001 -0.125,-0.375002c0,-0.250001 0,-0.375001 0,-0.625002c0,-0.125 0.047836,-0.134516 0,-0.250001c-0.06765,-0.163321 -0.125,-0.250001 -0.125,-0.375001c0,0 0.047836,-0.134516 0,-0.250001c-0.06765,-0.163321 -0.125,-0.250001 -0.125,-0.250001c0,-0.125 -0.18235,-0.413321 -0.25,-0.250001c-0.095673,0.230971 -0.061684,0.35982 -0.125004,0.750003c-0.080093,0.493545 -0.277069,1.267188 -0.5,2.250009c-0.174881,0.770988 -0.395054,1.495417 -0.500004,2.000009c-0.154831,0.744417 -0.231495,1.40355 -0.375,1.750007c-0.06765,0.163321 -0.125,0.250001 -0.125,0.375002c0,0.125 0,0.625002 0,0.750003c0,0.500002 0,0.750003 0,0.875003l0,0" id="svg_14" fill-opacity="null" stroke-opacity="null" stroke-width="3" stroke="#000000" fill="none"/>
  <path d="m46.062443,42.904762c0.125,0 0.259174,0.008545 0.375,-0.125c0.409504,-0.472164 0.875004,-1.000004 1.125008,-1.500008c0.25,-0.5 0.13451,-0.827168 0.25,-0.875004c0.163322,-0.06765 -0.046417,0.343349 -0.375,0.875004c-0.14695,0.237766 -0.3694,0.443649 -0.500004,0.875004c-0.036224,0.119637 -0.052357,0.302361 -0.25,0.500004c-0.197643,0.197643 -0.375004,0.375 -0.375004,0.5c0,0.125 -0.086681,0.307354 -0.25,0.375004c-0.115486,0.047836 -0.036613,0.161613 -0.125,0.25c-0.088387,0.088387 -0.10297,0.185783 -0.375,0.25c-0.121658,0.028721 -0.250004,0.25 -0.250004,0.25c-0.125,0.125004 0.05151,0.128933 0.500004,-0.125c0.153831,-0.087097 0.251873,-0.219456 0.5,-0.25c0.511532,-0.062973 1.07468,0.137867 1.500008,-0.125c0.237762,-0.146946 0.508251,-0.484711 0.750004,-0.625004c0.389809,-0.226215 0.756687,-0.317562 1.000004,-0.375c0.27203,-0.064217 0.750004,-0.125 1.500004,-0.125c0.750004,0 1.255173,0.019096 1.750008,-0.125c0.759045,-0.221035 1.999458,-0.380634 3.250015,-0.500004c1.374428,-0.131191 2.500008,-0.125 3.625011,-0.125c1.125008,0 2.125011,0 2.625011,0c0.125,0 0.311684,-0.015179 0.375,0.375c0.06007,0.370163 0.176949,0.919376 0,1.250008c-0.212662,0.397366 -1.375004,0.5 -2.375008,0.5c-0.875004,0 -1.286617,0.088387 -1.375004,0c-0.088387,-0.088387 0.125,-0.25 0.875,-0.375c0.750004,-0.125 1.125008,-0.25 1.500008,-0.25c0.125,0 0.375,0 0.625004,0c0.75,0 0.984821,-0.061684 1.375004,-0.125004c0.123386,-0.020023 0.500004,0 0.750004,0c0.125,0 0.242958,0.148548 0.625,0.250004c0.616035,0.163597 1.000008,0.125 1.125008,0.25c0,0 0.25,0 0.75,0c0.375,0 0.625008,0 0.750008,-0.125c0,0 0.036613,-0.036613 0.125,-0.125c0.088387,-0.088387 0.377113,-0.112926 1.125,-0.250004c0.626938,-0.11491 1.23848,-0.437027 1.750008,-0.5c0.248123,-0.030544 0.25,-0.125 0.25,-0.25l0,-0.250004" id="svg_15" fill-opacity="null" stroke-opacity="null" stroke-width="3" stroke="#000000" fill="none"/>
  <path d="m44.224762,37.524799c-0.0625,0.0625 -0.0625,0.25 -0.0625,0.499996c0,0.1875 0.0625,0.25 0.0625,0.3125c0,0.0625 0,0.125 0,0.1875c0,0 -0.013134,0.067402 0.0625,0.249996c0.053482,0.129116 0.1875,0.25 0.1875,0.25c0,0.125 0,0.25 0,0.499996c0,0.125 0,0.3125 0,0.5c0,0.124996 0,0.187496 0,0.374996c0,0.25 0,0.375 0,0.375l0,0.062496l0,0.0625l0.125,0" id="svg_20" fill-opacity="null" stroke-opacity="null" stroke-width="3" stroke="#000000" fill="none"/>
  <path d="m61.84967,44.462261c0,0.0625 0.062965,0.043819 0.437496,0.0625c0.627335,0.031288 0.999996,0.1875 1.249992,0.1875c0.0625,0 0.1875,0 0.3125,0c0.187496,0 0.313305,0.01001 0.374996,0c0.195091,-0.031658 0.315842,-0.033779 0.4375,-0.0625c0.272034,-0.064217 0.4375,-0.125 0.624992,-0.125c0.3125,0 0.625,0 0.9375,0c0.25,0 0.563705,0.024635 0.812492,0c0.317139,-0.031403 0.692329,-0.055653 1.187492,-0.125c0.450607,-0.063107 0.815086,-0.115448 1.0625,-0.187496c0.189758,-0.05526 0.511055,-0.021572 0.812492,-0.125c0.132187,-0.045357 0.1875,-0.0625 0.3125,-0.0625c0.0625,0 0.3125,-0.0625 0.624992,-0.0625c0.1875,0 0.1875,0 0.25,0c0.1875,0 0.5,0 0.9375,0c0.312492,0 0.499992,0.0625 0.624992,0.0625c0.0625,0 0.0625,0.0625 0.1875,0.0625c0.0625,0 0.125,0 0.125,-0.0625l0,-0.125l0,-0.0625" id="svg_21" fill-opacity="null" stroke-opacity="null" stroke-width="3" stroke="#000000" fill="none"/>
  <path d="m75.162102,16.96241c0,0.0625 0.031013,0.244236 0.062492,0.499996c0.038177,0.310158 0,0.687496 0,0.999996c0,0.312498 0,0.562496 0,0.812494c0,0.25 -0.043076,0.442514 0,0.624998c0.032112,0.136013 0.005058,0.381685 0.0625,0.624996c0.064217,0.27203 0.218338,0.429907 0.25,0.624996c0.030037,0.18508 0.155838,0.367407 0.1875,0.562496c0.030037,0.18508 0.030388,0.363983 0.0625,0.499998c0.014359,0.060827 0,0.0625 0,0.1875c0,0.124998 0,0.249998 0,0.374996c0,0.0625 0,0.1875 0,0.25c0,0 0.023918,0.192255 0,0.249998c-0.033821,0.081659 -0.0625,0.249998 -0.125,0.249998l-0.3125,0.0625" id="svg_22" fill-opacity="null" stroke-opacity="null" stroke-width="3" stroke="#000000" fill="none"/>
  <path d="m70.599625,8.249956c0.0625,0 0.055489,-0.057394 -0.125,-0.312499c-0.130157,-0.183959 -0.293282,-0.449123 -0.375,-0.562497c-0.103363,-0.143408 -0.125,-0.187499 -0.1875,-0.249999c-0.0625,-0.0625 -0.1875,-0.124999 -0.1875,-0.249999c0,0 -0.075729,-0.044634 -0.249992,-0.187499c-0.136711,-0.112075 -0.303299,-0.260817 -0.375,-0.312498c-0.113373,-0.081716 -0.268669,-0.176316 -0.375,-0.374998c-0.029488,-0.055104 0,-0.0625 0,0c0,0.0625 -0.023918,0.129756 0,0.187499c0.033821,0.08166 0.125,0.0625 0.125,0.124999l0.1875,0.187499l0.0625,0.125" id="svg_23" fill-opacity="null" stroke-opacity="null" stroke-width="3" stroke="#000000" fill="none"/>
 </g>
</svg>