<svg version="1.1" id="Layer_1" xmlns="http://www.w3.org/2000/svg" xmlns:xlink="http://www.w3.org/1999/xlink" x="0px" y="0px"
	 width="100%" viewBox="0 0 1024 1024" enable-background="new 0 0 1024 1024" xml:space="preserve">
<path fill="#000000" opacity="1.000000" stroke="none" 
	d="
M621.000000,1025.000000 
	C481.645233,1025.000000 342.290466,1025.000000 202.605103,1024.787476 
	C203.399734,1019.918518 198.617935,1016.969543 198.868668,1012.414368 
	C199.055267,1009.024231 197.425293,1005.877686 195.146454,1003.349731 
	C189.956619,997.592651 188.228455,990.981445 189.715698,983.444702 
	C190.496017,979.490356 189.333984,976.233337 186.232666,973.636780 
	C183.298767,971.180481 180.642044,968.304993 177.446014,966.269104 
	C171.691391,962.603333 166.870148,957.979187 163.382996,952.292358 
	C158.200775,943.841125 150.044434,940.578979 141.213623,938.289246 
	C135.680634,936.854553 130.000656,936.948242 124.322197,937.602478 
	C118.011887,938.329529 111.690453,938.683655 105.455948,936.971008 
	C98.837242,935.152893 94.720123,929.715271 95.186981,922.879395 
	C95.606506,916.736633 96.358612,910.634644 98.185829,904.677795 
	C101.776924,892.970459 95.989334,882.534790 84.531654,878.068054 
	C76.132507,874.793640 68.907890,877.433105 61.485031,880.684937 
	C51.774033,884.939270 46.818745,884.043030 39.692467,876.196167 
	C33.155731,868.998535 28.343199,860.591736 24.058056,851.911743 
	C20.979568,845.675903 19.574066,844.969055 12.753937,846.150818 
	C9.478063,846.718445 6.074941,847.882263 2.842240,845.510071 
	C2.125172,847.257751 1.562581,848.628845 0.999995,850.000000 
	C1.000000,721.645264 1.000000,593.290466 1.213243,464.701904 
	C2.037413,465.267151 2.697206,466.323792 3.761327,466.112244 
	C8.552377,465.159607 12.078028,467.437256 15.525325,470.273956 
	C18.102432,472.394592 21.041603,472.321594 24.011003,471.024597 
	C31.031635,467.958191 38.086365,464.967285 45.064861,461.807922 
	C49.567455,459.769470 52.507240,456.312439 53.643894,451.404938 
	C54.509502,447.667633 55.748734,444.099396 57.567932,440.659821 
	C62.791378,430.783661 67.261139,420.612579 70.036865,409.695190 
	C71.508194,403.908173 73.887276,398.250946 77.969208,393.709351 
	C87.175110,383.466736 99.836754,379.550842 112.351761,375.457642 
	C113.432175,375.104279 114.692352,374.948700 115.808914,375.112122 
	C126.834908,376.725830 137.947205,377.960236 148.829117,380.271606 
	C155.710510,381.733246 162.476151,382.974335 169.524216,383.110901 
	C188.683182,383.482086 207.777512,381.326965 226.941071,381.832458 
	C230.727570,381.932343 234.575897,381.227295 238.334457,380.552399 
	C248.470230,378.732452 258.320312,375.501099 268.679169,374.706421 
	C273.356873,374.347534 278.016052,372.915619 281.790833,370.154602 
	C296.295624,359.545044 309.647858,347.962372 313.709442,329.129486 
	C315.200165,322.217163 317.535431,315.560852 323.401733,310.988098 
	C331.796204,304.444672 332.775604,295.047485 333.725037,285.507568 
	C335.621399,266.452698 337.304657,247.366119 339.746887,228.378937 
	C342.265167,208.800262 353.524902,193.701340 367.981659,181.540955 
	C382.361694,169.445099 400.077515,162.674347 417.489685,155.950378 
	C429.113037,151.461838 439.853088,145.590698 449.044342,137.301743 
	C453.952515,132.875427 459.037323,129.058060 465.060883,126.462982 
	C480.592957,119.771416 494.983124,111.249992 508.259796,100.701920 
	C514.458496,95.777206 520.846863,90.432991 529.357727,90.092506 
	C539.665955,89.680122 549.998108,89.217567 560.259888,91.108612 
	C567.464722,92.436325 574.733582,92.223869 581.253113,88.717514 
	C597.985718,79.718292 615.514282,72.391563 632.454041,63.851387 
	C638.841309,60.631237 645.483704,58.842091 652.467041,58.124882 
	C658.950745,57.458984 663.363403,60.853065 664.662964,67.284935 
	C665.288879,70.383102 665.291748,73.635849 666.157227,76.652031 
	C670.152039,90.573692 676.038330,103.039841 691.810913,107.017830 
	C697.160339,108.366997 702.668335,108.591545 708.159729,108.869392 
	C727.434082,109.844551 746.751465,109.359703 766.003357,111.628563 
	C777.083313,112.934349 788.096863,115.779045 799.178772,115.699722 
	C820.634521,115.546150 839.634277,122.892754 857.905640,132.814438 
	C864.300354,136.286896 870.156921,136.569443 876.409973,133.479889 
	C879.240234,132.081451 881.918152,130.377167 884.685913,128.849167 
	C894.256958,123.565338 903.918823,121.791077 914.143372,127.359329 
	C920.233337,130.675873 926.689148,130.774338 932.785522,127.228966 
	C938.134460,124.118279 943.922607,122.825905 949.940491,122.375420 
	C961.462585,121.512909 972.839661,122.797974 984.259705,124.401375 
	C994.913208,125.897156 1005.053406,130.317627 1016.066772,129.719818 
	C1019.017883,129.559616 1022.053833,129.032578 1025.000000,130.000000 
	C1025.000000,238.354767 1025.000000,346.709534 1024.686523,455.376526 
	C1021.663208,454.740448 1019.238342,453.286346 1017.091614,451.403046 
	C1013.957703,448.653809 1010.775513,447.049530 1006.854004,450.073425 
	C1004.979309,451.518982 1003.578247,450.732971 1002.338867,448.860046 
	C1001.168762,447.091949 1000.779785,445.229889 1000.727478,443.198242 
	C1000.612122,438.719879 999.615112,434.540558 995.453003,432.094727 
	C988.660095,428.102936 987.146118,421.343140 985.675476,414.454254 
	C985.155457,412.018097 984.330078,409.645630 983.613647,407.253204 
	C979.695435,394.169586 975.453796,381.193298 970.746887,368.369873 
	C970.061157,366.501770 969.115784,364.344696 971.637390,363.150665 
	C973.934021,362.063202 975.565552,363.612701 976.559143,365.401947 
	C977.925049,367.861481 979.046997,370.478638 980.050720,373.113129 
	C983.451782,382.040192 983.538818,382.064026 993.026062,382.003876 
	C996.929688,381.979187 999.047180,380.563019 998.730164,376.398895 
	C998.376099,371.748627 997.974060,367.097748 997.802612,362.439423 
	C997.695190,359.521820 996.358887,357.835266 993.688049,356.892151 
	C988.664001,355.118103 983.683777,353.220184 978.662415,351.438324 
	C976.721252,350.749481 974.646118,350.091370 974.511780,347.699890 
	C974.362183,345.038727 976.561829,344.108185 978.596741,343.288055 
	C982.549988,341.694794 986.765930,341.887238 990.908386,341.561676 
	C994.353943,341.290863 996.103455,339.699402 995.237732,335.955566 
	C993.925293,330.280396 992.695190,324.584778 991.528625,318.877716 
	C990.721130,314.927551 988.356873,312.534821 984.743652,310.895844 
	C977.254150,307.498596 969.302856,305.673828 961.425964,303.549469 
	C958.247375,302.692230 953.207458,303.308868 953.337280,298.677216 
	C953.455811,294.446869 958.396851,294.154724 961.644592,292.642914 
	C965.101929,291.033508 970.273560,293.623474 972.185242,289.791473 
	C973.774292,286.606415 973.141357,282.316284 973.507874,278.517120 
	C974.107727,272.299194 973.383728,271.509064 967.245300,271.310791 
	C958.737610,271.036011 950.279236,271.912109 941.799194,272.284271 
	C939.414124,272.388977 936.944336,272.307037 935.658386,269.881927 
	C934.257996,267.241089 935.718689,264.956482 937.343140,263.059265 
	C939.829163,260.155853 942.636719,257.530396 945.224060,254.710236 
	C947.448792,252.285431 946.232422,250.072128 944.503540,248.056946 
	C942.512207,245.735901 940.955505,247.577042 939.421692,248.768890 
	C937.975342,249.892761 936.668213,251.200378 935.192627,252.280807 
	C932.953308,253.920547 930.532471,256.670868 927.743530,255.073868 
	C925.118042,253.570404 925.608032,250.064758 925.778564,247.240097 
	C925.878052,245.591614 926.231140,243.946564 926.595032,242.328049 
	C927.985779,236.142654 930.009827,230.151459 932.213745,224.214722 
	C933.932129,219.586334 932.254639,216.028259 927.206909,214.216064 
	C922.990173,212.702255 922.707031,216.826706 921.585632,218.952820 
	C918.014282,225.724060 914.864197,232.716904 911.517700,239.607819 
	C910.688110,241.316162 909.582642,242.923141 907.363831,242.465286 
	C905.431519,242.066544 904.934937,240.407104 904.747314,238.649017 
	C904.429932,235.675797 903.969116,232.750900 904.446838,229.705963 
	C906.716797,215.237991 908.801758,200.740967 911.078308,186.274063 
	C911.583008,183.066788 912.114441,180.321167 907.764160,179.463516 
	C899.846741,177.902634 897.450195,178.640945 896.094604,183.510727 
	C891.808350,198.908279 887.521118,214.305557 883.245728,229.706100 
	C882.700867,231.668991 882.195801,233.868454 879.765564,234.012512 
	C877.033447,234.174484 877.128540,231.703613 876.428711,229.858429 
	C873.441528,221.982742 875.441956,213.608353 873.831970,205.609390 
	C873.300781,202.969940 874.070862,198.915878 870.365234,198.888611 
	C866.973511,198.863647 867.046204,202.848923 866.358704,205.506897 
	C866.235291,205.984329 866.272705,206.501556 866.214233,206.997833 
	C865.313354,214.646210 862.278137,221.782211 860.834106,229.306931 
	C860.514526,230.972366 859.307983,232.393616 857.373413,232.434250 
	C855.415039,232.475357 854.323486,231.038986 853.855469,229.393784 
	C853.268372,227.329788 852.941162,225.175415 852.678711,223.038315 
	C851.279968,211.648346 850.832153,200.134003 848.069397,188.923492 
	C847.082214,184.917877 845.160339,182.807495 840.610413,183.862350 
	C834.606567,185.254288 832.850464,186.701782 833.581787,191.469376 
	C835.252014,202.357727 834.684814,213.406982 836.173157,224.300949 
	C836.397522,225.943420 836.373657,227.636948 835.625549,229.208099 
	C834.736755,231.074722 833.599854,232.811066 831.377319,233.041779 
	C829.033875,233.285034 827.622864,231.612030 826.837646,229.752762 
	C825.875793,227.475204 825.254272,225.035309 824.666870,222.621475 
	C822.271667,212.778534 816.987854,204.624802 810.036560,197.450684 
	C808.182434,195.537125 805.835815,194.204941 803.371399,196.000977 
	C800.753967,197.908493 800.572449,200.821625 801.768311,203.671524 
	C802.268433,204.863495 803.231934,205.890396 804.097900,206.894852 
	C811.148315,215.072433 816.842529,223.858841 818.682129,234.853668 
	C819.291992,238.498947 821.220947,241.824203 824.404541,244.515167 
	C828.833740,248.259018 832.917908,252.514069 836.632385,256.980560 
	C846.207397,268.494080 844.313477,280.466461 831.933655,288.500549 
	C830.258667,289.587616 828.539551,290.619690 826.776611,291.556366 
	C815.837952,297.368225 804.470520,302.010071 792.204163,304.220337 
	C790.283447,304.566437 787.870544,304.753784 787.637207,307.302704 
	C787.402710,309.865448 788.158752,312.415894 790.561890,313.789093 
	C795.176453,316.425903 800.001099,318.166016 805.231445,315.356903 
	C809.924500,312.836365 814.598389,310.279816 819.271484,307.722382 
	C821.425781,306.543427 823.856506,305.540558 825.617249,307.796326 
	C827.676086,310.433899 825.682861,312.555054 823.631104,314.095459 
	C819.093384,317.502197 814.132935,320.252747 809.061707,322.781586 
	C799.914795,327.342926 790.200623,330.229462 780.299561,332.640656 
	C775.637512,333.776031 772.620667,340.424683 774.439697,344.714386 
	C775.693970,347.672028 779.850159,348.353760 784.641785,346.309021 
	C785.854675,345.791473 787.126038,345.221649 788.097839,344.366119 
	C790.548706,342.208344 793.429199,340.933044 796.475952,340.050507 
	C805.934692,337.310730 815.379272,334.585907 822.914917,327.724091 
	C823.394287,327.287567 824.038757,327.009827 824.641907,326.736328 
	C826.109192,326.070953 827.618103,325.902710 828.772217,327.235840 
	C830.060608,328.724060 829.854675,330.466095 828.617676,331.782104 
	C827.033264,333.467621 825.275940,335.046753 823.388306,336.382202 
	C808.881226,346.645386 794.100647,356.425110 777.457214,363.046783 
	C772.017090,365.211182 771.332703,367.516632 773.328003,372.819000 
	C775.127258,377.600586 778.566895,376.501465 782.016235,375.444397 
	C791.972168,372.393250 800.766052,366.839142 810.070923,362.384003 
	C811.558350,361.671814 813.110168,361.055084 814.689026,360.584961 
	C815.991760,360.197113 817.391174,360.210297 818.365601,361.405945 
	C819.429443,362.711304 818.461182,363.825989 817.997620,365.074890 
	C815.803650,370.986877 811.350220,374.622864 806.285339,378.080444 
	C788.931030,389.927551 776.360718,406.370270 764.315063,423.188171 
	C760.971252,427.856689 761.556091,432.233521 764.886475,434.333130 
	C769.493042,437.237274 771.521667,433.235565 773.796448,430.594421 
	C781.620300,421.510376 788.875122,411.875336 799.005615,405.084564 
	C801.519226,403.399597 804.385437,399.951569 807.232300,403.087158 
	C810.308777,406.475616 806.147034,408.652130 804.118530,410.715698 
	C789.127869,425.965424 778.350037,443.720551 771.877747,464.105560 
	C770.956909,467.005798 771.120178,469.618774 772.843506,472.190704 
	C774.411743,474.531006 775.998230,474.953552 778.026917,472.768555 
	C780.406433,470.205719 782.710999,467.551147 785.288574,465.199951 
	C788.359802,462.398560 791.610779,459.776581 794.935242,457.278290 
	C796.501465,456.101288 798.587891,454.868683 800.352112,456.707031 
	C801.977417,458.400604 800.405212,460.100189 799.511719,461.650726 
	C799.181335,462.223938 798.787720,462.783386 798.326782,463.255157 
	C792.040527,469.689240 785.739624,476.099670 779.743225,482.819885 
	C776.285522,486.695160 773.006226,486.217285 769.800049,481.921356 
	C765.441772,476.081512 760.453247,470.382050 763.361206,462.135559 
	C763.418091,461.974243 762.985535,461.640350 762.776978,461.385620 
	C761.596069,460.947327 760.464355,461.230743 759.377136,461.679382 
	C749.805054,465.629242 740.129883,469.055908 729.623657,469.689728 
	C725.984375,469.909241 722.902954,472.194916 723.799622,476.248413 
	C724.683960,480.245667 728.278442,480.191071 731.568481,479.251282 
	C738.933960,477.147369 746.228760,474.783783 753.634705,472.839569 
	C756.200195,472.166046 759.946960,470.481781 761.375977,473.595947 
	C762.911255,476.941559 758.903992,478.239044 756.704651,479.606628 
	C745.919800,486.312744 734.642334,492.055511 722.293213,495.328064 
	C718.219727,496.407593 717.120422,498.569855 717.737000,502.642395 
	C718.462158,507.432190 721.150940,508.669861 725.412537,508.258240 
	C732.319885,507.590973 738.520203,504.546021 745.031799,502.542664 
	C747.723633,501.714569 751.063599,500.498291 752.651062,503.715179 
	C754.355957,507.169983 750.942200,508.731201 748.624146,510.125977 
	C742.111816,514.044495 734.926941,516.258057 727.432922,517.153503 
	C721.610046,517.849243 716.082825,516.727600 711.913696,512.072815 
	C710.187866,510.145935 707.911743,509.625000 705.609436,509.508240 
	C700.909851,509.269897 696.387268,508.219543 691.855347,507.109436 
	C689.643250,506.567535 687.160889,505.352234 685.516418,507.970306 
	C684.035645,510.327667 683.763794,513.081299 684.850586,515.657593 
	C686.040161,518.477783 688.634216,519.772888 691.440857,520.568176 
	C694.695679,521.490417 698.032043,521.178528 701.361755,521.253235 
	C704.424927,521.321838 708.156433,522.160828 706.639648,526.365234 
	C705.278625,530.137817 706.546753,531.778687 709.372864,533.692200 
	C711.827454,535.354065 714.231018,537.333618 716.053650,539.647949 
	C730.107239,557.493225 736.015198,577.462769 730.639343,599.955017 
	C727.828613,611.714844 723.975037,622.933044 713.052429,630.272156 
	C702.021912,637.683655 689.872192,641.851685 677.003174,644.287903 
	C663.159668,646.908569 649.200806,646.918274 635.190430,646.004089 
	C631.089417,645.736511 626.601074,645.079895 623.102173,647.852600 
	C617.623047,652.194519 612.362732,656.850525 608.466125,662.782166 
	C607.282227,664.584351 605.692078,666.356140 605.857544,668.618286 
	C606.183960,673.082275 604.150269,676.660828 602.073914,680.291138 
	C598.588257,686.385437 594.401611,691.983398 590.098877,697.510681 
	C588.276367,699.851868 586.741821,702.864319 589.501404,705.055359 
	C592.522278,707.453979 594.713989,704.626770 596.421753,702.351074 
	C601.621643,695.422241 606.576721,688.305420 611.908020,681.481262 
	C614.448975,678.228882 617.482788,675.536743 618.697571,671.247620 
	C619.552429,668.229492 620.311768,663.099670 625.091553,664.838257 
	C629.515503,666.447510 626.688599,670.631958 625.921997,673.592590 
	C619.905457,696.827881 610.763245,719.086487 604.363708,742.204102 
	C602.233398,749.899536 600.161804,757.619568 598.396973,765.403992 
	C597.640991,768.738464 598.706238,771.853760 602.448608,772.972717 
	C606.567810,774.204285 607.633606,771.011780 608.653687,768.160034 
	C611.738525,759.535583 614.627991,750.840515 617.776917,742.239990 
	C621.613342,731.761780 625.606384,721.340332 629.597900,710.919739 
	C630.676147,708.104919 632.432434,705.970459 635.890808,706.288818 
	C639.432129,706.614990 641.680664,708.272705 642.468689,711.975159 
	C643.098572,714.934326 643.339050,717.892883 643.523438,720.887024 
	C644.076050,729.857239 644.623840,738.828491 645.297058,747.790100 
	C645.607727,751.926453 648.292297,753.649536 653.600891,753.465271 
	C657.738647,753.321594 657.683105,750.331482 657.725342,747.410950 
	C657.747009,745.911377 657.801331,744.408691 657.735474,742.911987 
	C657.201721,730.776489 655.230042,718.722595 655.703125,706.527222 
	C655.800476,704.016724 655.494507,701.282837 657.470337,699.457397 
	C659.950928,697.165405 659.883423,694.518311 659.392517,691.657349 
	C658.684265,687.530701 658.348633,683.372009 658.795471,679.213806 
	C659.030090,677.030945 659.736084,674.714539 662.534119,674.697754 
	C665.199890,674.681763 665.606689,676.967285 665.844849,678.947632 
	C666.241943,682.248962 666.158142,685.618774 666.696228,688.890808 
	C669.561157,706.313904 675.745605,722.606934 683.859741,738.211060 
	C684.655823,739.742065 685.036804,741.797791 687.872864,742.044678 
	C689.560730,739.366943 688.790100,736.419373 688.211853,733.624390 
	C685.648926,721.235840 682.989929,708.866943 680.310303,696.502930 
	C679.349609,692.070374 678.990723,687.641479 679.662903,683.134766 
	C679.863647,681.789124 679.883545,680.323181 681.375061,679.805420 
	C683.059204,679.220764 684.416443,680.223511 685.164734,681.531311 
	C686.897461,684.559753 688.544556,687.658630 689.943665,690.852844 
	C696.315857,705.400146 703.875793,719.259705 713.418457,731.989990 
	C714.810303,733.846741 716.102112,735.836853 718.319397,736.879822 
	C720.369995,737.844177 722.483887,738.396057 724.428528,736.802490 
	C726.195068,735.354919 725.433167,733.518066 724.921692,731.729919 
	C722.897949,724.654419 719.812195,718.004700 716.889954,711.281921 
	C714.102478,704.868958 711.445007,698.398193 708.825012,691.914551 
	C708.200500,690.369141 707.773132,688.488342 709.436707,687.337097 
	C711.224121,686.100220 712.879822,687.022583 714.405701,688.266418 
	C715.633606,689.267517 716.198303,691.151855 718.176331,691.233093 
	C719.442322,689.678467 719.521729,687.855469 719.717957,686.033264 
	C720.204773,681.513550 721.640442,677.262939 723.614685,673.190491 
	C724.521606,671.319763 725.733276,669.408630 728.117188,670.176575 
	C730.664185,670.997131 730.174988,673.214417 729.601135,675.226013 
	C729.372681,676.026978 729.185059,676.840820 728.928711,677.632507 
	C725.623840,687.837097 725.894104,698.339783 726.611755,708.814758 
	C727.020935,714.787964 729.993652,719.926086 733.283691,724.933533 
	C733.833557,721.848328 733.899841,718.880066 733.822144,715.915466 
	C733.479614,702.855042 735.098633,690.002075 737.854370,677.269165 
	C738.590332,673.868713 740.128967,671.507507 744.242371,671.696960 
	C748.219910,671.880188 749.290466,674.205872 749.516296,677.574158 
	C750.106018,686.372925 750.747070,695.168335 751.349121,703.966309 
	C752.020325,713.775940 752.895447,723.551514 755.888733,732.997864 
	C756.651733,735.405945 757.597717,737.722229 759.552979,739.427856 
	C760.972473,740.666077 762.622498,741.669617 764.546631,740.881897 
	C766.338379,740.148499 766.715759,738.324219 766.596497,736.658386 
	C766.228149,731.516907 765.798096,726.373047 765.158386,721.259277 
	C763.651611,709.213989 760.663391,697.351562 760.674622,685.120728 
	C760.677124,682.393005 760.890808,679.469727 764.167480,678.704041 
	C767.603027,677.901306 769.439697,680.310364 770.586426,683.041443 
	C777.937561,700.549744 781.927429,719.165344 788.598145,736.729858 
	C785.430542,739.980469 782.714050,738.270264 779.497314,736.005188 
	C781.117676,740.196838 782.436646,743.485535 786.789124,743.590088 
	C792.276123,743.721924 797.948608,744.329407 802.344543,739.345215 
	C799.471497,736.899719 795.447327,736.756287 795.018738,732.068176 
	C794.080200,721.801147 792.739258,711.553223 791.096558,701.372681 
	C788.812744,687.218994 790.820862,673.308472 792.764709,659.367859 
	C793.015259,657.570862 793.534851,655.763184 794.239807,654.091187 
	C794.959595,652.384216 796.130859,650.631592 798.330017,651.196045 
	C800.339172,651.711731 800.321716,653.672974 800.205261,655.348816 
	C799.997742,658.335754 799.413391,661.313538 799.413086,664.295105 
	C799.411072,682.791199 803.100586,700.668579 808.735413,718.197693 
	C810.819885,724.682373 813.123474,731.102417 814.994385,737.647034 
	C815.682190,740.053528 814.270203,743.567200 817.656494,744.406616 
	C820.989624,745.232910 824.645264,745.197876 827.450378,740.982361 
	C819.268127,736.991089 819.223328,729.354370 818.043884,721.727661 
	C814.966736,701.829224 810.706909,682.099670 811.333435,661.789917 
	C811.445740,658.147583 810.901062,654.399109 813.131897,651.180115 
	C814.097961,649.786133 815.512878,648.656189 817.391052,649.499939 
	C819.015015,650.229431 819.255920,651.752930 818.930359,653.335999 
	C818.453857,655.652710 818.458801,657.906067 818.939392,660.258301 
	C823.714050,683.632446 829.862122,706.607910 838.617065,728.836243 
	C841.335815,735.739014 841.363708,735.728027 834.158020,738.576843 
	C831.453247,737.618286 831.492126,734.077026 828.905212,732.845764 
	C828.067993,734.249512 827.560547,735.586243 827.771790,737.156555 
	C828.683044,737.873230 829.869812,735.756165 830.678345,737.520386 
	C832.303040,741.065491 835.497803,741.830627 839.002930,742.800720 
	C849.929138,745.824585 855.412964,742.115173 856.095581,730.638367 
	C846.936401,729.713379 845.762451,728.614075 844.066650,719.298462 
	C841.675415,706.162659 840.746216,692.859558 839.942627,679.570190 
	C839.491516,672.109192 839.766235,664.575195 840.213013,657.103943 
	C840.381409,654.287781 841.214050,650.866150 845.276733,650.751648 
	C849.259277,650.639404 849.514221,653.985291 850.154236,656.620728 
	C852.982666,668.266541 855.549438,679.976624 858.435364,691.607727 
	C861.238831,702.906067 862.653076,714.571777 866.889771,725.484741 
	C869.849304,733.107971 869.216736,734.220398 861.222168,733.439819 
	C861.105408,733.428467 860.939453,733.921082 860.972839,733.861023 
	C863.893982,739.716003 870.387329,731.491943 873.282349,737.408142 
	C876.846680,734.301331 883.192871,736.052429 884.984070,730.749695 
	C886.517883,726.208740 885.652283,721.406921 885.470032,716.865295 
	C882.340271,716.343994 882.590332,719.678650 880.367249,720.176086 
	C880.057556,717.277344 880.322205,714.503906 876.805237,713.573547 
	C875.455505,713.216431 875.108154,711.208679 874.844971,709.715942 
	C870.813232,686.846497 868.063477,663.896790 870.800232,640.635376 
	C871.206604,637.181274 872.165588,633.420532 876.540466,633.960327 
	C880.991638,634.509521 881.481079,638.352173 880.974121,642.088196 
	C880.579468,644.996582 879.891296,647.864136 880.983704,650.816528 
	C882.101135,646.036072 882.934387,641.218018 883.707153,636.390259 
	C884.784363,629.660339 885.723389,622.906494 886.925476,616.199402 
	C887.277832,614.233521 888.288757,612.275085 890.863464,612.437622 
	C893.276062,612.589966 894.242004,614.495544 894.818481,616.420044 
	C895.745972,619.515991 895.359070,622.713257 894.871887,625.842957 
	C892.594116,640.475037 890.274414,655.100647 887.926270,669.721619 
	C887.606262,671.713867 886.771606,673.948914 889.327026,674.867493 
	C892.317749,675.942566 892.911255,673.215698 893.785889,671.357422 
	C899.248291,659.751709 904.840393,648.201172 910.003357,636.462402 
	C913.736389,627.974915 918.116150,619.627930 918.225464,609.956238 
	C918.304504,602.963989 918.428162,595.962463 918.875549,588.987061 
	C919.311523,582.188721 919.149719,575.324646 920.585388,568.615356 
	C920.985901,566.743713 921.967651,565.065857 924.199524,565.096985 
	C926.143799,565.124146 927.082153,566.673706 927.673767,568.261047 
	C928.915405,571.593018 929.119263,575.055542 928.814453,578.594971 
	C927.641968,592.209412 927.090027,605.851685 927.201416,619.517517 
	C927.210327,620.608215 926.844788,621.922058 928.719360,622.681946 
	C931.218567,618.097778 931.095215,612.849854 932.320740,607.992859 
	C934.658264,598.728943 935.555420,589.302917 934.072998,579.794617 
	C930.703247,558.181458 929.940735,536.384521 929.322632,514.574707 
	C929.269409,512.696838 929.332153,510.625336 931.560059,510.083649 
	C933.981445,509.494843 935.207275,511.291809 935.994690,513.230225 
	C937.842346,517.779053 938.378235,522.552185 938.292786,527.434448 
	C937.967896,545.982910 940.393066,564.305176 942.827698,582.630737 
	C943.384338,586.820190 944.347107,590.185059 949.709534,589.682129 
	C951.442566,589.519531 952.399109,590.903870 952.429321,592.628235 
	C952.458374,594.288879 951.334717,594.884277 949.850769,595.088745 
	C947.861755,595.362854 945.986328,595.956360 944.032776,597.563843 
	C947.455505,597.787781 950.018921,595.700806 953.063599,595.936035 
	C960.825867,596.535889 962.912048,594.600769 962.851379,586.777771 
	C962.784302,578.122681 962.511047,569.468567 962.250000,560.816345 
	C962.213562,559.608337 962.058899,558.514587 963.119507,557.649963 
	C965.196533,555.956604 972.742188,556.942444 974.840332,559.312195 
	C972.353088,561.516174 969.856812,563.728149 966.828918,566.411133 
	C970.994324,567.580505 971.201294,569.743958 970.468018,572.996643 
	C969.669800,576.537476 969.324524,580.201904 968.500000,583.783813 
	C967.211304,589.381958 969.156555,593.436157 973.759583,596.518311 
	C977.969727,599.337463 980.839783,603.493286 983.731750,607.553101 
	C984.982483,609.308960 984.134644,611.025574 983.200439,612.689819 
	C981.491211,615.734436 979.442383,618.631714 978.631165,622.099182 
	C978.137512,624.209534 977.483887,626.618225 979.770691,628.001587 
	C982.211853,629.478271 984.241821,627.859985 986.006897,626.282471 
	C989.131714,623.489624 988.866089,619.822266 988.614990,616.080750 
	C988.183105,609.646240 989.912170,607.938477 996.325928,608.240295 
	C997.633606,608.301758 998.917175,608.789246 1000.221375,609.027832 
	C1007.124268,610.290771 1013.464600,609.863464 1018.088501,603.528381 
	C1020.242981,600.576599 1022.687073,597.836182 1025.000000,595.000000 
	C1025.000000,651.688110 1025.000000,708.376221 1024.720459,765.308228 
	C1021.702881,763.104248 1018.425659,763.025696 1015.027954,763.359314 
	C1001.314087,764.705933 990.840942,758.943115 982.804504,748.287109 
	C979.307251,743.649963 975.806213,739.442139 969.474670,738.771790 
	C967.378967,738.549927 965.296814,737.608643 963.348938,736.696228 
	C957.864624,734.127136 952.946960,734.813904 948.697632,739.106323 
	C943.969604,743.882141 937.986023,746.405212 931.855896,748.553284 
	C924.386536,751.170715 917.495667,754.764771 911.246277,759.589355 
	C906.114258,763.551331 900.888489,767.413025 895.792175,771.389038 
	C884.011292,780.580139 870.442627,782.994202 856.278687,782.651306 
	C846.009277,782.402649 835.941345,783.200073 826.058350,785.538818 
	C811.701538,788.936218 801.455261,799.618469 789.482788,807.231079 
	C787.925781,808.221130 787.088196,810.109253 787.154175,812.026550 
	C787.376709,818.492798 784.012390,822.735840 778.709534,825.672119 
	C770.980286,829.951660 765.806152,836.575989 761.464539,843.995667 
	C759.185181,847.891052 756.708252,851.633423 753.616150,854.935120 
	C747.700989,861.251465 745.058777,868.692505 743.871521,877.329956 
	C742.602417,886.562561 742.434326,895.919556 740.584045,905.061157 
	C737.508240,920.258362 733.911133,935.275940 725.932129,948.858337 
	C721.509033,956.387634 718.553528,964.916199 709.698120,969.002014 
	C703.835938,971.706726 699.736206,976.524780 695.947510,981.747314 
	C693.482483,985.145264 691.934937,990.256775 687.271423,990.946594 
	C678.799988,992.199524 670.083130,993.265625 662.519714,987.343994 
	C658.066895,983.857544 652.849426,984.640503 648.735291,988.756042 
	C644.750427,992.742249 640.588379,996.761841 635.426025,999.122498 
	C630.213135,1001.506287 626.087524,1005.453613 622.933289,1009.587952 
	C619.837891,1013.645203 618.414062,1019.459473 621.000000,1025.000000 
M650.690491,241.378708 
	C642.871521,242.999771 634.973816,244.317398 627.253845,246.319916 
	C617.930115,248.738388 607.932983,250.280304 600.090271,255.941360 
	C580.969360,269.743195 557.825623,266.041656 542.912659,251.990128 
	C538.358093,247.698685 535.027832,242.576096 531.735352,237.345795 
	C528.077271,231.534668 523.896912,230.462875 517.657104,233.324478 
	C511.639984,236.083969 509.649719,241.585297 508.494690,247.396057 
	C506.938660,255.224075 505.952484,263.028015 507.098450,271.166901 
	C508.697540,282.523743 502.207367,287.516602 491.459351,283.982788 
	C489.403473,283.306885 487.374542,282.524323 485.282837,281.987000 
	C480.124207,280.661926 476.835419,283.489471 477.141541,288.815735 
	C477.343933,292.337219 479.376007,295.027802 481.099335,297.861664 
	C487.847778,308.958771 495.955109,319.297241 501.244080,331.200134 
	C512.368835,356.236267 521.130371,381.973236 523.594727,409.564392 
	C526.035767,436.893158 526.226990,463.959106 520.366150,491.039093 
	C512.815979,525.924622 497.546143,556.595337 473.639648,583.033386 
	C457.360443,601.036499 436.589081,612.127075 414.662354,621.446594 
	C379.257172,636.494629 341.866333,641.377563 303.877289,641.894165 
	C257.329376,642.527222 213.014282,632.464905 171.270981,611.509338 
	C143.890350,597.763977 120.605797,579.600098 105.491821,552.262939 
	C99.601158,541.608398 93.790192,530.971497 90.866661,518.988159 
	C89.613205,513.850342 86.960602,513.451294 83.101257,517.142761 
	C79.877495,520.226318 80.052757,524.007080 80.697136,527.843262 
	C81.198006,530.825195 82.144051,533.987122 80.839539,536.709106 
	C77.342659,544.005554 76.000092,551.904419 73.957932,559.588013 
	C70.781334,571.540039 69.000267,583.598206 70.796402,596.121826 
	C74.513474,622.039490 89.210266,641.095947 108.594749,657.019470 
	C127.949471,672.918579 149.882645,684.314270 173.589249,692.528442 
	C208.286728,704.550842 243.782547,711.723389 280.570831,712.806091 
	C302.994232,713.465942 325.087219,710.727905 347.258301,708.331177 
	C352.056702,707.812561 357.126923,707.518616 361.301361,711.783508 
	C357.702637,716.979858 352.224731,717.704773 347.256104,719.223816 
	C343.418579,720.396973 341.381561,722.294128 343.020538,726.503296 
	C349.061157,742.016785 348.501221,757.768677 344.747375,773.644653 
	C344.097198,776.394348 343.444092,779.096191 345.011322,781.880432 
	C349.427887,789.726257 354.770050,796.766785 363.143890,800.599854 
	C380.721588,808.645935 398.770020,815.435059 417.398315,820.739868 
	C435.536713,825.905273 454.016205,824.838013 472.478333,824.669128 
	C478.511353,824.613892 484.462708,823.783020 490.139435,821.779175 
	C503.938263,816.908508 516.296997,809.377686 527.751038,800.398499 
	C532.061462,797.019409 535.968079,793.058411 538.436096,787.986084 
	C539.239197,786.335571 540.405640,784.433472 539.083984,782.813232 
	C535.013062,777.822266 535.589539,771.805603 535.227600,766.087463 
	C533.701050,741.967773 540.706055,721.738281 562.176453,708.256104 
	C564.701538,706.670532 566.921570,704.602356 569.303284,702.784424 
	C572.060974,700.679504 571.986145,698.482483 569.676453,696.072021 
	C566.882874,693.156616 564.662109,689.836731 563.185669,686.070251 
	C561.025574,680.559814 562.269775,677.632996 567.924683,675.624817 
	C575.033081,673.100464 581.763428,669.913391 587.958740,665.576660 
	C597.407288,658.962769 605.767517,651.047363 614.484863,643.559143 
	C615.058716,643.066223 615.362732,642.259094 616.108154,641.111938 
	C609.945618,638.476074 604.035278,636.598450 597.651123,636.333435 
	C595.708984,636.252808 593.164612,636.591309 592.955261,633.844604 
	C592.739075,631.008423 595.347046,630.506714 597.421082,630.054077 
	C601.921143,629.071899 606.559265,629.874207 610.762939,630.935852 
	C626.810181,634.988586 643.062683,635.537231 659.390686,634.566284 
	C673.580383,633.722534 687.478149,631.194275 700.410278,624.763123 
	C708.855164,620.563477 714.663757,614.132446 718.325806,605.439880 
	C724.483398,590.823242 723.799500,576.175598 718.918762,561.512329 
	C712.820862,543.192261 701.750244,534.711243 682.519409,533.285522 
	C677.345398,532.901855 672.194031,532.123962 666.520813,533.131470 
	C668.781921,527.160217 674.319031,527.367981 677.867004,525.024719 
	C677.927490,524.419312 678.075439,524.050110 677.970398,523.778931 
	C677.672180,523.009155 677.407593,522.163391 676.888977,521.551697 
	C670.824280,514.399414 672.535828,507.022736 676.289612,499.653564 
	C678.875854,494.576324 681.160461,494.044952 686.271301,496.459747 
	C693.183472,499.725677 700.386536,501.898102 708.358521,501.649628 
	C709.027222,496.151794 708.182129,490.524353 714.014954,487.701141 
	C715.047546,487.201324 714.553101,485.932617 714.293274,484.958588 
	C712.568665,478.495148 714.943359,472.823792 717.848816,467.312439 
	C719.332397,464.498352 721.674438,462.653564 725.027954,462.675690 
	C730.081116,462.709015 734.978638,461.570679 739.818909,460.449951 
	C748.189819,458.511810 756.392151,455.959534 764.102539,450.842957 
	C760.118042,447.408905 759.023193,442.715210 756.134644,439.381927 
	C749.876587,432.160217 751.645447,425.627014 756.431946,418.611877 
	C763.986816,407.539368 773.197205,397.913391 782.182983,388.074738 
	C783.311829,386.838684 784.895874,385.887268 785.343628,383.851837 
	C771.936035,386.084564 767.571716,385.026031 764.232300,378.618713 
	C762.193848,374.707458 761.254639,370.562744 762.007690,366.062836 
	C762.830566,361.144867 766.973389,359.017212 770.375183,356.229706 
	C764.063965,351.251801 763.428650,345.325806 766.464600,334.586975 
	C769.218689,324.845123 777.783752,324.602905 785.386475,322.428894 
	C784.054688,320.315491 782.201477,319.823944 780.728882,318.821991 
	C775.475220,315.247406 772.152161,310.438446 771.716309,304.011078 
	C771.386963,299.155365 773.575500,296.593109 778.397217,296.731659 
	C795.156860,297.213257 810.041321,291.240967 824.521973,283.775848 
	C830.608948,280.637878 830.664429,279.880402 825.477905,275.090942 
	C810.107971,260.897461 791.731873,251.873077 772.175781,245.391571 
	C732.448120,232.224564 692.007568,235.441742 650.690491,241.378708 
M319.019135,814.228821 
	C318.544159,812.288757 318.059814,810.350952 317.595978,808.408203 
	C315.941742,801.479919 313.429047,800.685547 308.268982,805.808167 
	C299.637939,814.376648 291.121399,823.062561 282.655334,831.794678 
	C258.370972,856.841980 240.522964,886.725037 220.398041,914.895325 
	C219.599136,916.013550 218.375916,917.291382 219.526993,919.001404 
	C221.169495,920.084351 223.055420,919.616577 224.841125,919.617432 
	C278.672577,919.643982 332.504059,919.640503 386.335541,919.640808 
	C395.168579,919.640869 404.001831,919.598938 412.834473,919.658020 
	C415.348907,919.674805 417.261200,919.105774 418.651489,916.714050 
	C425.148010,905.538086 434.889984,897.734558 446.162628,892.020691 
	C467.230286,881.341919 489.773376,880.453247 512.495300,884.202759 
	C534.695618,887.866211 553.370422,898.095398 566.449036,917.064697 
	C568.158447,919.544250 570.451172,919.665894 573.013733,919.660034 
	C585.679871,919.630798 598.346130,919.660889 611.012390,919.641052 
	C618.340637,919.629578 619.185913,918.596313 616.588379,911.859436 
	C603.226929,877.204651 586.887756,844.131897 564.350403,814.390320 
	C563.273743,812.969482 562.482117,810.913513 560.299011,811.103760 
	C557.759888,811.325012 557.568054,813.749512 556.946533,815.559326 
	C553.193054,826.489502 546.669067,835.572815 537.126587,841.855652 
	C515.506897,856.090271 493.352844,869.053467 466.957825,873.018188 
	C446.386108,876.108154 425.851715,878.962646 405.557098,873.051453 
	C387.182037,867.699280 369.202209,860.928467 352.130188,852.129333 
	C336.441101,844.042908 324.613007,832.332825 319.019135,814.228821 
M375.730743,849.695740 
	C377.578491,850.454468 379.452179,851.156006 381.270111,851.980408 
	C403.344788,861.991943 426.018005,866.694702 450.613434,863.959473 
	C480.358246,860.651550 506.275146,849.013733 530.378296,832.248901 
	C538.620850,826.515808 543.900452,818.570312 546.310303,808.810364 
	C546.765259,806.967590 547.685913,804.599792 545.448792,803.385864 
	C543.379517,802.263123 542.242371,804.437012 540.899841,805.567444 
	C518.204834,824.678650 493.850006,839.342896 462.393188,836.424622 
	C452.641907,835.519897 442.727020,837.149536 432.972534,835.763306 
	C418.749969,833.742126 405.062988,829.632874 391.695099,824.385193 
	C382.717194,820.860779 373.877533,816.141357 364.542542,814.624573 
	C356.451843,813.310059 350.865570,809.175659 344.965881,804.737732 
	C342.853607,803.148743 341.171783,800.422424 338.173431,802.539307 
	C334.851624,804.884583 330.764557,806.882324 331.282288,812.064636 
	C331.965668,818.904724 339.973602,824.345947 346.491364,822.423889 
	C352.868256,820.543396 362.499237,826.538147 362.494354,833.175049 
	C362.487701,842.202271 367.063934,846.922852 375.730743,849.695740 
M513.711670,471.346558 
	C515.301208,458.938385 515.313354,446.504364 515.140015,433.999481 
	C514.803162,409.696167 511.256958,386.140991 503.774597,362.898071 
	C496.942657,341.675476 486.443024,322.643677 474.105530,304.370239 
	C471.853851,301.035248 469.360077,299.956818 465.750946,302.138794 
	C464.769073,302.732391 463.603821,303.026062 462.516693,303.441528 
	C450.647522,307.977753 449.792328,309.544464 452.468567,321.927704 
	C452.608612,322.575623 452.890991,323.192352 453.037628,323.839355 
	C456.236328,337.951233 463.541138,350.354248 469.225555,363.457062 
	C484.941040,399.681946 495.838684,437.599335 507.356018,475.285004 
	C508.048401,477.550507 507.938232,480.271790 510.558289,481.964935 
	C513.483948,479.161896 512.848022,475.447235 513.711670,471.346558 
M182.065903,537.421082 
	C175.186783,528.553528 166.731415,521.782593 156.169281,517.736877 
	C149.668320,515.246704 145.807022,518.230164 146.656433,525.266174 
	C148.482742,540.394531 156.770157,553.210022 161.753540,567.209229 
	C162.074783,568.111633 162.822815,568.900024 163.489502,569.635132 
	C166.546188,573.005554 167.882706,577.070618 168.133743,581.491638 
	C168.462082,587.274536 170.974548,591.988037 174.792252,596.157410 
	C178.888153,600.630615 184.658203,602.834045 189.134628,606.782410 
	C193.596695,610.718079 199.705582,610.233704 204.816757,612.583801 
	C207.480759,613.808777 209.880173,611.266235 210.437836,608.327759 
	C210.799606,606.421570 210.710297,604.312195 210.316422,602.398071 
	C205.503723,579.009583 197.759109,556.867798 182.065903,537.421082 
M502.975586,894.503052 
	C500.494659,894.237427 498.018524,893.910400 495.532043,893.715637 
	C473.444855,891.985229 452.691589,895.438721 434.823303,909.673950 
	C431.815521,912.070190 428.459412,914.347351 427.333618,918.471008 
	C432.234650,920.260010 546.120789,920.058289 550.112122,918.209229 
	C548.483337,914.117065 544.933167,911.865051 541.644287,909.522034 
	C530.293335,901.435120 517.280273,897.479370 502.975586,894.503052 
M102.681282,515.058167 
	C101.116470,517.467773 101.820633,519.994202 102.753647,522.250977 
	C112.387329,545.552979 124.623589,567.066040 145.129196,582.755371 
	C146.306061,583.655823 147.464508,585.168152 149.344147,584.272339 
	C149.344147,583.728638 149.462570,583.340576 149.327209,583.088989 
	C141.324783,568.220581 137.894547,551.994324 135.301163,535.542297 
	C134.269333,528.996582 133.713379,522.376526 132.713776,515.824890 
	C132.191360,512.401001 130.179550,509.586975 126.451576,509.926025 
	C118.558334,510.643982 110.581146,511.243317 102.681282,515.058167 
M921.601135,700.575195 
	C920.447449,700.441284 919.293823,700.307556 918.140137,700.173462 
	C916.662048,700.001770 914.961365,700.099976 914.265625,698.444763 
	C913.478027,696.571167 915.145630,695.797546 916.261536,694.890686 
	C918.616394,692.976807 919.607910,690.303284 920.138184,687.519592 
	C923.127930,671.825378 926.495239,656.179932 927.028809,640.129517 
	C927.075623,638.721436 927.724060,637.107056 925.115479,635.306152 
	C921.480530,645.158569 921.506409,655.430725 918.913208,665.050659 
	C916.201904,675.108704 913.301514,685.115723 910.503723,695.074097 
	C907.722839,695.107361 906.489258,691.843445 903.554993,693.097046 
	C903.526367,695.950562 902.486084,699.037415 904.696228,701.575562 
	C907.657898,704.976624 919.699097,704.452148 922.748352,700.942993 
	C922.514954,700.791504 922.281616,700.640015 921.601135,700.575195 
M741.339661,703.010498 
	C741.840515,706.067810 740.795227,709.317261 742.358398,713.401367 
	C742.358398,706.766724 742.358398,701.310242 742.358398,694.557068 
	C741.813171,696.314636 741.574036,696.773743 741.541504,697.247070 
	C741.428101,698.897827 741.386292,700.553467 741.339661,703.010498 
z"/>
<path fill="#000000" opacity="1.000000" stroke="none" 
	d="
M940.366638,434.424377 
	C941.157471,428.282562 940.082275,422.686737 939.348206,417.086029 
	C939.062073,414.902405 938.953979,412.855774 941.403564,412.197998 
	C943.844177,411.542603 944.963379,413.486786 945.781616,415.383575 
	C948.333130,421.298218 947.453735,427.564575 947.194763,433.652954 
	C946.177673,457.564087 937.120605,478.951080 925.703430,499.492584 
	C923.392029,503.651245 919.987671,503.755981 917.464661,500.113770 
	C914.533264,495.881927 911.689026,491.582733 908.980774,487.205261 
	C906.245605,482.784363 905.844849,478.268250 908.553955,473.517517 
	C916.199768,460.109406 921.238953,445.683655 924.872620,430.731598 
	C925.147400,429.601196 925.482849,428.477356 925.896362,427.390930 
	C926.450500,425.934937 927.264404,424.614563 929.065857,424.674194 
	C931.121765,424.742157 931.940002,426.279205 932.207031,427.988434 
	C932.674561,430.981262 932.265930,433.957947 931.614197,436.904449 
	C928.716614,450.004974 923.641907,462.270294 917.549866,474.174774 
	C914.102356,480.911560 914.745056,483.293030 921.532104,489.474670 
	C931.812805,472.453308 937.836121,454.304382 940.366638,434.424377 
z"/>
<path fill="#000000" opacity="1.000000" stroke="none" 
	d="
M949.570557,515.437134 
	C947.545288,507.296814 947.961670,499.056671 944.164490,491.748474 
	C943.368042,490.215607 943.583984,488.370636 945.314392,487.341858 
	C947.211914,486.213654 948.824341,487.043243 950.212646,488.465820 
	C952.054504,490.353088 952.502380,492.880371 953.162170,495.262115 
	C957.089966,509.441040 958.518311,524.037292 960.263855,538.577820 
	C960.561340,541.055908 960.619629,543.568787 961.030090,546.025269 
	C961.382385,548.133240 961.458191,549.974365 959.446167,551.335205 
	C956.687073,553.201294 957.258911,556.762390 955.047913,560.158630 
	C952.203857,544.923767 951.411682,530.332092 949.570557,515.437134 
z"/>
<path fill="#000000" opacity="1.000000" stroke="none" 
	d="
M972.900818,406.182343 
	C976.964722,415.114929 981.030029,423.621216 983.631653,432.774445 
	C985.074097,437.849121 982.941528,441.222229 979.581909,445.410278 
	C976.132629,438.097137 974.339600,430.898376 971.909607,423.948181 
	C970.269226,419.256561 968.791870,414.507782 967.137085,409.821472 
	C966.392090,407.711700 964.308655,405.454895 966.961975,403.612976 
	C969.523743,401.834534 971.171936,404.098419 972.900818,406.182343 
z"/>
<path fill="#000000" opacity="1.000000" stroke="none" 
	d="
M966.200378,457.483063 
	C963.231262,458.606110 962.878113,456.371735 962.337341,454.768860 
	C960.910034,450.537964 959.660461,446.246735 958.362244,441.972809 
	C957.858521,440.314758 957.604797,438.585815 959.408813,437.573273 
	C961.287231,436.518982 962.665771,437.726959 963.550354,439.174530 
	C966.978271,444.784637 969.900452,450.531342 966.200378,457.483063 
z"/>
<path fill="#000000" opacity="1.000000" stroke="none" 
	d="
M956.058899,576.691528 
	C954.002197,574.952393 954.286438,572.736389 954.359497,570.659973 
	C954.408325,569.271423 954.432678,567.395813 956.559814,567.527161 
	C958.120117,567.623596 958.696899,569.029358 958.704163,570.395020 
	C958.716736,572.765869 959.305969,575.435242 956.058899,576.691528 
z"/>
<path fill="#000000" opacity="1.000000" stroke="none" 
	d="
M998.926331,531.490906 
	C1003.241211,531.862122 1002.092285,534.675415 1001.247070,536.822693 
	C1000.606201,538.450989 999.060364,538.133118 998.198181,536.685303 
	C997.170715,534.959961 997.324585,533.215027 998.926331,531.490906 
z"/>
<path fill="#000000" opacity="1.000000" stroke="none" 
	d="
M678.593018,264.659332 
	C681.995300,261.276733 685.718323,262.439789 689.220703,263.227325 
	C694.243530,264.356720 698.316345,267.348938 701.838684,270.962250 
	C713.576660,283.003448 721.127747,297.167358 723.020752,314.046600 
	C723.574707,318.985626 722.351013,323.687836 719.814575,327.922668 
	C717.604736,331.612122 714.320557,333.742645 709.809448,333.071777 
	C705.466797,332.425995 703.411987,329.733643 702.435486,325.462128 
	C700.155945,315.491394 694.790039,307.101379 688.129333,299.475189 
	C683.731079,294.439331 679.688965,289.136261 677.061584,282.936859 
	C674.448120,276.770355 674.126526,270.669067 678.593018,264.659332 
z"/>
<path fill="#000000" opacity="1.000000" stroke="none" 
	d="
M616.018066,312.839233 
	C639.773376,300.632324 675.094788,321.889923 678.389771,346.741089 
	C680.810242,364.996277 674.698547,379.709137 661.446472,391.893463 
	C659.599304,393.591858 657.519287,395.020508 654.889893,395.251587 
	C651.661255,395.535370 648.840027,394.682617 647.227234,391.691284 
	C645.661621,388.787598 647.850647,386.753632 649.669128,385.270935 
	C656.807800,379.450531 659.455200,371.071808 662.364990,362.997314 
	C665.488098,354.330536 663.561768,345.776733 657.617188,339.108124 
	C647.335754,327.574585 634.601990,321.125580 618.504211,324.047546 
	C617.365051,324.254333 616.182495,324.350677 615.026733,324.310333 
	C612.768494,324.231537 610.589600,323.731812 609.859558,321.224579 
	C609.184387,318.905609 610.124939,316.925110 611.915466,315.448669 
	C613.060852,314.504150 614.412476,313.809692 616.018066,312.839233 
z"/>
<path fill="#000000" opacity="1.000000" stroke="none" 
	d="
M705.689087,593.403320 
	C697.550415,605.774170 686.468689,611.058899 671.990845,610.456604 
	C664.014221,610.124756 656.038818,609.678589 648.070251,609.250366 
	C636.294739,608.617493 623.327026,614.088135 620.401123,627.839905 
	C620.269958,628.456238 619.856567,629.012634 619.501953,629.747559 
	C615.890259,629.242554 614.863281,626.814331 614.673645,623.803528 
	C614.354736,618.739014 616.765869,614.727783 620.196716,611.427063 
	C628.333618,603.598694 638.222717,600.290161 649.410034,601.291077 
	C659.199036,602.166870 668.975342,603.024780 678.811584,602.588379 
	C690.779846,602.057312 699.250366,595.133972 701.245422,584.336975 
	C702.143372,579.477417 700.389465,575.117065 698.456055,570.889587 
	C694.241028,561.673157 681.377380,554.296814 671.435791,555.196777 
	C669.602234,555.362793 667.454041,555.391602 666.999573,557.621582 
	C666.559204,559.782288 668.514648,560.818481 670.010315,561.786743 
	C672.007385,563.079651 674.243958,563.715271 676.668091,563.127991 
	C679.092346,562.540649 681.507568,561.914978 683.938416,561.356628 
	C685.230103,561.059937 686.740967,560.619446 687.602356,561.959778 
	C688.643311,563.579346 687.503662,565.270813 686.297668,565.765503 
	C679.413269,568.589478 674.284363,573.445129 669.152893,578.668091 
	C666.820740,581.041870 662.430847,581.299927 659.117065,582.827332 
	C654.995789,584.726929 651.252258,586.684814 651.883240,592.675964 
	C652.218994,595.864075 648.805725,595.775513 646.709656,594.519226 
	C643.951782,592.866333 643.475708,590.113403 644.512207,587.062195 
	C646.591125,580.942139 651.378113,577.895935 657.069885,575.870605 
	C667.701416,572.087646 667.705750,572.099792 662.273865,562.315002 
	C660.690308,559.462402 663.492371,552.974731 667.350586,550.766846 
	C670.005676,549.247498 672.908203,548.416077 675.974976,548.749207 
	C697.046204,551.038025 709.662964,568.124207 708.426208,584.033386 
	C708.175415,587.260010 707.384216,590.247986 705.689087,593.403320 
z"/>
</svg>