<svg width="563.2" height="256" xmlns="http://www.w3.org/2000/svg">

 <g>
  <title>background</title>
  <rect fill="none" id="canvas_background" height="258" width="565.2" y="-1" x="-1"/>
 </g>
 <g>
  <title>Layer 1</title>
  <rect x="36.01239" y="51.44627" id="svg_1" width="256" height="256" fill="none"/>
  <circle id="svg_2" stroke-width="8" stroke-linejoin="round" stroke-linecap="round" stroke="#000" r="96" fill="none" cy="128" cx="281.600006"/>
  <circle id="svg_3" stroke-width="8" stroke-linejoin="round" stroke-linecap="round" stroke="#000" r="40" fill="none" cy="120" cx="281.600006"/>
  <path id="svg_4" stroke-width="8" stroke-linejoin="round" stroke-linecap="round" stroke="#000" fill="none" d="m217.40001,199.4a72,72 0 0 1 128.4,0"/>
  <path d="m297.291107,112.688293c0,2.057854 0.460541,6.37706 -1.543396,10.289261c-1.691315,3.301865 -4.60614,4.886894 -8.74585,5.144623c-4.107758,0.255737 -6.682983,-1.435486 -7.202484,-5.144623c-0.856293,-6.113884 0.423462,-13.791733 4.115692,-18.52066c2.686493,-3.440811 6.692505,-5.389854 9.260345,-3.601242c3.403473,2.370659 4.461731,10.066673 2.057831,18.006195c-2.66687,8.808105 -10.879303,17.3936 -20.578491,19.549591c-7.549805,1.678207 -13.356018,-0.191757 -13.890503,-3.601242c-1.047974,-6.685059 1.295868,-15.817978 6.688019,-22.121902c4.282501,-5.00663 11.53891,-6.635452 16.462799,-5.144623c5.325989,1.612579 7.763306,8.234863 7.202484,15.433884c-0.533081,6.843063 -4.691254,13.597916 -10.289246,14.919418c-10.014038,2.363998 -24.809021,0.975418 -30.867767,-5.659088c-3.291199,-3.603958 -1.459137,-13.641754 4.630157,-19.035126c8.26889,-7.32386 20.15329,-10.223915 30.867767,-8.745865c6.446442,0.889282 9.341248,6.797913 8.231415,12.347107c-1.311646,6.558144 -6.180206,14.11499 -12.861572,18.52066c-4.625793,3.050232 -10.691803,4.31012 -16.46283,2.057846c-5.464355,-2.132599 -8.223022,-8.474045 -6.173523,-16.462807c2.401947,-9.362671 8.007599,-17.510773 15.433868,-20.064049c4.405548,-1.514694 9.406891,-1.636215 11.318176,1.543388c2.663696,4.431328 0.588318,12.782707 -4.115692,18.52066c-4.151398,5.063889 -11.423248,7.20797 -16.46283,6.173553c-3.838013,-0.787781 -4.869995,-4.161957 -4.115692,-10.289253c1.036713,-8.421173 4.694702,-15.673019 11.832642,-17.491737c7.494629,-1.909599 16.200348,-0.966209 20.578522,4.115707c3.307159,3.838737 3.564697,10.293625 0.514465,14.919418c-3.204132,4.859192 -10.808258,6.462517 -20.064056,6.173553c-8.243469,-0.257355 -16.768036,-3.118568 -19.549576,-8.231407c-3.520096,-6.470444 -2.79538,-14.996239 2.572311,-21.60743c4.864105,-5.990952 13.890503,-6.688019 20.064026,-6.688019c3.601257,0 5.43396,0.436401 6.688019,5.659088c1.342926,5.592896 3.348358,11.997124 2.057861,16.977272c-1.328644,5.12738 -8.176605,8.230103 -15.433868,8.745865c-7.184357,0.510574 -12.596893,-1.15316 -13.890503,-4.630165c-1.446304,-3.887398 0.514465,-10.803719 4.630157,-18.520653l7.202484,-5.14463l8.74585,-2.572311" id="svg_6" fill-opacity="null" stroke-opacity="null" stroke-width="8" stroke="#000" fill="none"/>
  <path stroke="#000" d="m306.551422,96.225494c2.057861,6.243192 2.572327,16.945822 2.572327,25.864685c0,8.026959 -0.792908,13.840885 -3.086792,16.945822c-2.364441,3.200459 -6.305969,4.226387 -9.260315,2.675657c-1.77533,-0.931874 -2.311737,-2.567346 -2.572327,-5.351315c-0.082397,-0.88037 0,-2.675657 0,-3.567548l0,-0.891877l0.514465,0" id="svg_7" fill-opacity="null" stroke-opacity="null" stroke-width="8" fill="none"/>
  <path d="m273.625824,125.0354c-0.514465,2.057854 -0.597443,4.755722 -1.543396,7.202484c-1.081726,2.797989 -2.447327,4.108963 -5.659088,4.630157c-4.062561,0.659256 -9.403259,-1.050095 -10.803711,-3.601242c-2.282425,-4.157837 -1.028931,-10.289246 -0.514465,-16.977264l1.028931,-4.1157l2.057861,-2.057854" id="svg_8" fill-opacity="null" stroke-opacity="null" stroke-width="8" stroke="#000" fill="none"/>
  <path d="m271.053497,111.144913c0,3.086769 0.598999,9.854271 -0.514465,15.948341c-0.673157,3.684334 -2.765961,5.700401 -3.601227,7.716942c-0.196869,0.475311 -0.514465,0.514465 -0.514465,-1.028931c0,-1.543381 0,-2.572311 0,-3.086777l0,-0.514465" id="svg_9" fill-opacity="null" stroke-opacity="null" stroke-width="8" stroke="#000" fill="none"/>
  <path d="m293.68988,138.925888c0,0.514465 -0.514465,1.028931 -0.514465,1.543396c0,1.028931 -1.39035,2.862213 -4.115723,4.115707c-2.956055,1.359589 -7.140045,3.14917 -8.231384,2.057846c-0.36377,-0.363785 -0.597931,-3.517746 1.028931,-5.144623c2.440308,-2.440308 4.963287,-3.072647 7.202454,-3.601242c0.500702,-0.118195 1.028931,0 1.028931,0.514465c0,3.086777 -0.485535,5.69841 -2.572296,7.202469c-2.639587,1.902512 -6.173553,1.543396 -8.74588,1.543396c-0.514465,0 -1.431946,-1.847656 0,-4.630173c2.66333,-5.175369 8.721863,-7.459198 12.861572,-7.716934c1.540405,-0.095901 1.543396,0 1.543396,0c-2.057861,1.028915 -4.427704,3.369232 -7.202484,5.144623c-1.938019,1.240005 -4.575531,1.909378 -6.173553,0.514465c-2.087158,-1.821869 -2.41272,-5.67662 -2.057861,-9.26033c0.258484,-2.610489 2.057861,-4.630165 3.086792,-5.659088c0,0 0,0.514465 -1.543396,3.601242c-1.543396,3.086777 -4.02002,5.500916 -3.086792,6.173553c0.59024,0.425415 2.613647,-3.280426 4.630188,-4.115707c0.475311,-0.196884 -0.052795,-0.325378 -1.028931,0c-2.440338,0.813446 -4.59198,2.313828 -7.202484,2.572311c-3.58371,0.354858 -7.358704,-1.823318 -11.318176,-4.630157c-2.687408,-1.905098 -3.246613,-4.156998 -3.601227,-5.659096c-0.264313,-1.119598 -0.764618,-1.452713 -1.028931,-2.572311c-0.118195,-0.500702 -0.514465,-1.543388 -1.028931,-2.057854c-1.543396,-1.543388 -3.237457,-1.694061 -3.601242,-2.057846c-0.363785,-0.363785 0,-1.028931 0,-2.057854c0,-1.543388 0,-2.572311 0,-3.601234c0,-2.057854 0,-2.572319 0,-4.115707c0,0 -0.690994,0.965164 -1.543381,3.601242c-0.652618,2.018288 -1.028931,3.601234 -1.543396,4.630165c-0.514465,1.028923 -0.514465,1.543388 -0.514465,1.543388c0,0 0.514465,-2.572319 0.514465,-4.630165c0,-2.572311 0.511948,-4.065002 0,-4.1157c-2.610489,-0.258492 -0.514465,5.659088 -0.514465,7.202477c0,1.543388 -0.170288,1.514389 0,1.028923c1.090393,-3.108475 5.933212,-5.361908 8.74588,-8.2314c2.305908,-2.352501 3.285797,-4.587784 4.630157,-5.14463c0.475311,-0.196877 0.550751,2.621841 0,5.659088c-0.784271,4.325035 -2.234406,7.653168 -3.086792,10.289253c-0.652618,2.018295 -0.150665,2.723 -0.514435,3.086777c-0.36377,0.363785 -1.732483,-2.625114 -2.057861,-3.601234c-0.813446,-2.440315 -2.784058,-5.352478 -4.630173,-7.716942c-1.343246,-1.720398 -2.057846,-2.057854 -3.086777,-2.057854c-0.514465,0 -1.53392,1.395226 -2.057846,4.1157c-0.68103,3.536263 -0.514465,6.173553 -0.514465,7.716942c0,0.514465 0,1.543388 0,0.514465c0,-1.028923 0.76976,-2.524872 1.028931,-4.630165c0.125717,-1.021217 0.217499,-2.288361 1.028915,-3.601242c0.604797,-0.978569 1.811005,-2.224358 2.572327,-3.086769c1.227585,-1.390594 4.0289,-3.200233 6.688019,-5.14463c2.994659,-2.189743 4.946442,-4.423294 7.202454,-5.659088c3.855103,-2.111748 7.47113,-3.000237 10.803741,-4.630165c2.922882,-1.429527 5.144623,-2.057854 7.202454,-2.057854c1.543396,0 4.327728,-0.530632 6.173553,0.514465c1.266235,0.716934 1.028931,1.543388 1.028931,2.572311c0,2.057854 -2.335571,5.194664 -6.688019,6.688019c-4.962524,1.702675 -9.807983,2.469887 -12.347107,2.057846c-1.605835,-0.260597 -2.971283,-1.799034 -1.543365,-5.659088c1.645599,-4.448486 7.564453,-6.575363 13.890472,-8.745865c5.548279,-1.903656 8.231415,-2.057854 8.231415,-2.057854c1.028931,1.028931 1.543396,3.601242 1.543396,6.688019c0,3.086777 -0.535217,5.477654 -2.057861,7.202477c-1.2276,1.390594 -3.089752,1.124825 -4.630157,1.028923c-4.139709,-0.257729 -11.151398,-3.224747 -15.433899,-8.2314c-2.696075,-3.151955 -2.901917,-6.200127 -2.572296,-8.231407c0.26059,-1.605865 2.351654,-2.921875 4.630157,-4.1157c1.441071,-0.755043 2.057861,-0.514458 2.057861,-0.514458c2.057831,-0.514465 5.645477,1.05983 10.289246,3.086769c3.590851,1.56736 3.918823,2.097015 4.115692,2.572319c0.556854,1.34436 1.385223,2.153542 2.057861,3.086777c0.85083,1.180458 2.057861,2.057846 2.057861,3.601234c0,2.057854 -0.650116,4.046494 -3.601257,6.173553c-2.799683,2.017899 -5.144623,2.572311 -6.688019,2.572311c-0.514465,0 -1.867401,-3.311165 -0.514465,-6.688011c1.645935,-4.108124 7.703186,-5.401695 14.919434,-5.659088c5.655487,-0.201721 9.141724,0.715607 10.289246,2.572311c1.710602,2.767799 1.543396,6.173553 1.543396,9.774788c0,3.601242 -0.514465,6.173553 -1.028931,7.716942c-0.514465,1.543388 -2.06311,2.445015 -3.601227,2.572311c-3.118713,0.25811 -6.37207,0.860054 -9.260345,-1.028923c-3.362732,-2.199287 -4.115692,-6.173553 -4.115692,-10.289253c0,-4.1157 1.391876,-6.351654 2.572327,-7.202477c1.866455,-1.345261 3.792633,-1.345276 5.659088,0c2.951141,2.127052 4.623413,6.563049 5.144623,9.774788c0.494446,3.046921 -0.268646,5.340508 -1.543396,6.688019c-1.767731,1.868668 -3.902588,2.27095 -4.630157,1.543388c-0.72757,-0.727562 -0.570862,-4.669945 0,-8.745865c0.519501,-3.709145 3.039307,-5.399918 5.144623,-5.659096c1.02121,-0.125717 1.798676,-0.04744 2.057861,2.057854c0.377167,3.063652 0.459808,6.993027 -2.057861,10.289253c-2.20813,2.890984 -5.659088,4.1157 -7.202484,4.1157c-0.514465,0 -1.028931,-3.086769 -1.028931,-7.716934c0,-4.115707 1.675415,-7.417969 4.115723,-8.231407c3.90448,-1.301491 9.113647,-0.285179 11.832642,3.601242c2.519775,3.601631 2.572296,8.2314 2.572296,11.832642c0,3.086777 -1.126801,5.083679 -2.057831,6.688011c-0.577393,0.99498 -1.137878,1.345535 -1.543396,1.028931c-1.671936,-1.305405 -0.920013,-6.193581 -0.514465,-10.289253c0.258484,-2.610497 1.543396,-4.630165 2.057861,-4.630165c0.514435,0 1.11795,-0.075768 1.543365,0.514458c1.345276,1.866463 1.543396,4.630165 1.543396,7.716942c0,2.057854 0.078583,5.165886 -0.514465,7.202477c-0.454865,1.561996 -0.726196,3.294632 -2.572296,5.659088c-2.238739,2.86734 -5.630005,4.706177 -8.231415,5.659088c-3.055237,1.119156 -5.144623,1.028931 -7.202484,1.028931c-0.514465,0 -0.963562,-1.567963 -0.514465,-5.659088c0.517548,-4.71479 3.482208,-9.061188 4.630157,-11.832642c0.811737,-1.959724 1.076721,-2.14064 1.028931,-0.514465c-0.08139,2.769272 -2.179626,6.629349 -4.115692,10.803719c-1.648499,3.554344 -1.967194,6.437843 -3.086792,6.173546c-0.500702,-0.118195 2.264496,-4.309998 4.630188,-7.716934c2.291748,-3.30043 4.266388,-5.295311 4.630157,-5.659088c0.36377,-0.363785 0.751648,2.63147 -0.514465,7.202477c-1.302795,4.703529 -4.476471,7.110435 -3.601227,8.745857c0.242767,0.453583 1.42514,-3.984009 4.115692,-7.716934c1.70166,-2.360909 2.722992,-3.450562 3.086761,-3.086777c1.818909,1.818901 -0.674042,6.705551 -1.0289,10.289261c-0.258484,2.610489 -1.19162,3.574829 -1.028931,3.086777c0.813416,-2.440308 3.601227,-4.115692 5.659088,-6.173553c2.057831,-2.057846 4.630157,-3.086777 5.659088,-3.086777c0.514465,0 0.514465,0 0.514465,0.514465c0,1.028915 0.236389,2.085373 0,3.086777c-0.264313,1.119598 -1.135315,2.475922 -2.057861,3.601227c-1.176025,1.434494 -2.572296,2.572311 -3.601227,3.601242c-1.028931,1.028931 -0.938263,1.793549 -2.057861,2.057846c-0.500702,0.118195 -1.124634,0.870758 -2.057861,1.543396c-0.59024,0.425415 -1.0289,1.028931 -1.543365,1.543381c-0.514465,0.514465 -1.390442,1.307434 -3.086792,2.057861c-1.939819,0.858124 -3.679535,0.635162 -4.630157,1.028915c-0.67218,0.278427 -2.057861,1.028931 -2.572327,1.028931c-1.543365,0 -3.086761,0.514465 -4.115692,0.514465c-1.543396,0 -2.057861,0 -3.086761,0c-1.543396,0 -3.601257,0.514465 -6.173553,0.514465c-2.057861,0 -4.630188,0 -6.688019,0c-0.514465,0 -2.057861,0 -3.086792,0c-1.543365,0 -3.154663,-0.388596 -5.144623,-1.543396c-1.60434,-0.93103 -2.839447,-1.316086 -4.115692,-3.086777c-1.345276,-1.866455 -2.939697,-3.710144 -4.115692,-5.144623c-0.922516,-1.12532 -2.057861,-2.572311 -2.057861,-3.086777c0,-1.028931 -0.665146,-2.208527 -1.028931,-2.572311c-0.363785,-0.363785 -1.301971,0.671112 -0.514465,2.572311c0.556854,1.34436 1.744537,2.968201 3.601257,4.115707c1.383881,0.855286 2.079895,1.394302 2.572296,1.543381c1.77533,0.537537 5.162323,1.98941 9.260345,3.086777c3.617859,0.968796 5.659088,1.028931 6.173523,1.028931c0.514465,0 0.528229,-0.396271 1.028931,-0.514465c1.119598,-0.264297 0.514465,-0.514465 -1.543365,-0.514465c-2.572327,0 -5.117249,-0.256577 -8.74588,-0.514465c-1.53952,-0.109406 -2.301849,-0.076828 -2.572327,-0.514465c-0.604767,-0.978546 -2.511353,-1.641266 -4.115692,-2.572311c-0.994965,-0.577408 -1.58255,-0.832047 -2.057831,-1.028915c-1.34436,-0.556854 -2.359222,-0.815826 -3.086792,-1.543396c-0.363785,-0.363785 0,-0.514465 -0.514465,-0.514465c0,0 -0.09639,0.620865 1.028931,1.543396c1.434479,1.175995 2.9422,2.731903 4.630157,4.115692c1.434509,1.175995 2.057861,2.057861 2.572327,2.572327c0.514465,0.51445 1.56192,1.348801 2.572296,1.543381c2.72049,0.523926 5.256989,1.487473 9.260345,2.572311c3.781647,1.02475 5.659088,2.057846 6.688019,2.057846c1.543365,0 3.601227,0 4.630157,0c2.057861,0 4.115692,0 6.173553,0c2.057831,0 4.115692,0.514465 4.115692,0c0,-0.514465 -1.611816,-0.221466 -3.601227,0.514465c-2.157837,0.798248 -4.083801,1.285278 -7.202484,1.543396c-3.076263,0.254608 -6.409607,0.157715 -6.688019,-0.514465c-0.393768,-0.950607 -0.514465,-1.028931 -0.514465,0c0,2.057846 0.48645,4.676575 0,7.202484c-0.523926,2.720474 -1.435303,5.184967 -2.057861,6.688004c-0.440216,1.062805 -1.022247,2.140274 -0.514435,2.057861c1.605835,-0.260605 5.477722,-2.043716 7.716919,-2.572327c0.500702,-0.118195 0.858124,0.632462 0,2.572327c-1.500824,3.3927 -4.672699,6.896545 -6.173553,10.289246c-0.858124,1.93985 -1.614716,3.081802 -1.543365,2.572311c0.51947,-3.709137 3.594482,-6.563049 4.115692,-9.77478c0.082397,-0.507828 -0.974152,0.615646 -5.659088,3.086777c-5.087524,2.683472 -7.202484,3.086761 -7.202484,2.572311c0,-1.543396 1.129639,-4.574463 3.086792,-8.231415c2.171234,-4.057007 2.977814,-5.856949 2.572296,-6.173553c-1.671936,-1.305405 -6.261932,1.22522 -12.347107,3.086777c-5.758224,1.761536 -8.2314,3.601242 -8.2314,3.601242c2.572311,-1.543381 10.763229,-2.571609 20.578506,-3.086777c4.110046,-0.215729 4.616394,-0.118195 4.115692,0c-2.239197,0.52861 -7.689972,4.192459 -14.919403,6.688019c-7.689148,2.654251 -15.913376,4.777466 -22.121902,6.173553c-2.559341,0.575516 -3.224106,0.495804 -3.086777,0c0.800751,-2.890961 6.263535,-5.386658 12.861572,-7.716934c5.224655,-1.84523 9.03775,-2.030014 8.74588,-0.514465c-0.523926,2.720474 -4.356216,7.0186 -9.260345,10.803711c-2.936829,2.266708 -3.751923,2.421631 -4.115707,2.057846c-0.36377,-0.36377 2.908463,-4.357483 7.716949,-7.716934c3.978622,-2.779663 8.273788,-4.314728 7.716934,-5.659088c-0.196869,-0.475311 -4.127686,1.521469 -9.77478,4.630157c-4.640106,2.554352 -8.115005,5.574326 -10.803726,6.688019c-0.950592,0.393753 -1.1548,-0.067917 0,-2.057846c1.862076,-3.208694 3.086761,-5.144623 2.572311,-5.144623c-0.51445,0 -1.404282,2.690048 -3.601227,5.144623c-2.911346,3.252762 -5.659103,6.173553 -7.716949,8.2314c-2.057846,2.057846 -3.640396,3.404373 -4.115692,3.601242c-0.67218,0.278427 -1.303589,0.477127 -1.028931,-0.514465c0.800751,-2.890961 2.556152,-4.842148 3.601242,-6.688019c0.358459,-0.633118 1.245148,-0.433762 0,2.572311c-1.320694,3.188431 -2.308014,4.539505 -2.572311,5.659088c-0.118195,0.500702 0.521957,0.362381 2.057846,0.514465c5.220978,0.516983 11.210281,2.567291 14.919418,3.086777c1.528458,0.214066 3.577225,-0.256729 7.716934,-0.514465c6.675125,-0.415573 13.890488,2.057831 13.890488,0c0,-1.028931 -7.234192,-0.382828 -13.890488,-2.057846c-5.688431,-1.431458 -7.716934,-2.572311 -7.716934,-3.601242c0,-1.543381 0.363785,-2.722992 0,-3.086777c-0.72757,-0.72757 -3.645248,0.429413 -6.688019,2.057861c-3.656952,1.957138 -4.266388,3.237457 -4.630157,3.601227c-0.363785,0.363785 -1.028931,0.514465 2.057846,0.514465c5.659088,0 9.2995,-0.196884 9.774796,0c0.672165,0.278427 -0.373764,1.694458 -2.572311,3.601242c-1.943268,1.685394 -5.620926,2.313828 -8.231415,2.572311c-3.071747,0.304169 -4.115692,0 -4.630157,0c-0.514465,0 -1.179611,-0.150681 -1.543396,-0.514465c-0.36377,-0.36377 0,-1.028915 0,-2.057846c0,-0.514465 0,-0.514465 0,-1.543381c0,-1.028931 0,-2.057861 0,-3.086777c0,0 1.912155,2.802917 6.688019,5.659088c7.505997,4.488907 13.935471,6.581985 16.462814,7.716934c1.049408,0.471252 4.115692,0.514465 8.231384,0.514465c4.115723,0 6.688019,0 7.716949,0c0.514465,0 -1.555328,-0.130859 -7.716949,-0.514465c-8.279419,-0.515457 -15.924316,-3.343506 -20.064026,-3.601242c-1.026947,-0.063934 -1.179626,-0.150681 -1.543396,-0.51445c-0.363785,-0.363785 -1.028931,0 -1.028931,0.51445c0,0.514465 1.514069,2.118744 3.601242,3.086777c3.554352,1.648499 6.680054,3.128311 9.26033,3.601242c3.078079,0.564163 6.135376,1.799362 8.74588,2.057846c0.511963,0.05069 1.0289,0 2.057831,0c2.057861,0 4.630157,0 5.659088,0c1.028931,0 1.543396,0 3.601257,0c3.086761,0 6.126099,0.255295 8.231384,0.514465c2.04245,0.251434 3.616669,-0.251434 5.659088,0c2.105316,0.259171 4.630188,1.543396 8.231415,1.543396c2.057861,0 2.62738,0.472794 4.630157,0c2.239197,-0.52861 5.671356,-1.760834 9.260345,-2.057861c3.118683,-0.258102 3.601227,-0.51445 3.086761,-0.51445c-0.514465,0 -2.877411,1.788025 -7.202484,2.572311c-6.074493,1.101517 -11.832642,0 -16.977264,0c-3.601227,0 -5.262115,0.590637 -6.688019,0c-0.67218,-0.278427 -2.094757,-0.355621 -4.630157,-1.028931c-3.144745,-0.835129 -7.507507,-2.626984 -10.803711,-5.144623c-1.734589,-1.324875 -3.072632,-1.876511 -3.601227,-4.115707c-0.354584,-1.50209 -0.451538,-3.120728 -1.028931,-4.115692c-0.93103,-1.60434 -1.028931,-2.057861 -0.514465,-2.057861c4.630157,0 13.942352,1.299194 24.179749,3.601242c6.208527,1.396088 6.958496,1.620224 6.688019,2.057846c-0.604797,0.978577 -6.272003,1.180374 -15.433899,-0.51445c-12.024628,-2.224396 -20.181778,-5.005539 -22.636353,-7.202484c-1.084259,-0.970459 -1.855804,-3.404694 -0.514465,-5.659088c2.05455,-3.453079 10.803711,-4.115707 18.52066,-4.115707c5.144623,0 5.777283,0.013763 5.659088,0.514465c-0.264313,1.119598 -2.389587,3.502335 -6.688019,5.144623c-5.479462,2.093521 -9.260315,1.543396 -10.289246,1.543396c0,0 0,-1.543396 2.057861,-3.601242c4.115692,-4.115692 9.144379,-6.561127 15.433868,-8.2314c2.53537,-0.673309 3.004822,-0.714767 1.543396,0c-3.332611,1.629929 -8.198883,5.199524 -13.376038,8.2314c-3.579132,2.096039 -3.601227,2.057846 -3.601227,1.543396c0,-0.514465 1.148102,-3.48732 3.601227,-6.173553c2.709534,-2.967041 5.528809,-4.821198 7.716949,-6.173553c0.978546,-0.604782 1.07959,-0.511963 1.0289,0c-0.258484,2.610489 -3.025299,5.63739 -4.115692,8.745865c-0.340576,0.970917 -0.575348,1.786133 -1.028931,1.543381c-3.270874,-1.750519 -3.596191,-6.065643 -4.115692,-9.774796c-0.1427,-1.018967 -0.36377,-2.208527 0,-2.572311c0.36377,-0.363785 0.975037,0.717972 -1.028931,4.630173c-2.536987,4.952789 -7.02182,8.332123 -8.2314,10.289246c-0.270477,0.437637 2.878616,-3.25386 10.289261,-5.144623c9.588684,-2.446472 17.793091,-2.785416 18.52066,-2.057846c0.727539,0.727554 -0.788605,4.295029 -4.630188,7.716934c-5.336884,4.753845 -14.925934,4.996948 -25.208664,4.630173c-7.216232,-0.257401 -7.970795,-0.451981 -8.2314,-2.057861c-0.329636,-2.031281 0.903976,-4.623428 4.115707,-5.144623c3.554733,-0.576859 7.988907,-0.352448 9.774796,2.057846c1.262817,1.70433 0.514465,5.144638 0.514465,6.688019c0,0.514465 0,1.028931 0,1.543396c0,0 4.115692,1.543381 11.318176,3.601227c10.803711,3.086777 21.607422,5.659088 30.867767,5.659088c5.659088,0 7.835663,-1.761307 7.202454,-2.572311c-2.610809,-3.343842 -11.832642,-1.028915 -19.035095,-1.028915c-5.659088,0 -8.74588,0 -8.74588,-0.514465c0,-1.028931 -0.540955,-2.211517 0,-3.086777c0.604797,-0.978577 2.077789,-1.296188 3.601227,-1.543396c1.605865,-0.26059 2.572327,-0.51445 2.572327,-0.51445c0.514465,0 1.028931,-0.514465 1.028931,-1.543396c0,-1.543381 -0.930084,-4.214539 1.028931,-6.173553c1.959015,-1.959 8.465393,-2.662888 15.948334,-0.514465c5.974884,1.715439 8.504456,4.786819 7.716949,6.688019c-1.113708,2.688721 -6.149536,3.857971 -10.289276,4.115707c-4.621216,0.287704 -7.935974,-0.707794 -11.832642,-3.601242c-4.390717,-3.2603 -6.860199,-6.266891 -6.173553,-8.745865c0.800751,-2.890961 5.566711,-5.071182 10.289276,-4.630173c3.901062,0.364288 4.630157,3.601242 4.630157,6.688019c0,4.115707 -2.301117,8.215561 -8.231415,9.26033c-7.093231,1.249649 -14.648438,0.363388 -16.462799,-2.572311c-0.540955,-0.875259 0.950623,-3.721954 0,-4.115707c-0.67218,-0.278427 -3.116119,1.972412 -7.716949,3.601242c-4.143555,1.466949 -6.597321,3.336945 -7.716919,3.601242c-1.001404,0.236404 -2.572327,1.028931 -5.144638,1.028931c-2.572311,0 -4.115707,0 -4.630157,0c-1.543396,0 -4.275192,0.340836 -5.659088,-0.514465c-0.618896,-0.382507 -1.289124,-1.237427 -0.514465,-2.572311c2.081848,-3.587418 10.8125,-2.533234 23.665268,-2.057861c13.919037,0.514816 24.643005,2.571182 32.411163,3.086777c3.079987,0.204422 4.115692,-0.514465 4.115692,-1.028915c0,0 -0.487061,0.256577 -4.115692,0.51445c-4.6185,0.328217 -11.389923,0.622711 -18.52066,-0.51445c-2.094727,-0.334061 -2.057861,-0.514465 -2.057861,-2.057861c0,-2.057846 1.001526,-3.857819 4.630188,-4.115692c9.23703,-0.656433 20.023529,1.542679 29.838837,2.057846c3.08252,0.161789 3.713837,0.145493 3.086761,0.514465c-3.227997,1.899353 -9.2901,2.26474 -18.006195,1.543381c-9.356049,-0.774323 -17.288391,-2.53746 -19.549591,-5.144623c-1.065918,-1.229019 -0.717255,-3.096786 -0.514465,-5.144623c0.258484,-2.610489 3.458923,-5.396042 9.774811,-6.173553c5.616699,-0.691437 10.377502,-1.455124 11.832642,0c0.727539,0.727554 0.377167,3.109909 0,6.173553c-0.259186,2.105286 -2.57785,4.314835 -6.173553,4.115692c-4.65152,-0.257614 -10.971985,-2.206085 -11.832642,-4.630157c-0.709717,-1.998932 5.012939,-4.882416 11.832642,-5.659088c8.178558,-0.931427 15.587524,-0.092056 16.462799,1.543381c0.485504,0.907181 -1.327118,3.630081 -4.630157,4.630173c-3.969757,1.20195 -10.372803,1.092331 -13.890503,-1.543396c-2.058563,-1.542419 -2.552277,-4.670013 -2.057831,-7.716934c0.521179,-3.211731 3.0401,-6.023773 5.659088,-6.173553c6.184845,-0.353699 16.578644,2.980972 24.694214,8.2314c3.982361,2.576416 5.101135,5.702576 3.601227,7.202484c-2.999817,2.999802 -11.972321,1.660553 -22.636353,-1.028931c-9.939392,-2.506729 -15.587555,-6.081497 -16.46283,-7.716934c-0.971039,-1.814362 0,-4.115707 0,-7.202484c0,-2.572311 -0.590637,-4.233185 0,-5.659088c0.278412,-0.67218 4.14151,-0.624313 8.74588,0.514465c5.694214,1.408325 9.527466,3.888397 10.803711,5.659088c0.672638,0.933243 0.514465,2.057846 0.514465,3.086777c0,1.028931 -0.480591,1.617615 -1.543396,2.057846c-1.503021,0.622574 -3.766907,1.4534 -9.260315,0c-6.009521,-1.589935 -11.305054,-5.155167 -13.376038,-7.716934c-0.723206,-0.894608 -0.665985,-2.750412 0.514465,-3.601242c1.866486,-1.345276 9.869476,-1.342911 20.578522,2.057846c10.389954,3.299423 15.391479,5.343658 15.948334,6.688019c0.393768,0.950607 0,2.572311 -0.514465,4.630157c-0.514465,2.057861 -1.128815,4.058365 -2.572327,6.688019c-1.107117,2.016846 -2.057831,4.115707 -2.572296,4.630173c-0.514465,0.514465 -2.260864,1.29834 -5.659088,0c-6.93103,-2.648117 -12.730133,-6.636856 -14.404968,-10.289261c-1.304382,-2.844543 1.888275,-5.908051 7.202484,-6.688019c5.599091,-0.821777 12.580231,0.376297 20.578522,3.601242c6.401459,2.5811 13.441406,5.620987 14.919403,8.2314c1.013916,1.790756 -0.770447,4.07753 -1.028931,6.688019c-0.202789,2.047836 -0.08905,3.525482 -0.514465,4.115707c-0.672638,0.933228 -3.109283,1.999619 -7.716919,1.543381c-5.220978,-0.516968 -10.767181,-2.535767 -14.404968,-6.173553c-1.818909,-1.818893 -2.572327,-4.115692 -2.572327,-5.659088c0,-2.572311 1.452728,-4.880325 2.572327,-5.144623c2.002808,-0.472794 5.33194,0.066895 8.231415,1.543381c3.943695,2.008224 6.918701,5.044662 7.716919,7.202484c0.735931,1.989426 0.514465,3.086777 0.514465,4.115707c0,2.057846 -1.028931,3.086777 -2.572296,4.115692c-1.543396,1.028931 -3.086792,1.028931 -4.115723,1.028931c-1.0289,0 -1.28418,-0.981491 -1.543365,-3.086777c-0.314301,-2.55304 0.555786,-5.338272 2.572296,-6.173553c0.475311,-0.196884 1.028931,0 2.572327,1.543396c2.057831,2.057846 2.572296,4.630157 2.572296,5.659088c0,2.057846 0.108948,3.403381 0.514465,3.086777c1.671936,-1.305405 0.077667,-3.824844 1.028931,-5.144638c1.504059,-2.086761 4.115692,-2.572311 7.202484,-2.572311c2.572296,0 3.086761,0 3.086761,0c0.514465,0.514465 0.514465,1.028931 0.514465,1.543396c0,0.51445 0.35675,1.779419 1.028931,2.057846c0.475311,0.196884 0.514465,0.514465 0.514465,1.028931c0,1.028915 0,1.543381 0,2.572311c0,0.514465 0,1.028915 -0.514465,1.028915c-0.514465,0 -0.953156,0.603516 -1.543396,1.028931c-0.933197,0.672623 -2.572296,0.514465 -4.115692,0.514465c-1.543396,0 -2.057861,0 -3.086761,0.514465c-1.028931,0.514465 -2.098206,0.406342 -3.601257,1.028915c-1.062805,0.440231 -1.543396,0.514465 -2.057831,0.514465c-1.028931,0 -2.098206,0.406342 -3.601257,1.028931c-2.12561,0.880463 -3.09201,0.901642 -4.630157,1.028931c-3.118713,0.258102 -6.173553,0.51445 -10.803711,0.51445c-4.630157,0 -8.231415,0 -10.803711,0c-0.514465,0 -1.055389,-0.668121 -0.514465,-1.543381c1.209564,-1.957123 3.595459,-2.608231 6.688019,-3.086777c3.595001,-0.55629 7.616943,-1.259613 9.77478,-2.057846c1.989441,-0.735931 3.601227,-1.028931 4.115692,-1.543396c0,0 0.665161,-0.363785 1.028931,0c0.36377,0.363785 -0.213959,1.420471 -1.028931,3.086777c-0.714783,1.461456 -1.686096,3.028107 -4.115692,4.630173c-2.312897,1.525116 -4.947754,3.047623 -5.144623,2.572311c-0.278412,-0.67218 2.477417,-2.05397 6.688019,-2.572311c5.106079,-0.628571 10.289246,0 13.890472,0c1.028931,0 2.057861,0 3.086792,0c2.057831,0 5.144623,0 6.173553,0c0,0 0.354584,0.789658 -0.514465,1.543381c-1.229034,1.065933 -5.106445,1.284897 -7.716949,1.543381c-2.047852,0.202774 -4.115692,0.514465 -6.173553,0.514465c-1.028931,0 -1.900116,0.236038 -2.572296,0.514465c-0.950623,0.393753 -1.543396,0 -3.601257,0c-1.028931,0 -1.543396,0 -2.057831,0c0,0 -0.528229,-0.118195 -1.028931,0c-1.119598,0.264297 -2.057861,0.514465 -2.572327,0.514465c-0.514465,0 -0.52774,-0.164825 -1.543396,0c-1.605835,0.260605 -4.115692,0.514465 -7.202454,0.514465c-1.543396,0 -2.097015,-0.196884 -2.572327,0c-0.67218,0.278427 -1.543396,0.514465 -2.057861,0.514465c-0.514465,0 -0.278229,-0.389618 1.028931,-1.028931c3.725983,-1.822327 7.678772,-0.770447 10.289246,-1.028931c2.047852,-0.202774 3.253937,-0.193634 3.086792,0.514465c-0.373779,1.583359 -3.4711,2.375275 -5.659088,3.086777c-2.975983,0.967743 -6.660614,0.771042 -10.289246,1.028931c-1.53952,0.109406 -2.057861,0 -2.057861,0c-1.543396,0 -2.572327,0 -4.115692,0c-0.514465,0 -1.543396,0 -3.601257,0c-2.057831,0 -4.115692,0 -5.144623,0c-1.028931,0 -2.057861,0 -3.601227,0c-2.057861,0 -5.144623,0 -7.716949,0c-1.028931,0 -1.543396,0 -2.057861,0c-0.514465,0 -2.057831,0 -4.630157,0c-1.028931,0 -2.057831,-0.514435 -2.057831,0c0,0.514435 2.595428,-0.377167 5.659088,0c2.105286,0.259171 4.630157,0.514465 6.687988,0.514465c1.028931,0 1.543396,0 2.057861,0c1.028931,0 2.057861,0 4.115692,0.51445c0,0 1.028931,0 1.543396,0c1.028931,0 2.572327,0 3.086792,0c0.514465,0 1.0289,0 1.543365,0c0,0 1.028931,0 2.057861,0c0.514465,0 0.938263,-0.764618 2.057861,-1.028915c0.500702,-0.118195 1.076385,0.255295 -1.028931,0.514465c-3.06366,0.377151 -6.688019,0 -8.74588,0c-0.514465,0 -0.514465,0 -1.028931,0c-0.514435,0 2.057861,-0.514465 5.659119,-0.514465c3.086761,0 4.115692,0 5.144623,0c2.572296,0 6.186523,0.06105 8.74585,-0.514465c2.069519,-0.465363 4.039124,-1.27861 5.144623,-3.601242c0.911621,-1.915298 1.028931,-4.115692 1.028931,-7.202469c0,-3.086777 0.431519,-6.068756 -1.543396,-7.716949c-2.649597,-2.211288 -6.751038,-2.164032 -9.77478,-1.543381c-3.838013,0.787781 -7.716949,3.086777 -11.318176,4.630157l-2.057861,0.514465l0,-0.514465l0.514465,-1.028931" id="svg_10" fill-opacity="null" stroke-opacity="null" stroke-width="8" stroke="#000" fill="none"/>
  <path d="m276.712585,102.913506c0.514465,1.543388 0.09024,4.661728 -1.0289,7.716942c-0.952911,2.601433 -2.558197,3.934349 -3.086792,6.173553c-0.118195,0.500694 -0.078583,-0.021263 0.514465,-2.057854c0.909698,-3.123993 1.717041,-6.333031 2.572327,-7.716942c0.382477,-0.618881 0.514435,0 0.514435,0.514465c0,2.057854 -0.25528,5.097191 -0.514435,7.202477c-0.062866,0.510612 -0.597961,-0.430984 1.0289,-2.057854c0.813446,-0.813438 2.057861,-1.028923 2.572327,0c3.086792,6.173546 7.803253,16.428574 13.890503,31.896698c6.262543,15.913605 9.77597,31.287338 14.404938,41.157013c2.547577,5.43187 5.295319,8.38208 5.659088,8.745865c0.36377,0.363785 1.547272,0.40506 3.086792,0.514465c3.628632,0.257874 7.716919,1.028915 10.803711,1.028915c1.028931,0 1.272919,-0.076843 1.543396,-0.514465c0.604797,-0.978561 1.543365,-1.543381 2.572296,-2.572311c0,0 0.236053,-0.356735 0.514465,-1.028915c0.196869,-0.475311 0,-1.028931 -0.514465,-1.028931c-0.514465,0 -0.721893,-0.531448 -3.086761,-1.543381c-2.877045,-1.231094 -4.707855,-1.252548 -5.659088,-2.572327c-0.300812,-0.417343 0,-1.028915 -0.514465,-1.028915c0,0 -1.543396,0.514465 -4.115692,2.057846c-2.572327,1.543396 -8.062164,4.109512 -17.49176,5.144623c-13.807526,1.515671 -26.700836,1.542267 -34.468994,2.057861c-2.053314,0.136292 -3.086761,0 -4.630157,0c-3.601227,0 -6.173553,0 -6.688019,0c-0.514465,0 -1.028915,0 -5.144623,0c-5.144623,0 -10.803711,0 -13.890488,0c-2.057861,0 -2.057861,0 -3.086777,0c-0.514465,0 -1.124619,0.356277 -2.057861,1.028915c-0.590225,0.425415 -1.028915,0.514465 -1.028915,1.028931c0,0 -0.150681,-0.363785 -0.514465,0c-0.363785,0.363785 -0.815826,0.301361 -1.543396,1.028931c-0.36377,0.36377 -0.51445,0.51445 -1.028915,0.51445l-0.514465,0l-0.514465,0l0.514465,-0.51445" id="svg_11" fill-opacity="null" stroke-opacity="null" stroke-width="8" stroke="#000" fill="none"/>
  <path d="m320.441925,199.118027c-2.572296,1.543396 -4.102417,2.129425 -6.688019,2.572311c-3.585571,0.614166 -6.688019,0.514465 -9.260315,0.514465c-0.514465,0 -1.028931,0 -1.028931,0c0,0.514465 0,1.028931 1.543396,1.028931c2.057831,0 4.22464,0.316605 4.630157,0c1.671936,-1.305405 0.7659,-4.131119 0.514465,-6.173553c-0.259186,-2.105286 -3.029449,-4.215561 -5.659088,-5.659088c-2.016846,-1.107147 -3.024323,-1.797256 -4.630157,-2.057846c-0.507813,-0.082413 -1.543396,0 -2.572327,0c-1.028931,0 -1.793549,-0.423798 -2.057861,-1.543396c-0.354584,-1.50209 -0.949829,-4.824707 -2.057831,-7.202484c-1.391388,-2.985901 -3.086792,-4.115692 -3.086792,-5.144623c0,-1.028915 -0.150696,-0.665131 -0.514465,-1.028915c-0.36377,-0.363785 -0.514465,-1.028931 -1.028931,-2.057861l-1.543365,-2.057846l-1.028931,-2.057846l-1.028931,-1.028931" id="svg_12" fill-opacity="null" stroke-opacity="null" stroke-width="null" stroke="null" fill="none"/>
 </g>
</svg>