<svg width="120" height="48" xmlns="http://www.w3.org/2000/svg">

 <g>
  <title>background</title>
  <rect fill="none" id="canvas_background" height="50" width="122" y="-1" x="-1"/>
 </g>
 <g>
  <title>Layer 1</title>
  <path id="svg_1" fill-rule="evenodd" d="m79,46l-38,0c-2.209,0 -4,-1.791 -4,-4l4,-24c0.678,-3.442 2.668,-4 4.877,-4l2.652,0c1.508,-6.948 6.073,-12 11.471,-12s9.963,5.052 11.471,12l2.652,0c2.209,0 4.199,0.558 4.877,4l4,24c0,2.209 -1.791,4 -4,4zm-19,-42c-4.352,0 -8.045,4.178 -9.418,10l18.837,0c-1.374,-5.822 -5.066,-10 -9.419,-10zm17,14c-0.308,-1.351 -0.957,-2 -2.37,-2l-2.828,0c0.123,0.976 0.198,1.975 0.198,3c0,0.552 -0.447,1 -1,1s-1,-0.448 -1,-1c0,-1.027 -0.069,-2.031 -0.201,-3l-19.598,0c-0.131,0.969 -0.201,1.973 -0.201,3c0,0.552 -0.447,1 -1,1s-1,-0.448 -1,-1c0,-1.025 0.075,-2.024 0.197,-3l-2.828,0c-1.412,0 -2.06,0.649 -2.369,2l-4,24c0,1.104 0.896,2 2,2l38,0c1.104,0 2,-0.896 2,-2l-4,-24z" clip-rule="evenodd"/>
  <path d="m49.630474,28.170717c0,0.482304 0.124538,1.352875 0.192921,2.315056c0.096706,1.360727 0.337521,2.599936 0.385845,3.376123c0.035965,0.577644 -0.068207,0.799938 0,0.868145c0.204624,0.204624 0.587006,-0.480782 0.868145,-2.025673c0.298134,-1.638264 0.76767,-3.458933 0.964607,-5.112415c0.182888,-1.53553 0.096462,-2.604439 0.096462,-2.797359c0,-0.09646 -0.734627,0.929037 -1.639832,2.507977c-1.137344,1.983854 -2.459339,3.572472 -2.025677,3.858427c0.227772,0.15019 0.925442,-1.749125 1.543373,-3.569044c0.725998,-2.138195 1.492779,-3.915638 1.639832,-4.726574c0.03442,-0.189825 0.077454,-0.201305 0,0c-0.647095,1.681845 -0.981838,4.465126 -1.832756,6.752247c-0.618378,1.662102 -0.947601,2.750458 -1.157528,2.700901c-0.093884,-0.022163 0.005432,-0.215752 0.096462,-0.385845c0.164108,-0.306641 0.678413,-0.473932 1.446911,-0.771685c0.484371,-0.187668 0.675224,-0.289381 0.771687,-0.289381c0.096458,0 0.096458,0.09646 0.096458,0.289381l0,0.09646" id="svg_2" fill-opacity="null" stroke-width="NaN" stroke="#000000" fill="none"/>
  <path d="m61.205753,29.231785c-0.096458,0.289381 -0.192921,0.578764 -0.289379,0.964605c-0.096462,0.385843 -0.343739,0.742989 -0.578766,1.25399c-0.12746,0.277128 -0.164669,0.45405 -0.096458,0.385841c0.409248,-0.409248 0.074238,-1.561441 -0.289383,-2.89382c-0.240932,-0.88282 -0.482304,-1.446909 -0.482304,-1.639832c0,0 -0.179249,0.009977 -0.675224,0.675224c-0.657379,0.881737 -1.330933,2.034868 -1.929214,3.279663c-0.467178,0.972023 -0.658222,2.075226 -0.868145,2.025673c-0.09388,-0.02216 0.380268,-0.839378 0.675224,-1.929213c0.281742,-1.041012 0.385841,-1.736292 0.385841,-2.122133l0,-0.096462l0,-0.09646l-0.096458,0" id="svg_3" fill-opacity="null" stroke-width="NaN" stroke="#000000" fill="none"/>
  <path d="m61.398678,25.469818c0,-0.09646 -0.075714,-0.074532 -0.482304,0.289383c-0.460228,0.411924 -0.975426,0.860264 -1.25399,1.253988c-0.200874,0.283916 -0.225105,0.350716 0.192921,0c0.902035,-0.756788 2.105297,-1.393034 3.279663,-1.832752c0.571335,-0.213924 0.578766,-0.192923 0.675224,-0.192923c0.096462,0 0.144199,0.098433 0.096462,0.675224c-0.048397,0.584747 -0.192921,1.061068 -0.192921,1.639832c0,0.385843 0,0.578764 0,0.675224l0,0.096462l0,0" id="svg_4" fill-opacity="null" stroke-width="3" stroke="#000000" fill="none"/>
  <path d="m60.434071,41.964592c0,0.096462 0.093884,0.26722 0,0.289383c-0.209923,0.049557 -0.435406,-0.800739 -0.868145,-1.446911c-0.611984,-0.91383 -1.237202,-1.646088 -1.639832,-2.700897c-0.370491,-0.970608 -0.518822,-1.655315 -0.385845,-2.218597c0.049557,-0.209923 0.164669,-0.35759 0.096462,-0.289383c-0.068211,0.068211 -1.133209,0.645069 -3.183201,0.868149c-3.357681,0.365379 -6.848709,0 -8.488541,-0.289383c0,0 -0.065971,-0.502876 1.061069,-1.061069c1.750271,-0.866867 4.628944,-1.302212 7.620392,-1.350449c2.507652,-0.040436 3.053902,-0.090698 3.086739,0c0.25647,0.708382 -2.14983,1.491203 -4.437187,2.025677c-2.271873,0.530857 -4.415855,0.470097 -4.919495,-0.385845c-0.489178,-0.831367 -0.045643,-2.605038 0,-4.340729c0.048244,-1.834654 0.068729,-3.484875 0.675224,-4.437191c0.293118,-0.460251 0.703476,-0.55051 0.771683,-0.482304c0.204624,0.204624 0.094501,1.406015 -0.385841,2.700899c-0.420364,1.133192 -1.311199,2.071545 -2.122135,2.218596c-0.569473,0.103266 -0.944561,-0.276997 -1.157528,-1.832752c-0.302029,-2.20639 -0.474468,-4.679441 0,-6.559326c0.306873,-1.21586 0.964607,-1.929213 1.25399,-1.929213c0.192921,0 0.434055,0.769676 0.482304,2.507977c0.05888,2.121319 -0.243633,4.116001 -1.350449,5.498259c-0.811146,1.013008 -1.475163,1.129276 -1.543373,1.061068c-0.204624,-0.204624 0.34206,-1.754736 1.25399,-3.858427c1.012871,-2.336544 2.300392,-4.044258 4.340729,-4.437191c1.610245,-0.310104 3.092659,-0.022795 3.376125,0.675224c0.473217,1.165272 0.260765,2.917391 -0.096462,4.823034c-0.332024,1.771183 -0.912861,2.770838 -1.543369,3.183201c-0.180515,0.118059 -0.43919,0.094984 -0.385845,-0.868145c0.096611,-1.744305 0.347675,-3.795706 1.350452,-5.305338c0.718052,-1.080992 1.850815,-1.505585 2.507977,-1.350449c0.629765,0.148668 0.887001,1.158678 0.771683,2.89382c-0.136745,2.057554 -0.909462,3.928741 -2.122131,4.823034c-1.009235,0.744267 -2.451756,0.72978 -3.183205,-0.192923c-0.645382,-0.814137 -0.804508,-2.697842 0.192921,-4.340729c1.061924,-1.749119 3.570023,-2.811958 6.559326,-2.604439c3.340412,0.231894 6.168747,1.597651 6.848709,3.086742c0.56237,1.231567 0.004639,3.07435 -1.157528,4.147808c-1.690247,1.561224 -4.539196,2.215437 -6.945168,2.025675c-1.470997,-0.11602 -1.896282,-0.910128 -1.543373,-1.929214c0.60717,-1.753302 2.306198,-3.956898 4.630112,-4.919495c2.464882,-1.020988 4.845074,-0.962738 5.401798,-0.192921c0.568085,0.785526 0.182449,2.530621 -0.289383,4.147808c-0.572487,1.962156 -1.509365,3.45961 -2.507977,3.761967c-0.646252,0.195671 -1.652821,-0.605434 -2.604439,-2.218596c-1.315098,-2.229321 -2.025856,-4.633442 -1.157528,-6.077023c1.057068,-1.75736 4.431839,-2.314989 7.041626,-2.411516c1.54232,-0.057045 1.807709,0.003311 1.736298,0.771685c-0.145317,1.563528 -0.475388,3.793234 -1.929214,5.884102c-1.479668,2.128035 -4.352474,3.237318 -6.945168,2.990282c-2.542419,-0.242245 -4.861931,-1.782284 -5.208878,-3.472586c-0.330284,-1.609119 1.087006,-4.044003 3.376125,-5.208876c2.556065,-1.300713 5.757431,-1.499504 7.813313,-0.964607c1.252457,0.325863 2.023506,1.307016 2.218597,2.604439c0.157776,1.049273 -0.228195,2.214298 -1.157532,2.411516c-1.509743,0.320389 -3.998505,-0.216576 -6.559322,-1.736292c-2.372517,-1.40797 -3.597748,-3.112547 -3.376125,-4.051348c0.24778,-1.049614 2.029575,-1.79258 5.015957,-1.639832c3.776768,0.193174 7.845135,0.818134 9.838985,2.122135c0.570839,0.373335 0.514992,1.18211 0,1.832752c-0.636383,0.804014 -2.10511,1.494696 -3.954887,1.639832c-2.307961,0.181086 -4.823708,-0.283781 -6.752247,-1.350451c-1.334633,-0.738182 -2.411095,-2.152073 -2.122135,-3.376123c0.258453,-1.094822 1.535362,-1.639683 3.279663,-1.736292c2.407829,-0.133358 4.955032,0.236858 6.462868,0.675226c0.997612,0.29003 1.205666,0.670721 1.25399,1.446909c0.047951,0.770193 -0.024025,1.761614 -0.964607,2.315056c-1.210487,0.712255 -3.253716,0.924362 -5.208878,0.385843c-1.580959,-0.435452 -2.459972,-1.427029 -2.50798,-2.315056c-0.04715,-0.872215 0.699577,-2.069128 1.929214,-2.315056c2.080925,-0.416185 5.400169,0.555273 8.681458,2.122133c2.494133,1.190983 3.518005,2.344965 3.279663,3.279663c-0.298637,1.171171 -1.658195,2.250193 -4.147804,2.99028c-3.300247,0.981068 -6.843456,1.306396 -10.128372,1.25399c-2.130615,-0.033991 -3.491791,-0.488531 -3.569046,-0.964607c-0.146584,-0.903292 0.944168,-2.112244 2.218597,-2.797359c1.263046,-0.678997 2.178638,-0.715179 2.315056,-0.578764c0.341042,0.34104 -0.567543,1.454191 -1.446911,2.797359c-0.952518,1.454897 -1.922527,2.431562 -2.122135,3.183203c-0.024757,0.093229 0.016815,0.089239 0.868149,-0.482304c1.432632,-0.9618 2.984295,-1.591436 3.569042,-1.639832c0.192265,-0.015913 0.084721,0.191708 -0.771683,0.868145c-1.155453,0.912645 -2.507771,1.5408 -3.665508,1.446911c-1.189247,-0.096443 -2.498962,-1.198341 -3.761963,-3.279663c-1.142227,-1.882298 -1.429871,-3.411669 -1.157528,-4.437191c0.199608,-0.751637 0.473335,-0.79427 0.4823,-0.578764c0.043171,1.038015 -0.975605,2.114527 -1.639828,3.086742c-0.392395,0.574343 -0.385845,0.675224 -0.385845,0.578764c0,-0.289383 0.128067,-1.056242 0.289383,-2.218596c0.120075,-0.865196 0.164669,-1.475163 0.096462,-1.543371c-0.068211,-0.068209 -0.815968,0.338736 -1.639832,1.157528c-0.920475,0.914808 -1.736298,2.218596 -1.350452,2.218596c0.096462,0 0.406918,-0.688875 1.350452,-1.253988c0.815025,-0.488144 1.991802,-0.559879 2.218594,-0.192921c0.354984,0.574381 -0.045151,1.640533 0,3.08674c0.048256,1.54563 0.336678,3.158512 0.482304,4.437189c0.087322,0.766731 0,0.964607 0.096462,0.964607c0,0 0.337517,-0.477802 0.385841,-1.253988c0.047951,-0.770193 0,-1.350449 0,-1.350449c-0.771687,0.289381 -1.857323,1.026608 -3.086742,1.929213c-0.886547,0.650875 -1.358196,1.193836 -1.73629,1.350449c-0.089119,0.036915 -0.177917,-0.679081 -0.482304,-1.832752c-0.459717,-1.742409 -0.867207,-2.970049 -0.964607,-3.665504c-0.02676,-0.191055 -0.298763,-0.237309 -0.578766,0.578764c-0.478874,1.395695 -0.452496,2.992929 -0.578762,4.244268c-0.078075,0.773762 -0.159504,1.333801 0.096458,0.771687c0.44693,-0.981499 0.385845,-2.315056 0.385845,-3.569046c0,-0.482302 0.061447,-0.710608 0.096458,-0.578764c0.282284,1.062977 -0.747749,2.799154 -0.868145,4.244268c-0.080486,0.966072 -0.229836,1.343109 -0.192921,1.25399c0.052204,-0.126034 0.403248,-0.864532 0.675224,-2.218594c0.309227,-1.539518 0.289383,-2.990282 0.289383,-3.954889c0,-0.482304 0,-0.578764 0,-0.578764c-0.385845,0.771687 -1.236164,2.18206 -1.832752,3.569046c-0.446121,1.037167 -0.465302,1.978764 -0.675224,1.929211c-0.09388,-0.02216 0.09613,-0.470333 0.192921,-1.639828c0.143211,-1.730377 -0.09618,-3.461527 -0.192921,-4.726574c-0.036777,-0.4809 -0.021862,-0.639919 -0.096462,-0.578764c-0.380371,0.311831 -0.612297,2.003056 -0.868145,3.858427c-0.198093,1.436527 -0.482304,2.507977 -0.192921,2.507977c0.289383,0 0.372574,-1.431351 0.675224,-3.279663c0.266811,-1.62944 0.207878,-2.904411 0.385841,-3.954887c0.132862,-0.78426 0.247856,-1.363279 0.385841,-1.736292c0.074833,-0.202295 0.192921,-0.192921 0.192921,-0.09646c0,0.289383 0,0.289383 0,0.289383c0,-0.192923 0.047997,-0.668068 0.096462,-1.15753c0.038021,-0.383963 0.096462,-0.964605 0.096462,-1.543369c0,-0.385843 0.011173,-0.768198 0.096458,-1.061068c0.111198,-0.381857 0.143368,-0.658224 0.192921,-0.868147c0.022163,-0.09388 0.044258,-0.259809 0.096462,-0.385841c0.110744,-0.267355 0.145775,-0.388735 0.192921,-0.771687c0.048595,-0.394737 0.096462,-0.578764 0.192921,-0.771685c0,0 0,-0.09646 0,-0.192921c0,-0.096462 0,-0.192923 0,-0.192923c0,-0.192921 0.096462,-0.192921 0.192921,-0.192921c0.289383,0 0.593452,0.073826 0.771687,0c0.126034,-0.052204 0.289383,-0.09646 0.578766,-0.09646c0.289379,0 0.868145,-0.09646 1.061066,-0.09646c0.192921,0 0.385841,0 0.482304,0c0.289383,0 0.779251,0.020269 1.061066,-0.096462c0.199276,-0.082542 0.179516,-0.012815 -0.096458,0.289383c-0.508034,0.556314 -1.190529,1.430731 -2.025673,2.025675c-0.6334,0.451225 -1.330799,0.690779 -1.639832,1.061066c-0.138206,0.1656 -0.164673,0.261131 -0.096462,0.192923c0.068207,-0.068209 0.329018,-0.452631 0.771687,-0.771687c0.349957,-0.252234 0.542347,-0.227924 0.578762,-0.09646c0.106163,0.383287 -0.289379,0.868147 -0.482304,1.350451c-0.192921,0.482302 -0.426247,0.908548 -0.578762,1.061066c-0.152515,0.152519 -0.221176,0.221174 -0.289383,0.289383c-0.068211,0.068209 -0.096462,0.09646 -0.096462,0.09646c-0.096458,0.09646 -0.27758,0.29575 -0.385841,0.482304c-0.174568,0.300808 -0.333637,0.452734 -0.385841,0.578764c-0.036915,0.089117 -0.192921,0.09646 -0.289383,0.09646c-0.192921,0 -0.289383,0 -0.289383,-0.09646c0,-0.09646 0,-0.289383 0,-0.289383c0.096462,0 0.247566,0.202578 0.868149,0.385843c0.837723,0.247391 1.737617,0.240929 2.604435,0.192921c0.872154,-0.048304 1.464184,-0.361111 2.025677,-0.771685c0.498577,-0.364569 0.986088,-0.74506 1.350449,-1.061068c0.412224,-0.357519 0.723091,-0.666328 0.771687,-1.061068c0.011787,-0.095737 -0.1073,-0.34215 -0.578766,-0.482302c-0.497921,-0.148018 -0.62302,-0.163353 -0.675224,-0.289383c-0.036915,-0.089117 0.096458,-0.385843 0.868145,-0.385843c1.061069,0 2.700901,0 4.05135,0c1.061066,0 1.543369,0 1.639832,0c0.096458,0 0.217754,-0.130499 0.096458,-0.192921c-0.521717,-0.268482 -1.350025,-0.197266 -2.315056,-0.289381c-1.060619,-0.10124 -1.73629,-0.289383 -2.025673,-0.289383c-0.192921,0 -0.319286,0.063908 -0.578766,-0.09646c-0.348125,-0.215155 -0.696709,-0.455681 -1.061066,-0.771687c-0.206112,-0.178761 -0.119091,-0.400528 -0.192921,-0.578764c-0.052204,-0.126032 -0.096462,-0.192921 -0.096462,-0.289381c0,-0.09646 0,-0.192921 0.096462,-0.192921c0.096458,0 0.385841,0 0.578762,0c0.192924,0 0.290104,-0.011786 0.385845,0c0.394737,0.048594 0.737682,0.28673 1.157528,0.385841c0.563278,0.132971 0.957451,0.144455 1.446907,0.192923c0.479958,0.047525 0.771687,0.09646 1.061069,0.09646c0.096462,0 0.385841,0 0.771687,0c0.4823,0 1.061066,0 1.543369,0c0.096462,0 0.368839,-0.046904 0.578762,-0.09646c0.187763,-0.044325 0.567051,-0.144062 0.868149,-0.192923c0.19043,-0.030903 0.454048,-0.028252 0.385841,-0.09646c-0.341042,-0.34104 -1.157528,0 -2.025673,0c-1.061069,0 -1.923229,-0.048065 -2.507977,-0.09646c-0.384529,-0.031824 -0.607018,0.068209 -0.675228,0c-0.136417,-0.136415 -0.096458,-0.192921 0,-0.192921c0.385845,0 1.062527,0.041029 1.639832,0c0.680363,-0.048353 1.343296,-0.144457 1.832756,-0.192923c0.479954,-0.047525 0.868145,0 1.157528,0c0.289379,0 0.580009,-0.081009 0.675224,-0.09646c0.301094,-0.048861 0.38958,-0.050106 0.675224,-0.09646c0.301094,-0.048861 0.575275,-0.107635 0.868145,-0.192921c0.381855,-0.111197 0.771687,-0.192923 0.964607,-0.192923c0.192921,0 0,-0.09646 -0.482304,-0.09646c-0.385841,0 -1.157528,0 -2.025673,0c-0.964607,0 -1.832752,0 -2.411518,0c-0.385841,0 -0.578766,0 -0.868145,0c-0.289383,0 -0.578766,0 -0.771687,0c-0.192921,0 -0.192921,0.09646 -0.289383,0.09646c-0.192921,0 -0.482304,0 -0.675224,0c-0.289383,0 -0.578762,0 -0.868145,0c-0.482304,0 -1.064819,0.07604 -1.832752,0c-0.48946,-0.048466 -0.583221,-0.116467 -0.192921,-0.192921c0.669357,-0.131117 1.740257,-0.144135 3.183201,0c1.452488,0.145088 2.791664,0.327375 3.954887,0.482304c0.960934,0.127985 1.73629,0.192921 2.411518,0.192921c0.675224,0 1.16114,0.058928 1.639828,0c0.394741,-0.048594 0.865658,-0.109879 1.350452,-0.192921c0.672283,-0.115158 1.158558,-0.133801 1.832752,-0.09646c0.872154,0.048304 1.619598,0.384899 2.315056,0.482302c0.095528,0.013378 0.096458,0.096462 0.096458,0.096462c-0.096458,0.385841 -0.768402,0.723404 -1.832748,0.771685c-1.34906,0.061195 -2.50798,0 -3.183205,0c-0.289383,0 -0.432983,-0.002892 -0.385841,-0.385843c0.048592,-0.394735 0.772514,-0.425928 1.73629,-0.385841c1.160538,0.048271 2.041954,0.30616 2.700897,0.482302c0.501839,0.134146 0.956909,0.31358 1.832756,0.578764c1.052628,0.31871 1.821045,0.37414 2.025673,0.578764c0.272835,0.272833 0.132973,0.883631 0,1.446911c-0.099113,0.419847 -0.57476,0.723381 -1.446907,0.771685c-1.059448,0.058678 -2.573341,-0.285824 -3.376129,-1.253988c-0.331566,-0.399872 -0.327293,-1.139996 0,-1.543371c0.438271,-0.54015 1.150375,-0.723219 1.639832,-0.771685c0.671936,-0.066536 1.052177,0.047867 1.446915,0.09646c0.38295,0.047144 0.587036,0.137016 0.771683,0.192923c0.33287,0.100784 0.460114,0.3423 0.868149,0.482302c0.465225,0.159624 0.83857,0.140718 0.964607,0.192923c0.089119,0.036911 0.385841,0 0.771683,0.09646c0.385841,0.09646 0.771683,0.192921 1.061066,0.482304c0.289383,0.289381 0.578766,0.675224 0.578766,0.868145c0,0.192923 -0.002304,0.441536 -0.675224,0.385843c-0.584747,-0.048395 -1.394081,-0.622583 -2.218597,-1.350449c-0.818146,-0.722242 -1.088905,-1.241283 -1.25399,-1.639832c-0.11673,-0.281816 -0.402779,-0.588203 -0.289383,-0.771687c0.050713,-0.08206 0.567894,0.132797 1.157532,0.289383c0.475372,0.126242 0.852531,0.237825 1.350449,0.385843c0.471466,0.140154 1.063499,0.181473 1.543373,0.289381c0.388023,0.087254 0.868141,0.09646 1.157524,0.09646c0.096466,0 0.204102,-0.003489 0.289383,0.289383c0.111191,0.381855 0.096458,0.868145 0.096458,1.253988c0,0.385843 0,0.385843 0,0.385843c-0.385841,-0.385843 -0.871864,-0.782909 -1.350449,-1.446911c-0.252235,-0.349958 -0.192917,-0.482304 -0.192917,-0.675224c0,-0.192921 0,-0.482304 0,-0.578764c0,0 0,0 0.192917,0c0.289383,0 0.578766,0 0.77169,0c0.192917,0 0.203102,-0.043142 0.289383,0c0.431381,0.215694 0.544891,0.790569 0.771683,1.157528c0.253563,0.410273 0.342148,0.975447 0.4823,1.446911c0.148018,0.497921 0.240921,0.860987 0.289383,1.350449c0.028511,0.287973 0.096466,0.675224 0.096466,1.157528c0,0.482304 0.0476,0.85643 0.096458,1.157528c0.061806,0.380861 0,0.771685 0,1.350449c0,0.578764 0.029968,1.254923 0,1.736292c-0.048325,0.77619 -0.289383,1.639832 -0.482307,2.604439c-0.192917,0.964607 -0.322678,1.656902 -0.4823,2.122135c-0.07,0.204018 -0.192917,0.385841 -0.096458,0.385841c0.192924,0 0.037544,-0.680223 -0.096466,-1.543369c-0.226387,-1.458096 -0.675224,-2.990282 -0.675224,-4.14781c0,-1.061066 0,-1.832752 0,-2.604437c0,-0.578764 0,-0.771687 0,-0.771687c0,0 0.074272,0.009695 0,0.289383c-0.199608,0.751637 -0.877869,1.570604 -1.350449,2.411516c-0.254494,0.452843 -0.192917,0.578764 -0.192917,0.289383c0,-0.385843 -0.485268,-0.29282 -1.157532,0.289381c-0.775116,0.671278 -1.520363,1.557051 -1.929214,2.218596c-0.182846,0.295851 -0.242424,0.080309 0,-0.578764c0.402359,-1.093889 0.960503,-2.220846 1.543373,-3.279663c0.478935,-0.870007 0.830185,-1.596331 1.350449,-1.929213c0.181686,-0.116249 0.289383,-0.09646 0.4823,-0.09646c0.192924,0 0.482307,0 0.675232,0c0.096458,0 0.192917,0.385841 0.578758,1.061068c0.385841,0.675224 0.964607,1.253988 1.25399,1.832752c0.289383,0.578764 0.417114,1.339434 0.675224,2.122135c0.219925,0.666918 0.385841,1.253986 0.578766,1.929213c0.192917,0.675222 0.169029,1.551889 0.385841,2.122135c0.26107,0.686666 0.432747,1.236986 0.4823,1.446909c0.066483,0.281643 0.028252,0.743435 0.096466,0.675224c0.068207,-0.068207 0.061653,-0.406593 -0.192924,-1.061066c-0.312775,-0.804081 -0.706169,-1.246908 -0.868141,-2.025675c-0.119484,-0.574455 -0.337379,-1.053909 -0.385849,-1.543371c-0.038025,-0.383963 -0.096458,-0.578764 -0.096458,-0.771685c0,-0.09646 0,-0.385843 0,-0.385843c0,-0.289381 0,-0.385841 0,-0.482304c0,-0.289381 -0.030899,-0.581255 0,-0.771685c0.048859,-0.301096 0.192924,-0.482304 0.289383,-0.675224c0.096458,-0.192921 0.096458,-0.289383 0.4823,-0.289383c0,0 0,0.096462 0,0.578764c0,0.482304 0,1.061068 0,1.543371c0,0.482304 -0.109451,1.07151 0,1.639832c0.098236,0.510084 0.243027,0.968344 0.289383,1.253988c0.048866,0.301098 0.029984,0.682964 0.096466,0.964607c0.099106,0.419844 0.275032,0.881046 0.385841,1.350449c0.099106,0.419842 0.286728,0.64122 0.385841,1.061069c0.066483,0.281639 0.076195,0.682789 0.192924,0.964603c0.082542,0.199276 0.192917,0.578766 0.192917,0.868149c0,0.289379 0,0.482304 0.096458,0.868145c0.096466,0.385841 0.096466,0.578762 0.096466,0.868145c0,0.289383 0.096458,0.675224 0.096458,0.868145c0,0.289383 0.096458,0.578766 0.096458,0.868149c0,0.289379 0.0476,0.470589 0.096466,0.771683c0.046356,0.285645 -0.044319,0.487465 0,0.675224c0.049553,0.209927 0.096458,0.482304 0.096458,0.578766c0,0.289383 0,0.385841 0,0.578762c0,0.096462 0,0.192924 0,0.289383c0,0.192921 0,0.289383 0,0.289383c0,0.096462 -0.096458,0.192921 -0.192924,0.385841c0,0 -0.096458,0.096458 -0.289383,0.289383c-0.096458,0.096462 -0.178711,0.113159 -0.289375,0.192921c-0.17498,0.126122 -0.393188,0.252468 -0.482307,0.289383c-0.12603,0.052204 -0.199287,0.084663 -0.385841,0.192921c-0.300812,0.174568 -0.482307,0.192921 -0.578766,0.192921c-0.192917,0 -0.385841,0 -0.771683,0c-0.482307,0 -1.061066,0 -1.446915,0c-0.385841,0 -0.771683,0 -1.157524,-0.096458c-0.385841,-0.096462 -0.873131,-0.03466 -1.25399,-0.096462c-0.301094,-0.048859 -0.666328,-0.144325 -1.061066,-0.192921c-0.287216,-0.035358 -0.482307,0 -0.675224,0c-0.096458,0 -0.289383,0.096462 -0.578766,0.096462c-0.289383,0 -0.385841,0.096458 -0.578766,0.096458c-0.096458,0 -0.277672,0.144062 -0.578758,0.192921c-0.285645,0.046352 -0.578766,0 -0.77169,0c-0.096458,0 -0.289383,0.096462 -0.675224,0.096462c-0.4823,0 -1.067291,0.077255 -1.543365,0c-0.301102,-0.048862 -0.485199,-0.04932 -0.868149,-0.096462c-0.394737,-0.048592 -0.967041,-0.181473 -1.446907,-0.289379c-0.388031,-0.087254 -0.675228,-0.096462 -0.77169,-0.096462c-0.096458,0 -0.388733,-0.04932 -0.771683,-0.096462c-0.394741,-0.048592 -0.771687,-0.096458 -1.061069,-0.096458c-0.192921,0 -0.385841,0 -0.578762,0c-0.675224,0 -1.25399,0 -1.639832,0c-0.192921,0 -0.385845,0 -0.482304,0.096458c-0.096462,0.096462 -0.385841,0.096462 -0.675224,0.096462c-0.192921,0 -0.192921,0 -0.482304,0c-0.192921,0 -0.482304,0 -0.868145,0c-0.385845,0 -0.771687,0 -1.25399,0c-0.675224,0 -1.05888,-0.105667 -1.446911,-0.192921c-0.479874,-0.107906 -0.945862,-0.236172 -1.350449,-0.385841c-0.373013,-0.137989 -0.578762,-0.192924 -0.868145,-0.192924c-0.385845,0 -0.675224,-0.192921 -0.868145,-0.192921c-0.289383,0 -0.385845,0 -0.675228,0c-0.482304,0 -1.165268,-0.066486 -1.446907,0c-0.209927,0.049557 -0.198086,0.148598 -0.385845,0.192921c-0.209923,0.049557 -0.289379,0.192924 -0.385841,0.289383c-0.096462,0.096462 -0.385841,0.096462 -0.578766,0.192921c0,0 -0.317268,0.091766 -0.771683,-0.096458c-0.642643,-0.26619 -1.157528,-0.675224 -1.736294,-1.157528c-0.578762,-0.482304 -1.009411,-0.912952 -1.350449,-1.25399c-0.341038,-0.341038 -0.311375,-0.701954 -0.482304,-1.061066c-0.207283,-0.435493 -0.419235,-0.743275 -0.578762,-0.964607c-0.126118,-0.17498 -0.096462,-0.385845 -0.096462,-0.578766c0,-0.289383 0.035358,-0.580929 0,-0.868145c-0.048595,-0.394737 -0.070557,-0.779102 -0.192921,-1.157528c-0.159821,-0.494259 -0.145779,-0.678116 -0.192921,-1.061066c-0.048595,-0.394741 -0.028252,-0.607018 -0.096462,-0.675228c-0.068207,-0.068207 -0.228374,0.009899 -0.289383,0.192924c-0.152515,0.45755 -0.472404,0.72937 -0.675224,1.253986c-0.177361,0.458763 -0.093426,0.811436 -0.289379,1.157528c-0.067211,0.11871 -0.022633,0.207607 -0.096462,0.385845c-0.052204,0.12603 -0.096462,0.385841 -0.096462,0.578762c0,0.192921 0,0.192921 0,0.385841c0,0.192924 0,0.289383 0,0.482304c0,0.096462 0,0.289383 0,0.482304c0,0.192921 0,0.385845 0,0.578766c0,0.192921 0,0.385841 0,0.482304c0,0.096458 0,0.096458 0,0.289379c0,0.192924 0,0.289383 0,0.385845c0,0.192921 0,0.192921 0,0.289383c0,0.096458 0,0.192921 0,0.289379c0,0.096462 0,0.385845 0,0.385845c0.096462,0.096458 0.096462,0.192921 0.096462,0.289379c0,0.096462 0,0.096462 0,0.192924c0,0.096458 -0.039955,0.289379 0.096462,0.289379c0.272831,-0.000004 0.192921,-0.385841 0.192921,-0.578762c0,-0.096462 0,-0.192921 0,-0.192921c-0.096462,0 -0.192921,0 -0.289383,0c-0.096462,0 -0.096462,0 -0.192921,0c-0.096462,0 -0.103806,0.059544 -0.192921,0.096458c-0.126034,0.052204 -0.059547,0.103806 -0.096462,0.192921c-0.052204,0.126034 -0.096462,0.096462 -0.096462,0.192924c0,0.096458 -0.068207,0.221172 0,0.289379c0.068211,0.068211 0.028252,0.028252 0.096462,0.096462c0.136417,0.136417 0.317631,0.221172 0.385841,0.289383c0.272835,0.272835 0.774117,0.277931 1.25399,0.385841c0.388027,0.087257 0.578762,0.096462 0.675224,0.096462c0.192921,0 0.259811,-0.044258 0.385841,-0.096462c0.178238,-0.07383 0.385845,-0.192921 0.385845,-0.192921c0.192921,-0.096462 0.374126,-0.144062 0.675224,-0.192921c0.476078,-0.077255 0.771683,0 0.868145,0c0,0 0.095741,0.011787 0,0c-0.394737,-0.048595 -0.712543,-0.281433 -0.964607,-0.385845c-0.178234,-0.07383 -0.289383,-0.096458 -0.578762,-0.192921c0,0 -0.040062,-0.018208 -0.096462,-0.096458c-0.178356,-0.247459 -0.482304,-0.289383 -0.385841,-0.289383c0.096458,0 0.585781,0.18153 1.061066,0.482304c0.293892,0.185982 0.607018,0.414097 0.675224,0.482304c0.068207,0.068207 0.096458,0.096458 0.192921,0.192921c0.096462,0.096462 0.582088,0.180092 1.350452,0.385841c0.678345,0.181644 1.157528,0.192921 1.446907,0.192921c0.385845,0 0.870937,-0.01545 1.446911,0.096462c0.872997,0.169624 1.633846,0.337448 2.218597,0.385841c0.384525,0.031822 0.454525,0.094688 0.964607,0.192921c0.37888,0.072964 0.771683,0 0.964603,0c0.192924,0 0.289383,0 0.578766,0c0.192921,0 0.326698,-0.184971 0.578762,-0.289379c0.089119,-0.036915 0.192924,-0.192924 0.192924,-0.289383c0,-0.289383 0.134365,-0.714554 -0.096462,-1.25399c-0.189739,-0.443413 -0.35627,-0.719479 -0.482304,-0.771683c-0.089119,-0.036915 -0.289383,-0.096462 -0.964607,-0.096462c-1.350449,0 -3.064125,-0.419376 -4.919495,-0.675224c-1.436523,-0.198093 -2.513844,-0.158264 -3.183201,-0.289383c-0.390297,-0.076454 -0.289383,-0.096458 0.096462,-0.096458c1.253986,0 3.65884,0.329762 6.462864,0.771683c2.02129,0.318562 2.672649,0.317635 2.604439,0.385845c-0.613873,0.613873 -3.014595,-0.291119 -6.945168,-1.350452c-4.27317,-1.151669 -6.717979,-1.968956 -6.752247,-2.315056c-0.026882,-0.271503 1.05751,-0.515415 2.700897,-0.675224c2.503574,-0.243462 5.305336,-0.192921 7.331009,-0.192921c0.675228,0 0.203209,0.165733 -0.868145,0.289383c-1.918888,0.221466 -4.058388,0.239029 -5.498257,0.096458c-0.48946,-0.048466 -0.675224,-0.096458 -0.675224,-0.771683c0,-0.675224 -0.034241,-1.650566 0.192921,-2.315056c0.168034,-0.491528 0.099041,-0.653061 0.192921,-0.675224c0.209923,-0.049557 0.408123,1.133167 1.25399,1.929211c1.250687,1.177013 2.621719,1.986122 3.761963,2.50798c0.588383,0.269287 1.157528,0.289379 2.122135,0.289379c0.964607,0 1.789265,-0.188595 2.122135,-0.289379c0.092323,-0.027954 -0.385841,0 -1.061066,0c-0.096462,0 0.000992,0.284008 1.061066,0.482304c2.510387,0.469589 5.104824,0.964474 6.945168,1.061066c0.48164,0.02528 0.289383,0.096462 -1.157528,0.096462c-2.315056,0 -5.776047,-0.240948 -8.488537,-0.385845c-0.385296,-0.02058 -0.296539,-0.047993 0.192921,-0.096458c1.439869,-0.14257 3.972687,-0.099712 6.945168,0.482304c2.525925,0.494579 3.352589,0.750198 3.376125,0.964603c0.0434,0.395344 -0.463142,0.909126 -1.25399,1.25399c-0.755459,0.329433 -1.446911,0.482304 -1.929214,0.482304c-0.192921,0 -0.368904,0.087021 -0.482304,-0.096462c-0.20285,-0.328217 0,-1.061066 0,-1.73629c0,-0.385845 -0.061806,-0.776669 0,-1.157528c0.048862,-0.301098 0.096462,-0.578766 0.096462,-0.964607c0,-0.096462 -0.033772,-0.234028 0.192921,-0.385841c1.041924,-0.697769 3.002453,-1.444099 4.05135,-2.700901c0.977253,-1.170956 1.349186,-2.291626 1.446907,-2.893818c0.015453,-0.095215 -0.07008,-0.068142 -0.482304,0.289379c-1.093075,0.948017 -2.614597,2.00819 -4.244267,2.700901c-0.926826,0.393959 -1.3787,0.454052 -1.446911,0.385841c-0.068207,-0.068207 -0.086353,-0.906303 0.289383,-1.639832c0.475681,-0.928638 1.151543,-1.591434 1.73629,-1.639832c0.096134,-0.007957 0.114666,0.291599 0,1.157528c-0.166553,1.257763 -0.400208,2.695786 -0.771683,3.761967c-0.200726,0.576107 -0.37566,0.921467 -0.289383,0.964607c0.431385,0.215691 1.061066,-0.385841 1.446911,-0.385841c0.096458,0 0.185429,0.343208 -0.192924,0.868145c-0.47858,0.663998 -1.259491,1.14151 -2.122131,1.446911c-0.776909,0.275047 -1.157528,0.385841 -1.350452,0.385841c-0.192921,0 -0.120888,-0.325203 0.289383,-0.578766c0.733917,-0.453587 2.221767,-0.734131 4.726574,-0.964603c2.704929,-0.248886 4.799656,-0.288479 5.78764,-0.771687c0.433258,-0.211903 0.480255,-0.413857 0.289383,-0.385841c-0.996407,0.14624 -2.892727,0.626987 -6.077023,0.675224c-2.989937,0.045292 -4.147808,0.096458 -4.05135,0.096458c0.385845,0 1.922375,-0.529736 4.437191,-0.868145c2.502064,-0.336693 4.353191,-0.443897 5.30534,-0.289383c0.301102,0.048862 0.443581,0.619637 0.192917,1.25399c-0.432709,1.095062 -1.378899,2.02037 -2.21859,2.218594c-0.375523,0.08865 -0.502579,-0.007565 -0.385845,-0.289379c0.330173,-0.797096 1.091679,-1.380421 1.929211,-1.736294c0.366043,-0.155533 0.616226,-0.169083 0.482307,0c-0.467751,0.590588 -1.446915,0.964607 -2.31506,1.25399c-0.868145,0.289379 -1.283356,0.437035 -1.639832,0.289379c-0.252064,-0.104408 -0.192921,-0.289379 -0.192921,-0.289379c0.482304,-0.192924 1.73954,-0.31028 3.858429,-0.192924c1.744301,0.096611 3.759705,0.53051 5.305336,0.578766c0.578484,0.018059 0.743431,0.028252 0.675224,0.096462c-0.272835,0.272831 -1.254547,0.040146 -2.700897,0c-1.738304,-0.048248 -2.700897,-0.096462 -2.99028,-0.096462c-0.096466,0 0.288239,-0.198734 1.253983,-0.385841c1.541603,-0.298676 3.286682,-0.541775 5.015961,-0.385845c1.074104,0.096851 1.386864,0.157913 1.350449,0.289383c-0.106163,0.383286 -1.642517,0.272839 -3.472588,0.578766c-1.64238,0.274551 -2.604439,0.289379 -2.797356,0.289379c0,0 -0.03978,-0.483948 0,-0.964607c0.048393,-0.584747 0.385674,-1.534889 0.4823,-3.183201c0.095963,-1.63702 -0.147949,-2.613758 -0.289383,-3.183201c-0.073532,-0.29604 -0.213043,-0.212463 -0.868141,0.482304c-0.79686,0.845104 -1.437355,1.726742 -1.929214,2.218594c-0.245934,0.24593 -0.166084,-0.091476 0,-1.061066c0.230316,-1.344574 0.606743,-2.818832 1.061066,-4.14781c0.336067,-0.983055 0.594681,-1.349791 0.578766,-1.157528c-0.048393,0.584747 -0.691589,2.058134 -1.350449,3.569044c-0.603508,1.383984 -1.253986,2.315056 -1.061066,2.315056c0.096458,0 -0.00444,-0.194206 0.192917,-0.868145c0.283028,-0.966492 0.678154,-2.195686 0.964607,-3.665504c0.148766,-0.76333 0.136337,-1.056528 0,-1.061068c-1.024818,-0.034126 -1.737228,1.615553 -2.218594,2.604437c-0.174072,0.357605 -0.190342,0.653061 -0.096462,0.675224c0.209923,0.049557 0.771687,-0.771683 1.929214,-1.929213c1.446907,-1.446909 2.544716,-2.573116 3.279663,-3.472584c0.305168,-0.373484 0.385841,-0.385843 0.385841,0.385843c0,1.639832 0.068771,3.956112 0,5.884102c-0.048264,1.353027 0.216324,2.291649 -0.192924,2.700897c-0.068207,0.068207 0.052849,-0.273087 0.385849,-1.446911c0.459755,-1.620663 0.89151,-3.178722 1.157524,-4.630112c0.105782,-0.577133 0.172913,-0.679682 0.096458,-0.289381c-0.262245,1.338717 -0.458748,2.897154 -0.675224,4.340731c-0.174026,1.160519 -0.222626,2.192116 -0.578758,2.797359c-0.276726,0.470295 -0.784615,0.581337 -1.157532,0.482304c-0.75164,-0.199608 -1.558907,-1.235649 -2.700897,-2.218597c-0.880348,-0.75774 -1.25399,-0.964607 -1.350449,-0.964607c-0.096462,0 -0.495987,0.266365 -1.157532,0.675224c-0.591702,0.365692 -0.894638,0.809055 -0.771683,0.868149c0.787277,0.378384 3.027626,0.334183 5.98056,1.157528c2.056793,0.573483 3.133644,1.140526 3.183205,1.350449c0.088654,0.375519 -0.030464,0.75515 -0.482307,1.061066c-0.608315,0.41185 -1.538864,0.530441 -2.315056,0.578766c-0.67392,0.041958 -1.452408,-0.080444 -2.315056,-0.385845c-0.776909,-0.275047 -1.387161,-0.525085 -1.929211,-0.675224c-0.09296,-0.025749 -0.19696,0.01791 0.192921,0.096462c1.243752,0.250587 2.982521,0.521194 4.823036,0.868145c1.153183,0.217384 1.661858,0.303658 1.929207,0.192921c0.504135,-0.208817 0.620293,-1.048309 0.868149,-1.929211c0.348572,-1.238842 0.449936,-2.326244 0.289383,-3.472584c-0.097404,-0.695461 -0.385841,-0.964607 -0.385841,-0.964607c-0.192924,0.096458 -0.837891,0.651314 -1.157532,1.639832c-0.367096,1.135277 -0.436348,2.063736 -0.192917,2.700897c0.12413,0.324886 0.241898,0.500816 0.578758,0.289383c0.638107,-0.400517 1.264877,-1.610302 1.639832,-3.183205c0.408173,-1.712261 0.350578,-3.473972 0.289383,-4.82303c-0.048279,-1.064348 -0.135056,-1.570446 -0.192917,-1.446911c-0.451912,0.964855 -0.289238,2.596426 -0.385849,4.340731c-0.08535,1.541008 0,2.507977 0,2.700897c0,0.096462 0.096184,-0.664165 0.192924,-1.929214c0.125038,-1.635052 -0.059227,-3.570179 0,-5.112413c0.048264,-1.256765 0.289383,-1.929213 0.385841,-2.218596c0,0 0.019142,0.092426 0.192924,0.964607c0.325386,1.633068 0.90741,3.741726 1.157524,5.884102c0.212814,1.82291 0.096466,3.376122 0.096466,4.630112c0,0.675224 -0.033447,1.102695 0.096458,1.061066c0.558754,-0.179058 0.448158,-1.822361 0.675224,-3.376122c0.266487,-1.823513 0.289383,-3.376125 0.289383,-4.630112c0,-0.771687 0.289383,-1.446911 0,-1.446911c-0.771683,0 -0.048203,1.830345 -0.096458,3.279663c-0.044937,1.349701 0.048187,2.697887 0.096458,3.858425c0.036079,0.867393 0.097176,1.448326 0.289383,1.350449c0.522858,-0.266258 0.519119,-1.631088 0.868141,-3.183201c0.215813,-0.959743 0.43396,-2.213459 0.482307,-2.893822c0.027351,-0.384872 0,-0.578762 0,-0.675224c0,-0.096458 0,0 0,0.578766c0,0.675224 -0.096458,1.157528 -0.096458,1.73629c0,0.482304 0,1.061069 0,1.446911c0,0.192921 -0.030899,0.484795 0,0.675224c0.048859,0.301098 0.096458,0.578766 0.192917,0.868145c0.096458,0.289383 0.172653,0.682793 0.289383,0.964607c0.165085,0.398552 0.336288,0.658222 0.385841,0.868149c0.044319,0.187759 0.046906,0.465298 0.096458,0.675224c0.044319,0.187759 0,0.289379 0,0.385841c0,0 0.101425,0.318195 0,0.482304c-0.113396,0.183475 -0.29187,0.25848 -0.4823,0.289383c-0.301094,0.048859 -0.578766,0.096458 -0.675224,0.096458c-0.096458,0 -0.195503,-0.022163 -0.289383,0c-0.209923,0.049557 -0.26722,0.093884 -0.289383,0c-0.049553,-0.209923 -0.155998,-0.393185 -0.192917,-0.482304c-0.104408,-0.252064 -0.483025,-0.73032 -0.77169,-1.543369c-0.297546,-0.83807 -0.385841,-1.929214 -0.385841,-2.893822c0,-0.868145 -0.041954,-1.448212 0,-2.122131c0.048325,-0.776188 0.24514,-1.225311 0.385841,-1.543373c0.160896,-0.36372 0.243294,-0.615486 0.482307,-0.868145c0.331444,-0.35037 0.645653,-0.62302 0.771683,-0.675224c0.089119,-0.036913 0.056679,0.387486 0.096458,0.868145c0.048401,0.584751 0.192924,0.964607 0.192924,1.25399c0,0.192921 0.029572,0.333637 -0.096458,0.385841c-0.267357,0.110744 -0.580711,0.043312 -1.061073,0c-1.074104,-0.096851 -3.263809,-1.200188 -6.848701,-2.507977c-3.553841,-1.296463 -6.34816,-2.306618 -8.006237,-2.604439c-0.765442,-0.137487 -0.964607,-0.09646 -0.964607,-0.09646c-0.096462,0 -0.096462,0 -0.192921,0l-0.192921,0.09646l0,0.09646l0,0.09646" id="svg_5" fill-opacity="null" stroke-width="3" stroke="#000000" fill="none"/>
  <path d="m49.726936,26.530886c0.096458,0 0.244114,-0.029371 0.096458,-0.385843c-0.417633,-1.008253 -1.590252,-1.71385 -2.218594,-3.08674c-0.521862,-1.14024 -0.941593,-2.135817 -1.350449,-2.797359c-0.182846,-0.295853 -0.292603,-0.291672 -0.771687,0.385843c-0.67981,0.96138 -1.187435,2.186489 -1.446911,3.472584c-0.191723,0.950268 -0.337376,1.922054 -0.385841,2.411516c-0.019009,0.191982 0.157654,-0.169863 0.385841,-0.868147c0.39975,-1.223286 0.481579,-2.200806 0.578766,-2.99028c0.047142,-0.382952 -0.076752,-0.37705 -0.385841,0.289383c-0.453758,0.978357 -0.74221,1.647804 -0.964607,2.411516c-0.085285,0.29287 -0.192921,0.289381 -0.192921,0.192921c0,-0.289381 -0.066532,-0.967892 0,-1.639832c0.048466,-0.489462 0.192921,-0.771685 0.192921,-0.964605c0,-0.192923 0,-0.096462 0,0.09646c0,0.578764 0.586132,1.658667 1.929211,2.604437c1.731522,1.219303 2.984299,1.687897 3.569046,1.736292c0.192265,0.015913 0.672646,-0.048199 2.025673,-0.09646c2.120785,-0.075645 4.534176,-0.046001 6.559326,0c2.123779,0.048243 4.051491,0.19025 5.884102,0.289383c1.736427,0.093929 3.372002,0.404308 4.630112,0.675224c0.96167,0.207081 1.856285,0.396784 2.700897,0.675224c0.902267,0.297445 1.928391,0.679459 2.411514,0.771685c1.059341,0.202223 1.231827,0.190342 1.25399,0.096462c0.049561,-0.209925 0.182747,-0.30975 0.096466,-0.482304c-0.215698,-0.431389 -0.930779,-0.57955 -1.639832,-0.771687c-0.750626,-0.203403 -1.639832,-0.09646 -2.122139,-0.09646c-0.096458,0 -0.237175,-0.029573 -0.289383,0.09646c-0.036919,0.089119 -0.099495,0.425592 0.096466,0.771687c0.47049,0.830961 1.576004,1.415342 2.507973,2.411516c0.700531,0.748787 1.11306,1.650925 1.350449,2.507977c0.24427,0.881901 0.467293,1.966011 0.77169,2.700901c0.21524,0.519638 0.289375,0.675224 0.289375,0.771683c0,0 0,0.289383 0,0.771687c0,0.289383 0,0.385841 0,0.675224c0,0.096462 -0.143364,0.368839 -0.192917,0.578766c-0.066483,0.281639 -0.144058,0.567047 -0.192924,0.868145c-0.030907,0.19043 0,0.385841 0,0.482304c0,0.096458 -0.014687,0.022633 -0.192917,0.096458c-0.126038,0.052204 -0.192924,0.289383 -0.289383,0.385845l0,-0.096462l0,-0.192921" id="svg_6" fill-opacity="null" stroke-width="3" stroke="#000000" fill="none"/>
 </g>
</svg>