<svg width="120" height="48" xmlns="http://www.w3.org/2000/svg">

 <g>
  <title>background</title>
  <rect fill="none" id="canvas_background" height="50" width="122" y="-1" x="-1"/>
 </g>
 <g>
  <title>Layer 1</title>
  <path id="svg_1" fill-rule="evenodd" d="m79,46l-38,0c-2.209,0 -4,-1.791 -4,-4l4,-24c0.678,-3.442 2.668,-4 4.877,-4l2.652,0c1.508,-6.948 6.073,-12 11.471,-12s9.963,5.052 11.471,12l2.652,0c2.209,0 4.199,0.558 4.877,4l4,24c0,2.209 -1.791,4 -4,4zm-19,-42c-4.352,0 -8.045,4.178 -9.418,10l18.837,0c-1.374,-5.822 -5.066,-10 -9.419,-10zm17,14c-0.308,-1.351 -0.957,-2 -2.37,-2l-2.828,0c0.123,0.976 0.198,1.975 0.198,3c0,0.552 -0.447,1 -1,1s-1,-0.448 -1,-1c0,-1.027 -0.069,-2.031 -0.201,-3l-19.598,0c-0.131,0.969 -0.201,1.973 -0.201,3c0,0.552 -0.447,1 -1,1s-1,-0.448 -1,-1c0,-1.025 0.075,-2.024 0.197,-3l-2.828,0c-1.412,0 -2.06,0.649 -2.369,2l-4,24c0,1.104 0.896,2 2,2l38,0c1.104,0 2,-0.896 2,-2l-4,-24z" clip-rule="evenodd"/>
 </g>
</svg>