<svg width="256" height="256" xmlns="http://www.w3.org/2000/svg">

 <g>
  <title>background</title>
  <rect fill="none" id="canvas_background" height="402" width="582" y="-1" x="-1"/>
 </g>
 <g>
  <title>Layer 1</title>
  <rect id="svg_1" width="256" height="256" fill="none"/>
  <circle id="svg_2" stroke-width="8" stroke-linejoin="round" stroke-linecap="round" stroke="#000" r="96" fill="none" cy="128" cx="128"/>
  <circle id="svg_3" stroke-width="8" stroke-linejoin="round" stroke-linecap="round" stroke="#000" r="40" fill="none" cy="120" cx="128"/>
  <path id="svg_4" stroke-width="8" stroke-linejoin="round" stroke-linecap="round" stroke="#000" fill="none" d="m63.8,199.4a72,72 0 0 1 128.4,0"/>
  <path d="m112.823143,119.890671c-1.028938,0 -2.540436,1.285294 -5.659164,1.543404c-0.512718,0.042435 -2.254753,-0.039162 -2.057877,-0.514465c0.556854,-1.344376 3.479996,-3.872437 6.688103,-5.144691c4.99292,-1.980072 9.065628,-1.61277 11.318321,0c3.856674,2.761108 3.787369,6.81102 3.086815,8.745979c-1.367874,3.77813 -5.191193,5.2071 -8.745979,4.630226c-3.211777,-0.52121 -8.478645,-4.95726 -9.260445,-9.774925c-1.071312,-6.601746 2.291595,-11.036583 6.17363,-15.434082c3.370552,-3.8181 8.272621,-5.27887 10.289391,-3.60128c2.129944,1.771721 2.167511,10.310417 1.028938,15.948547c-0.938889,4.649323 -4.126312,11.305206 -6.688103,13.376205c-1.789238,1.446457 -3.702675,1.023941 -3.601288,0c0.258492,-2.610527 3.437943,-7.401466 10.289391,-12.861732c4.0233,-3.206375 8.482605,-4.978722 13.376205,-3.086815c2.798019,1.081734 5.143188,3.54229 5.659164,10.289383c0.392288,5.129715 -0.135391,10.743027 -3.601288,16.463028c-2.08226,3.436493 -7.574722,5.910568 -13.890671,6.688095c-4.084923,0.502884 -7.452095,-0.571823 -8.745979,-3.601288c-3.057884,-7.159668 0.263031,-14.522629 4.630219,-19.035362c7.155495,-7.393951 11.86602,-8.643555 14.405144,-8.231514c3.211777,0.521202 5.529556,2.469757 6.17363,5.659164c1.327789,6.575119 0.807816,11.603485 -1.543411,16.977493c-1.945435,4.446533 -7.542648,6.242676 -13.890671,6.688095c-9.80481,0.687973 -17.464539,-3.36644 -21.093239,-9.260452c-5.209137,-8.46109 -3.982048,-13.5849 -1.028938,-18.520889c5.496284,-9.186768 10.398888,-13.941109 15.948547,-17.491959c3.876053,-2.480026 6.276581,-2.989304 9.774918,0c3.364578,2.875015 3.601288,8.745979 3.601288,10.803856c0,3.086815 -2.034088,5.282646 -4.630219,5.659164c-5.623672,0.815613 -13.854675,-0.520889 -18.006432,-3.086815c-3.713455,-2.295036 -6.760864,-9.232529 -6.688103,-13.890678c0.056824,-3.637405 2.296829,-8.470459 4.115753,-10.289383c1.818924,-1.818924 6.256203,-2.76709 9.260452,-2.057884c3.358841,0.792915 6.61058,2.724854 10.803848,8.231514c2.090836,2.745712 3.282547,7.152794 4.630234,12.861732c0.602707,2.553116 1.33844,6.285645 0.514465,9.260452c-0.800766,2.890991 -2.839233,5.142708 -6.688095,7.202568c-2.312897,1.237823 -6.521133,1.195915 -9.774925,-2.057877c-3.253792,-3.253792 -4.481133,-9.455788 -2.57235,-18.006432c1.207222,-5.407898 3.226685,-10.458572 7.717041,-12.861732c2.312889,-1.237823 4.788254,-1.703377 8.231506,1.028938c2.906097,2.306061 3.596268,6.065727 4.115768,9.774918c0.356796,2.547485 0.766113,5.930977 -1.028946,9.774918c-2.960815,6.340279 -8.17569,8.924812 -12.861732,10.289391c-4.073235,1.186127 -7.756378,0.543388 -9.260452,-1.543411c-3.805046,-5.279221 -2.656937,-9.743752 -2.572342,-13.890671c0.063828,-3.128738 1.348686,-5.180634 3.086815,-6.688103c2.458084,-2.131889 4.157043,-1.89801 5.659164,-1.543404c4.478455,1.05722 6.563072,4.477982 7.202568,6.688103c1.437096,4.966621 0.818642,7.732063 0.514473,10.803856c-0.258492,2.610519 -1.988792,3.817223 -3.601288,3.60128c-1.838531,-0.246216 -2.57235,-3.086815 -2.57235,-5.144691c0,-2.057877 0.713501,-4.073372 2.057877,-4.630226c0.475311,-0.196877 1.0681,-0.196884 1.543411,0c0.672188,0.278435 0.87825,1.694092 0.514465,2.057877c-0.363785,0.363785 -1.105774,0.27047 -1.543404,0c-0.978584,-0.604797 -0.878258,-1.694092 -0.514473,-2.057877c0.363785,-0.363785 0.871223,0.236046 1.543411,0.514473c0.475304,0.196877 0.43763,1.299408 0,1.028938c-0.978584,-0.604797 -1.264984,-1.900162 -1.543411,-2.57235c-0.196877,-0.475304 0,-1.028938 0,-1.028938c-0.514465,0 -1.452728,0.250168 -2.572342,0.514473c-1.001411,0.236404 -1.369781,-0.673958 -0.514473,-2.057877c0.382507,-0.618912 0.514473,-2.057884 0.514473,-3.086823c0,-0.514465 0.393761,-1.107262 0,-2.057877c-0.278435,-0.672188 -0.514473,-1.028938 -1.028938,-1.543404c-0.514473,-0.514473 -0.423798,-0.764633 -1.543411,-1.028938c-1.001411,-0.236397 -2.729576,-0.986801 -4.630226,1.028938c-1.116096,1.183678 -1.149643,2.1362 -1.543404,3.086815c-0.278435,0.672188 0.730766,-0.558624 1.028938,-1.543411c0.537537,-1.775352 1.543404,-2.572342 1.543404,-3.086815c0,-0.514465 0,-1.028938 0,-1.543404c0,-0.514473 0,-1.028946 0,-1.028946c0,-1.028938 -0.363785,-1.694092 0,-2.057877c0.363785,-0.363785 0.542,0.236397 1.543411,0c1.119614,-0.264305 0.871216,-0.750504 1.543404,-1.028938c0.475311,-0.196884 1.543411,0 1.543411,-0.514465c0,-0.514465 -2.256912,0.986549 -3.601288,1.543404c-1.425919,0.590637 -2.572342,1.028938 -2.572342,1.028938c-1.028938,0 -2.057877,1.028938 -2.057877,1.028938c-1.543411,1.543411 -2.057884,2.057884 -2.57235,2.57235c-0.514473,0.514473 -1.543411,1.543411 -2.57235,3.086815c-1.028938,1.543411 -1.721504,2.420822 -2.572342,3.601288c-0.672646,0.933243 -1.433777,3.107849 -2.57235,8.745979c-0.938889,4.649323 -0.521202,7.592079 0,10.803856c0.082413,0.507828 0.723373,1.959473 2.057877,1.028938c2.702156,-1.884178 3.828415,-6.083824 6.17363,-12.34726c1.711441,-4.570786 2.325211,-7.755531 3.086823,-11.832802c0.389496,-2.085144 0.514465,-3.60128 0.514465,-4.630219c0,-0.514473 0,-1.028946 -0.514465,-1.028946c-1.028938,0 -1.028938,0 -2.57235,0c-1.028938,0 -1.825928,1.005875 -3.601288,1.543411c-0.984787,0.298172 -1.543404,0 -2.057877,0c-0.514465,0 -0.938263,0.250168 -2.057877,0.514473c-1.001411,0.236404 -1.401413,1.65799 -3.086815,3.60128c-0.953407,1.099289 -2.314232,3.569374 -2.57235,6.688103c-0.212173,2.563583 -1.265228,6.678291 1.028938,8.231514c0.426018,0.288429 1.070229,1.383545 2.57235,1.028938c1.119614,-0.264305 3.086823,-1.543404 5.659164,-4.115753c1.543404,-1.543411 2.231514,-3.246307 3.086815,-4.630226c0.382507,-0.618912 0.317581,-2.097038 0.514465,-2.57235c0.278435,-0.672188 0.514473,-1.543411 0.514473,-2.057877c0,-1.543411 0,-2.057877 0,-2.57235c0,-1.028938 0,-1.543404 0,-1.543404c-0.514473,-1.028938 -0.514473,-1.543411 -0.514473,-2.057877c0,0 -1.117989,-0.438705 -1.543404,-1.028938c-0.672646,-0.93325 -0.514473,-1.028946 -1.028938,-1.028946c-1.543411,0 -2.166779,-0.147072 -3.601288,1.028946c-1.687981,1.383812 -2.271843,2.963898 -3.086815,4.630219c-1.429558,2.922928 -1.798698,4.582787 -2.057877,6.688103c-0.251434,2.042458 -0.253868,3.538811 -0.514473,5.144699c-0.247231,1.523476 -0.514465,2.572342 -0.514465,4.115753c0,1.028938 0,3.086815 0,3.086815c0,0.514465 0,2.057877 0,3.086815c0,1.028938 0,3.086815 0,3.086815c0,0.514473 0,0 0,0c0,-2.057877 0.311684,-4.125771 0.514465,-6.17363c0.258492,-2.610527 0.514473,-4.115753 0.514473,-4.115753c0,-0.514473 -0.43206,-0.507828 -0.514473,0c-0.260597,1.605881 -0.764633,4.025078 -1.028938,5.144691c-0.118202,0.50071 0,1.028938 0,0.514473c0,-1.028946 0.078598,-2.593613 -0.514465,-4.630226c-0.454865,-1.562019 -0.514473,-2.057877 -0.514473,-1.543411c0,0.514473 0,2.57235 0,4.630226c0,1.543411 -0.247231,4.135681 0,5.659164c0.260605,1.605888 1.354591,2.674217 3.086815,5.659157c0.931046,1.60437 2.6614,3.011063 3.086815,3.601288c0.672646,0.933243 1.028946,1.028946 1.028946,0c0,-2.572342 -0.052666,-5.824509 -1.543411,-9.260445c-1.194008,-2.751991 -2.57235,-5.144699 -3.601288,-5.659164c0,0 0.655472,3.018303 3.601288,9.260445c2.162498,4.582306 4.450706,9.483139 8.231506,12.347275c1.478584,1.120087 2.213882,1.147598 2.57235,0.514465c1.04512,-1.845871 0.514473,-5.144699 0.514473,-9.260452c0,-4.630219 0,-6.688103 0,-6.688103c0,1.543404 1.028938,6.173637 2.057877,8.231514c1.028938,2.057877 1.539551,4.052887 1.028938,4.115753c-2.105316,0.259186 -2.057877,-4.115753 -4.115753,-8.231506c-0.514473,-1.028946 -0.514473,-1.543411 -0.514473,-1.028946c0,0.514481 -0.096649,0.989227 2.057877,-4.115753c1.970192,-4.668213 3.514526,-10.921844 9.774918,-15.434082c2.63961,-1.902527 5.245422,-2.238525 7.202576,-1.028938c2.188171,1.352364 3.086807,4.630226 3.086807,9.260452c0,3.601288 -1.063522,7.008377 -4.630219,11.832802c-4.11467,5.565628 -5.568481,8.495819 -6.688103,8.231506c-0.500717,-0.11821 4.23349,-3.462189 6.688103,-5.659164c2.168533,-1.940918 3.601288,-2.572342 5.144699,-2.572342c0.514465,0 1.028931,0.514465 1.028931,1.028931c0,1.028946 2.639069,-1.998871 3.086823,-2.572342c1.846146,-2.364494 3.651642,-5.56884 4.630219,-6.173637c0.437637,-0.27047 0.961807,2.284508 -1.028931,5.659157c-2.980392,5.052292 -5.241409,7.215973 -7.717041,8.745987c-1.383926,0.855301 -2.211548,1.05542 -3.086823,0.514465c-0.978577,-0.604797 -1.195633,-2.688354 -0.514465,-4.630219c1.090408,-3.108505 3.443558,-4.351791 4.115753,-4.630234c0.950607,-0.393768 2.057877,0 2.057877,0.514481c0,2.057877 -0.629059,3.45929 -2.572342,5.144684c-1.648941,1.430115 -5.144699,3.086823 -6.173637,3.086823c-0.514473,0 0.24968,-0.437897 2.57235,-1.543411c1.915314,-0.911636 5.144684,-0.514465 5.659164,-0.514465c0.514465,0 0.012268,1.944687 -2.057877,4.115753c-2.560135,2.684952 -5.659164,3.601288 -7.717049,4.115753c0,0 -1.002533,-0.593674 -0.514465,-2.057877c0.813446,-2.440338 2.776489,-4.657532 8.745979,-7.717041c2.46553,-1.263641 4.233246,-1.619568 5.659164,-1.028931c0.67218,0.278427 1.319809,1.621078 0,2.572342c-1.252075,0.902451 -3.086823,0 -5.659164,0c-2.572342,0 -6.854622,0.246857 -7.717041,-0.514465c-1.390617,-1.227615 -2.542419,-4.699844 -1.543411,-11.832802c1.038979,-7.418381 3.750755,-14.233101 10.289383,-20.064308c2.768799,-2.469231 5.233002,-3.168678 7.202576,-2.572342c1.77536,0.537537 3.970383,2.182213 5.659164,7.202568c1.159866,3.447998 1.807266,8.305779 1.028946,12.347267c-0.523926,2.72052 -2.363022,4.360405 -6.68811,5.144691c-3.037277,0.550758 -7.667664,-0.709984 -12.34726,-7.202568c-3.36322,-4.666222 -4.857445,-11.37812 -4.115761,-15.948555c1.042404,-6.423546 3.552757,-9.987938 6.688103,-11.832794c3.228043,-1.899399 6.975189,-0.988983 9.774918,1.028938c3.541412,2.552505 5.011475,5.518692 6.17363,9.260452c1.556198,5.010475 1.077957,8.022255 -0.514465,10.289383c-3.56076,5.069458 -7.68512,5.91552 -10.803848,6.173637c-1.538147,0.127304 -2.368225,-1.060455 -2.057892,-2.57235c0.787796,-3.838066 2.509872,-5.39856 4.115768,-5.659164c1.01564,-0.164818 1.960861,-0.445206 3.086807,1.028938c0.987518,1.292908 0.871231,2.850777 1.543411,2.57235c0.950623,-0.393753 -0.514465,-2.057877 -0.514465,-3.601288c0,-1.028938 -0.878265,-1.179619 -0.514481,-1.543404c0.3638,-0.363792 1.056473,-0.236404 2.057892,0c1.119598,0.264305 1.907181,1.179619 1.543396,1.543404c-0.363785,0.363785 -2.057877,-0.514465 -3.601288,-2.057877c-2.057877,-2.057877 -2.335938,-4.14328 -2.572342,-5.144691c-0.264297,-1.119614 -0.908218,-1.621735 -0.514465,-2.57235c0.278427,-0.67218 0.514465,-0.514465 1.028931,-0.514465c1.543411,0 1.543411,0 2.057877,0c0.514481,0 1.028946,0 0.514481,0c-1.028946,0 -2.692749,-0.253609 -5.144699,-1.543411c-1.641678,-0.863571 -3.127167,-1.949768 -4.630219,-2.57235c-1.06282,-0.440239 -1.652313,-0.881859 -3.086823,-2.057877c-0.562653,-0.461266 -1.124634,-1.385231 -2.057877,-2.057877c-0.590233,-0.425415 -0.514465,-1.028938 -1.028938,-2.057877c0,0 -0.236046,-0.871223 -0.514473,-1.543411c-0.196877,-0.475304 -0.196877,-1.0681 0,-1.543404c0.278427,-0.672188 0.665161,-0.665154 1.028946,-1.028938c0.727562,-0.727562 1.543411,0 2.057877,0c1.543411,0 2.731827,0.688087 4.115753,1.543404c0.618912,0.382507 1.982101,1.117996 2.572342,1.543411c0.933243,0.672646 1.773926,0.217514 3.086823,1.028938c0.978577,0.604797 0.713501,1.501022 2.057877,2.057877c0.475311,0.196877 1.028915,0.000008 2.572342,1.543411c0.514481,0.514473 1.652313,0.881859 3.086823,2.057877c1.12532,0.922539 1.900162,2.293915 2.572342,2.572342c0.475311,0.196877 0.562653,0.567673 0,1.028946c-1.434509,1.176018 -3.161484,1.578255 -5.144684,1.028938c-2.891006,-0.800758 -4.106308,-2.424179 -4.630234,-5.144699c-0.58374,-3.03112 0,-4.115753 0,-5.144691c0,-0.514473 0.514465,-0.514473 1.028946,-0.514473c1.028931,0 2.057877,0 2.572342,0.514473c1.543411,1.543419 2.099304,2.30838 3.086823,3.601288c1.125931,1.474129 2.211548,2.031403 3.086807,2.572342c1.957169,1.209587 2.524155,3.140015 3.086823,3.601288c1.434525,1.176003 2.235977,2.420822 3.086807,3.601288c0.672653,0.933243 0.597015,2.038986 1.028946,4.115753c0.637238,3.063828 0.630661,5.177277 0,7.202568c-1.30687,4.196869 -3.325317,6.546661 -6.68811,8.745979c-2.88829,1.888985 -4.650146,2.305115 -6.17363,2.057884c-1.605896,-0.260605 -2.82869,-2.540436 -3.086807,-5.659164c-0.551636,-6.665314 0.551987,-11.29512 3.086807,-15.434082c1.566727,-2.558212 3.086823,-3.601288 3.601288,-3.601288c1.028946,0 2.703201,1.451485 4.115753,3.601288c2.277679,3.466454 2.572357,8.745979 2.572357,11.832794c0,3.086815 0.121643,8.793671 -1.543411,12.861732c-1.919342,4.689339 -4.508789,8.745979 -5.659164,8.745979c-1.150391,0 -1.58577,-4.772461 0.514465,-11.832794c2.043106,-6.868286 5.568069,-13.140144 7.717041,-17.491959c1.946243,-3.941277 2.208557,-4.479538 2.572342,-4.115753c2.182709,2.182709 -0.779739,7.751564 -1.543396,12.347267c-0.777496,4.679008 -1.028946,6.17363 -1.028946,6.17363c0,0 -0.06105,-1.556381 0.514465,-4.115753c0.93074,-4.139076 2.242722,-8.258087 2.572357,-10.289391c0.260605,-1.605888 1.028931,-2.057877 1.028931,-2.057877c0.514465,0 0.514465,-0.514473 1.028946,0c0,0 0.764633,1.967201 1.028931,3.086815c0.118195,0.50071 -0.213089,1.330307 0.514481,2.057877c0.363785,0.363785 0.514465,1.028938 0.514465,2.057877c0,0.514473 0,1.543411 0,2.57235c0,0.514473 0,2.57235 0,3.601288c0,1.028938 -0.567673,3.03862 -1.028946,3.60128c-1.176025,1.434502 -1.915878,3.715874 -3.601288,5.659164c-1.430099,1.648933 -3.601273,4.115761 -5.659164,6.173637c-2.057877,2.057877 -6.17363,5.659164 -8.231506,7.717041c-1.543411,1.543411 -2.057877,2.572342 -2.572342,2.572342c-0.514465,0 -0.673309,-0.551407 0,-3.086807c0.835144,-3.144791 4.156174,-9.228622 6.17363,-11.832809c1.575363,-2.033516 4.744812,-5.517151 6.68811,-7.202568c1.099289,-0.953407 1.982101,-1.632454 2.572342,-2.057877c0.933228,-0.672646 1.665161,-0.485512 2.572342,0c1.635468,0.875275 1.543411,1.543411 2.057877,2.57235c0.514481,1.028938 0.635193,1.621735 1.028946,2.57235c0.278427,0.67218 1.028931,1.028938 1.028931,2.572342c0,1.028938 -0.120712,2.136208 -0.514465,3.086815c-0.278427,0.672195 -0.159866,1.818619 -1.028931,2.572357c-1.22905,1.065948 -2.668045,1.899704 -3.601288,2.572342c-0.59024,0.425415 -1.296539,1.19545 -2.057877,2.057877c-1.2276,1.39061 -2.822861,1.584824 -4.115768,2.572342c-1.474136,1.125946 -2.681244,2.425278 -4.115753,3.601288c-1.687973,1.383804 -3.449753,3.264923 -4.630219,4.115753c-0.933258,0.672653 -1.543411,1.028946 -1.543411,1.028946c0,-0.514465 -0.251434,-1.044357 0,-3.086823c0.259171,-2.105316 1.918777,-4.23349 4.115753,-6.688095c1.455704,-1.626404 2.572357,-1.543411 4.115753,-1.543411c1.543411,0 2.057877,0 3.086823,0c0.514465,0 0.764633,0.423782 1.028946,1.543411c0.118195,0.500702 0,1.028931 0,2.572342c0,0.514465 -0.314362,0.991943 -1.543411,2.057877c-0.86908,0.753738 -0.729965,1.244431 -1.543411,2.057877c-0.813446,0.813446 -0.953186,1.117996 -1.543411,1.543411c-0.933243,0.672638 -1.982117,1.632462 -2.572342,2.057877c-0.933243,0.672638 -2.211548,-0.092056 -3.086823,1.543411c-0.242752,0.453598 -0.51947,0.413071 -1.543411,0.514465c-2.610519,0.258484 -4.115753,0.514465 -6.17363,0.514465c-2.572342,0 -4.166107,0.090332 -5.144684,-0.514465c-2.188171,-1.352371 -3.086823,-1.543411 -3.601288,-3.601288c-0.514473,-2.057877 -0.514473,-2.572342 -0.514473,-3.601288c0,-1.028931 0,-2.057877 0.514473,-2.057877c0,0 1.556702,-0.164825 2.572342,0c1.605896,0.260605 2.99649,1.0793 3.601288,2.057877c0.270477,0.437637 0,1.543411 0,2.057877c0,1.028946 0.393753,2.136215 0,3.086823c-0.278427,0.67218 -1.346527,1.0681 -1.543411,1.543411c-0.278427,0.67218 -0.514465,0.514465 -1.028931,1.028931c0,0 -0.871231,0.750519 -1.543411,1.028946c-0.475311,0.196884 -1.107269,0.120712 -2.057877,0.514465c-0.672188,0.278427 -2.057884,0.514465 -2.057884,0.514465c-1.543404,0 -2.085403,0.236404 -3.086815,0c-1.119614,-0.264297 -3.09346,-0.946518 -3.60128,-1.028931c-1.605888,-0.260605 -1.995399,-0.768341 -3.601288,-1.028946c-0.507828,-0.082413 -0.713509,-0.472076 -2.057877,-1.028931c-0.950615,-0.393753 -1.758896,-0.729965 -2.57235,-1.543411c-0.813446,-0.813446 -1.385689,-1.264969 -2.057877,-1.543411c-0.475311,-0.196884 -0.564835,-0.424149 -1.543411,-1.028931c-0.43763,-0.270462 -0.610161,-0.356308 -1.543404,-1.028946c-0.59024,-0.425415 -0.301361,-1.330307 -1.028938,-2.057877c-0.72757,-0.72757 -1.079292,-1.453079 -2.057877,-2.057877c-0.437637,-0.270477 -0.223602,-1.106613 -1.543411,-2.057877c-0.417358,-0.300812 -0.688095,-0.67395 -1.543411,-2.057877c-0.3825,-0.618896 -0.050362,-1.453094 -1.028938,-2.057877c-0.43763,-0.270462 -0.87825,-0.150681 -0.514465,-0.514465c0.72757,-0.72757 1.06929,-0.108109 2.572342,0.514465c2.125648,0.880463 3.601288,2.572342 4.630226,3.601288c2.057877,2.057877 3.577248,3.63829 5.144691,4.630219c2.534904,1.604172 3.490067,1.759521 5.144699,3.086823c0.897339,0.719833 2.572342,1.543411 3.601288,1.543411c0.514465,0 1.543404,0 2.572342,0c0,0 1.453087,0.464111 2.057877,-0.514481c0.27047,-0.437637 1.797279,-2.509857 2.057877,-4.115753c0.329636,-2.031311 0,-3.086807 0,-3.601288c0,-0.514465 -0.42379,-2.308044 -1.543404,-2.572342c-1.001411,-0.236404 -3.580269,-0.290436 -4.630226,2.057877c-1.070747,2.394806 -1.543411,7.202576 -1.543411,10.289383c0,2.057877 2.097046,4.433365 2.57235,4.630234c1.344368,0.556854 2.3218,1.237808 3.086815,0c0.855316,-1.383926 1.543411,-3.601288 1.543411,-5.144699c0,-2.057877 -1.028946,-3.086823 -2.57235,-4.630219c-1.028946,-1.028946 -1.279099,-1.119614 -1.543404,0c-0.472794,2.002823 -0.196884,3.125977 0,3.601288c0.556854,1.34436 2.11068,1.354309 3.086815,1.028931c2.440346,-0.813446 4.545456,-2.970413 5.659164,-5.659164c0.393753,-0.950607 0.87825,-1.694092 0.514465,-2.057877c-0.363785,-0.363785 -0.610153,0.356293 -1.543411,1.028946c-1.180458,0.85083 -1.028931,1.028931 -1.028931,1.028931c-0.514473,0 -1.964371,0.71669 -4.115761,-1.028931c-1.44043,-1.168762 -1.694084,-2.208557 -2.057877,-2.572357c-0.363785,-0.363785 -0.080864,0.571564 1.028938,2.057877c2.404037,3.219635 4.524696,4.74353 6.17363,6.173645c1.943283,1.685394 2.572357,1.543396 3.086823,1.543396c0,0 0,0.514481 0,1.028946c0,0.514465 0,1.028931 0,1.028931c0,0.514481 0.184158,1.187759 -2.057877,3.601288c-6.68956,7.201233 -13.400002,13.563934 -16.977493,20.064316c-2.443047,4.439072 -2.254753,6.212799 -2.057877,6.688095c0.278435,0.67218 3.571381,-0.136368 6.688103,-4.630219c4.329002,-6.241776 8.740952,-15.326172 9.260445,-19.03537c0.214073,-1.528488 -1.028931,-1.028946 -3.60128,1.543411c-5.659157,5.65918 -12.398087,16.696854 -16.46302,24.180054c-2.316719,4.264877 -4.076591,8.034622 -3.601288,8.231506c0.672188,0.278427 2.592758,-3.318909 5.659164,-9.774918c3.771744,-7.94104 5.505486,-10.262909 4.630226,-10.803848c-0.978577,-0.604797 -2.965385,1.240677 -5.659164,5.144684c-3.661026,5.305801 -5.121628,11.08638 -5.659164,12.86174c-0.149086,0.492386 1.361977,1.008194 3.086815,-0.514465c2.781227,-2.455215 6.23378,-10.272751 7.202576,-13.890671c1.097366,-4.098053 1.028938,-7.202576 1.028938,-8.231522c0,-0.514465 -1.660896,-1.619568 -3.086823,-1.028931c-2.016556,0.835281 -4.871025,4.801056 -7.202568,8.231506c-1.85173,2.724503 -3.086815,6.688095 -3.086815,8.745987c0,1.028931 1.028938,1.543396 3.086815,1.543396c2.57235,0 5.003242,-1.267426 7.202568,-4.630219c1.259331,-1.925537 1.955452,-5.177917 1.543411,-7.717041c-0.260597,-1.605896 -2.52491,-3.856583 -4.630226,-4.115753c-2.042458,-0.251434 -5.362495,-0.294159 -8.231506,2.057877c-2.250641,1.845078 -5.418861,6.286407 -7.202576,9.774918c-1.365685,2.670944 -2.966103,6.251953 -2.572342,7.202576c0.556854,1.34436 2.057877,1.543396 3.60128,1.543396c2.057884,0 5.768059,-1.396317 7.202576,-2.572342c1.125313,-0.922531 1.028938,-2.057877 1.028938,-3.601288c0,-1.028931 -1.334541,-2.321793 -2.57235,-3.086807c-1.383919,-0.855316 -5.704147,-0.106018 -8.231506,1.028931c-3.148293,1.413788 -5.528694,3.684219 -7.202576,6.17363c-1.435341,2.134659 -3.591827,5.511002 -4.115753,8.231522c-0.38916,2.020752 1.475647,3.749741 3.601288,4.630219c1.503052,0.622589 4.025429,0.464111 4.630226,-0.514465c1.352364,-2.188156 3.60128,-6.17363 4.115753,-8.745987c0.514465,-2.572342 0.425415,-5.583405 0,-6.17363c-0.672646,-0.933243 -2.057877,-1.543411 -3.601288,-1.543411c-1.028938,0 -2.057877,2.057877 -3.086815,4.115753c-1.028938,2.057877 -2.057877,5.144699 -2.057877,6.68811c0,1.543411 0,3.086807 0,3.601288c0,0 1.028938,-0.514481 1.028938,-1.543411c0,-1.028946 -0.438713,-2.146927 -1.028938,-2.572342c-0.933243,-0.672653 -2.065582,-1.154663 -3.086815,-1.028946c-2.105316,0.259171 -3.314713,0.843063 -4.115761,2.057877c-1.525146,2.312912 -1.028938,3.601288 -1.028938,5.144699c0,2.057877 -0.157715,2.293915 0.514473,2.572342c0.950615,0.393753 2.234009,0.224609 3.601288,-1.028931c2.428169,-2.226181 3.578217,-4.398285 4.115753,-6.173645c0.596336,-1.969574 0,-3.086807 -0.514473,-3.601273c0,0 -0.356743,-0.236038 -1.028938,-0.514481c-0.475304,-0.196884 -1.179619,-0.150681 -1.543404,-0.514465c-0.727577,-0.72757 -0.393745,-1.621735 0,-2.572342c0.278427,-0.672195 0.514465,-0.514481 0.514465,-0.514481c-1.543404,0.514481 -1.227966,2.015488 -2.572342,2.572357c-0.475311,0.196884 -0.665154,0.665146 -1.028938,1.028931c-0.363792,0.3638 -0.301384,1.330307 -1.028946,2.057877c-0.363785,0.363785 -1.028938,0.514481 -1.028938,0.514481c0,0 -0.000008,0.51445 -1.028938,1.543396c-0.514473,0.514481 -1.028938,0.514481 -1.028938,1.028946c0,0.514465 0.363792,1.179611 0,1.543411c-0.363785,0.363785 -0.908218,0.078323 -0.514465,1.028931c0.278427,0.67218 1.317726,1.490616 4.115753,2.572357c2.4468,0.945953 5.12719,2.31485 10.803856,2.572342c4.111526,0.186508 9.725456,-1.17041 22.122185,-8.231506c6.447266,-3.672318 11.427231,-7.701141 14.405144,-11.832794c0.672646,-0.933243 0.914215,-2.38855 0,-3.086823c-2.084747,-1.592316 -5.164558,-0.56279 -7.717041,0.514465c-4.668213,1.970184 -7.252609,3.879028 -8.745979,8.231506c-0.851357,2.481308 -1.605827,5.082291 -0.514473,6.173645c0.72757,0.72757 2.263161,0.255676 3.601288,-1.028946c5.04789,-4.846069 7.44722,-11.623459 8.231506,-15.948547c0.458969,-2.531067 -0.671112,-3.874344 -2.572342,-3.086823c-3.360939,1.392151 -4.840614,5.029648 -6.173637,7.717041c-1.23111,2.481949 -1.392723,3.751968 -1.028938,4.115753c0.363785,0.363785 0.590233,-1.117981 0,-1.543396c-0.93325,-0.672653 -3.469597,-1.147186 -7.202568,1.543396c-1.180473,0.850845 -2.057877,2.057877 -2.057877,3.601288c0,1.543411 0.514465,2.572357 2.057877,3.086823c1.543411,0.514465 3.017609,0.893295 5.144691,-2.057877c0.672646,-0.933243 1.225815,-2.611511 1.028938,-3.086823c-0.278427,-0.67218 -2.440659,-1.147171 -6.17363,1.543411c-3.541412,2.552505 -5.636093,5.427216 -6.17363,7.202576c-0.298164,0.984787 0.171059,2.249634 1.543404,1.543396c3.935127,-2.025085 6.895844,-7.082291 8.745979,-14.919601c0.709206,-3.004242 0.315437,-4.58783 -1.028938,-5.144699c-1.425919,-0.590637 -4.0504,1.776108 -6.17363,5.659164c-1.329163,2.430832 -2.057877,5.659164 -2.057877,8.745987c0,0 0.592789,0.393753 1.543404,0c2.016563,-0.835281 3.189247,-4.148987 3.601288,-6.68811c0.260597,-1.605896 1.120987,-2.726013 -0.514473,-3.601288c-0.907188,-0.485519 -2.214523,-0.787521 -4.115753,0c-2.016556,0.835281 -1.793571,1.967194 -2.057877,3.086823c-0.118202,0.500702 0.363785,0.87825 0,0.514465c-0.363785,-0.363785 -1.862694,-0.855225 -4.630226,2.057877c-3.543465,3.729843 -9.7883,12.443985 -11.318321,14.919617c-0.855316,1.383926 -0.492401,2.20697 0,2.057877c3.550705,-1.075073 9.509277,-7.02475 15.948547,-11.832794c5.945297,-4.439209 10.912758,-8.598907 12.347267,-9.774918c0.56266,-0.461273 0.514465,-1.543411 0,-2.057877c-1.028938,-1.028946 -2.726013,-1.635468 -3.601288,0c-0.485512,0.907181 0.427673,5.258148 3.086815,7.20256c2.994698,2.189789 8.902084,4.197342 13.890678,2.572357c7.00386,-2.281448 15.27565,-9.558289 17.491959,-15.434082c1.644165,-4.358948 1.55957,-9.986908 0.514465,-11.832794c-0.358475,-0.633133 -2.270676,-1.22171 -4.115753,1.028931c-2.352036,2.869019 -5.346512,11.785812 -6.688103,18.006439c-1.212631,5.62265 -1.179626,8.382187 -1.543411,8.745972c-0.363785,0.363785 -1.288086,0.110306 -2.057877,-2.057877c-1.586967,-4.469803 -1.727669,-8.632843 0.514473,-13.376205c3.124794,-6.610657 7.678864,-7.973022 10.289383,-8.231506c3.071793,-0.304169 4.545593,1.996231 4.630234,4.115753c0.124878,3.126907 -1.069946,5.066483 -3.086823,6.17363c-2.629684,1.443558 -3.627686,2.220566 -4.115753,2.057877c-2.440338,-0.813446 -2.651306,-3.246902 -1.543411,-6.17363c1.718262,-4.539154 3.751968,-5.809845 4.115753,-6.17363c0.363785,-0.363785 0.663544,0.022079 0.514465,0.514465c-0.537537,1.77536 -2.414627,1.779449 -3.086807,2.057877c-0.475311,0.196884 -1.543411,0 -1.543411,-0.514465c0,-3.086823 -0.72757,-4.931595 0,-5.659164c0.363785,-0.363785 2.069443,-0.188583 3.601288,0c2.105316,0.259171 3.957565,2.668045 4.630219,3.601288c0.42543,0.59024 1.757217,2.240509 1.028946,3.601288c-0.875275,1.635452 -4.115753,2.057877 -6.68811,2.057877c-1.543396,0 -3.416443,-2.084442 -3.086807,-4.115753c0.260605,-1.605896 1.995392,-3.855148 3.601288,-4.115753c2.031311,-0.329636 5.776901,0.375366 8.231506,2.572342c3.252792,2.911392 6.440796,6.4608 7.717041,8.231506c1.345276,1.866486 1.476181,3.667511 1.028931,5.144699c-0.537537,1.77536 -2.363007,4.360397 -6.688095,5.144684c-3.543503,0.642548 -10.327225,-1.671249 -12.34726,-5.144684c-2.209824,-3.799774 -3.042267,-8.427322 -2.057877,-10.803864c0.556854,-1.34436 4.247757,-2.871323 6.688095,-2.057877c2.440338,0.813446 6.888412,4.194595 8.231506,7.202576c1.275879,2.857483 2.370819,7.29892 1.543411,10.803848c-0.792923,3.358856 -7.170563,8.313416 -12.34726,10.289398c-5.625801,2.147415 -10.539894,2.530914 -11.832802,1.543396c-1.474129,-1.125931 -1.323242,-6.292892 2.057877,-9.774918c2.584435,-2.661575 6.708031,-4.362991 8.231514,-4.115753c1.605896,0.260605 3.726471,2.302124 4.115753,4.115753c0.656738,3.059708 -3.166626,7.984116 -8.231506,10.289398c-5.33886,2.429977 -14.405144,3.601288 -18.006432,3.601288c-2.57235,0 -3.986732,-1.118546 -3.086815,-4.115768c1.457092,-4.852905 8.06871,-12.93634 13.376205,-15.434067c4.291679,-2.019684 9.774918,-1.543411 11.832794,-1.028946c2.057877,0.514465 2.572342,1.028946 2.572342,2.572342c0,1.028946 -0.423798,3.33699 -1.543411,3.601288c-0.500702,0.118195 -0.514465,-1.543411 -0.514465,-1.543411c0,-2.057877 0.514465,-3.601273 1.028946,-4.115753c0.514465,-0.514465 2.057877,-2.057877 2.572342,-2.057877c1.028946,0 1.694092,-0.363785 2.057877,0c0.363785,0.363785 0,1.543411 0,3.601288c0,2.572342 -2.572357,4.630234 -2.057877,5.144699c0.514481,0.514465 1.657257,-1.707291 3.086823,-4.630234c0.814972,-1.666306 1.96582,-4.78389 3.601273,-5.659164c0.453598,-0.242767 -0.797623,1.35881 -2.057877,3.601288c-1.357346,2.415237 -2.572342,4.630234 -4.630219,7.717041c-2.057877,3.086823 -4.038971,5.252777 -6.17363,6.68811c-2.489418,1.673874 -4.567749,2.826202 -6.173637,3.086807c-2.031303,0.329636 -3.865204,0.208878 -4.630219,-1.028931c-0.855316,-1.383926 -1.816452,-4.2724 -1.028946,-6.17363c0.278427,-0.672195 1.995407,-1.282806 3.601288,-1.543411c2.031303,-0.329636 4.211449,-0.158173 5.144691,0.514465c0.59024,0.425415 0.338341,1.833267 -1.028938,3.086823c-2.428154,2.226181 -6.71965,5.054459 -9.774918,6.17363c-2.601456,0.952927 -5.596748,2.634766 -6.688103,1.543411c-0.363792,-0.3638 -1.426102,-3.743835 -0.514465,-5.659164c1.105522,-2.322662 3.086815,-3.601288 4.115753,-3.601288c0.514473,0 1.694092,-0.363785 2.057877,0c0.363785,0.363785 -1.297356,3.486145 -3.60128,4.630219c-3.354568,1.665787 -7.202576,3.086823 -11.318329,3.086823c-2.057877,0 -3.086815,-0.514465 -3.086815,0c0,1.028946 1.028938,0.514465 1.543404,1.028931c0.514473,0.514481 0.76133,1.195465 0,2.057877c-1.227608,1.39061 -3.41993,1.529266 -5.659164,2.057877c-2.002831,0.472794 -2.572342,0 -4.115753,0c-0.514465,0 -1.124634,0.158173 -2.057877,-0.514465c-0.590233,-0.425415 -1.028938,-0.514465 -2.057877,-0.514465c0,0 -0.255051,-0.496216 2.057877,1.028931c0.607414,0.400528 1.543411,1.028946 2.057877,1.028946c1.028938,0 2.481667,0.764633 3.601288,1.028946c0.500702,0.118195 1.543411,0.514465 2.57235,0.514465c0,0 1.543404,0 2.572342,0c1.028938,0 2.057877,0 3.601288,0c1.028938,0 1.543411,0 2.57235,0c1.028938,0 1.543404,0 2.572342,0c1.028938,0 1.028938,0 2.57235,0c0.514465,0 1.028938,0 2.57235,0c0,0 1.070229,-0.354599 2.572342,0c1.119614,0.264297 1.598457,0.987259 3.601288,0.514465c1.119614,-0.264297 3.106743,-0.781708 4.630226,-1.028931c3.211777,-0.52121 4.097145,-1.088547 5.659164,-1.543411c2.036621,-0.593063 2.572342,-1.028946 3.086807,-1.028946c0.514481,0 -0.046249,-0.754318 -6.17363,0c-6.315956,0.777527 -11.832794,1.543411 -15.948547,1.543411c-1.543411,0 -1.844223,-0.097107 -1.543411,-0.514465c0.951263,-1.319809 6.220901,-1.879807 12.347267,-3.601288c8.302528,-2.332977 12.823555,-3.857269 15.434074,-4.115753c1.023941,-0.101395 1.543411,0 2.572357,0c2.572342,0 6.17363,0 7.202576,0c1.543396,0 1.543396,0 1.543396,0c-1.028931,0.514465 -4.044724,1.273544 -7.20256,2.057877c-3.037125,0.754349 -4.115768,-0.000015 -4.115768,0.514465c0,0.514481 1.036652,-0.388748 2.057892,-0.514465c2.105316,-0.259171 3.918869,-1.504257 4.115753,-1.028946c0.556854,1.344376 -2.45726,1.696182 -5.144699,3.601288c-3.959518,2.806885 -6.989471,4.41713 -7.717041,5.144699c-0.363785,0.363785 0.470459,0.423126 3.601288,-1.028946c3.554398,-1.648529 8.945023,-4.073364 10.289383,-4.630219c0.475311,-0.196884 0,0 0,0c-1.543411,0 -3.757935,1.301987 -5.659164,0.514465c-0.67218,-0.278427 -1.668945,-2.4319 0.514481,-7.202576c2.441132,-5.333755 7.833893,-10.493347 13.890671,-13.37619c2.937958,-1.398392 5.033463,-1.841782 6.688095,-0.514481c1.794708,1.439651 1.604477,4.128723 1.028946,6.68811c-0.465378,2.069534 -2.073654,3.041702 -3.601288,3.601288c-2.601471,0.952942 -4.154922,1.225815 -4.630234,1.028931c-0.67218,-0.278427 -1.299484,-1.151642 -0.514465,-3.601288c1.350601,-4.214508 4.74823,-4.80101 6.68811,-5.659164c1.696365,-0.750427 2.057877,-1.028931 3.086807,-1.028931c1.028946,0 1.383545,0.555756 1.028946,2.057877c-0.792923,3.358841 -3.692337,5.761642 -7.202576,7.717041c-5.685028,3.16687 -9.774918,2.572342 -11.318329,2.572342c-0.514465,0 0,-1.028931 1.028946,-1.028931c1.028931,0 2.057877,0 2.057877,0c0,0.514465 -0.665146,0.665131 -1.028946,1.028931c-0.363785,0.363785 -0.834717,0.701157 -1.028931,0c-0.566223,-2.044235 2.316956,-5.984848 6.17363,-8.745972c2.252686,-1.612778 5.262177,-2.134033 6.688095,-1.543411c0.672195,0.278427 1.543411,2.057877 1.543411,3.086807c0,1.028946 -1.028931,2.057892 -2.057877,2.057892c-1.028931,0 -3.134613,0.082794 -3.086823,-1.543411c0.081375,-2.769318 3.601288,-4.630234 4.630234,-5.144699c1.028931,-0.514465 2.750458,-0.666 3.601288,0.514465c0.672653,0.933243 1.422684,2.650681 1.028931,3.601288c-0.278427,0.67218 -1.584702,0.869064 -3.086807,0.514465c-2.239227,-0.52861 -4.115753,-4.115753 -4.115753,-5.659149c0,-2.057892 0.514465,-4.630234 1.543396,-5.659164c0.514481,-0.514481 2.07164,-0.63269 2.572357,-0.514481c1.119614,0.264313 2.057877,1.543411 2.057877,2.572357c0,1.028931 -2.057877,2.057877 -4.115753,2.057877c-3.086823,0 -7.46199,-0.532745 -9.774918,-2.057877c-3.037033,-2.002609 -3.816788,-4.331253 -4.630234,-5.144699c-0.813446,-0.813446 -1.028931,-2.057877 -1.028931,-2.057877c0.514465,0 2.057877,-0.514465 4.115753,-0.514465c3.086807,0 7.259827,0.331848 10.803848,1.543396c2.621567,0.896194 6.340164,2.3255 7.202576,3.086823c1.390625,1.227615 1.543411,2.057877 1.543411,2.572342c0,1.028946 -0.282516,2.034821 -2.057877,2.572357c-0.984802,0.298172 -3.792679,-0.198135 -5.659164,-1.543411c-1.770706,-1.276245 -4.115768,-3.601288 -4.630234,-4.630219c-1.028946,-2.057877 -1.899704,-3.696991 -2.572342,-4.630234c-0.425415,-0.590225 -1.264969,-0.871216 -1.543411,-1.543411c-0.196884,-0.475311 0,-0.514465 -0.514465,-1.028931c0,0 0,-0.514465 -0.514465,-0.514465c-0.514465,0 2.097443,0.890762 4.115753,1.543396c2.636108,0.852402 3.683228,0.828629 5.144699,1.543411c1.666321,0.814972 2.139816,1.343109 3.601273,2.057877c1.666336,0.814972 2.668045,1.385239 3.601288,2.057877c1.770706,1.27626 2.613663,2.766006 4.630234,3.601288c1.425919,0.590637 2.99614,1.279114 4.115753,1.543411c0.500702,0.118195 2.661392,1.467651 3.086807,2.057877c0.672653,0.933258 1.798706,2.524902 2.057877,4.630219c0.251434,2.042465 0.121445,4.508789 -1.028931,5.659164c-1.150391,1.150391 -5.144699,2.572357 -7.717041,3.086823c-2.572342,0.514465 -6.264679,1.365814 -8.745987,0.514465c-2.176239,-0.746674 -4.623489,-2.961853 -5.144684,-6.17363c-0.412033,-2.539124 -0.147079,-5.253601 1.028931,-6.688095c0.922546,-1.125336 1.543411,-2.057892 3.086823,-2.057892c1.543411,0 2.650024,0.223602 3.601288,1.543411c0.300827,0.417374 0.104431,1.160904 -0.514465,1.543411c-1.383926,0.855301 -3.82959,1.446304 -7.717041,0c-3.477051,-1.293625 -6.665421,-2.914154 -9.774918,-5.659164c-1.928436,-1.702393 -3.767807,-3.354416 -4.630234,-4.115753c-1.39061,-1.2276 -1.779449,-1.900162 -2.057877,-2.572342c-0.196884,-0.475311 0,-1.028946 0,-1.543411c0,0 -0.869064,-0.04129 -0.514465,-1.543411c0.264297,-1.119598 1.137833,-0.881851 2.572342,-2.057877c0.562653,-0.461273 1.543411,-0.514465 2.057877,-0.514465c1.028946,0 2.1241,-0.44725 3.601288,0c1.77536,0.537537 2.467896,1.160904 3.086823,1.543411c1.383911,0.855301 1.694092,0.665146 2.057877,1.028931c0.363785,0.363785 -0.066223,0.961716 -1.543411,0.514465c-1.77536,-0.537537 -3.086823,-1.543396 -4.115753,-2.572342c-0.514465,-0.514465 -0.227386,-0.474518 2.572342,1.543411c2.360931,1.701675 4.75235,3.466309 8.745987,7.202576c2.656525,2.485306 4.931824,5.814911 8.745972,10.803848c2.440445,3.192123 4.578918,5.823441 7.202576,9.774918c0.636337,0.958374 1.543411,2.572342 2.057877,2.057877c0.514465,-0.514465 -1.148682,-0.377228 -4.115753,-3.086807c-2.686279,-2.453156 -5.94162,-5.45668 -7.717041,-8.231522c-0.619995,-0.969009 -1.619583,-2.175354 -1.028946,-3.601273c0.278442,-0.672195 1.035583,-1.111359 1.543411,-1.028946c1.605896,0.260605 1.334518,2.317337 2.572342,4.630219c0.343323,0.641495 0.514481,1.028946 1.028946,1.028946c0,0 -0.3638,-0.665146 0,-1.028946c0.363785,-0.363785 0.938263,-0.250168 2.057877,-0.514465c1.001404,-0.236404 2.989807,0.58374 4.115753,2.057877c0.987518,1.292908 1.939682,3.100586 2.057877,3.601288c0.264297,1.119614 1.028946,1.028946 1.028946,2.057877c0,0.514465 -1.0681,1.22583 -1.543411,1.028946c-1.344376,-0.556854 -2.118027,-2.55571 -3.086823,-6.173645c-0.548676,-2.049026 -0.908218,-2.650665 -0.514465,-3.601273c0.278427,-0.672195 1.042236,-0.679306 2.057877,-0.514481c1.605896,0.260605 2.838348,1.81691 5.144699,4.630234c1.17601,1.434509 1.543411,2.572342 2.572342,3.601288c0,0 -0.973206,1.181824 -9.260452,4.115753c-3.06723,1.085892 -6.656174,1.799759 -9.774918,2.057877c-1.025421,0.084869 -1.028931,0 -1.028931,-0.514481c0,-0.514465 1.005157,-0.62117 3.086807,-1.028931c3.570007,-0.69931 5.054016,-0.764633 6.17363,-1.028946c1.001419,-0.236404 -1.01564,0.071579 -3.601273,0.514481c-3.585632,0.614197 -12.369919,2.318497 -19.549835,3.086807c-7.234406,0.774139 -13.890686,1.543411 -14.919617,1.543411c-0.514465,0 0.01091,-0.365051 1.028931,-0.514465c5.314285,-0.779968 9.774918,-2.057877 13.376205,-2.057877c4.630234,0 6.68811,0 8.231522,0c0,0 0.514465,0 0.514465,0c-0.514465,1.028931 -3.614212,2.013687 -7.202576,3.086807c-8.262512,2.470963 -11.992279,2.745987 -13.376205,3.601288c-0.618896,0.382507 1.543411,1.543411 5.659164,1.543411c3.601288,0 6.68811,0 10.289383,0c1.543411,0 3.086823,0.514465 3.086823,0c0,-1.028946 -3.604477,-0.642609 -6.17363,-0.514465c-5.16394,0.257553 -6.17363,0.514465 -6.68811,0.514465c0,0 0.529404,-0.214066 2.057877,0c3.709198,0.519501 5.627243,1.799759 8.745987,2.057877c0.512711,0.042435 -0.485489,0.096893 -2.057877,0.514465c-2.5354,0.673309 -7.178558,1.80014 -11.318329,2.057877c-5.13475,0.319672 -8.246918,0.251434 -10.289383,0c-2.105324,-0.259171 -3.482628,-1.184921 -4.115761,-1.543396c-1.845879,-1.04512 -3.073044,-0.910751 -2.572342,-1.028946c1.119621,-0.264297 1.832199,2.519562 4.630219,3.601288c2.4468,0.945953 5.89521,1.385696 6.173637,2.057877c0.196884,0.475311 -1.043961,0.210297 -4.115753,0.514465c-2.610527,0.258484 -6.14962,0.77121 -10.289391,1.028946c-2.567375,0.159836 -4.115753,0 -5.659164,0c-0.514465,0 -1.556702,0.164825 -2.57235,0c-1.605888,-0.260605 -2.057877,-0.514481 -2.057877,-0.514481c-1.543404,-0.514465 -2.07164,-0.396271 -2.572342,-0.514465c-1.119614,-0.264297 -1.179626,-0.665146 -1.543411,-1.028931c-0.363785,-0.363785 -1.179626,0.363785 -1.543411,0c-0.363792,-0.3638 -0.150681,-0.665161 -0.514465,-1.028946c-1.091354,-1.091354 -1.787407,-0.076828 -2.057877,-0.514465c-0.604797,-0.978577 -1.543411,-0.514465 -2.057877,-0.514465c-0.514473,0 -0.938263,-0.764648 -2.057877,-1.028946c-0.50071,-0.118195 -2.057884,-0.514465 -2.057884,-0.514465c-0.514465,-0.514465 -1.124634,-0.356293 -2.057877,-1.028946c-0.590225,-0.425415 -1.543404,-0.514465 -2.057877,-0.514465c0,0 -0.438705,-0.603516 -1.028938,-1.028931c-0.93325,-0.672653 -1.028938,-1.028946 -1.028938,-1.028946c-0.514465,0 -1.467636,-0.603516 -2.057877,-1.028946c-0.933243,-0.672638 -1.694092,-0.665146 -2.057877,-1.028931c-0.727577,-0.72757 0,-2.057877 0,-2.572342c0,-1.028946 -0.485519,-1.665161 0,-2.572357c0.875267,-1.635452 5.578613,-3.943192 9.260445,-4.630219c5.586082,-1.042358 15.434082,-0.514465 21.607719,-0.514465c5.144691,0 11.318321,0 14.405144,0c2.057877,0 4.630219,0 6.17363,0l0,0l0.514465,0l0.514465,0" id="svg_6" fill-opacity="null" stroke-opacity="null" stroke-width="8" stroke="#000" fill="none"/>
  <path d="m155.009628,199.118958c0.514465,0 2.822021,0.437897 5.144699,1.543411c1.915314,0.911636 6.33313,0.68808 7.717041,1.543396c0.618912,0.382507 1.907181,0.665161 1.543396,1.028946c-0.363785,0.363785 -0.921021,0.509445 -4.630219,1.028931c-2.037979,0.285431 -4.083832,0.770828 -7.202576,1.028946c-1.538132,0.127304 -1.860992,0.475311 -2.057877,0c-0.556854,-1.344376 2.572357,-2.057877 4.630234,-2.057877c1.028931,0 1.515884,-0.236404 0.514465,0c-1.119614,0.264297 -3.67897,0.738083 -4.630219,2.057877c-0.300812,0.417358 0.005615,0.541794 2.572342,0c4.6409,-0.97963 8.542679,-2.503296 14.919617,-5.144699c3.006104,-1.245163 5.057526,-2.378143 5.659164,-1.543411c0.951263,1.319809 -2.689301,2.4617 -4.630234,4.630234c-2.196976,2.454605 -4.380051,2.99614 -4.115753,4.115753c0.118195,0.500702 1.557175,-0.910751 2.057877,-1.028946c3.358841,-0.792908 4.789703,-2.745972 6.17363,-3.601273c2.475632,-1.530014 2.293915,-1.900162 2.572357,-2.572357c0.196884,-0.475311 0.665146,-0.150681 1.028931,-0.514465c0.363785,-0.363785 0.150665,-0.665146 0.514465,-1.028946c0.3638,-0.3638 0.832062,-0.039154 1.028946,-0.514465c0.278427,-0.67218 0.514465,-1.028931 0.514465,-1.028931c0,-0.514481 0.483734,-1.368271 0,-1.543411c-3.778122,-1.367874 -3.971176,4.275345 -5.659164,5.659164c-1.434509,1.17601 -3.137177,1.967545 -4.115753,2.572342c-2.188171,1.352356 -3.195694,2.425278 -4.630219,3.601288c-0.562668,0.461273 -1.467651,1.117996 -2.057877,1.543411c-0.933243,0.672638 -1.550049,0.432053 -2.057877,0.514465c-1.605896,0.260605 -2.085403,0.278061 -3.086823,0.514465c-1.119614,0.264313 -1.570938,0.792542 -2.572342,1.028946c-1.119614,0.264297 -1.543411,0.514465 -2.057877,0.514465c-1.543411,0 -2.057877,0 -2.572357,0c-1.543396,0 -2.572342,0 -3.086807,0c-1.028946,0 -1.543411,0 -2.572357,0c-1.543396,0 -2.057877,0 -3.601273,0c-0.514481,0 -2.572357,0 -4.630234,0c-0.514465,0 -2.572342,-0.514465 -2.572342,0c0,0.514465 2.624084,-0.199493 6.688095,-1.028931c3.669754,-0.748962 7.051056,-2.750458 8.231522,-3.601288c1.866486,-1.345291 3.761154,-2.333084 4.630219,-3.086823c1.22905,-1.065948 2.99649,-0.564819 3.601288,-1.543411c0.540939,-0.875259 0,-0.514465 0,0.514481c0,0.514465 0.062943,1.577347 -0.514465,2.572342c-0.931046,1.60437 -1.385239,2.153564 -2.057892,3.086823c-0.85083,1.180466 -1.227966,2.529953 -2.572342,3.086807c-0.475311,0.196869 -0.665146,0.150681 -1.028931,0.514465c-0.72757,0.72757 -1.582565,0.317612 -2.057877,0.514481c-0.672195,0.278427 -1.543411,0.514465 -2.057892,1.028931c0,0 -0.514465,0 -1.543396,0c-0.514481,0 -0.514481,0 -1.543411,0c-0.514465,0 -0.953186,0.08905 -1.543411,0.514465c-0.933243,0.672653 -1.543411,0.514481 -2.057877,0.514481c-1.543411,0 -2.07164,-0.118195 -2.572342,0c-1.119614,0.264297 -1.452744,0.764633 -2.572357,1.028931c-0.500702,0.118195 -1.028931,0 -2.572342,0c0,0 -1.028931,0 -1.543411,0c-0.514465,0 -0.514465,0 -1.543411,0c-1.028931,0 -1.028931,0 -1.543396,0c-0.514481,0 -1.028946,0 -1.543411,0c-1.028946,0 -1.543411,0 -2.057877,0c-1.028946,0 -2.057877,0 -2.057877,0c-1.028946,0 -1.543411,0.514465 -2.057884,0.514465c0,0 -0.464104,0.938629 0.514473,1.543411c0.43763,0.270462 1.028938,0 1.543411,0c0.514465,0 1.028931,0.514481 1.543411,0.514481c0.514465,0 0.514465,0 1.028931,0c0.514465,0 1.028946,0 1.543411,0c0,0 0.514465,0 1.028931,0c0.514481,0 1.028946,0 1.543411,0c0.514465,0 1.028946,-0.514481 1.543411,-0.514481c0.514465,0 1.467651,-0.08905 2.057877,-0.514465c0.933243,-0.672638 2.085403,-0.792542 3.086823,-1.028946c1.119598,-0.264297 1.563324,-0.267242 3.086807,-0.514465c1.605896,-0.260605 2.098221,-0.920822 3.601288,-1.543411c1.06282,-0.440231 2.073654,-0.98381 3.601288,-1.543396c2.601456,-0.952942 3.601288,-1.543411 5.659164,-3.086823c2.057877,-1.543411 3.601288,-2.057877 5.144699,-3.086823c1.543396,-1.028931 2.024002,-2.132111 3.086807,-2.572342c1.503052,-0.622589 2.522354,-0.629807 3.601288,-1.028931c1.989456,-0.735947 3.086823,-0.514481 4.115753,-0.514481c1.543411,0 2.057877,0 2.057877,0l0.514465,0" id="svg_7" fill-opacity="null" stroke-opacity="null" stroke-width="8" stroke="#000" fill="none"/>
 </g>
</svg>