<?xml version="1.0" encoding="UTF-8"?>
<!DOCTYPE svg PUBLIC "-//W3C//DTD SVG 1.1//EN" "http://www.w3.org/Graphics/SVG/1.1/DTD/svg11.dtd">
<svg xmlns="http://www.w3.org/2000/svg" version="1.1" width="712px" height="200px" style="shape-rendering:geometricPrecision; text-rendering:geometricPrecision; image-rendering:optimizeQuality; fill-rule:evenodd; clip-rule:evenodd" xmlns:xlink="http://www.w3.org/1999/xlink">
<g><path style="opacity:1" fill="#992535" d="M 496.5,35.5 C 495.167,36.1667 493.833,36.8333 492.5,37.5C 478.881,38.9471 465.214,39.7804 451.5,40C 452.044,40.7172 452.711,41.2172 453.5,41.5C 458.373,43.8592 462.873,46.8592 467,50.5C 467.773,52.3524 467.273,53.6857 465.5,54.5C 464.094,54.9731 463.427,55.9731 463.5,57.5C 463.5,58.1667 463.167,58.5 462.5,58.5C 461.167,58.1667 459.833,57.8333 458.5,57.5C 457.738,55.7376 456.404,54.7376 454.5,54.5C 454.027,53.0937 453.027,52.427 451.5,52.5C 450.341,50.7497 448.674,49.7497 446.5,49.5C 445.508,49.6716 444.842,49.3382 444.5,48.5C 443.211,47.3634 442.211,46.0301 441.5,44.5C 441.557,43.391 441.89,42.391 442.5,41.5C 443.043,41.44 443.376,41.1067 443.5,40.5C 439.667,40.1667 435.833,39.8333 432,39.5C 425.106,40.0994 418.273,40.0994 411.5,39.5C 409.992,37.8185 408.992,35.8185 408.5,33.5C 413.305,32.5128 418.305,32.1795 423.5,32.5C 440.002,31.9179 457.002,31.0845 474.5,30C 481.616,29.4094 488.616,28.2427 495.5,26.5C 495.704,29.5176 496.037,32.5176 496.5,35.5 Z"/></g>
<g><path style="opacity:0.125" fill="#ead7db" d="M 423.5,32.5 C 418.305,32.1795 413.305,32.5128 408.5,33.5C 407.957,33.44 407.624,33.1067 407.5,32.5C 412.986,31.1853 418.32,31.1853 423.5,32.5 Z"/></g>
<g><path style="opacity:0.608" fill="#c58792" d="M 591.5,31.5 C 590.041,31.4326 588.708,31.7659 587.5,32.5C 587.62,31.4138 588.287,30.7472 589.5,30.5C 590.416,30.5427 591.083,30.8761 591.5,31.5 Z"/></g>
<g><path style="opacity:1" fill="#972132" d="M 591.5,31.5 C 594.545,31.5079 597.545,31.8413 600.5,32.5C 599.352,39.5919 597.352,46.4253 594.5,53C 613.83,53.5 633.164,53.6666 652.5,53.5C 654.5,53.5 656.5,53.5 658.5,53.5C 658.5,56.5 658.5,59.5 658.5,62.5C 635.475,61.8438 612.809,62.5105 590.5,64.5C 588.95,69.9303 586.616,74.9303 583.5,79.5C 582.957,79.56 582.624,79.8933 582.5,80.5C 600.996,81.1667 619.329,81.8333 637.5,82.5C 635.987,89.3869 633.32,95.7203 629.5,101.5C 627.75,102.659 626.75,104.326 626.5,106.5C 626.573,108.027 625.906,109.027 624.5,109.5C 623.094,109.973 622.427,110.973 622.5,112.5C 622.5,113.167 622.167,113.5 621.5,113.5C 620.094,113.973 619.427,114.973 619.5,116.5C 619.167,117.5 618.5,118.167 617.5,118.5C 615.871,119.625 614.371,120.959 613,122.5C 612.308,123.437 612.475,124.103 613.5,124.5C 627.38,134.891 642.713,141.557 659.5,144.5C 658.094,144.973 657.427,145.973 657.5,147.5C 657.029,149.579 656.363,151.579 655.5,153.5C 643.125,152.042 631.459,148.375 620.5,142.5C 620.027,141.094 619.027,140.427 617.5,140.5C 617.027,139.094 616.027,138.427 614.5,138.5C 613.089,136.086 611.089,134.419 608.5,133.5C 607.625,131.194 606.292,130.527 604.5,131.5C 604.5,132.167 604.167,132.5 603.5,132.5C 601.596,132.738 600.262,133.738 599.5,135.5C 597.596,135.738 596.262,136.738 595.5,138.5C 593.326,138.75 591.659,139.75 590.5,141.5C 584.855,143.988 579.188,146.488 573.5,149C 567.411,151.606 561.078,153.106 554.5,153.5C 554.741,150.966 553.741,149.3 551.5,148.5C 551.489,146.983 550.823,145.816 549.5,145C 550.056,144.617 550.389,144.117 550.5,143.5C 553.482,143.037 556.482,142.704 559.5,142.5C 562.228,142.829 564.562,142.163 566.5,140.5C 578.039,136.732 588.372,130.899 597.5,123C 596.619,122.292 595.953,121.458 595.5,120.5C 595.573,118.973 594.906,117.973 593.5,117.5C 592.833,117.5 592.5,117.167 592.5,116.5C 592.573,114.973 591.906,113.973 590.5,113.5C 590.573,111.973 589.906,110.973 588.5,110.5C 588.573,108.973 587.906,107.973 586.5,107.5C 582.793,102.753 580.126,97.4193 578.5,91.5C 577.377,90.2426 576.711,90.5759 576.5,92.5C 575.094,92.9731 574.427,93.9731 574.5,95.5C 573.66,97.8525 572.326,99.8525 570.5,101.5C 569.094,101.973 568.427,102.973 568.5,104.5C 568.5,105.167 568.167,105.5 567.5,105.5C 566.094,105.973 565.427,106.973 565.5,108.5C 565.5,109.167 565.167,109.5 564.5,109.5C 562.413,110.585 561.08,112.251 560.5,114.5C 560.167,115.5 559.5,116.167 558.5,116.5C 554.167,120.167 550.167,124.167 546.5,128.5C 546.167,129.5 545.5,130.167 544.5,130.5C 543.167,130.833 541.833,131.167 540.5,131.5C 540.167,129.167 538.833,127.833 536.5,127.5C 535.211,126.363 534.211,125.03 533.5,123.5C 554.185,108.151 569.185,88.4844 578.5,64.5C 579.404,63.791 579.737,62.791 579.5,61.5C 566.478,61.2886 553.478,61.6219 540.5,62.5C 540.5,59.1667 540.5,55.8333 540.5,52.5C 554.148,53.5517 567.815,53.7184 581.5,53C 584.042,46.3353 586.042,39.502 587.5,32.5C 588.708,31.7659 590.041,31.4326 591.5,31.5 Z M 588.5,90.5 C 600.012,90.1719 611.346,90.5052 622.5,91.5C 618.055,100.783 612.221,109.116 605,116.5C 598.24,108.651 592.74,99.984 588.5,90.5 Z"/></g>
<g><path style="opacity:0.482" fill="#c47e89" d="M 496.5,35.5 C 497.5,35.8333 498.167,36.5 498.5,37.5C 497.041,37.4326 495.708,37.7659 494.5,38.5C 494.158,37.6618 493.492,37.3284 492.5,37.5C 493.833,36.8333 495.167,36.1667 496.5,35.5 Z"/></g>
<g><path style="opacity:1" fill="#972132" d="M 498.5,37.5 C 499.983,39.0938 501.483,40.7605 503,42.5C 503.74,43.7494 503.573,44.7494 502.5,45.5C 500.251,46.0798 498.585,47.4131 497.5,49.5C 497.5,50.1667 497.167,50.5 496.5,50.5C 494.251,51.0798 492.585,52.4131 491.5,54.5C 489.596,54.7376 488.262,55.7376 487.5,57.5C 487.5,58.1667 487.167,58.5 486.5,58.5C 484.596,58.7376 483.262,59.7376 482.5,61.5C 482.5,62.1667 482.833,62.5 483.5,62.5C 483.833,62.5 484.167,62.5 484.5,62.5C 486.405,62.4072 488.238,62.0738 490,61.5C 491.397,62.2259 492.231,63.3925 492.5,65C 491.536,81.4755 491.203,97.9755 491.5,114.5C 491.5,115.833 491.5,117.167 491.5,118.5C 484.167,118.5 476.833,118.5 469.5,118.5C 469.175,126.019 469.508,133.352 470.5,140.5C 471.11,141.391 471.443,142.391 471.5,143.5C 476.456,144.828 481.789,145.495 487.5,145.5C 493.011,145.499 498.344,145.166 503.5,144.5C 504.79,143.942 505.623,142.942 506,141.5C 507.181,136.44 508.515,131.44 510,126.5C 512.587,128.196 515.421,129.196 518.5,129.5C 517.411,137.2 515.411,144.533 512.5,151.5C 497.519,152.8 482.519,152.8 467.5,151.5C 466.5,149.833 465.167,148.5 463.5,147.5C 462.207,146.158 461.374,144.491 461,142.5C 460.5,135.174 460.334,127.841 460.5,120.5C 456.03,119.514 451.363,119.181 446.5,119.5C 446.5,122.833 446.5,126.167 446.5,129.5C 446.598,131.553 445.931,133.22 444.5,134.5C 442.738,135.262 441.738,136.596 441.5,138.5C 439.251,139.08 437.585,140.413 436.5,142.5C 434.326,142.75 432.659,143.75 431.5,145.5C 430.486,146.674 429.153,147.34 427.5,147.5C 419.814,150.256 411.98,152.589 404,154.5C 402.989,153.944 402.156,153.278 401.5,152.5C 400.599,151.71 399.932,150.71 399.5,149.5C 398.4,148.395 397.733,147.062 397.5,145.5C 400.763,144.518 404.097,143.851 407.5,143.5C 415.076,142.53 422.076,140.197 428.5,136.5C 431.725,134.787 434.559,132.454 437,129.5C 437.497,126.854 437.664,124.187 437.5,121.5C 437.5,120.5 437.5,119.5 437.5,118.5C 431.833,118.5 426.167,118.5 420.5,118.5C 420.5,115.833 420.5,113.167 420.5,110.5C 420.5,97.8333 420.5,85.1667 420.5,72.5C 420.253,69.0613 420.586,65.728 421.5,62.5C 422.5,61.1667 423.5,61.1667 424.5,62.5C 424.833,62.5 425.167,62.5 425.5,62.5C 426.167,62.5 426.5,62.1667 426.5,61.5C 426.027,60.0937 425.027,59.427 423.5,59.5C 423.027,58.0937 422.027,57.427 420.5,57.5C 419.341,55.7497 417.674,54.7497 415.5,54.5C 414.594,53.0351 413.261,52.0351 411.5,51.5C 410.614,50.675 410.281,49.675 410.5,48.5C 410.66,46.847 411.326,45.5137 412.5,44.5C 413.467,43.1938 414.801,42.5271 416.5,42.5C 422.974,46.2393 429.307,50.2393 435.5,54.5C 436.776,55.6136 436.776,56.6136 435.5,57.5C 434.094,57.9731 433.427,58.9731 433.5,60.5C 432.537,61.3635 432.537,62.0302 433.5,62.5C 447.521,62.1252 461.521,61.7919 475.5,61.5C 475.5,62.1667 475.833,62.5 476.5,62.5C 477.718,60.6682 477.051,59.6682 474.5,59.5C 474.167,58.5 473.5,57.8333 472.5,57.5C 479.311,50.9328 486.311,44.5995 493.5,38.5C 493.833,38.5 494.167,38.5 494.5,38.5C 495.708,37.7659 497.041,37.4326 498.5,37.5 Z M 482.5,79.5 C 464.833,79.5 447.167,79.5 429.5,79.5C 429.5,76.5 429.5,73.5 429.5,70.5C 447.167,70.5 464.833,70.5 482.5,70.5C 482.5,73.5 482.5,76.5 482.5,79.5 Z M 482.5,86.5 C 482.5,89.5 482.5,92.5 482.5,95.5C 464.833,95.5 447.167,95.5 429.5,95.5C 429.5,92.5 429.5,89.5 429.5,86.5C 447.167,86.5 464.833,86.5 482.5,86.5 Z M 482.5,112.5 C 464.833,112.5 447.167,112.5 429.5,112.5C 429.5,109.5 429.5,106.5 429.5,103.5C 447.167,103.5 464.833,103.5 482.5,103.5C 482.5,106.5 482.5,109.5 482.5,112.5 Z"/></g>
<g><path style="opacity:0.062" fill="#ede8e8" d="M 492.5,37.5 C 493.492,37.3284 494.158,37.6618 494.5,38.5C 494.167,38.5 493.833,38.5 493.5,38.5C 480.057,39.8795 466.724,40.8795 453.5,41.5C 452.711,41.2172 452.044,40.7172 451.5,40C 465.214,39.7804 478.881,38.9471 492.5,37.5 Z"/></g>
<g><path style="opacity:0.929" fill="#aa505c" d="M 96.5,41.5 C 90.8267,40.2484 85.16,40.2484 79.5,41.5C 81.8066,39.9532 84.4733,39.2865 87.5,39.5C 90.8136,39.3425 93.8136,40.0092 96.5,41.5 Z"/></g>
<g><path style="opacity:1" fill="#93162b" d="M 131.5,134.5 C 127.687,135.438 124.021,136.771 120.5,138.5C 120.817,110.456 120.483,82.4558 119.5,54.5C 117.923,50.3779 114.923,48.8779 110.5,50C 109.944,50.3826 109.611,50.8826 109.5,51.5C 107.088,51.6941 106.088,53.0274 106.5,55.5C 105.502,81.6614 105.169,107.995 105.5,134.5C 103.62,134.229 102.287,134.896 101.5,136.5C 99.4176,136.472 97.5843,137.139 96,138.5C 95.8323,110.33 95.3323,82.3303 94.5,54.5C 93.8333,54.5 93.5,54.1667 93.5,53.5C 93.5,52.1667 92.8333,51.5 91.5,51.5C 89.9894,49.5589 87.9894,49.0589 85.5,50C 83.249,50.7475 81.9156,52.2475 81.5,54.5C 81.1866,81.8101 80.1866,108.81 78.5,135.5C 76.079,135.878 73.7457,136.545 71.5,137.5C 70.502,109.338 70.1687,81.0049 70.5,52.5C 71.662,47.3373 74.662,43.6706 79.5,41.5C 85.16,40.2484 90.8267,40.2484 96.5,41.5C 98.0443,41.7031 99.3777,42.3698 100.5,43.5C 107.882,38.8573 115.548,38.3573 123.5,42C 126.04,44.2047 128.207,46.7047 130,49.5C 131.467,77.7828 131.967,106.116 131.5,134.5 Z"/></g>
<g><path style="opacity:0.059" fill="#e8d8db" d="M 411.5,39.5 C 418.273,40.0994 425.106,40.0994 432,39.5C 435.833,39.8333 439.667,40.1667 443.5,40.5C 443.376,41.1067 443.043,41.44 442.5,41.5C 440.866,40.8389 439.033,40.5056 437,40.5C 429.991,40.9292 423.158,41.5959 416.5,42.5C 414.801,42.5271 413.467,43.1938 412.5,44.5C 412.634,42.7085 412.301,41.0418 411.5,39.5 Z"/></g>
<g><path style="opacity:1" fill="#94192d" d="M 327.5,41.5 C 328.833,41.5 330.167,41.5 331.5,41.5C 331.169,66.0057 331.502,90.3391 332.5,114.5C 333.968,122.463 338.801,126.797 347,127.5C 349.154,126.726 351.321,126.059 353.5,125.5C 356.167,124.833 357.833,123.167 358.5,120.5C 358.429,113.666 361.762,109.999 368.5,109.5C 370.414,112.684 371.08,116.351 370.5,120.5C 370.448,123.346 369.448,125.68 367.5,127.5C 366.094,127.973 365.427,128.973 365.5,130.5C 364.833,131.833 363.833,132.833 362.5,133.5C 351.833,140.167 341.167,140.167 330.5,133.5C 329.833,132.167 328.833,131.167 327.5,130.5C 324.676,128.2 322.843,125.2 322,121.5C 321.333,95.5 321.333,69.5 322,43.5C 323.725,42.536 325.559,41.8693 327.5,41.5 Z"/></g>
<g><path style="opacity:0.643" fill="#b86273" d="M 332.5,114.5 C 331.502,90.3391 331.169,66.0057 331.5,41.5C 330.167,41.5 328.833,41.5 327.5,41.5C 328.78,40.0687 330.447,39.4021 332.5,39.5C 332.5,64.5 332.5,89.5 332.5,114.5 Z"/></g>
<g><path style="opacity:0.082" fill="#eadde0" d="M 441.5,44.5 C 442.211,46.0301 443.211,47.3634 444.5,48.5C 441.366,48.2934 440.366,46.9601 441.5,44.5 Z"/></g>
<g><path style="opacity:0.031" fill="#eee2e4" d="M 502.5,45.5 C 501.415,47.5869 499.749,48.9202 497.5,49.5C 498.585,47.4131 500.251,46.0798 502.5,45.5 Z"/></g>
<g><path style="opacity:0.031" fill="#efe1e4" d="M 119.5,54.5 C 116.649,51.4344 113.316,50.4344 109.5,51.5C 109.611,50.8826 109.944,50.3826 110.5,50C 114.923,48.8779 117.923,50.3779 119.5,54.5 Z"/></g>
<g><path style="opacity:0.082" fill="#ebdfe1" d="M 446.5,49.5 C 448.674,49.7497 450.341,50.7497 451.5,52.5C 449.326,52.2503 447.659,51.2503 446.5,49.5 Z"/></g>
<g><path style="opacity:0.016" fill="#f0e3e5" d="M 91.5,51.5 C 87.6843,50.4344 84.351,51.4344 81.5,54.5C 81.9156,52.2475 83.249,50.7475 85.5,50C 87.9894,49.0589 89.9894,49.5589 91.5,51.5 Z"/></g>
<g><path style="opacity:0.365" fill="#e6ccd1" d="M 91.5,51.5 C 92.8333,51.5 93.5,52.1667 93.5,53.5C 92.5,53.1667 91.8333,52.5 91.5,51.5 Z"/></g>
<g><path style="opacity:0.016" fill="#ead8db" d="M 410.5,48.5 C 410.281,49.675 410.614,50.675 411.5,51.5C 413.261,52.0351 414.594,53.0351 415.5,54.5C 413.742,54.1231 412.075,53.4565 410.5,52.5C 409.218,51.0416 409.218,49.7082 410.5,48.5 Z"/></g>
<g><path style="opacity:0.031" fill="#f1e7e9" d="M 496.5,50.5 C 495.415,52.5869 493.749,53.9202 491.5,54.5C 492.585,52.4131 494.251,51.0798 496.5,50.5 Z"/></g>
<g><path style="opacity:0.176" fill="#e8ced2" d="M 109.5,51.5 C 108.488,52.8717 107.488,54.205 106.5,55.5C 106.088,53.0274 107.088,51.6941 109.5,51.5 Z"/></g>
<g><path style="opacity:0.082" fill="#eadedf" d="M 451.5,52.5 C 453.027,52.427 454.027,53.0937 454.5,54.5C 452.973,54.573 451.973,53.9063 451.5,52.5 Z"/></g>
<g><path style="opacity:0.067" fill="#ece0e2" d="M 415.5,54.5 C 417.674,54.7497 419.341,55.7497 420.5,57.5C 418.326,57.2503 416.659,56.2503 415.5,54.5 Z"/></g>
<g><path style="opacity:0.212" fill="#ead8db" d="M 454.5,54.5 C 456.404,54.7376 457.738,55.7376 458.5,57.5C 456.596,57.2624 455.262,56.2624 454.5,54.5 Z"/></g>
<g><path style="opacity:0.016" fill="#efdfe1" d="M 465.5,54.5 C 465.573,56.0269 464.906,57.0269 463.5,57.5C 463.427,55.9731 464.094,54.9731 465.5,54.5 Z"/></g>
<g><path style="opacity:0.031" fill="#f0e6e8" d="M 491.5,54.5 C 490.738,56.2624 489.404,57.2624 487.5,57.5C 488.262,55.7376 489.596,54.7376 491.5,54.5 Z"/></g>
<g><path style="opacity:0.502" fill="#cf95a0" d="M 652.5,53.5 C 654.607,52.5318 656.941,52.1984 659.5,52.5C 659.5,55.8333 659.5,59.1667 659.5,62.5C 659.167,62.5 658.833,62.5 658.5,62.5C 658.5,59.5 658.5,56.5 658.5,53.5C 656.5,53.5 654.5,53.5 652.5,53.5 Z"/></g>
<g><path style="opacity:0.82" fill="#a73e52" d="M 70.5,52.5 C 70.1687,81.0049 70.502,109.338 71.5,137.5C 71.5,137.833 71.5,138.167 71.5,138.5C 71.44,139.043 71.1067,139.376 70.5,139.5C 69.1704,110.336 69.1704,81.3361 70.5,52.5 Z"/></g>
<g><path style="opacity:0.294" fill="#deb8c0" d="M 94.5,54.5 C 95.3323,82.3303 95.8323,110.33 96,138.5C 97.5843,137.139 99.4176,136.472 101.5,136.5C 99.5739,138.293 97.2406,139.293 94.5,139.5C 94.5,111.167 94.5,82.8333 94.5,54.5 Z"/></g>
<g><path style="opacity:0.082" fill="#eadedf" d="M 420.5,57.5 C 422.027,57.427 423.027,58.0937 423.5,59.5C 421.973,59.573 420.973,58.9063 420.5,57.5 Z"/></g>
<g><path style="opacity:0.016" fill="#efdfe1" d="M 435.5,57.5 C 435.573,59.0269 434.906,60.0269 433.5,60.5C 433.427,58.9731 434.094,57.9731 435.5,57.5 Z"/></g>
<g><path style="opacity:0.082" fill="#efe5e6" d="M 458.5,57.5 C 459.833,57.8333 461.167,58.1667 462.5,58.5C 462.631,59.2389 462.464,59.9056 462,60.5C 460.482,59.8366 459.315,58.8366 458.5,57.5 Z"/></g>
<g><path style="opacity:0.016" fill="#f2eaeb" d="M 472.5,57.5 C 473.5,57.8333 474.167,58.5 474.5,59.5C 473.167,59.5 472.5,58.8333 472.5,57.5 Z"/></g>
<g><path style="opacity:0.553" fill="#daafb6" d="M 474.5,59.5 C 477.051,59.6682 477.718,60.6682 476.5,62.5C 475.833,62.5 475.5,62.1667 475.5,61.5C 475.167,60.8333 474.833,60.1667 474.5,59.5 Z"/></g>
<g><path style="opacity:0.016" fill="#f3eaec" d="M 486.5,58.5 C 485.4,59.6049 484.733,60.9382 484.5,62.5C 484.167,62.5 483.833,62.5 483.5,62.5C 482.833,62.5 482.5,62.1667 482.5,61.5C 483.262,59.7376 484.596,58.7376 486.5,58.5 Z"/></g>
<g><path style="opacity:0.082" fill="#ebdee0" d="M 423.5,59.5 C 425.027,59.427 426.027,60.0937 426.5,61.5C 425.833,61.5 425.5,61.8333 425.5,62.5C 425.167,62.5 424.833,62.5 424.5,62.5C 424.443,61.391 424.11,60.391 423.5,59.5 Z"/></g>
<g><path style="opacity:0.553" fill="#d29da6" d="M 578.5,64.5 C 565.833,63.8333 553.167,63.1667 540.5,62.5C 553.478,61.6219 566.478,61.2886 579.5,61.5C 579.737,62.791 579.404,63.791 578.5,64.5 Z"/></g>
<g><path style="opacity:0.053" fill="#f1f0f0" d="M 658.5,62.5 C 658.833,62.5 659.167,62.5 659.5,62.5C 636.598,63.1764 613.598,63.8431 590.5,64.5C 612.809,62.5105 635.475,61.8438 658.5,62.5 Z"/></g>
<g><path style="opacity:0.294" fill="#dfb7be" d="M 421.5,62.5 C 420.586,65.728 420.253,69.0613 420.5,72.5C 419.359,69.3601 419.192,66.0267 420,62.5C 420.69,61.2617 421.19,61.2617 421.5,62.5 Z"/></g>
<g><path style="opacity:1" fill="#961f30" d="M 185.5,64.5 C 185.611,65.1174 185.944,65.6174 186.5,66C 188.473,66.4955 190.473,66.6621 192.5,66.5C 204.475,72.3539 209.475,82.0206 207.5,95.5C 196.526,100.319 185.526,105.152 174.5,110C 171.823,110.814 169.823,112.314 168.5,114.5C 172.313,126.836 179.98,130.003 191.5,124C 194.613,120.416 196.613,116.249 197.5,111.5C 200.618,110.441 203.618,109.108 206.5,107.5C 208.873,115.901 207.207,123.234 201.5,129.5C 199.167,131.167 197.167,133.167 195.5,135.5C 185.413,140.006 175.747,139.339 166.5,133.5C 165.833,132.167 164.833,131.167 163.5,130.5C 160.676,128.2 158.843,125.2 158,121.5C 157.193,107.967 157.36,94.4671 158.5,81C 163.355,68.8985 172.355,63.3985 185.5,64.5 Z M 191.5,79.5 C 194.258,82.2599 195.592,85.5933 195.5,89.5C 186.757,92.3746 178.424,96.0413 170.5,100.5C 168.57,96.6273 167.903,92.294 168.5,87.5C 170.088,83.2512 172.755,79.9179 176.5,77.5C 181.69,76.3754 186.69,77.042 191.5,79.5 Z"/></g>
<g><path style="opacity:0.929" fill="#be7078" d="M 185.5,64.5 C 188.152,64.4095 190.485,65.0762 192.5,66.5C 190.473,66.6621 188.473,66.4955 186.5,66C 185.944,65.6174 185.611,65.1174 185.5,64.5 Z"/></g>
<g><path style="opacity:0.914" fill="#ad5a66" d="M 271.5,65.5 C 265.797,65.3748 260.13,65.7081 254.5,66.5C 257.526,64.9814 260.859,64.3148 264.5,64.5C 267.025,64.5034 269.359,64.8367 271.5,65.5 Z"/></g>
<g><path style="opacity:1" fill="#972232" d="M 271.5,65.5 C 280.507,68.3412 286.34,74.3412 289,83.5C 289.5,100.163 289.667,116.83 289.5,133.5C 286.272,134.943 283.272,136.61 280.5,138.5C 280.44,139.043 280.107,139.376 279.5,139.5C 278.501,127.518 278.168,115.518 278.5,103.5C 278.631,102.761 278.464,102.094 278,101.5C 272.865,103.369 268.032,105.702 263.5,108.5C 259.898,108.692 256.898,110.026 254.5,112.5C 248.874,117.82 249.541,122.32 256.5,126C 258.813,126.662 261.146,127.162 263.5,127.5C 266.041,127.15 268.374,127.15 270.5,127.5C 271.73,129.297 272.396,131.297 272.5,133.5C 272.719,134.675 272.386,135.675 271.5,136.5C 270.261,136.942 269.261,137.609 268.5,138.5C 264.167,139.833 259.833,139.833 255.5,138.5C 253.151,136.659 250.485,135.326 247.5,134.5C 246.167,132.5 244.5,130.833 242.5,129.5C 241.21,128.942 240.377,127.942 240,126.5C 236.856,116.181 239.689,108.015 248.5,102C 258.764,98.1997 268.764,93.8664 278.5,89C 277.488,85.488 275.821,82.3213 273.5,79.5C 269.961,75.835 265.628,74.6683 260.5,76C 259.584,76.2784 258.918,76.7784 258.5,77.5C 256.973,77.427 255.973,78.0937 255.5,79.5C 252.494,82.5157 250.827,86.1824 250.5,90.5C 248.973,90.427 247.973,91.0937 247.5,92.5C 244.833,93.1667 242.167,93.8333 239.5,94.5C 238.253,81.6529 243.253,72.3196 254.5,66.5C 260.13,65.7081 265.797,65.3748 271.5,65.5 Z"/></g>
<g><path style="opacity:0.365" fill="#ddb4bb" d="M 482.5,79.5 C 482.5,76.5 482.5,73.5 482.5,70.5C 464.833,70.5 447.167,70.5 429.5,70.5C 429.5,73.5 429.5,76.5 429.5,79.5C 428.518,76.0381 428.185,72.3714 428.5,68.5C 446.833,68.5 465.167,68.5 483.5,68.5C 483.815,72.3714 483.482,76.0381 482.5,79.5 Z M 482.5,79.5 C 464.833,79.5 447.167,79.5 429.5,79.5C 429.5,76.5 429.5,73.5 429.5,70.5C 447.167,70.5 464.833,70.5 482.5,70.5C 482.5,73.5 482.5,76.5 482.5,79.5 Z"/></g>
<g><path style="opacity:0.031" fill="#ede3e5" d="M 191.5,79.5 C 186.69,77.042 181.69,76.3754 176.5,77.5C 176.918,76.7784 177.584,76.2784 178.5,76C 183.628,74.6683 187.961,75.835 191.5,79.5 Z"/></g>
<g><path style="opacity:0.031" fill="#ede3e5" d="M 273.5,79.5 C 268.69,77.042 263.69,76.3754 258.5,77.5C 258.918,76.7784 259.584,76.2784 260.5,76C 265.628,74.6683 269.961,75.835 273.5,79.5 Z"/></g>
<g><path style="opacity:0.016" fill="#f4f0f0" d="M 258.5,77.5 C 258.027,78.9063 257.027,79.573 255.5,79.5C 255.973,78.0937 256.973,77.427 258.5,77.5 Z"/></g>
<g><path style="opacity:0.737" fill="#a45060" d="M 583.5,79.5 C 601.671,80.1667 620.004,80.8333 638.5,81.5C 638.376,82.1067 638.043,82.44 637.5,82.5C 619.329,81.8333 600.996,81.1667 582.5,80.5C 582.624,79.8933 582.957,79.56 583.5,79.5 Z"/></g>
<g><path style="opacity:0.839" fill="#ad4b5d" d="M 428.5,85.5 C 446.659,84.5032 464.992,84.1698 483.5,84.5C 483.817,88.7016 483.483,92.7016 482.5,96.5C 482.5,96.1667 482.5,95.8333 482.5,95.5C 482.5,92.5 482.5,89.5 482.5,86.5C 464.674,85.5032 446.674,85.1699 428.5,85.5 Z"/></g>
<g><path style="opacity:0.643" fill="#b96475" d="M 168.5,87.5 C 167.903,92.294 168.57,96.6273 170.5,100.5C 169.791,101.404 168.791,101.737 167.5,101.5C 167.181,96.6367 167.514,91.97 168.5,87.5 Z"/></g>
<g><path style="opacity:0.553" fill="#c68390" d="M 623.5,89.5 C 611.655,89.1717 599.988,89.5051 588.5,90.5C 587.957,90.44 587.624,90.1067 587.5,89.5C 599.66,88.1755 611.66,88.1755 623.5,89.5 Z"/></g>
<g><path style="opacity:0.051" fill="#f3f1f1" d="M 588.5,90.5 C 599.988,89.5051 611.655,89.1717 623.5,89.5C 623.672,90.4916 623.338,91.1583 622.5,91.5C 611.346,90.5052 600.012,90.1719 588.5,90.5 Z"/></g>
<g><path style="opacity:0.051" fill="#ede0e3" d="M 578.5,91.5 C 577.833,91.8333 577.167,92.1667 576.5,92.5C 576.711,90.5759 577.377,90.2426 578.5,91.5 Z"/></g>
<g><path style="opacity:0.051" fill="#ecdee0" d="M 250.5,90.5 C 250.179,92.0481 249.179,92.7148 247.5,92.5C 247.973,91.0937 248.973,90.427 250.5,90.5 Z"/></g>
<g><path style="opacity:0.016" fill="#efe0e3" d="M 576.5,92.5 C 576.573,94.0269 575.906,95.0269 574.5,95.5C 574.427,93.9731 575.094,92.9731 576.5,92.5 Z"/></g>
<g><path style="opacity:0.016" fill="#eee3e5" d="M 247.5,92.5 C 245.392,94.0591 243.059,95.3924 240.5,96.5C 239.702,96.0431 239.369,95.3764 239.5,94.5C 242.167,93.8333 244.833,93.1667 247.5,92.5 Z"/></g>
<g><path style="opacity:0.263" fill="#e0c6cb" d="M 428.5,85.5 C 446.674,85.1699 464.674,85.5032 482.5,86.5C 464.833,86.5 447.167,86.5 429.5,86.5C 429.5,89.5 429.5,92.5 429.5,95.5C 447.167,95.5 464.833,95.5 482.5,95.5C 482.5,95.8333 482.5,96.1667 482.5,96.5C 464.5,96.5 446.5,96.5 428.5,96.5C 428.5,92.8333 428.5,89.1667 428.5,85.5 Z"/></g>
<g><path style="opacity:0.016" fill="#efdfe1" d="M 570.5,101.5 C 570.573,103.027 569.906,104.027 568.5,104.5C 568.427,102.973 569.094,101.973 570.5,101.5 Z"/></g>
<g><path style="opacity:0.502" fill="#d9adb4" d="M 482.5,112.5 C 482.5,109.5 482.5,106.5 482.5,103.5C 464.833,103.5 447.167,103.5 429.5,103.5C 429.5,106.5 429.5,109.5 429.5,112.5C 428.521,109.375 428.187,106.042 428.5,102.5C 446.833,102.5 465.167,102.5 483.5,102.5C 483.813,106.042 483.479,109.375 482.5,112.5 Z M 482.5,112.5 C 464.833,112.5 447.167,112.5 429.5,112.5C 429.5,109.5 429.5,106.5 429.5,103.5C 447.167,103.5 464.833,103.5 482.5,103.5C 482.5,106.5 482.5,109.5 482.5,112.5 Z"/></g>
<g><path style="opacity:0.176" fill="#e9cfd3" d="M 629.5,101.5 C 629.25,103.674 628.25,105.341 626.5,106.5C 626.75,104.326 627.75,102.659 629.5,101.5 Z"/></g>
<g><path style="opacity:0.082" fill="#ece2e4" d="M 278.5,103.5 C 273.562,105.368 268.562,107.035 263.5,108.5C 268.032,105.702 272.865,103.369 278,101.5C 278.464,102.094 278.631,102.761 278.5,103.5 Z"/></g>
<g><path style="opacity:0.016" fill="#efdfe1" d="M 567.5,105.5 C 567.573,107.027 566.906,108.027 565.5,108.5C 565.427,106.973 566.094,105.973 567.5,105.5 Z"/></g>
<g><path style="opacity:0.082" fill="#ebdfe1" d="M 207.5,95.5 C 206.878,97.335 205.544,98.5017 203.5,99C 191.807,104.181 180.141,109.348 168.5,114.5C 169.823,112.314 171.823,110.814 174.5,110C 185.526,105.152 196.526,100.319 207.5,95.5 Z"/></g>
<g><path style="opacity:0.016" fill="#f0e0e3" d="M 586.5,107.5 C 587.906,107.973 588.573,108.973 588.5,110.5C 587.094,110.027 586.427,109.027 586.5,107.5 Z"/></g>
<g><path style="opacity:0.141" fill="#ead3d7" d="M 106.5,55.5 C 106.833,82.175 106.5,108.842 105.5,135.5C 104.264,136.246 102.93,136.579 101.5,136.5C 102.287,134.896 103.62,134.229 105.5,134.5C 105.169,107.995 105.502,81.6614 106.5,55.5 Z"/></g>
<g><path style="opacity:0.82" fill="#bd6d7a" d="M 368.5,109.5 C 369.209,108.596 370.209,108.263 371.5,108.5C 371.817,112.702 371.483,116.702 370.5,120.5C 371.08,116.351 370.414,112.684 368.5,109.5 Z"/></g>
<g><path style="opacity:0.016" fill="#efdfe1" d="M 624.5,109.5 C 624.573,111.027 623.906,112.027 622.5,112.5C 622.427,110.973 623.094,109.973 624.5,109.5 Z"/></g>
<g><path style="opacity:0.031" fill="#eee6e7" d="M 263.5,108.5 C 260.912,110.592 257.912,111.925 254.5,112.5C 256.898,110.026 259.898,108.692 263.5,108.5 Z"/></g>
<g><path style="opacity:0.016" fill="#efe0e3" d="M 588.5,110.5 C 589.906,110.973 590.573,111.973 590.5,113.5C 589.094,113.027 588.427,112.027 588.5,110.5 Z"/></g>
<g><path style="opacity:0.031" fill="#ead4d8" d="M 564.5,109.5 C 563.92,111.749 562.587,113.415 560.5,114.5C 561.08,112.251 562.413,110.585 564.5,109.5 Z"/></g>
<g><path style="opacity:0.016" fill="#f0e0e3" d="M 590.5,113.5 C 591.906,113.973 592.573,114.973 592.5,116.5C 591.094,116.027 590.427,115.027 590.5,113.5 Z"/></g>
<g><path style="opacity:0.016" fill="#efdfe1" d="M 621.5,113.5 C 621.573,115.027 620.906,116.027 619.5,116.5C 619.427,114.973 620.094,113.973 621.5,113.5 Z"/></g>
<g><path style="opacity:0.553" fill="#c47f8c" d="M 420.5,118.5 C 426.167,118.5 431.833,118.5 437.5,118.5C 437.5,119.5 437.5,120.5 437.5,121.5C 436.833,121.5 436.5,121.167 436.5,120.5C 431.167,119.833 425.833,119.167 420.5,118.5 Z"/></g>
<g><path style="opacity:0.016" fill="#efdfe1" d="M 593.5,117.5 C 594.906,117.973 595.573,118.973 595.5,120.5C 594.094,120.027 593.427,119.027 593.5,117.5 Z"/></g>
<g><path style="opacity:0.051" fill="#efe5e6" d="M 420.5,110.5 C 420.5,113.167 420.5,115.833 420.5,118.5C 425.833,119.167 431.167,119.833 436.5,120.5C 430.833,120.5 425.167,120.5 419.5,120.5C 419.187,116.958 419.521,113.625 420.5,110.5 Z"/></g>
<g><path style="opacity:0.051" fill="#e9d6d9" d="M 460.5,120.5 C 456.167,120.5 451.833,120.5 447.5,120.5C 447.81,123.713 447.477,126.713 446.5,129.5C 446.5,126.167 446.5,122.833 446.5,119.5C 451.363,119.181 456.03,119.514 460.5,120.5 Z"/></g>
<g><path style="opacity:0.051" fill="#f2eeef" d="M 491.5,114.5 C 492.461,116.265 492.795,118.265 492.5,120.5C 485.167,120.5 477.833,120.5 470.5,120.5C 477.5,119.833 484.5,119.167 491.5,118.5C 491.5,117.167 491.5,115.833 491.5,114.5 Z"/></g>
<g><path style="opacity:0.294" fill="#d39ea8" d="M 491.5,118.5 C 484.5,119.167 477.5,119.833 470.5,120.5C 470.5,127.167 470.5,133.833 470.5,140.5C 469.508,133.352 469.175,126.019 469.5,118.5C 476.833,118.5 484.167,118.5 491.5,118.5 Z"/></g>
<g><path style="opacity:0.016" fill="#f3e9eb" d="M 558.5,116.5 C 555.5,121.5 551.5,125.5 546.5,128.5C 550.167,124.167 554.167,120.167 558.5,116.5 Z"/></g>
<g><path style="opacity:0.749" fill="#c37883" d="M 358.5,120.5 C 357.833,123.167 356.167,124.833 353.5,125.5C 354.833,123.5 356.5,121.833 358.5,120.5 Z"/></g>
<g><path style="opacity:0.031" fill="#eedee1" d="M 617.5,118.5 C 616.585,120.754 615.252,122.754 613.5,124.5C 612.475,124.103 612.308,123.437 613,122.5C 614.371,120.959 615.871,119.625 617.5,118.5 Z"/></g>
<g><path style="opacity:0.067" fill="#eee3e5" d="M 533.5,123.5 C 534.211,125.03 535.211,126.363 536.5,127.5C 533.366,127.293 532.366,125.96 533.5,123.5 Z"/></g>
<g><path style="opacity:0.467" fill="#c88993" d="M 270.5,127.5 C 268.374,127.15 266.041,127.15 263.5,127.5C 265.137,126.62 266.97,125.954 269,125.5C 270.03,125.836 270.53,126.503 270.5,127.5 Z"/></g>
<g><path style="opacity:0.365" fill="#e3c6cb" d="M 536.5,127.5 C 538.833,127.833 540.167,129.167 540.5,131.5C 538.833,130.5 537.5,129.167 536.5,127.5 Z"/></g>
<g><path style="opacity:0.031" fill="#e6ccd0" d="M 367.5,127.5 C 367.573,129.027 366.906,130.027 365.5,130.5C 365.427,128.973 366.094,127.973 367.5,127.5 Z"/></g>
<g><path style="opacity:0.016" fill="#f2e6e8" d="M 201.5,129.5 C 200.5,132.5 198.5,134.5 195.5,135.5C 197.167,133.167 199.167,131.167 201.5,129.5 Z"/></g>
<g><path style="opacity:0.016" fill="#eedfe2" d="M 242.5,129.5 C 244.5,130.833 246.167,132.5 247.5,134.5C 244.833,133.833 243.167,132.167 242.5,129.5 Z"/></g>
<g><path style="opacity:0.227" fill="#ecdee1" d="M 604.5,131.5 C 606.292,130.527 607.625,131.194 608.5,133.5C 606.938,133.267 605.605,132.6 604.5,131.5 Z"/></g>
<g><path style="opacity:0.227" fill="#ecdadd" d="M 544.5,130.5 C 543.241,133.526 541.908,133.86 540.5,131.5C 541.833,131.167 543.167,130.833 544.5,130.5 Z"/></g>
<g><path style="opacity:0.082" fill="#f0eaeb" d="M 163.5,130.5 C 164.833,131.167 165.833,132.167 166.5,133.5C 164.5,133.5 163.5,132.5 163.5,130.5 Z"/></g>
<g><path style="opacity:0.082" fill="#f0eaeb" d="M 327.5,130.5 C 328.833,131.167 329.833,132.167 330.5,133.5C 328.5,133.5 327.5,132.5 327.5,130.5 Z"/></g>
<g><path style="opacity:0.031" fill="#f0e6e8" d="M 603.5,132.5 C 602.738,134.262 601.404,135.262 599.5,135.5C 600.262,133.738 601.596,132.738 603.5,132.5 Z"/></g>
<g><path style="opacity:0.031" fill="#ede0e2" d="M 289.5,133.5 C 287.338,136.42 284.338,138.087 280.5,138.5C 283.272,136.61 286.272,134.943 289.5,133.5 Z"/></g>
<g><path style="opacity:0.082" fill="#e9dadd" d="M 247.5,134.5 C 250.485,135.326 253.151,136.659 255.5,138.5C 252.246,138.206 249.579,136.873 247.5,134.5 Z"/></g>
<g><path style="opacity:0.067" fill="#ede5e6" d="M 78.5,135.5 C 76.5739,137.293 74.2406,138.293 71.5,138.5C 71.5,138.167 71.5,137.833 71.5,137.5C 73.7457,136.545 76.079,135.878 78.5,135.5 Z"/></g>
<g><path style="opacity:0.016" fill="#eee2e4" d="M 131.5,134.5 C 128.148,137.371 124.481,138.705 120.5,138.5C 124.021,136.771 127.687,135.438 131.5,134.5 Z"/></g>
<g><path style="opacity:0.082" fill="#e5cfd3" d="M 272.5,133.5 C 273.918,136.934 272.585,138.601 268.5,138.5C 269.261,137.609 270.261,136.942 271.5,136.5C 272.386,135.675 272.719,134.675 272.5,133.5 Z"/></g>
<g><path style="opacity:0.031" fill="#efe0e2" d="M 444.5,134.5 C 444.262,136.404 443.262,137.738 441.5,138.5C 441.738,136.596 442.738,135.262 444.5,134.5 Z"/></g>
<g><path style="opacity:0.031" fill="#efe6e7" d="M 599.5,135.5 C 598.738,137.262 597.404,138.262 595.5,138.5C 596.262,136.738 597.596,135.738 599.5,135.5 Z"/></g>
<g><path style="opacity:0.227" fill="#e3c5c9" d="M 608.5,133.5 C 611.089,134.419 613.089,136.086 614.5,138.5C 611.911,137.581 609.911,135.914 608.5,133.5 Z"/></g>
<g><path style="opacity:0.102" fill="#ece5e6" d="M 166.5,133.5 C 175.747,139.339 185.413,140.006 195.5,135.5C 191.909,138.806 187.575,140.139 182.5,139.5C 176.097,140.037 170.764,138.037 166.5,133.5 Z"/></g>
<g><path style="opacity:0.082" fill="#ede5e6" d="M 330.5,133.5 C 341.167,140.167 351.833,140.167 362.5,133.5C 358.236,138.037 352.903,140.037 346.5,139.5C 340.097,140.037 334.764,138.037 330.5,133.5 Z"/></g>
<g><path style="opacity:0.914" fill="#af5864" d="M 428.5,136.5 C 422.076,140.197 415.076,142.53 407.5,143.5C 414.341,140.997 421.341,138.664 428.5,136.5 Z"/></g>
<g><path style="opacity:0.031" fill="#efe2e4" d="M 441.5,138.5 C 440.415,140.587 438.749,141.92 436.5,142.5C 437.585,140.413 439.251,139.08 441.5,138.5 Z"/></g>
<g><path style="opacity:0.082" fill="#ebe0e2" d="M 595.5,138.5 C 594.341,140.25 592.674,141.25 590.5,141.5C 591.659,139.75 593.326,138.75 595.5,138.5 Z"/></g>
<g><path style="opacity:0.082" fill="#eadee0" d="M 614.5,138.5 C 616.027,138.427 617.027,139.094 617.5,140.5C 615.973,140.573 614.973,139.906 614.5,138.5 Z"/></g>
<g><path style="opacity:0.914" fill="#be757e" d="M 566.5,140.5 C 564.562,142.163 562.228,142.829 559.5,142.5C 561.599,141.388 563.933,140.721 566.5,140.5 Z"/></g>
<g><path style="opacity:0.082" fill="#eadedf" d="M 617.5,140.5 C 619.027,140.427 620.027,141.094 620.5,142.5C 618.973,142.573 617.973,141.906 617.5,140.5 Z"/></g>
<g><path style="opacity:0.067" fill="#ede1e3" d="M 436.5,142.5 C 435.341,144.25 433.674,145.25 431.5,145.5C 432.659,143.75 434.326,142.75 436.5,142.5 Z"/></g>
<g><path style="opacity:0.576" fill="#b46d7b" d="M 471.5,143.5 C 482.085,144.476 492.752,144.809 503.5,144.5C 498.344,145.166 493.011,145.499 487.5,145.5C 481.789,145.495 476.456,144.828 471.5,143.5 Z"/></g>
<g><path style="opacity:0.141" fill="#ebd6da" d="M 550.5,143.5 C 550.389,144.117 550.056,144.617 549.5,145C 550.823,145.816 551.489,146.983 551.5,148.5C 548.303,146.996 547.97,145.33 550.5,143.5 Z"/></g>
<g><path style="opacity:0.016" fill="#efdfe2" d="M 659.5,144.5 C 659.573,146.027 658.906,147.027 657.5,147.5C 657.427,145.973 658.094,144.973 659.5,144.5 Z"/></g>
<g><path style="opacity:0.212" fill="#e7d1d6" d="M 397.5,145.5 C 397.733,147.062 398.4,148.395 399.5,149.5C 396.691,149.042 396.024,147.709 397.5,145.5 Z"/></g>
<g><path style="opacity:0.016" fill="#eedfe2" d="M 463.5,147.5 C 465.167,148.5 466.5,149.833 467.5,151.5C 465.167,151.167 463.833,149.833 463.5,147.5 Z"/></g>
<g><path style="opacity:0.839" fill="#d7a1a8" d="M 551.5,148.5 C 553.741,149.3 554.741,150.966 554.5,153.5C 553.263,152.035 552.263,150.368 551.5,148.5 Z"/></g>
<g><path style="opacity:0.067" fill="#ece4e5" d="M 620.5,142.5 C 631.459,148.375 643.125,152.042 655.5,153.5C 647.365,153.98 639.365,152.48 631.5,149C 627.44,147.311 623.773,145.144 620.5,142.5 Z"/></g>
<g><path style="opacity:0.059" fill="#ede4e5" d="M 427.5,147.5 C 419.877,151.766 411.71,154.766 403,156.5C 401.812,155.437 401.312,154.103 401.5,152.5C 402.156,153.278 402.989,153.944 404,154.5C 411.98,152.589 419.814,150.256 427.5,147.5 Z"/></g>
<g><path style="opacity:0.102" fill="#e7e1e1" d="M 467.5,151.5 C 482.519,152.8 497.519,152.8 512.5,151.5C 512.389,152.117 512.056,152.617 511.5,153C 497.5,153.667 483.5,153.667 469.5,153C 468.584,152.722 467.918,152.222 467.5,151.5 Z"/></g>
<g><path style="opacity:0.059" fill="#ede5e6" d="M 590.5,141.5 C 580.034,148.386 568.534,153.052 556,155.5C 554.97,155.164 554.47,154.497 554.5,153.5C 561.078,153.106 567.411,151.606 573.5,149C 579.188,146.488 584.855,143.988 590.5,141.5 Z"/></g>
</svg>
